<?xml version="1.0" standalone="no"?>
<!DOCTYPE svg PUBLIC "-//W3C//DTD SVG 1.1//EN" "http://www.w3.org/Graphics/SVG/1.1/DTD/svg11.dtd" >
<svg xmlns="http://www.w3.org/2000/svg">
<metadata></metadata>
<defs>
<font id="minimo_regularregular" horiz-adv-x="1056" >
<font-face units-per-em="2048" ascent="1536" descent="-512" />
<missing-glyph horiz-adv-x="614" />
<glyph unicode="&#xfb01;" horiz-adv-x="1173" d="M700 1335l-41 -55q-15 -18 -32 -4q-60 43 -140 43q-66 0 -108.5 -40.5t-42.5 -125.5v-334h229q23 0 23 -22v-86q0 -23 -23 -23h-229v-665q0 -23 -23 -23h-98q-22 0 -22 23v665h-130q-22 0 -22 23v86q0 22 22 22h130v330q0 149 78 226t202 77q131 0 225 -82q17 -17 2 -35z M1014 797v-774q0 -23 -23 -23h-98q-23 0 -23 23v774q0 22 23 22h98q23 0 23 -22zM838 1126q0 43 31 75t75 32q43 0 75 -32t32 -75q0 -44 -32 -75t-75 -31q-44 0 -75 31t-31 75z" />
<glyph unicode="&#xfb02;" horiz-adv-x="1144" d="M700 1335l-41 -55q-15 -18 -32 -4q-60 43 -140 43q-66 0 -108.5 -40.5t-42.5 -125.5v-334h229q23 0 23 -22v-86q0 -23 -23 -23h-229v-665q0 -23 -23 -23h-98q-22 0 -22 23v665h-130q-22 0 -22 23v86q0 22 22 22h130v330q0 149 78 226t202 77q131 0 225 -82q17 -17 2 -35z M1001 1411v-1388q0 -23 -22 -23h-98q-23 0 -23 23v1388q0 23 23 23h98q22 0 22 -23z" />
<glyph horiz-adv-x="0" />
<glyph horiz-adv-x="682" />
<glyph unicode=" "  horiz-adv-x="614" />
<glyph unicode="&#x09;" horiz-adv-x="614" />
<glyph unicode="&#xa0;" horiz-adv-x="614" />
<glyph unicode="!" horiz-adv-x="520" d="M143 102q0 50 33.5 83.5t83.5 33.5q48 0 82.5 -34t34.5 -83q0 -47 -35 -81.5t-82 -34.5q-49 0 -83 34t-34 82zM340 1411l-21 -979q0 -22 -22 -22h-72q-22 0 -22 22l-21 979q0 23 23 23h112q23 0 23 -23z" />
<glyph unicode="&#x22;" horiz-adv-x="616" d="M514 1411l-18 -487q0 -23 -23 -23h-57q-23 0 -23 23l-18 487q0 23 22 23h95q22 0 22 -23zM242 1411l-19 -487q0 -23 -22 -23h-58q-22 0 -22 23l-19 487q0 23 23 23h94q23 0 23 -23z" />
<glyph unicode="#" horiz-adv-x="1218" d="M338 381h-193q-22 0 -22 22v62q0 22 22 22h201l31 441h-193q-22 0 -22 22l-2 60q0 22 22 22h201l27 379q3 23 24 23h62q23 0 20 -23l-27 -379h285l27 379q3 23 24 23h62q23 0 20 -23l-26 -379h192q23 0 23 -22v-60q0 -22 -23 -22h-199l-30 -441h192q23 0 23 -22v-62 q0 -22 -23 -22h-200l-25 -358q-3 -23 -25 -23h-61q-23 0 -20 23l24 358h-285l-24 -358q-3 -23 -25 -23h-61q-24 0 -21 23zM483 928l-30 -441h284l31 441h-285z" />
<glyph unicode="$" horiz-adv-x="1253" d="M682 1606v-146q174 -12 295 -111t145 -257q3 -24 -20 -27l-103 -14q-17 -3 -26 18q-17 101 -97.5 165.5t-193.5 76.5v-516q71 -14 129 -32.5t120 -51t103.5 -74t68.5 -104.5t27 -140q0 -184 -125.5 -296t-322.5 -124v-149q0 -23 -23 -23h-65q-23 0 -23 23v151 q-113 8 -205 49.5t-156 119.5t-83 184q-4 10 1.5 17t16.5 9l109 23q18 3 27 -19q18 -101 97.5 -160t192.5 -73v537q-1 0 -2.5 0.5l-4.5 1.5t-5 2q-69 14 -128 34t-116.5 52.5t-98 72.5t-65 98t-24.5 126q0 98 35 175.5t97.5 126t140.5 76t171 33.5v146q0 22 23 22h65 q23 0 23 -22zM973 416q-6 47 -33 84.5t-70.5 63.5t-87.5 42.5t-100 30.5v-512q122 11 202.5 74.5t90.5 171.5q0 31 -2 45zM283 1051q0 -90 77.5 -144t210.5 -88v494q-128 -13 -208 -79t-80 -183z" />
<glyph unicode="%" horiz-adv-x="1763" d="M463 1448q150 0 245 -92t95 -256t-95 -256t-245 -92t-245 92t-95 256t95 256t245 92zM463 860q107 0 166 64t59 176t-58.5 175.5t-166.5 63.5t-166.5 -63.5t-58.5 -175.5t59 -176t166 -64zM1300 678q150 0 245 -92t95 -256t-95 -256t-245 -92t-244.5 92t-94.5 256 t94.5 256t244.5 92zM1300 90q108 0 167 64t59 176q0 111 -59 175t-167 64t-166.5 -63.5t-58.5 -175.5t59 -176t166 -64zM518 0h-100q-8 0 -12 6t0 12l804 1395q15 21 35 21h101q8 0 11 -7t-1 -14l-805 -1395q-9 -18 -33 -18z" />
<glyph unicode="&#x26;" horiz-adv-x="1505" d="M164 379v45q13 227 291 364q-93 108 -131.5 192t-38.5 163q0 130 98.5 224.5t259.5 94.5q109 0 189.5 -49.5t118 -125.5t34.5 -165q-2 -61 -25.5 -114.5t-67.5 -97.5t-90.5 -77.5t-111.5 -70.5l367 -356q47 124 47 260q0 22 22 22h105q22 0 22 -22q-10 -203 -88 -367 l221 -215q15 -18 0 -33l-75 -71q-18 -18 -33 0l-195 188q-155 -189 -421 -197q-136 0 -246 46.5t-178.5 140.5t-73.5 221zM641 117q213 0 338 151l-426 414q-110 -65 -172 -135.5t-62 -159.5q0 -129 90.5 -199.5t231.5 -70.5zM442 1120q0 -95 150 -258q113 65 173 123.5 t64 136.5q0 79 -47 136t-139 57q-61 0 -103.5 -20t-62 -53t-27.5 -62.5t-8 -59.5z" />
<glyph unicode="'" horiz-adv-x="344" d="M242 1411l-19 -487q0 -23 -22 -23h-58q-22 0 -22 23l-19 487q0 23 23 23h94q23 0 23 -23z" />
<glyph unicode="(" horiz-adv-x="661" d="M625 -326l-58 -57q-17 -17 -32 -2q-194 188 -303 453.5t-109 599.5t109 599t303 451q15 17 32 0l58 -57q13 -16 0 -33q-165 -165 -255.5 -415.5t-90.5 -544.5t90.5 -545t255.5 -416q15 -18 0 -33z" />
<glyph unicode=")" horiz-adv-x="661" d="M94 -383l-57 57q-16 13 0 33q165 165 255.5 416t90.5 545t-90.5 544.5t-255.5 415.5q-15 18 0 33l57 57q18 18 33 0q194 -186 303 -451t109 -599t-109 -599.5t-303 -453.5q-17 -17 -33 2z" />
<glyph unicode="*" horiz-adv-x="884" d="M717 854l-217 113l-13 -244q0 -23 -22 -23h-45q-22 0 -25 23l-10 244l-217 -113q-23 -10 -31 10l-24 39q-9 22 8 33l205 131l-205 131q-17 11 -8 33l24 39q8 20 31 10l217 -115l10 246q3 23 25 23h45q22 0 22 -23l13 -246l217 115q23 10 31 -10l24 -39q9 -22 -8 -33 l-207 -131l207 -131q17 -11 8 -33l-24 -39q-8 -20 -31 -10z" />
<glyph unicode="+" horiz-adv-x="962" d="M797 354h-260v-260q0 -22 -23 -22h-63q-23 0 -23 22v260h-262q-23 0 -23 23v63q0 23 23 23h262v262q0 23 23 23h63q23 0 23 -23v-262h260q22 0 22 -23v-63q0 -23 -22 -23z" />
<glyph unicode="," horiz-adv-x="485" d="M338 166l-88 -399q-3 -23 -27 -23h-57q-24 0 -21 23l41 399q0 22 25 22h108q22 0 19 -22z" />
<glyph unicode="-" horiz-adv-x="903" d="M737 354h-571q-23 0 -23 23v63q0 23 23 23h571q23 0 23 -23v-63q0 -23 -23 -23z" />
<glyph unicode="." horiz-adv-x="520" d="M143 102q0 50 33.5 83.5t83.5 33.5q48 0 82.5 -34t34.5 -83q0 -47 -35 -81.5t-82 -34.5q-49 0 -83 34t-34 82z" />
<glyph unicode="/" horiz-adv-x="802" d="M139 0h-96q-8 0 -13 6.5t-1 13.5l602 1496q6 20 31 20h98q8 0 13 -6.5t1 -13.5l-604 -1496q-6 -20 -31 -20z" />
<glyph unicode="0" horiz-adv-x="1302" d="M651 1462q93 0 171.5 -25.5t145.5 -82.5t113.5 -142.5t72.5 -211t26 -283.5t-26 -283.5t-72.5 -211.5t-113.5 -143t-145.5 -82.5t-171.5 -25.5q-117 0 -211 42t-166 129t-111.5 233t-39.5 342q0 158 26 283.5t72.5 211t113 142.5t145 82.5t171.5 25.5zM651 106 q92 0 162 37.5t111.5 96.5t67.5 142.5t35 163t9 171.5q0 291 -93.5 450.5t-291.5 159.5q-385 0 -385 -610q0 -291 93.5 -451t291.5 -160z" />
<glyph unicode="1" horiz-adv-x="684" d="M541 1411v-1388q0 -23 -23 -23h-102q-23 0 -23 23v1200l-237 -176q-18 -15 -33 4l-47 57q-14 17 2 33l315 278q18 15 39 15h86q23 0 23 -23z" />
<glyph unicode="2" horiz-adv-x="1134" d="M217 1036l-92 11q-11 0 -16.5 7t-4.5 17q24 181 152 286t311 105q199 0 325 -110t126 -289q0 -117 -48 -223t-186 -244l-456 -461h682q22 0 22 -22v-90q0 -23 -22 -23h-865q-22 0 -22 23v90q0 23 16 39l551 550q102 99 142 185.5t40 173.5q0 114 -74.5 190t-230.5 76 q-130 0 -219 -70.5t-106 -199.5q-3 -24 -25 -21z" />
<glyph unicode="3" horiz-adv-x="1214" d="M477 741v82q0 23 23 23h96q123 5 199.5 63t76.5 164q0 123 -79 188.5t-197 65.5q-100 0 -177.5 -50t-101.5 -140q-3 -24 -26 -21l-92 8q-24 3 -21 25q24 146 143.5 229.5t274.5 83.5q85 0 159.5 -24t134 -70.5t94 -122.5t34.5 -172q-1 -90 -45.5 -164t-118.5 -118 q98 -45 168 -143.5t70 -221.5q-4 -211 -142.5 -333t-353.5 -122q-197 0 -332.5 103t-159.5 288q-1 10 4.5 17.5t16.5 9.5l92 12q22 3 25 -18q11 -90 64 -154.5t127.5 -93.5t162.5 -29q93 0 171 35.5t127.5 109.5t49.5 175q0 135 -99.5 211.5t-248.5 81.5h-96q-23 0 -23 22z " />
<glyph unicode="4" horiz-adv-x="1048" d="M801 324v-301q0 -23 -23 -23h-98q-23 0 -23 23v301h-573q-23 0 -23 22v90q0 14 11 43l442 934q9 21 33 21h112q22 0 13 -21l-449 -954h434v231q0 23 23 23h98q23 0 23 -23v-231h164q22 0 22 -23v-90q0 -22 -22 -22h-164z" />
<glyph unicode="5" horiz-adv-x="1189" d="M920 426q0 155 -87.5 231t-222.5 76q-143 0 -254 -76q-20 -14 -41 -8l-69 19q-23 7 -23 28v715q0 23 23 23h735q23 0 23 -23v-90q0 -23 -23 -23h-608v-483q111 57 250 57q90 0 170 -29.5t141.5 -84t97 -140.5t35.5 -192q0 -193 -137 -324t-342 -131q-195 0 -320.5 110.5 t-142.5 295.5q-3 23 20 26l95 17q22 3 22 -19q12 -136 102 -215.5t224 -79.5q144 0 238 87.5t94 232.5z" />
<glyph unicode="6" horiz-adv-x="1206" d="M608 881q210 0 340 -125t135 -330q-5 -193 -136.5 -324t-338.5 -131q-210 0 -344 127t-139 328q0 237 142.5 522.5t338.5 499.5q18 15 35 2l76 -55q19 -16 4 -31q-238 -260 -371 -565q61 43 131.5 62.5t126.5 19.5zM608 745q-144 0 -242 -84.5t-98 -234.5t98 -235 t242 -85q139 0 235.5 88t96.5 232q0 151 -95 235t-237 84z" />
<glyph unicode="7" horiz-adv-x="1017" d="M948 1278l-555 -1258q-6 -20 -31 -20h-104q-8 0 -13 6.5t-1 13.5l553 1278h-713q-23 0 -23 23v90q0 23 23 23h850q22 0 22 -23v-90q0 -24 -8 -43z" />
<glyph unicode="8" horiz-adv-x="1236" d="M618 -29q-215 0 -353 122t-142 333q0 119 71 217.5t164 142.5q-69 39 -114.5 118t-46.5 169q0 125 60 215t153.5 132t207.5 42q84 0 159 -24.5t134.5 -71.5t94 -123t34.5 -170q-1 -90 -46.5 -169t-114.5 -118q93 -44 164 -142.5t71 -217.5q-4 -211 -142.5 -333 t-353.5 -122zM618 106q68 0 129 18.5t112 55.5t81.5 100.5t30.5 145.5q0 137 -101 212.5t-252 80.5q-97 -3 -175 -35t-127.5 -98.5t-49.5 -159.5q0 -66 20 -120t53.5 -90.5t79.5 -62t95.5 -36.5t103.5 -11zM340 1071q0 -110 76.5 -167t201.5 -62q125 5 202 62t77 167 q0 122 -81 189t-198 67t-197.5 -67t-80.5 -189z" />
<glyph unicode="9" horiz-adv-x="1206" d="M598 1460q210 0 344 -126.5t139 -327.5q0 -238 -142.5 -522t-340.5 -500q-16 -16 -33 -2l-76 55q-19 16 -4 31q238 260 371 565q-61 -43 -131.5 -62.5t-126.5 -19.5q-210 0 -340 125t-135 330q5 193 136.5 323.5t338.5 130.5zM598 686q144 0 242 85t98 235t-98 234.5 t-242 84.5q-140 0 -236 -87.5t-96 -231.5q0 -151 95 -235.5t237 -84.5z" />
<glyph unicode=":" horiz-adv-x="520" d="M143 106q0 50 33.5 83.5t83.5 33.5q48 0 82.5 -34t34.5 -83q0 -47 -35 -81.5t-82 -34.5q-49 0 -83 34t-34 82zM143 715q0 49 33.5 82.5t83.5 33.5q48 0 82.5 -33.5t34.5 -82.5q0 -47 -35 -82t-82 -35q-49 0 -83 34.5t-34 82.5z" />
<glyph unicode=";" horiz-adv-x="520" d="M143 715q0 49 33.5 82.5t83.5 33.5q48 0 82.5 -33.5t34.5 -82.5q0 -47 -35 -82t-82 -35q-49 0 -83 34.5t-34 82.5zM342 166l-88 -399q-3 -23 -27 -23h-57q-23 0 -20 23l40 399q0 22 25 22h109q21 0 18 -22z" />
<glyph unicode="&#x3c;" horiz-adv-x="788" d="M647 643l-317 -233l317 -236q19 -13 19 -35v-112q0 -8 -6.5 -11.5t-12.5 0.5l-506 355q-18 12 -18 35v8q0 23 18 35l506 354q6 4 12.5 1t6.5 -11v-113q0 -21 -19 -37z" />
<glyph unicode="=" horiz-adv-x="974" d="M809 561h-643q-23 0 -23 23v75q0 23 23 23h643q22 0 22 -23v-75q0 -23 -22 -23zM809 137h-643q-23 0 -23 23v76q0 22 23 22h643q22 0 22 -22v-76q0 -23 -22 -23z" />
<glyph unicode="&#x3e;" horiz-adv-x="788" d="M459 410l-318 233q-18 15 -18 37v113q0 8 6 11t12 -1l506 -354q19 -13 19 -35v-8q0 -22 -19 -35l-506 -355q-6 -4 -12 -0.5t-6 11.5v112q0 23 18 35z" />
<glyph unicode="?" horiz-adv-x="1130" d="M373 102q0 50 33.5 83.5t82.5 33.5q48 0 82.5 -34t34.5 -83q0 -47 -35 -81.5t-82 -34.5q-49 0 -82.5 34t-33.5 82zM248 1044l-103 17q-23 3 -20 26q25 174 139.5 274.5t302.5 100.5q205 0 328 -110.5t111 -302.5q-2 -37 -13 -79.5t-42 -101.5t-76.5 -111.5t-125 -105 t-180.5 -86.5v-135q0 -22 -22 -22h-111q-22 0 -22 22v199q0 22 22 28q76 24 138 54t103.5 59.5t73.5 63.5t49.5 63t29 60.5t15 52.5t5.5 43q6 126 -70 194t-213 68q-121 0 -199 -70t-96 -182q-3 -22 -24 -19z" />
<glyph unicode="@" horiz-adv-x="2179" d="M1090 1462q203 0 380.5 -71t307 -198.5t204 -313.5t74.5 -406q0 -156 -51.5 -288.5t-150.5 -215.5t-226 -86q-138 -5 -223.5 87t-85.5 247q-40 -62 -111 -91.5t-137 -29.5q-164 0 -267.5 103.5t-103.5 273.5q0 164 110.5 271.5t274.5 107.5q166 0 272.5 -106.5 t106.5 -292.5v-254q0 -99 46 -143.5t118 -39.5q85 5 148 66.5t95 162.5t32 228q0 187 -60.5 344.5t-167.5 266.5t-258 170t-327 61q-184 0 -338 -66.5t-256.5 -181t-159.5 -268t-57 -326.5q0 -315 156 -532.5t415 -307.5q10 -1 13.5 -10t-1.5 -16l-39 -84q-10 -24 -32 -15 q-147 50 -267.5 136t-210.5 205t-140 279t-50 345q0 220 74 406t203.5 313.5t307.5 198.5t382 71zM1085 238q92 0 156 61.5t68 167.5q0 54 -16 97.5t-40 69.5t-55 43t-59 23.5t-54 6.5q-38 0 -74.5 -11t-73 -35.5t-59 -73t-22.5 -114.5q0 -56 16.5 -99.5t41 -68.5t57 -41 t60 -21t54.5 -5z" />
<glyph unicode="A" horiz-adv-x="1550" d="M868 1413l592 -1393q4 -7 -1 -13.5t-13 -6.5h-125q-25 0 -31 20l-131 310h-768l-131 -310q-6 -20 -31 -20h-125q-8 0 -13 6.5t-1 13.5l592 1393q6 21 31 21h125q24 0 30 -21zM776 1241l-321 -762h641z" />
<glyph unicode="B" horiz-adv-x="1298" d="M780 0h-594q-22 0 -22 23v1388q0 23 22 23h594q171 0 283.5 -105t112.5 -291q0 -211 -150 -321q150 -110 150 -322q0 -186 -112.5 -290.5t-283.5 -104.5zM791 643h-472v-496h461q115 0 177.5 66t62.5 182q0 115 -62 179t-167 69zM780 1286h-461v-495h461q114 0 177 67.5 t63 179.5q0 119 -65.5 183.5t-174.5 64.5z" />
<glyph unicode="C" horiz-adv-x="1609" d="M1487 1057l-92 -47q-21 -9 -29 10q-67 141 -200.5 218t-317.5 77q-267 0 -418 -159t-151 -437t151 -437t418 -159q185 0 319.5 76.5t200.5 216.5q8 19 29 10l90 -45q20 -8 10 -31q-85 -180 -257.5 -277.5t-391.5 -97.5q-155 0 -287 49t-230 141t-153 234.5t-55 319.5 t55 319t153 234t230 141t287 49q223 0 393 -96t256 -279q9 -22 -10 -30z" />
<glyph unicode="D" horiz-adv-x="1488" d="M186 1434h484q150 0 276 -46t220 -134t147 -225.5t53 -311.5t-53 -311.5t-147 -225.5t-220 -134t-276 -46h-484q-22 0 -22 23v1388q0 23 22 23zM319 147h351q257 0 398.5 149.5t141.5 420.5q0 274 -143.5 421.5t-396.5 147.5h-351v-1139z" />
<glyph unicode="E" horiz-adv-x="1206" d="M319 791h605q22 0 22 -23v-102q0 -23 -22 -23h-605v-496h742q22 0 22 -22v-102q0 -23 -22 -23h-875q-22 0 -22 23v1388q0 23 22 23h875q22 0 22 -23v-102q0 -23 -22 -23h-742v-495z" />
<glyph unicode="F" horiz-adv-x="1206" d="M319 791h605q22 0 22 -23v-102q0 -23 -22 -23h-605v-620q0 -23 -22 -23h-111q-22 0 -22 23v1388q0 23 22 23h875q22 0 22 -23v-102q0 -23 -22 -23h-742v-495z" />
<glyph unicode="G" horiz-adv-x="1675" d="M848 1462q223 0 393 -96t256 -279q9 -22 -10 -30l-92 -47q-21 -9 -29 10q-67 141 -200.5 218t-317.5 77q-270 0 -419.5 -156.5t-149.5 -439.5t149.5 -439.5t419.5 -156.5q228 0 370 112t183 322h-629q-22 0 -22 23v102q0 23 22 23h778q23 0 23 -23q-6 -171 -63.5 -306.5 t-155 -222.5t-226 -132.5t-280.5 -45.5q-156 0 -287.5 48t-229.5 140t-153 234.5t-55 321.5t55 321.5t153 234t229.5 139.5t287.5 48z" />
<glyph unicode="H" horiz-adv-x="1501" d="M319 1411v-620h863v620q0 23 22 23h111q22 0 22 -23v-1388q0 -23 -22 -23h-111q-22 0 -22 23v620h-863v-620q0 -23 -22 -23h-111q-22 0 -22 23v1388q0 23 22 23h111q22 0 22 -23z" />
<glyph unicode="I" horiz-adv-x="483" d="M319 1411v-1388q0 -23 -22 -23h-111q-22 0 -22 23v1388q0 23 22 23h111q22 0 22 -23z" />
<glyph unicode="J" horiz-adv-x="1255" d="M104 477l101 15q22 3 22 -19q3 -85 29.5 -150.5t64.5 -103t88 -61t92.5 -31.5t86.5 -8q46 0 88 7.5t91.5 32.5t85 64.5t59.5 110.5t24 164v786h-477q-23 0 -23 23v104q0 23 23 23h610q23 0 23 -23v-911q0 -170 -66.5 -290.5t-178.5 -177.5t-259 -57q-216 0 -352.5 123 t-153.5 355q0 24 22 24z" />
<glyph unicode="K" horiz-adv-x="1370" d="M319 1411v-620h332l436 624q13 19 35 19h144q8 0 11 -6.5t-1 -12.5l-496 -698l496 -699q4 -6 1 -12t-11 -6h-144q-23 0 -35 18l-436 625h-332v-620q0 -23 -22 -23h-111q-22 0 -22 23v1388q0 23 22 23h111q22 0 22 -23z" />
<glyph unicode="L" horiz-adv-x="1064" d="M164 23v1388q0 23 22 23h111q22 0 22 -23v-1264h642q22 0 22 -22v-102q0 -23 -22 -23h-775q-22 0 -22 23z" />
<glyph unicode="M" horiz-adv-x="1687" d="M1507 1411v-1388q0 -23 -22 -23h-111q-22 0 -22 23v1157l-506 -658q-4 -4 -10 -4q-7 0 -11 4l-506 658v-1157q0 -23 -22 -23h-111q-22 0 -22 23v1388q0 23 22 23h111q21 0 37 -19l502 -661l501 661q13 19 37 19h111q22 0 22 -23z" />
<glyph unicode="N" horiz-adv-x="1533" d="M164 23v1388q0 23 22 23h111q21 0 37 -19l880 -1159v1155q0 23 23 23h111q22 0 22 -23v-1388q0 -23 -22 -23h-111q-25 0 -37 18l-881 1162v-1157q0 -23 -22 -23h-111q-22 0 -22 23z" />
<glyph unicode="O" horiz-adv-x="1695" d="M848 1462q156 0 287.5 -48.5t229.5 -141t153 -235.5t55 -322t-55 -321.5t-153 -234.5t-229.5 -140t-287.5 -48t-287.5 48t-229.5 140t-153 234.5t-55 321.5t55 322t153 235.5t229.5 141t287.5 48.5zM848 119q270 0 419.5 156.5t149.5 439.5t-149.5 441.5t-419.5 158.5 t-419.5 -158.5t-149.5 -441.5t149.5 -439.5t419.5 -156.5z" />
<glyph unicode="P" horiz-adv-x="1306" d="M164 23v1388q0 23 22 23h500q140 0 251 -54.5t179 -168.5t68 -273q0 -122 -39 -218t-107.5 -156t-158 -91t-193.5 -31h-367v-419q0 -23 -22 -23h-111q-22 0 -22 23zM686 1286h-367v-696h367q164 0 253 90.5t89 257.5q0 171 -93.5 259.5t-248.5 88.5z" />
<glyph unicode="Q" horiz-adv-x="1695" d="M848 1462q156 0 287.5 -48.5t229.5 -141t153 -235.5t55 -322q0 -421 -287 -619l223 -297q14 -17 -4 -32l-67 -56q-14 -15 -31 2l-260 310q-134 -52 -299 -52q-156 0 -287.5 48t-229.5 140t-153 234.5t-55 321.5t55 322t153 235.5t229.5 141t287.5 48.5zM848 119 q270 0 419.5 156.5t149.5 439.5t-149.5 441.5t-419.5 158.5t-419.5 -158.5t-149.5 -441.5t149.5 -439.5t419.5 -156.5z" />
<glyph unicode="R" horiz-adv-x="1306" d="M164 23v1388q0 23 22 23h500q140 0 251 -54.5t179 -168.5t68 -273q0 -189 -90 -309.5t-240 -163.5l313 -447q4 -6 1 -12t-11 -6h-143q-23 0 -35 18l-293 424h-367v-419q0 -23 -22 -23h-111q-22 0 -22 23zM686 1286h-367v-696h367q164 0 253 90.5t89 257.5 q0 171 -93.5 259.5t-248.5 88.5z" />
<glyph unicode="S" horiz-adv-x="1253" d="M145 354l109 23q18 3 27 -19q21 -114 121.5 -174.5t232.5 -60.5q145 0 242.5 71t97.5 199q0 43 -15.5 79t-52.5 63t-63.5 44.5t-86.5 35.5t-80 23t-82 19q-20 5 -30 7q-70 14 -130 33.5t-118.5 52t-99 73.5t-65.5 99t-25 127q0 86 26.5 155.5t73 117t110.5 79.5t137 46.5 t155 14.5q194 0 331.5 -100.5t161.5 -269.5q3 -24 -20 -27l-103 -14q-21 -3 -24 18q-21 114 -118 180t-228 66q-97 0 -173 -27t-124.5 -88t-48.5 -149q0 -40 15.5 -73t47 -58t65.5 -43.5t84.5 -34.5t89.5 -25.5t95 -21.5q72 -14 131 -32.5t120.5 -51t103.5 -74.5 t68.5 -104.5t26.5 -139.5q0 -130 -66 -226.5t-177.5 -146t-251.5 -49.5q-128 0 -234 38.5t-180.5 120.5t-93.5 198q-4 10 1.5 17t16.5 9z" />
<glyph unicode="T" horiz-adv-x="1159" d="M104 1434h951q22 0 22 -23v-102q0 -23 -22 -23h-398v-1263q0 -23 -22 -23h-111q-22 0 -22 23v1263h-398q-22 0 -22 23v102q0 23 22 23z" />
<glyph unicode="U" horiz-adv-x="1478" d="M1159 557v854q0 23 23 23h110q23 0 23 -23v-846q0 -184 -76 -320t-205.5 -205t-294.5 -69t-294.5 69t-205 205t-75.5 320v846q0 23 22 23h111q22 0 22 -23v-854q0 -208 111 -323t309 -115q200 0 310 116.5t110 321.5z" />
<glyph unicode="V" horiz-adv-x="1529" d="M1450 1413l-592 -1393q-6 -20 -31 -20h-125q-24 0 -30 20l-592 1393q-4 7 1 14t13 7h125q25 0 31 -21l516 -1220l514 1220q6 21 31 21h125q8 0 13 -7t1 -14z" />
<glyph unicode="W" horiz-adv-x="2301" d="M2212 1413l-477 -1393q-9 -20 -31 -20h-119q-22 0 -31 20l-403 1184l-403 -1184q-9 -20 -31 -20h-119q-22 0 -31 20l-477 1393q-4 7 1 14t13 7h119q22 0 31 -21l403 -1186l404 1186q9 21 31 21h118q22 0 31 -21l404 -1186l403 1186q9 21 31 21h119q8 0 13 -7t1 -14z" />
<glyph unicode="X" horiz-adv-x="1357" d="M1264 1415l-496 -698l496 -699q4 -6 0.5 -12t-11.5 -6h-143q-23 0 -35 18l-397 570l-395 -570q-12 -18 -35 -18h-144q-8 0 -11 6t1 12l494 699l-494 698q-4 6 -1 12.5t11 6.5h144q22 0 35 -19l395 -571l397 571q13 19 35 19h143q8 0 11.5 -6.5t-0.5 -12.5z" />
<glyph unicode="Y" horiz-adv-x="1433" d="M639 23v550l-545 842q-4 6 -1 12.5t11 6.5h140q19 0 35 -19l438 -684l438 684q16 19 35 19h139q8 0 11 -6.5t-1 -12.5l-544 -842v-550q0 -23 -23 -23h-110q-23 0 -23 23z" />
<glyph unicode="Z" horiz-adv-x="1292" d="M1155 1266l-840 -1119h832q22 0 22 -22v-102q0 -23 -22 -23h-1002q-22 0 -22 23v104q0 27 14 41l838 1118h-830q-22 0 -22 23v102q0 23 22 23h1002q22 0 22 -23v-104q0 -27 -14 -41z" />
<glyph unicode="[" horiz-adv-x="546" d="M164 -387v2105q0 23 22 23h318q22 0 22 -23v-102q0 -23 -22 -23h-185v-1855h185q22 0 22 -23v-102q0 -23 -22 -23h-318q-22 0 -22 23z" />
<glyph unicode="\" horiz-adv-x="802" d="M760 0h-96q-25 0 -31 20l-604 1496q-4 7 1 13.5t13 6.5h98q25 0 31 -20l602 -1496q4 -7 -1 -13.5t-13 -6.5z" />
<glyph unicode="]" horiz-adv-x="546" d="M383 1718v-2105q0 -23 -23 -23h-317q-23 0 -23 23v102q0 23 23 23h184v1855h-184q-23 0 -23 23v102q0 23 23 23h317q23 0 23 -23z" />
<glyph unicode="^" horiz-adv-x="903" d="M463 1427l366 -534q4 -6 1 -12.5t-11 -6.5h-100q-21 0 -37 19l-231 315l-232 -315q-13 -19 -35 -19h-100q-8 0 -11 6.5t1 12.5l366 534q4 7 11 7q9 0 12 -7z" />
<glyph unicode="_" horiz-adv-x="790" d="M768 -106h-745q-23 0 -23 22v61q0 23 23 23h745q23 0 23 -23v-61q0 -22 -23 -22z" />
<glyph unicode="`" horiz-adv-x="436" d="M98 1360l320 -238q18 -15 4 -32l-33 -46q-4 -7 -14 -9t-17 3l-340 213q-7 4 -9 14t3 17l56 74q12 19 30 4z" />
<glyph unicode="a" horiz-adv-x="1077" d="M528 844q186 0 306 -115.5t120 -318.5v-387q0 -23 -22 -23h-98q-23 0 -23 23v94q-52 -69 -129 -104.5t-160 -37.5q-185 -5 -302.5 111t-117.5 324q0 190 122 312t304 122zM528 111q132 0 205 78.5t78 220.5q0 138 -74.5 218.5t-208.5 80.5t-208 -80.5t-74 -218.5 q0 -142 73.5 -220.5t208.5 -78.5z" />
<glyph unicode="b" horiz-adv-x="1097" d="M575 844q185 5 302.5 -111.5t117.5 -322.5q0 -190 -122 -312.5t-304 -122.5q-186 0 -306 116t-120 319v1001q0 23 23 23h98q23 0 23 -23v-709q52 69 128.5 104.5t159.5 37.5zM569 111q134 0 208.5 80.5t74.5 218.5q0 141 -74 220t-209 79q-132 0 -204.5 -78.5 t-77.5 -220.5q0 -138 74.5 -218.5t207.5 -80.5z" />
<glyph unicode="c" horiz-adv-x="1011" d="M813 268l88 -39q20 -9 12 -28q-50 -110 -151.5 -168t-233.5 -58q-187 0 -306.5 114t-119.5 321t119.5 320.5t306.5 113.5q140 0 244 -64t150 -186q5 -8 0 -17t-15 -10l-90 -30q-15 -9 -29 14q-31 75 -98 116.5t-162 41.5q-134 0 -208 -80.5t-74 -218.5t74 -218.5 t208 -80.5q92 0 158 37.5t98 107.5q9 21 29 12z" />
<glyph unicode="d" horiz-adv-x="1097" d="M834 1434h98q22 0 22 -23v-1001q0 -203 -120 -319t-306 -116q-182 0 -304 122.5t-122 312.5q0 206 117.5 322.5t302.5 111.5q83 -2 160 -37.5t129 -104.5v709q0 23 23 23zM528 111q134 0 208.5 80.5t74.5 218.5q-5 142 -78 220.5t-205 78.5q-135 0 -208.5 -78.5 t-73.5 -220.5q0 -138 74 -218.5t208 -80.5z" />
<glyph unicode="e" d="M766 186l84 -43q19 -12 6 -28q-124 -140 -328 -140q-187 0 -306.5 114t-119.5 321t119.5 320.5t306.5 113.5t306.5 -113t119.5 -317q0 -23 -22 -23h-686q5 -130 79 -205t203 -75q126 0 201 69q15 15 37 6zM528 709q-108 0 -178 -53.5t-94 -147.5h543q-25 95 -94 148 t-177 53z" />
<glyph unicode="f" horiz-adv-x="714" d="M700 1335l-41 -55q-15 -18 -32 -4q-60 43 -140 43q-66 0 -108.5 -40.5t-42.5 -125.5v-334h229q23 0 23 -22v-86q0 -23 -23 -23h-229v-665q0 -23 -23 -23h-98q-22 0 -22 23v665h-130q-22 0 -22 23v86q0 22 22 22h130v330q0 149 78 226t202 77q131 0 225 -82q17 -17 2 -35z " />
<glyph unicode="g" horiz-adv-x="1095" d="M975 410q0 -237 -160 -355q129 -102 129 -284q0 -176 -111 -280.5t-282 -104.5q-81 0 -151 23t-124 67t-85 115t-31 161q0 55 16 117q9 21 29 18l100 -24q21 -3 12 -25q-12 -38 -12 -82q0 -54 17 -97t43 -68.5t59.5 -42.5t64 -23t60.5 -6t61.5 7t66.5 25t62 45t44.5 72.5 t17.5 102.5q0 73 -34.5 131t-82.5 92q-68 -19 -135 -19q-187 0 -306.5 114t-119.5 321t119.5 320.5t306.5 113.5q130 0 235 -60l131 115q14 14 33 -2l49 -45q16 -19 2 -33l-110 -127q86 -113 86 -282zM549 111q133 0 207.5 80.5t74.5 218.5t-74.5 218.5t-207.5 80.5 q-134 0 -208.5 -80.5t-74.5 -218.5t74.5 -218.5t208.5 -80.5z" />
<glyph unicode="h" horiz-adv-x="1060" d="M795 23v411q0 64 -16 114t-41.5 79.5t-60.5 48.5t-67.5 26t-68.5 7q-45 0 -86.5 -13t-81 -42t-63 -85.5t-23.5 -134.5v-411q0 -23 -23 -23h-98q-23 0 -23 23v1388q0 23 23 23h98q23 0 23 -23v-684q51 59 122 88t140 29q176 0 282.5 -106t106.5 -304v-411q0 -23 -23 -23 h-98q-22 0 -22 23z" />
<glyph unicode="i" horiz-adv-x="458" d="M123 1126q0 43 31 75t75 32q43 0 75 -32t32 -75q0 -44 -32 -75t-75 -31q-44 0 -75 31t-31 75zM299 797v-774q0 -23 -23 -23h-98q-22 0 -22 23v774q0 22 22 22h98q23 0 23 -22z" />
<glyph unicode="j" horiz-adv-x="458" d="M123 1126q0 43 31 75t75 32q43 0 75 -32t32 -75q0 -44 -32 -75t-75 -31q-44 0 -75 31t-31 75zM-133 -575l8 83q0 10 7 15.5t18 3.5q46 -4 63 -4q31 0 52.5 2t50.5 12.5t46.5 29.5t30.5 55.5t13 88.5v1086q0 22 22 22h98q23 0 23 -22v-1114q0 -136 -83 -215.5t-206 -79.5 q-55 0 -123 10q-23 3 -20 27z" />
<glyph unicode="k" horiz-adv-x="976" d="M903 801l-278 -391l278 -392q4 -6 1 -12t-11 -6h-129q-23 0 -35 18l-223 324h-219v-319q0 -23 -23 -23h-98q-23 0 -23 23v1388q0 23 23 23h98q23 0 23 -23v-934h219l223 324q12 18 35 18h129q8 0 11 -6t-1 -12z" />
<glyph unicode="l" horiz-adv-x="430" d="M287 1411v-1388q0 -23 -23 -23h-98q-23 0 -23 23v1388q0 23 23 23h98q23 0 23 -23z" />
<glyph unicode="m" horiz-adv-x="1544" d="M1061 844q163 0 261.5 -96.5t98.5 -278.5v-446q0 -23 -22 -23h-99q-22 0 -22 23v446q0 59 -14.5 103.5t-36 70t-52 41t-57.5 20.5t-57 5q-44 0 -80.5 -11.5t-68.5 -37t-50 -74.5t-18 -117v-446q0 -23 -23 -23h-98q-23 0 -23 23v446q0 68 -18.5 117t-51.5 74.5t-69 37 t-78 11.5q-30 0 -57 -5t-57.5 -20.5t-52 -41t-36 -70t-14.5 -103.5v-446q0 -23 -22 -23h-99q-22 0 -22 23v446q0 182 98.5 278.5t261.5 96.5q195 0 289 -144q43 71 119 107.5t170 36.5z" />
<glyph unicode="n" horiz-adv-x="1040" d="M774 23v411q0 78 -23.5 134.5t-63 85.5t-81 42t-86.5 13t-86.5 -13t-81 -42t-63 -85.5t-23.5 -134.5v-411q0 -23 -22 -23h-99q-22 0 -22 23v411q0 194 110 302t287 108t287.5 -108t110.5 -302v-411q0 -23 -23 -23h-98q-23 0 -23 23z" />
<glyph unicode="o" d="M528 844q187 0 306.5 -113.5t119.5 -320.5t-119.5 -321t-306.5 -114t-306.5 114t-119.5 321t119.5 320.5t306.5 113.5zM528 111q134 0 208.5 80.5t74.5 218.5t-74.5 218.5t-208.5 80.5t-208 -80.5t-74 -218.5t74 -218.5t208 -80.5z" />
<glyph unicode="p" horiz-adv-x="1097" d="M569 844q182 0 304 -122t122 -312q0 -208 -117.5 -324t-302.5 -111q-83 2 -159.5 37.5t-128.5 104.5v-709q0 -22 -23 -22h-98q-23 0 -23 22v1002q0 203 120 318.5t306 115.5zM569 111q135 0 209 79t74 220q0 138 -74.5 218.5t-208.5 80.5q-133 0 -207.5 -80.5 t-74.5 -218.5q5 -142 77.5 -220.5t204.5 -78.5z" />
<glyph unicode="q" horiz-adv-x="1097" d="M528 844q186 0 306 -115.5t120 -318.5v-1002q0 -22 -22 -22h-98q-23 0 -23 22v709q-52 -69 -129.5 -105.5t-159.5 -36.5q-187 0 -303.5 113t-116.5 322q0 190 122 312t304 122zM528 111q130 0 206.5 79.5t76.5 219.5q0 138 -74.5 218.5t-208.5 80.5t-208 -80.5 t-74 -218.5q0 -142 73.5 -220.5t208.5 -78.5z" />
<glyph unicode="r" horiz-adv-x="622" d="M596 788l-21 -86q-3 -19 -26 -16q-54 14 -98 14q-80 0 -132.5 -43t-52.5 -133v-501q0 -23 -22 -23h-99q-22 0 -22 23v495q0 158 87 238t226 80q70 0 144 -19q22 -9 16 -29z" />
<glyph unicode="s" horiz-adv-x="915" d="M143 203l76 26q22 3 31 -14q28 -58 82.5 -83.5t118.5 -25.5q33 0 64 5t63 17.5t51.5 38.5t19.5 62q0 37 -28.5 60.5t-74 35t-101 20.5t-111 23.5t-102 37t-76 67.5t-31.5 109q3 86 51.5 147t121.5 88t161 27q244 0 321 -195q11 -18 -12 -28l-80 -33q-17 -7 -29 12 q-49 111 -196 111q-32 0 -63 -5.5t-62.5 -19t-50.5 -40t-19 -64.5q0 -33 29 -54.5t75 -33t102 -21t111.5 -24.5t101.5 -38.5t75 -68.5t29 -109q0 -55 -19 -99.5t-51 -73.5t-76 -48.5t-91 -28t-99 -8.5q-116 0 -203.5 47.5t-122.5 151.5q-6 20 14 29z" />
<glyph unicode="t" horiz-adv-x="757" d="M451 688v-665q0 -23 -23 -23h-98q-23 0 -23 23v665h-223q-23 0 -23 23v86q0 22 23 22h223v326q0 22 23 22h98q23 0 23 -22v-326h223q22 0 22 -22v-86q0 -23 -22 -23h-223z" />
<glyph unicode="u" horiz-adv-x="1040" d="M774 385v412q0 22 23 22h98q23 0 23 -22v-412q0 -194 -110.5 -302t-287.5 -108t-287 108t-110 302v412q0 22 22 22h99q22 0 22 -22v-412q0 -63 16 -112.5t41.5 -79t60 -49t68 -26.5t68.5 -7t68.5 7t68 26.5t60 49t41.5 79t16 112.5z" />
<glyph unicode="v" horiz-adv-x="976" d="M907 799l-332 -779q-6 -20 -30 -20h-113q-25 0 -31 20l-331 779q-4 7 1 13.5t13 6.5h113q24 0 30 -20l262 -623l261 623q6 20 30 20h113q8 0 13 -6.5t1 -13.5z" />
<glyph unicode="w" horiz-adv-x="1400" d="M1331 799l-266 -779q-9 -20 -31 -20h-104q-22 0 -31 20l-199 588l-200 -588q-6 -20 -29 -20h-104q-22 0 -31 20l-266 779q-4 7 1 13.5t13 6.5h106q23 0 29 -20l201 -588l196 588q9 20 31 20h107q22 0 28 -20l201 -588l197 588q9 20 30 20h107q8 0 13 -6.5t1 -13.5z" />
<glyph unicode="x" horiz-adv-x="870" d="M797 801l-279 -391l279 -392q4 -6 0.5 -12t-11.5 -6h-129q-22 0 -34 18l-187 271l-188 -271q-12 -18 -35 -18h-129q-8 0 -11 6t1 12l278 392l-278 391q-4 6 -1 12t11 6h129q23 0 35 -18l188 -273l187 273q12 18 34 18h129q8 0 11.5 -6t-0.5 -12z" />
<glyph unicode="y" horiz-adv-x="1005" d="M291 -602l-94 33q-21 9 -13 28l242 541l-356 799q-4 7 1 13.5t13 6.5h111q24 0 30 -20l279 -629l276 629q6 20 31 20h111q8 0 12 -6.5t0 -13.5l-615 -1389q-10 -23 -28 -12z" />
<glyph unicode="z" horiz-adv-x="829" d="M117 150l430 538h-422q-23 0 -23 23v86q0 22 23 22h580q22 0 22 -22v-86q0 -27 -14 -41l-432 -539h424q22 0 22 -22v-86q0 -23 -22 -23h-580q-23 0 -23 23v86q0 26 15 41z" />
<glyph unicode="{" horiz-adv-x="671" d="M436 453q0 -90 -32.5 -284t-32.5 -284q0 -73 35 -113t96 -40q32 0 94 12q20 6 29 -16l20 -86q9 -21 -14 -31q-77 -23 -135 -23q-122 0 -205.5 81t-83.5 214q0 91 32.5 269.5t32.5 269.5q0 88 -37 129t-94 41h-57q-23 0 -23 22v103q0 22 23 22h57q57 0 94 41t37 129 q0 91 -32.5 269.5t-32.5 269.5q0 133 83.5 214t205.5 81q58 0 135 -23q23 -10 14 -30l-20 -86q-9 -22 -29 -19q-54 14 -94 14q-61 0 -96 -40t-35 -113q0 -90 32.5 -283.5t32.5 -283.5q0 -145 -119 -213q119 -68 119 -213z" />
<glyph unicode="|" horiz-adv-x="397" d="M254 1534v-1710q0 -23 -23 -23h-65q-23 0 -23 23v1710q0 22 23 22h65q23 0 23 -22z" />
<glyph unicode="}" horiz-adv-x="671" d="M236 453q0 145 118 213q-118 68 -118 213q0 90 32.5 283.5t32.5 283.5q0 73 -35 113t-96 40q-40 0 -94 -14q-20 -3 -29 19l-20 86q-9 20 14 30q77 23 135 23q122 0 205.5 -81t83.5 -214q0 -91 -33 -269.5t-33 -269.5q0 -88 37 -129t94 -41h58q22 0 22 -22v-103 q0 -22 -22 -22h-58q-57 0 -94 -41t-37 -129q0 -91 33 -269.5t33 -269.5q0 -133 -83.5 -214t-205.5 -81q-58 0 -135 23q-23 10 -14 31l20 86q9 22 29 16q62 -12 94 -12q61 0 96 40t35 113q0 90 -32.5 284t-32.5 284z" />
<glyph unicode="~" horiz-adv-x="1110" d="M954 575l74 -43q19 -8 10 -30q-8 -13 -20.5 -36t-22.5 -40t-20 -31q-72 -101 -182.5 -120.5t-227.5 61.5l-82 57q-42 30 -79 41.5t-62 9t-50.5 -20t-39.5 -33t-33 -40.5l-35 -55q-8 -19 -30 -10l-74 43q-8 5 -10 13.5t2 16.5q5 9 27.5 50t35.5 59q72 101 182.5 120.5 t227.5 -61.5l82 -57q41 -32 78.5 -43t62.5 -8t51.5 21.5t39.5 33t32 39.5q3 4 35 55q8 20 28 8z" />
<glyph unicode="&#xa1;" horiz-adv-x="520" d="M143 709q0 48 34 82t83 34q47 0 82 -34.5t35 -81.5q0 -49 -34.5 -83t-82.5 -34q-50 0 -83.5 34t-33.5 83zM319 379l21 -979q0 -23 -23 -23h-112q-23 0 -23 23l21 979q0 22 22 22h72q22 0 22 -22z" />
<glyph unicode="&#xa2;" horiz-adv-x="1073" d="M578 0h-66q-23 0 -23 23v258q-165 18 -265.5 131t-100.5 301t100.5 300t265.5 130v268q0 23 23 23h66q22 0 22 -23v-268q121 -11 210.5 -73.5t131.5 -172.5q5 -7 0.5 -16.5t-14.5 -10.5l-90 -30q-15 -9 -29 14q-31 75 -98 116.5t-162 41.5q-134 0 -208.5 -80.5 t-74.5 -218.5t74.5 -218.5t208.5 -80.5q92 0 158 37.5t98 107.5q9 21 29 12l88 -39q20 -9 12 -28q-46 -100 -133 -156t-201 -67v-258q0 -23 -22 -23z" />
<glyph unicode="&#xa3;" horiz-adv-x="989" d="M82 23v86q0 22 22 22h168v557h-129q-22 0 -22 23v86q0 22 22 22h129v330q0 149 78.5 226t202.5 77q131 0 225 -82q17 -17 2 -35l-41 -55q-15 -18 -32 -4q-60 43 -140 43q-66 0 -108.5 -40.5t-42.5 -125.5v-334h229q23 0 23 -22v-86q0 -23 -23 -23h-229v-557h448 q23 0 23 -22v-86q0 -23 -23 -23h-760q-22 0 -22 23z" />
<glyph unicode="&#xa4;" horiz-adv-x="983" d="M494 743q116 0 198 -55l92 92q15 15 33 0l47 -47q15 -18 0 -33l-94 -94q55 -80 55 -196q0 -121 -55 -201l92 -92q15 -18 0 -33l-47 -47q-18 -18 -33 0l-94 92q-83 -53 -194 -53q-120 0 -199 55l-94 -94q-18 -18 -33 0l-47 47q-18 15 0 33l94 94q-53 83 -53 199 q0 117 51 194l-94 96q-18 15 0 33l47 47q15 15 33 0l94 -94q83 57 201 57zM494 213q90 0 138 54t48 143t-48 142.5t-138 53.5t-138.5 -53.5t-48.5 -142.5t48.5 -143t138.5 -54z" />
<glyph unicode="&#xa5;" horiz-adv-x="1433" d="M1038 219h-243v-196q0 -23 -23 -23h-110q-23 0 -23 23v196h-244q-22 0 -22 23v75q0 23 22 23h244v190h-244q-22 0 -22 23v76q0 22 22 22h193l-494 764q-4 6 -1 12.5t11 6.5h140q19 0 35 -19l438 -684l438 684q16 19 35 19h139q8 0 11 -6.5t-1 -12.5l-495 -764h194 q23 0 23 -22v-76q0 -23 -23 -23h-243v-190h243q23 0 23 -23v-75q0 -23 -23 -23z" />
<glyph unicode="&#xa6;" horiz-adv-x="399" d="M256 492v-668q0 -23 -23 -23h-67q-23 0 -23 23v668q0 22 23 22h67q23 0 23 -22zM166 1556h67q23 0 23 -22v-668q0 -22 -23 -22h-67q-23 0 -23 22v668q0 22 23 22z" />
<glyph unicode="&#xa7;" horiz-adv-x="1253" d="M1130 672q0 -157 -98 -269q98 -98 98 -243q0 -130 -66 -226.5t-177.5 -146t-251.5 -49.5q-128 0 -234 38t-180.5 120t-93.5 198q-4 10 1.5 17.5t16.5 9.5l109 22q18 3 27 -18q21 -114 121.5 -175t232.5 -61q145 0 242.5 71.5t97.5 199.5q0 37 -13.5 69.5t-35 55.5 t-54.5 43.5t-63.5 33.5t-72 25.5t-71.5 20t-68 15.5q-22 5 -32 7q-70 14 -130 33.5t-118.5 52t-99 73.5t-65.5 99t-25 127q0 168 102 275q-102 96 -102 237q0 106 40 187.5t111 130t159 72.5t192 24q194 0 331.5 -101t161.5 -270q3 -24 -20 -27l-103 -14q-21 -3 -24 19 q-21 114 -118 179.5t-228 65.5q-97 0 -173 -27t-124.5 -88t-48.5 -149q0 -57 29 -99t78 -67.5t112.5 -44.5t133.5 -35.5t140.5 -35t134 -48t112.5 -70t78 -106t29 -151.5zM901 494q74 68 74 178q0 60 -33 107t-84 74t-120 49.5t-132.5 35.5t-131.5 30.5t-107 35.5 q-84 -71 -84 -187q0 -40 15.5 -73t47 -58t65.5 -43.5t84.5 -34.5t89.5 -25.5t95 -21.5q138 -29 221 -67z" />
<glyph unicode="&#xa8;" horiz-adv-x="671" d="M0 1126q0 43 31 75t75 32q43 0 75 -32t32 -75q0 -44 -32 -75t-75 -31q-44 0 -75 31t-31 75zM459 1126q0 43 31 75t75 32q43 0 75 -32t32 -75q0 -44 -32 -75t-75 -31q-44 0 -75 31t-31 75z" />
<glyph unicode="&#xa9;" horiz-adv-x="1402" d="M82 831q0 169 82 312t224.5 226t311.5 83t312 -83t226 -226t83 -312t-83 -311.5t-226 -224.5t-312 -82q-127 0 -241.5 48.5t-197 131t-131 197t-48.5 241.5zM170 831q0 -146 70 -268t192 -192t268 -70q223 0 378 154t155 376q0 146 -71 268.5t-193.5 193.5t-268.5 71 q-222 0 -376 -155t-154 -378zM973 705l45 -11q22 -10 14 -26q-42 -104 -130.5 -158.5t-203.5 -54.5q-159 0 -261.5 100.5t-102.5 273.5q0 169 103 272t261 103q118 0 208 -56.5t130 -164.5q9 -17 -14 -27l-43 -12q-18 -8 -31 14q-31 72 -97.5 113t-152.5 41q-126 0 -195 -78 t-69 -205q0 -132 68.5 -207t195.5 -75q180 0 244 143q14 22 31 15z" />
<glyph unicode="&#xaa;" horiz-adv-x="600" d="M139 1294l-39 21q-23 10 -8 28q72 97 209 97q104 0 171 -58t67 -168v-135q0 -106 -67.5 -164.5t-170.5 -58.5q-105 0 -172.5 44.5t-67.5 133.5q0 91 67.5 134t172.5 38q24 0 66 -10.5t65 -26.5v25q0 24 -1 38.5t-7.5 39.5t-19.5 39.5t-39.5 26.5t-63.5 12q-70 0 -127 -50 q-15 -15 -35 -6zM432 1034q0 32 -30 58t-101 26q-35 0 -61 -8t-38.5 -18t-20.5 -23.5t-9.5 -21t-1.5 -13.5q0 -10 1.5 -19.5t9.5 -23.5t21 -24t38.5 -17.5t60.5 -7.5q42 0 70.5 10.5t40.5 27.5t16 29.5t4 24.5z" />
<glyph unicode="&#xab;" horiz-adv-x="1157" d="M530 10l-391 379q-15 15 0 33l391 379q15 18 33 0l53 -51q16 -20 0 -33l-288 -311l288 -312q16 -13 0 -33l-53 -51q-18 -18 -33 0zM932 10l-391 379q-15 15 0 33l391 379q15 18 33 0l53 -51q16 -20 0 -33l-289 -311l289 -312q16 -13 0 -33l-53 -51q-18 -18 -33 0z" />
<glyph unicode="&#xac;" horiz-adv-x="1036" d="M748 76v272h-582q-23 0 -23 23v94q0 22 23 22h704q23 0 23 -22v-389q0 -23 -23 -23h-100q-22 0 -22 23z" />
<glyph unicode="&#xad;" horiz-adv-x="903" d="M737 354h-571q-23 0 -23 23v63q0 23 23 23h571q23 0 23 -23v-63q0 -23 -23 -23z" />
<glyph unicode="&#xae;" horiz-adv-x="1402" d="M82 831q0 169 82 312t224.5 226t311.5 83t312 -83t226 -226t83 -312t-83 -311.5t-226 -224.5t-312 -82q-127 0 -241.5 48.5t-197 131t-131 197t-48.5 241.5zM170 831q0 -146 70 -268t192 -192t268 -70q223 0 378 154t155 376q0 146 -71 268.5t-193.5 193.5t-268.5 71 q-222 0 -376 -155t-154 -378zM485 498v671q0 23 23 23h246q106 0 175.5 -67.5t69.5 -186.5q0 -85 -45 -149t-118 -84l149 -211q4 -6 1 -12.5t-11 -6.5h-74q-22 0 -35 19l-135 196h-151v-192q0 -23 -23 -23h-49q-23 0 -23 23zM580 782h174q143 0 143 156q0 69 -37 113.5 t-106 44.5h-174v-314z" />
<glyph unicode="&#xaf;" horiz-adv-x="587" d="M0 1053v86q0 22 23 22h542q23 0 23 -22v-86q0 -23 -23 -23h-542q-23 0 -23 23z" />
<glyph unicode="&#xb0;" horiz-adv-x="710" d="M82 1169q0 115 79 195t193 80q116 0 195.5 -80t79.5 -195q0 -114 -80 -193t-195 -79q-114 0 -193 79t-79 193zM174 1169q0 -78 51 -129t129 -51t130.5 51t52.5 129t-52.5 130.5t-130.5 52.5t-129 -52.5t-51 -130.5z" />
<glyph unicode="&#xb1;" horiz-adv-x="962" d="M797 0h-631q-23 0 -23 23v55q0 22 23 22h631q22 0 22 -22v-55q0 -23 -22 -23zM797 446h-260v-155q0 -23 -23 -23h-63q-23 0 -23 23v155h-262q-23 0 -23 23v63q0 23 23 23h262v242q0 22 23 22h63q23 0 23 -22v-242h260q22 0 22 -23v-63q0 -23 -22 -23z" />
<glyph unicode="&#xb2;" horiz-adv-x="649" d="M166 1421l-62 4q-23 3 -20 25q17 101 82.5 157t159.5 56q105 0 170 -56.5t65 -152.5q0 -61 -25 -114t-94 -123l-186 -187h289q22 0 22 -22v-58q0 -22 -22 -22h-428q-23 0 -23 22v45q0 22 17 39l260 262q80 76 80 156q0 46 -30.5 76.5t-94.5 30.5q-52 0 -89 -30.5 t-47 -86.5q-3 -24 -24 -21z" />
<glyph unicode="&#xb3;" horiz-adv-x="675" d="M262 1292v51q0 23 23 23h53q49 0 81 25t32 67q0 48 -32 75.5t-81 27.5q-37 0 -69.5 -22t-45.5 -62q-3 -21 -26 -21l-58 8q-11 0 -16.5 7.5t-1.5 17.5q17 82 78 128t139 46q93 0 157 -53t64 -152q0 -41 -17.5 -77t-47.5 -56q40 -20 70 -70.5t30 -105.5 q-1 -109 -72.5 -172.5t-183.5 -63.5q-100 0 -168.5 55t-85.5 156q-3 24 20 27l56 8q21 3 24 -18q11 -62 55 -94.5t99 -32.5q63 0 105 35.5t42 99.5q0 54 -43 88.5t-104 32.5h-53q-23 0 -23 22z" />
<glyph unicode="&#xb4;" horiz-adv-x="436" d="M18 1122l320 238q18 15 31 -4l55 -74q5 -7 3 -17t-9 -14l-340 -213q-18 -12 -33 6l-33 46q-12 17 6 32z" />
<glyph unicode="&#xb5;" horiz-adv-x="1060" d="M797 -6v84q-97 -103 -256 -103q-150 0 -254 88v-655q0 -22 -23 -22h-98q-23 0 -23 22v1389q0 22 23 22h98q23 0 23 -22v-412q0 -63 16 -112.5t41.5 -79t60 -49t68 -26.5t68.5 -7t68.5 7t68 26.5t60 49t41.5 79t16 112.5v412q0 22 22 22h98q23 0 23 -22v-803 q0 -23 -23 -23h-96q-22 0 -22 23z" />
<glyph unicode="&#xb6;" horiz-adv-x="1165" d="M725 0h-111q-22 0 -22 23v661q-55 -14 -105 -14q-75 0 -139 21t-108.5 56.5t-76 83.5t-46.5 102t-15 111q0 75 25.5 143.5t73.5 124t125 89t172 33.5h227q23 0 23 -23v-1388q0 -23 -23 -23zM1001 1411v-1388q0 -23 -22 -23h-74q-22 0 -22 23v1388q0 23 22 23h74 q22 0 22 -23z" />
<glyph unicode="&#xb7;" horiz-adv-x="516" d="M143 410q0 48 33 81t82 33q47 0 81 -33.5t34 -80.5t-34 -81t-81 -34q-49 0 -82 33.5t-33 81.5z" />
<glyph unicode="&#xb8;" horiz-adv-x="446" d="M18 -358l50 36q17 14 32 -4q45 -57 119 -57q41 0 74.5 27t34.5 73q1 58 -39 85t-94 20q-25 -4 -43 4q-21 9 -21 33v194h100v-129q89 0 151 -56.5t62 -150.5q0 -90 -66 -149.5t-157 -59.5q-126 0 -209 103q-5 7 -3 17t9 14z" />
<glyph unicode="&#xb9;" horiz-adv-x="417" d="M336 1640v-675q0 -23 -23 -23h-63q-23 0 -23 23v538l-88 -65q-19 -10 -33 4l-30 37q-13 17 2 32l151 138q17 14 39 14h45q23 0 23 -23z" />
<glyph unicode="&#xba;" horiz-adv-x="772" d="M690 1143q0 -148 -84 -227.5t-219 -79.5t-220 80t-85 227t85 227t220 80t219 -79.5t84 -227.5zM569 1143q0 55 -17 95.5t-44.5 61.5t-57.5 31t-63 10t-63.5 -9.5t-58.5 -31t-45 -62t-17 -95.5q0 -56 17 -96.5t45 -62t58.5 -31t63.5 -9.5t63 9.5t58 31t44.5 62t16.5 96.5z M111 594v68q0 22 22 22h506q23 0 23 -22v-68q0 -23 -23 -23h-506q-22 0 -22 23z" />
<glyph unicode="&#xbb;" horiz-adv-x="1157" d="M616 389l-391 -379q-17 -17 -32 0l-54 51q-17 17 -2 33l291 312l-291 311q-15 15 2 33l54 51q15 17 32 0l391 -379q15 -18 0 -33zM1018 389l-391 -379q-18 -18 -33 0l-53 51q-17 17 -2 33l290 312l-290 311q-15 15 2 33l53 51q15 18 33 0l391 -379q15 -18 0 -33z" />
<glyph unicode="&#xbc;" horiz-adv-x="1247" d="M346 0h-76q-8 0 -13 6.5t-1 13.5l561 1393q6 21 31 21h78q8 0 13 -7t1 -14l-563 -1393q-6 -20 -31 -20zM336 1411v-676q0 -22 -23 -22h-63q-23 0 -23 22v539l-88 -66q-19 -10 -33 4l-30 37q-14 17 2 33l151 137q18 15 39 15h45q23 0 23 -23zM1075 154v-131q0 -23 -22 -23 h-62q-22 0 -22 23v131h-260q-23 0 -23 22v43q0 16 10 43l207 438q9 21 33 21h72q21 0 12 -21l-209 -444h158v98q0 23 22 23h62q22 0 22 -23v-98h68q22 0 22 -23v-57q0 -22 -22 -22h-68z" />
<glyph unicode="&#xbd;" horiz-adv-x="1353" d="M346 0h-76q-8 0 -13 6.5t-1 13.5l561 1393q6 21 31 21h78q8 0 13 -7t1 -14l-563 -1393q-6 -20 -31 -20zM336 1411v-676q0 -22 -23 -22h-63q-23 0 -23 22v539l-88 -66q-19 -10 -33 4l-30 37q-14 17 2 33l151 137q18 15 39 15h45q23 0 23 -23zM870 494l-61 4q-24 3 -21 24 q17 101 82.5 157t159.5 56q105 0 170.5 -56.5t65.5 -152.5q0 -61 -25 -114t-94 -123l-186 -187h288q23 0 23 -22v-57q0 -23 -23 -23h-428q-22 0 -22 23v45q0 22 16 38l260 263q80 76 80 155q0 46 -30.5 76.5t-94.5 30.5q-52 0 -88.5 -30.5t-46.5 -86.5q-3 -23 -25 -20z" />
<glyph unicode="&#xbe;" horiz-adv-x="1425" d="M524 0h-75q-8 0 -13.5 6.5t-1.5 13.5l561 1393q6 21 31 21h78q8 0 13 -7t1 -14l-563 -1393q-6 -20 -31 -20zM1253 154v-131q0 -23 -22 -23h-62q-22 0 -22 23v131h-260q-23 0 -23 22v43q0 16 10 43l207 438q9 21 33 21h72q21 0 12 -21l-209 -444h158v98q0 23 22 23h62 q22 0 22 -23v-98h68q22 0 22 -23v-57q0 -22 -22 -22h-68zM262 1063v51q0 23 23 23h53q49 0 81 25t32 67q0 48 -32 75t-81 27q-37 0 -69.5 -22t-45.5 -62q-3 -20 -26 -20l-58 8q-11 0 -16.5 7.5t-1.5 17.5q17 82 78 128t139 46q93 0 157 -53t64 -152q0 -41 -17.5 -77 t-47.5 -56q40 -20 70 -70.5t30 -105.5q-1 -109 -72.5 -172.5t-183.5 -63.5q-100 0 -168.5 55t-85.5 156q-3 24 20 27l56 8q21 3 24 -19q11 -62 55 -94.5t99 -32.5q63 0 105 36t42 100q0 54 -43 88t-104 32h-53q-23 0 -23 23z" />
<glyph unicode="&#xbf;" horiz-adv-x="1130" d="M758 737q0 -49 -33.5 -82.5t-83.5 -33.5q-48 0 -82.5 33.5t-34.5 82.5q0 47 35 82t82 35q49 0 83 -34.5t34 -82.5zM883 -205l102 -16q21 -3 21 -27q-25 -174 -140 -274.5t-303 -100.5q-204 0 -327 111t-111 303q2 38 13 81t41.5 101t76.5 109.5t125 103.5t180 88v136 q0 22 23 22h110q23 0 23 -22v-199q0 -22 -23 -29q-104 -33 -182.5 -77.5t-120 -85.5t-67.5 -89.5t-33.5 -79t-9.5 -63.5q-6 -126 69.5 -194t212.5 -68q122 0 199.5 69.5t95.5 182.5q3 21 25 18z" />
<glyph unicode="&#xc0;" horiz-adv-x="1550" d="M868 1413l592 -1393q4 -7 -1 -13.5t-13 -6.5h-125q-25 0 -31 20l-131 310h-768l-131 -310q-6 -20 -31 -20h-125q-8 0 -13 6.5t-1 13.5l592 1393q6 21 31 21h125q24 0 30 -21zM776 1241l-321 -762h641zM641 1974l320 -237q19 -15 4 -33l-33 -45q-4 -7 -14 -9t-17 3 l-340 213q-7 4 -9 13.5t3 16.5l55 74q13 19 31 4z" />
<glyph unicode="&#xc1;" horiz-adv-x="1550" d="M868 1413l592 -1393q4 -7 -1 -13.5t-13 -6.5h-125q-25 0 -31 20l-131 310h-768l-131 -310q-6 -20 -31 -20h-125q-8 0 -13 6.5t-1 13.5l592 1393q6 21 31 21h125q24 0 30 -21zM776 1241l-321 -762h641zM575 1737l320 237q18 15 31 -4l55 -74q5 -7 3 -16.5t-9 -13.5 l-340 -213q-18 -12 -33 6l-33 45q-12 18 6 33z" />
<glyph unicode="&#xc2;" horiz-adv-x="1550" d="M868 1413l592 -1393q4 -7 -1 -13.5t-13 -6.5h-125q-25 0 -31 20l-131 310h-768l-131 -310q-6 -20 -31 -20h-125q-8 0 -13 6.5t-1 13.5l592 1393q6 21 31 21h125q24 0 30 -21zM776 1241l-321 -762h641zM500 1737l258 190q18 15 37 0l256 -190q19 -15 4 -33l-33 -45 q-5 -8 -14 -10t-17 4l-215 129l-217 -129q-8 -6 -17.5 -4t-15.5 10l-32 45q-12 18 6 33z" />
<glyph unicode="&#xc3;" horiz-adv-x="1550" d="M868 1413l592 -1393q4 -7 -1 -13.5t-13 -6.5h-125q-25 0 -31 20l-131 310h-768l-131 -310q-6 -20 -31 -20h-125q-8 0 -13 6.5t-1 13.5l592 1393q6 21 31 21h125q24 0 30 -21zM776 1241l-321 -762h641zM893 1638q-44 0 -81.5 16t-59 34.5t-46 34.5t-44.5 16q-66 0 -82 -76 q-10 -23 -27 -23h-59q-24 0 -21 23q11 93 60.5 144t130.5 51q35 0 61.5 -10.5t43 -26t32 -30.5t38 -25.5t50.5 -10.5q37 0 58 23t26 55q3 22 24 22h58q23 0 20 -22q-8 -93 -54.5 -144t-127.5 -51z" />
<glyph unicode="&#xc4;" horiz-adv-x="1550" d="M438 1741q0 43 31.5 74.5t75.5 31.5q43 0 74.5 -31.5t31.5 -74.5q0 -44 -31.5 -75.5t-74.5 -31.5q-44 0 -75.5 31.5t-31.5 75.5zM897 1741q0 43 31.5 74.5t75.5 31.5q43 0 74.5 -31.5t31.5 -74.5q0 -44 -31.5 -75.5t-74.5 -31.5q-44 0 -75.5 31.5t-31.5 75.5zM868 1413 l592 -1393q4 -7 -1 -13.5t-13 -6.5h-125q-25 0 -31 20l-131 310h-768l-131 -310q-6 -20 -31 -20h-125q-8 0 -13 6.5t-1 13.5l592 1393q6 21 31 21h125q24 0 30 -21zM776 1241l-321 -762h641z" />
<glyph unicode="&#xc5;" horiz-adv-x="1550" d="M582 1835q0 80 56.5 136.5t135.5 56.5q80 0 136.5 -57t56.5 -136t-56.5 -136t-136.5 -57q-79 0 -135.5 56.5t-56.5 136.5zM676 1835q0 -41 28.5 -69.5t69.5 -28.5t69.5 28.5t28.5 69.5t-28.5 69.5t-69.5 28.5t-69.5 -28.5t-28.5 -69.5zM868 1413l592 -1393q4 -7 -1 -13.5 t-13 -6.5h-125q-25 0 -31 20l-131 310h-768l-131 -310q-6 -20 -31 -20h-125q-8 0 -13 6.5t-1 13.5l592 1393q6 21 31 21h125q24 0 30 -21zM776 1241l-321 -762h641z" />
<glyph unicode="&#xc6;" horiz-adv-x="2340" d="M1454 791h604q23 0 23 -23v-102q0 -23 -23 -23h-604v-496h741q23 0 23 -22v-102q0 -23 -23 -23h-874q-25 0 -31 20l-131 310h-768l-131 -310q-6 -20 -31 -20h-125q-8 0 -13 6.5t-1 13.5l592 1393q6 21 31 21h125q24 0 30 -21l430 -1014v1012q0 23 23 23h874q23 0 23 -23 v-102q0 -23 -23 -23h-741v-495zM776 1241l-321 -762h641z" />
<glyph unicode="&#xc7;" horiz-adv-x="1609" d="M680 -358l49 36q18 15 33 -4q45 -57 119 -57q41 0 74 27t34 73q1 58 -39 85t-94 20q-25 -4 -43 4q-20 9 -20 33v118q-146 9 -267.5 61.5t-211.5 144t-140.5 229t-50.5 307.5q0 177 55 319t153 234t230 141t287 49q223 0 393 -96t256 -279q9 -22 -10 -30l-92 -47 q-21 -9 -29 10q-67 141 -200.5 218t-317.5 77q-267 0 -418 -159t-151 -437t151 -437t418 -159q185 0 319.5 76.5t200.5 216.5q8 19 29 10l90 -45q20 -8 10 -31q-80 -170 -239 -266t-365 -107v-53q89 0 151 -56.5t62 -150.5q0 -90 -66 -149.5t-157 -59.5q-126 0 -209 103 q-5 7 -3 17t9 14z" />
<glyph unicode="&#xc8;" horiz-adv-x="1206" d="M319 791h605q22 0 22 -23v-102q0 -23 -22 -23h-605v-496h742q22 0 22 -22v-102q0 -23 -22 -23h-875q-22 0 -22 23v1388q0 23 22 23h875q22 0 22 -23v-102q0 -23 -22 -23h-742v-495zM483 1974l320 -237q19 -15 4 -33l-33 -45q-4 -7 -14 -9t-17 3l-340 213q-7 4 -9 13.5 t3 16.5l56 74q12 19 30 4z" />
<glyph unicode="&#xc9;" horiz-adv-x="1206" d="M319 791h605q22 0 22 -23v-102q0 -23 -22 -23h-605v-496h742q22 0 22 -22v-102q0 -23 -22 -23h-875q-22 0 -22 23v1388q0 23 22 23h875q22 0 22 -23v-102q0 -23 -22 -23h-742v-495zM403 1737l320 237q18 15 31 -4l55 -74q5 -7 3 -16.5t-9 -13.5l-340 -213q-7 -5 -17 -3 t-14 9l-33 45q-15 18 4 33z" />
<glyph unicode="&#xca;" horiz-adv-x="1206" d="M319 791h605q22 0 22 -23v-102q0 -23 -22 -23h-605v-496h742q22 0 22 -22v-102q0 -23 -22 -23h-875q-22 0 -22 23v1388q0 23 22 23h875q22 0 22 -23v-102q0 -23 -22 -23h-742v-495zM328 1737l258 190q18 15 37 0l256 -190q19 -15 4 -33l-33 -45q-5 -8 -14 -10t-17 4 l-215 129l-217 -129q-8 -6 -17.5 -4t-15.5 10l-32 45q-12 18 6 33z" />
<glyph unicode="&#xcb;" horiz-adv-x="1206" d="M266 1741q0 43 31.5 74.5t75.5 31.5q43 0 74.5 -31.5t31.5 -74.5q0 -44 -31.5 -75.5t-74.5 -31.5q-44 0 -75.5 31.5t-31.5 75.5zM725 1741q0 43 31 74.5t75 31.5q43 0 75 -31.5t32 -74.5q0 -44 -32 -75.5t-75 -31.5q-44 0 -75 31.5t-31 75.5zM319 791h605q22 0 22 -23 v-102q0 -23 -22 -23h-605v-496h742q22 0 22 -22v-102q0 -23 -22 -23h-875q-22 0 -22 23v1388q0 23 22 23h875q22 0 22 -23v-102q0 -23 -22 -23h-742v-495z" />
<glyph unicode="&#xcc;" horiz-adv-x="477" d="M317 1411v-1388q0 -23 -22 -23h-111q-22 0 -22 23v1388q0 23 22 23h111q22 0 22 -23zM119 1974l319 -237q19 -15 4 -33l-32 -45q-4 -7 -14 -9t-17 3l-340 213q-7 4 -9 13.5t3 16.5l55 74q13 19 31 4z" />
<glyph unicode="&#xcd;" horiz-adv-x="477" d="M317 1411v-1388q0 -23 -22 -23h-111q-22 0 -22 23v1388q0 23 22 23h111q22 0 22 -23zM39 1737l319 237q18 15 31 -4l55 -74q5 -7 3 -16.5t-9 -13.5l-340 -213q-7 -5 -16.5 -3t-13.5 9l-33 45q-15 18 4 33z" />
<glyph unicode="&#xce;" horiz-adv-x="628" d="M391 1411v-1388q0 -23 -22 -23h-111q-22 0 -22 23v1388q0 23 22 23h111q22 0 22 -23zM39 1737l258 190q19 15 37 0l256 -190q19 -15 4 -33l-33 -45q-5 -8 -14 -10t-17 4l-215 129l-217 -129q-17 -13 -32 6l-33 45q-12 18 6 33z" />
<glyph unicode="&#xcf;" horiz-adv-x="712" d="M20 1741q0 43 31.5 74.5t75.5 31.5q43 0 74.5 -31.5t31.5 -74.5q0 -44 -31.5 -75.5t-74.5 -31.5q-44 0 -75.5 31.5t-31.5 75.5zM479 1741q0 43 31.5 74.5t75.5 31.5q43 0 74.5 -31.5t31.5 -74.5q0 -44 -31.5 -75.5t-74.5 -31.5q-44 0 -75.5 31.5t-31.5 75.5zM434 1411 v-1388q0 -23 -22 -23h-111q-22 0 -22 23v1388q0 23 22 23h111q22 0 22 -23z" />
<glyph unicode="&#xd0;" horiz-adv-x="1488" d="M186 1434h484q150 0 276 -46t220 -134t147 -225.5t53 -311.5t-53 -311.5t-147 -225.5t-220 -134t-276 -46h-484q-22 0 -22 23v634h-121q-23 0 -23 23v72q0 22 23 22h121v637q0 23 22 23zM319 147h351q257 0 398.5 149.5t141.5 420.5q0 274 -143.5 421.5t-396.5 147.5 h-351v-512h386q22 0 22 -22v-72q0 -23 -22 -23h-386v-510z" />
<glyph unicode="&#xd1;" horiz-adv-x="1533" d="M164 23v1388q0 23 22 23h111q21 0 37 -19l880 -1159v1155q0 23 23 23h111q22 0 22 -23v-1388q0 -23 -22 -23h-111q-25 0 -37 18l-881 1162v-1157q0 -23 -22 -23h-111q-22 0 -22 23zM885 1638q-44 0 -81.5 16t-59 34.5t-46.5 34.5t-45 16q-66 0 -82 -76q-10 -23 -26 -23 h-60q-23 0 -20 23q11 93 60 144t130 51q35 0 61.5 -10.5t43.5 -26t32.5 -30.5t38 -25.5t50.5 -10.5q37 0 58 23t26 55q3 22 24 22h58q23 0 20 -22q-8 -93 -54.5 -144t-127.5 -51z" />
<glyph unicode="&#xd2;" horiz-adv-x="1695" d="M848 1462q156 0 287.5 -48.5t229.5 -141t153 -235.5t55 -322t-55 -321.5t-153 -234.5t-229.5 -140t-287.5 -48t-287.5 48t-229.5 140t-153 234.5t-55 321.5t55 322t153 235.5t229.5 141t287.5 48.5zM848 119q270 0 419.5 156.5t149.5 439.5t-149.5 441.5t-419.5 158.5 t-419.5 -158.5t-149.5 -441.5t149.5 -439.5t419.5 -156.5zM670 1974l319 -237q19 -15 4 -33l-32 -45q-4 -7 -14 -9t-17 3l-340 213q-7 4 -9 13.5t3 16.5l55 74q13 19 31 4z" />
<glyph unicode="&#xd3;" horiz-adv-x="1695" d="M848 1462q156 0 287.5 -48.5t229.5 -141t153 -235.5t55 -322t-55 -321.5t-153 -234.5t-229.5 -140t-287.5 -48t-287.5 48t-229.5 140t-153 234.5t-55 321.5t55 322t153 235.5t229.5 141t287.5 48.5zM848 119q270 0 419.5 156.5t149.5 439.5t-149.5 441.5t-419.5 158.5 t-419.5 -158.5t-149.5 -441.5t149.5 -439.5t419.5 -156.5zM684 1737l320 237q18 15 30 -4l56 -74q11 -19 -7 -30l-340 -213q-7 -5 -16.5 -3t-13.5 9l-33 45q-15 18 4 33z" />
<glyph unicode="&#xd4;" horiz-adv-x="1695" d="M848 1462q156 0 287.5 -48.5t229.5 -141t153 -235.5t55 -322t-55 -321.5t-153 -234.5t-229.5 -140t-287.5 -48t-287.5 48t-229.5 140t-153 234.5t-55 321.5t55 322t153 235.5t229.5 141t287.5 48.5zM848 119q270 0 419.5 156.5t149.5 439.5t-149.5 441.5t-419.5 158.5 t-419.5 -158.5t-149.5 -441.5t149.5 -439.5t419.5 -156.5zM571 1737l258 190q18 15 37 0l256 -190q19 -15 4 -33l-32 -45q-5 -8 -14 -10t-17 4l-215 129l-217 -129q-8 -6 -17.5 -4t-15.5 10l-33 45q-12 18 6 33z" />
<glyph unicode="&#xd5;" horiz-adv-x="1695" d="M848 1462q156 0 287.5 -48.5t229.5 -141t153 -235.5t55 -322t-55 -321.5t-153 -234.5t-229.5 -140t-287.5 -48t-287.5 48t-229.5 140t-153 234.5t-55 321.5t55 322t153 235.5t229.5 141t287.5 48.5zM848 119q270 0 419.5 156.5t149.5 439.5t-149.5 441.5t-419.5 158.5 t-419.5 -158.5t-149.5 -441.5t149.5 -439.5t419.5 -156.5zM967 1638q-44 0 -81.5 16t-59 34.5t-46.5 34.5t-45 16q-66 0 -82 -76q-10 -23 -26 -23h-60q-23 0 -20 23q11 93 60 144t130 51q35 0 61.5 -10.5t43.5 -26t32.5 -30.5t38 -25.5t50.5 -10.5q37 0 58 23t26 55 q3 22 24 22h57q24 0 21 -22q-8 -93 -54.5 -144t-127.5 -51z" />
<glyph unicode="&#xd6;" horiz-adv-x="1695" d="M848 1462q156 0 287.5 -48.5t229.5 -141t153 -235.5t55 -322t-55 -321.5t-153 -234.5t-229.5 -140t-287.5 -48t-287.5 48t-229.5 140t-153 234.5t-55 321.5t55 322t153 235.5t229.5 141t287.5 48.5zM848 119q270 0 419.5 156.5t149.5 439.5t-149.5 441.5t-419.5 158.5 t-419.5 -158.5t-149.5 -441.5t149.5 -439.5t419.5 -156.5zM512 1741q0 43 31 74.5t75 31.5q43 0 75 -31.5t32 -74.5q0 -44 -32 -75.5t-75 -31.5q-44 0 -75 31.5t-31 75.5zM971 1741q0 43 31 74.5t75 31.5q43 0 75 -31.5t32 -74.5q0 -44 -32 -75.5t-75 -31.5q-44 0 -75 31.5 t-31 75.5z" />
<glyph unicode="&#xd7;" horiz-adv-x="843" d="M606 147l-184 185l-184 -185q-18 -18 -33 0l-43 46q-17 15 0 32l184 183l-186 186q-18 15 0 33l45 43q13 16 33 0l184 -185l184 185q16 16 33 0l45 -43q15 -18 0 -33l-186 -186l184 -183q16 -20 0 -32l-43 -46q-18 -18 -33 0z" />
<glyph unicode="&#xd8;" horiz-adv-x="1695" d="M848 1462q250 0 432 -123l102 123q18 18 33 2l58 -47q19 -16 4 -31l-105 -124q201 -201 201 -547q0 -179 -55 -321.5t-153 -234.5t-229.5 -140t-287.5 -48q-266 0 -449 131l-120 -143q-16 -16 -33 -2l-58 47q-19 16 -4 31l123 147q-184 200 -184 533q0 179 55 322 t153 235.5t229.5 141t287.5 48.5zM848 119q270 0 419.5 156.5t149.5 439.5q0 268 -143 430l-778 -928q137 -98 352 -98zM279 715q0 -259 127 -414l778 924q-142 90 -336 90q-270 0 -419.5 -158.5t-149.5 -441.5z" />
<glyph unicode="&#xd9;" horiz-adv-x="1478" d="M1159 557v854q0 23 23 23h110q23 0 23 -23v-846q0 -184 -76 -320t-205.5 -205t-294.5 -69t-294.5 69t-205 205t-75.5 320v846q0 23 22 23h111q22 0 22 -23v-854q0 -208 111 -323t309 -115q200 0 310 116.5t110 321.5zM575 1974l320 -237q19 -15 4 -33l-33 -45 q-4 -7 -13.5 -9t-16.5 3l-340 213q-18 11 -7 30l56 74q12 19 30 4z" />
<glyph unicode="&#xda;" horiz-adv-x="1478" d="M1159 557v854q0 23 23 23h110q23 0 23 -23v-846q0 -184 -76 -320t-205.5 -205t-294.5 -69t-294.5 69t-205 205t-75.5 320v846q0 23 22 23h111q22 0 22 -23v-854q0 -208 111 -323t309 -115q200 0 310 116.5t110 321.5zM545 1737l319 237q18 15 31 -4l55 -74q5 -7 3 -16.5 t-9 -13.5l-340 -213q-7 -5 -17 -3t-14 9l-32 45q-15 18 4 33z" />
<glyph unicode="&#xdb;" horiz-adv-x="1478" d="M1159 557v854q0 23 23 23h110q23 0 23 -23v-846q0 -184 -76 -320t-205.5 -205t-294.5 -69t-294.5 69t-205 205t-75.5 320v846q0 23 22 23h111q22 0 22 -23v-854q0 -208 111 -323t309 -115q200 0 310 116.5t110 321.5zM463 1737l258 190q18 15 37 0l256 -190q19 -15 4 -33 l-33 -45q-5 -8 -14 -10t-17 4l-215 129l-217 -129q-8 -6 -17.5 -4t-15.5 10l-32 45q-12 18 6 33z" />
<glyph unicode="&#xdc;" horiz-adv-x="1478" d="M403 1741q0 43 31.5 74.5t75.5 31.5q43 0 74.5 -31.5t31.5 -74.5q0 -44 -31.5 -75.5t-74.5 -31.5q-44 0 -75.5 31.5t-31.5 75.5zM862 1741q0 43 31.5 74.5t75.5 31.5q43 0 74.5 -31.5t31.5 -74.5q0 -44 -31.5 -75.5t-74.5 -31.5q-44 0 -75.5 31.5t-31.5 75.5zM1159 557 v854q0 23 23 23h110q23 0 23 -23v-846q0 -184 -76 -320t-205.5 -205t-294.5 -69t-294.5 69t-205 205t-75.5 320v846q0 23 22 23h111q22 0 22 -23v-854q0 -208 111 -323t309 -115q200 0 310 116.5t110 321.5z" />
<glyph unicode="&#xdd;" horiz-adv-x="1433" d="M639 23v550l-545 842q-4 6 -1 12.5t11 6.5h140q19 0 35 -19l438 -684l438 684q16 19 35 19h139q8 0 11 -6.5t-1 -12.5l-544 -842v-550q0 -23 -23 -23h-110q-23 0 -23 23zM549 1737l319 237q18 15 31 -4l55 -74q5 -7 3 -16.5t-9 -13.5l-340 -213q-18 -12 -33 6l-32 45 q-12 18 6 33z" />
<glyph unicode="&#xde;" horiz-adv-x="1245" d="M319 1411v-192h312q104 0 192.5 -32t155.5 -93t105 -158t38 -219q0 -158 -66 -273.5t-176 -172t-249 -56.5h-312v-192q0 -23 -22 -23h-111q-22 0 -22 23v1388q0 23 22 23h111q22 0 22 -23zM319 362h336q140 0 226 100t86 255t-85.5 254.5t-226.5 99.5h-336v-709z" />
<glyph unicode="&#xdf;" horiz-adv-x="1239" d="M453 23l20 86q9 22 29 16q61 -14 114 -14q69 0 130.5 19t110.5 56t77.5 99t28.5 141q0 138 -86 210.5t-228 72.5h-78q-22 0 -22 22v88q0 23 22 23h78q110 0 169 65.5t59 165.5q0 114 -75 178t-190 64q-56 0 -105.5 -15t-93 -47t-69 -91t-25.5 -138v-1001q0 -23 -22 -23 h-111q-22 0 -22 23v1015q0 101 38 183.5t102 134t143 79t165 27.5q186 0 305 -100.5t123 -288.5q-1 -89 -37 -160.5t-96 -117.5q206 -116 209 -369q-3 -143 -69 -247.5t-174 -156t-244 -51.5q-68 0 -162 23q-20 9 -14 29z" />
<glyph unicode="&#xe0;" horiz-adv-x="1077" d="M717 1090l-33 -46q-4 -7 -14 -9t-17 3l-340 213q-7 4 -9 14t3 17l55 74q13 19 31 4l320 -238q18 -15 4 -32zM528 844q186 0 306 -115.5t120 -318.5v-387q0 -23 -22 -23h-98q-23 0 -23 23v94q-52 -69 -129 -104.5t-160 -37.5q-185 -5 -302.5 111t-117.5 324q0 190 122 312 t304 122zM528 111q132 0 205 78.5t78 220.5q0 138 -74.5 218.5t-208.5 80.5t-208 -80.5t-74 -218.5q0 -142 73.5 -220.5t208.5 -78.5z" />
<glyph unicode="&#xe1;" horiz-adv-x="1077" d="M350 1044l-33 46q-14 16 5 32l319 238q18 15 31 -4l55 -74q5 -7 3 -17t-9 -14l-340 -213q-7 -5 -17 -3t-14 9zM528 844q186 0 306 -115.5t120 -318.5v-387q0 -23 -22 -23h-98q-23 0 -23 23v94q-52 -69 -129 -104.5t-160 -37.5q-185 -5 -302.5 111t-117.5 324 q0 190 122 312t304 122zM528 111q132 0 205 78.5t78 220.5q0 138 -74.5 218.5t-208.5 80.5t-208 -80.5t-74 -218.5q0 -142 73.5 -220.5t208.5 -78.5z" />
<glyph unicode="&#xe2;" horiz-adv-x="1077" d="M539 1167l-217 -129q-8 -6 -17.5 -4t-15.5 10l-33 46q-12 17 6 32l258 191q18 15 37 0l256 -191q18 -15 4 -32l-33 -46q-5 -8 -13.5 -10t-16.5 4zM528 844q186 0 306 -115.5t120 -318.5v-387q0 -23 -22 -23h-98q-23 0 -23 23v94q-52 -69 -129 -104.5t-160 -37.5 q-185 -5 -302.5 111t-117.5 324q0 190 122 312t304 122zM528 111q132 0 205 78.5t78 220.5q0 138 -74.5 218.5t-208.5 80.5t-208 -80.5t-74 -218.5q0 -142 73.5 -220.5t208.5 -78.5z" />
<glyph unicode="&#xe3;" horiz-adv-x="1077" d="M528 844q186 0 306 -115.5t120 -318.5v-387q0 -23 -22 -23h-98q-23 0 -23 23v94q-52 -69 -129 -104.5t-160 -37.5q-185 -5 -302.5 111t-117.5 324q0 190 122 312t304 122zM528 111q132 0 205 78.5t78 220.5q0 138 -74.5 218.5t-208.5 80.5t-208 -80.5t-74 -218.5 q0 -142 73.5 -220.5t208.5 -78.5zM426 1124q-67 0 -82 -75q-10 -23 -27 -23h-59q-23 0 -20 23q11 93 60 143.5t130 50.5q43 0 74 -16t47 -35t43 -35t61 -16q37 0 58 23t26 55q3 22 25 22h57q24 0 21 -22q-8 -93 -55 -144t-128 -51q-44 0 -81.5 15.5t-59 34.5t-46 34.5 t-44.5 15.5z" />
<glyph unicode="&#xe4;" horiz-adv-x="1077" d="M203 1126q0 43 31 75t75 32q43 0 75 -32t32 -75q0 -44 -32 -75t-75 -31q-44 0 -75 31t-31 75zM662 1126q0 43 31 75t75 32q43 0 74.5 -32t31.5 -75q0 -44 -31.5 -75t-74.5 -31q-44 0 -75 31t-31 75zM528 844q186 0 306 -115.5t120 -318.5v-387q0 -23 -22 -23h-98 q-23 0 -23 23v94q-52 -69 -129 -104.5t-160 -37.5q-185 -5 -302.5 111t-117.5 324q0 190 122 312t304 122zM528 111q132 0 205 78.5t78 220.5q0 138 -74.5 218.5t-208.5 80.5t-208 -80.5t-74 -218.5q0 -142 73.5 -220.5t208.5 -78.5z" />
<glyph unicode="&#xe5;" horiz-adv-x="1077" d="M346 1221q0 79 56.5 135.5t136.5 56.5q79 0 135.5 -56.5t56.5 -135.5q0 -80 -56.5 -136.5t-135.5 -56.5t-136 57t-57 136zM440 1221q0 -41 29 -70t70 -29t69.5 29t28.5 70t-28.5 69.5t-69.5 28.5t-70 -28.5t-29 -69.5zM528 844q186 0 306 -115.5t120 -318.5v-387 q0 -23 -22 -23h-98q-23 0 -23 23v94q-52 -69 -129 -104.5t-160 -37.5q-185 -5 -302.5 111t-117.5 324q0 190 122 312t304 122zM528 111q132 0 205 78.5t78 220.5q0 138 -74.5 218.5t-208.5 80.5t-208 -80.5t-74 -218.5q0 -142 73.5 -220.5t208.5 -78.5z" />
<glyph unicode="&#xe6;" horiz-adv-x="1615" d="M1327 190l82 -47q19 -12 6 -28q-124 -140 -328 -140q-213 0 -333 144q-92 -146 -299 -146q-102 0 -179 25.5t-125.5 86.5t-48.5 151q0 124 99.5 188t253.5 59q118 -4 213 -49v88q0 20 -2.5 39t-15.5 48t-34 50t-63 36.5t-98 15.5q-66 0 -121 -24.5t-86 -61.5 q-20 -20 -35 -11l-80 27q-20 12 -10 29q42 85 130.5 130.5t201.5 45.5q101 0 179.5 -37t121.5 -109q120 144 331 144q187 0 306.5 -113t119.5 -317q0 -23 -22 -23h-686q5 -130 79 -205t203 -75q116 0 205 75q20 20 35 4zM659 254q-9 43 -56.5 72.5t-147.5 29.5 q-66 0 -112.5 -14t-66.5 -35t-28 -38.5t-8 -32.5t4 -29.5t18 -33.5t36 -33t62.5 -24t94.5 -10q96 0 144 32.5t58 70.5q9 26 2 45zM1087 709q-108 0 -178 -53.5t-94 -147.5h543q-25 95 -94 148t-177 53z" />
<glyph unicode="&#xe7;" horiz-adv-x="1011" d="M344 -358l49 36q18 15 33 -4q45 -57 119 -57q41 0 74 27t34 73q1 58 -39 85t-94 20q-25 -4 -43 4q-20 9 -20 33v121q-159 21 -257 133t-98 297q0 207 119.5 320.5t306.5 113.5q140 0 244 -64t150 -186q5 -8 0 -17t-15 -10l-90 -30q-15 -9 -29 14q-31 75 -98 116.5 t-162 41.5q-134 0 -208 -80.5t-74 -218.5t74 -218.5t208 -80.5q92 0 158 37.5t98 107.5q9 21 29 12l88 -39q20 -9 12 -28q-49 -104 -142 -161t-214 -63v-53q89 0 151 -56.5t62 -150.5q0 -90 -66 -149.5t-157 -59.5q-126 0 -209 103q-5 7 -3 17t9 14z" />
<glyph unicode="&#xe8;" d="M682 1090l-33 -46q-4 -7 -14 -9t-17 3l-339 213q-7 4 -9.5 14t2.5 17l56 74q12 19 30 4l320 -238q18 -15 4 -32zM528 844q187 0 306.5 -113t119.5 -317q0 -23 -22 -23h-686q5 -130 79 -205t203 -75q126 0 201 69q15 15 37 6l84 -43q19 -12 6 -28q-124 -140 -328 -140 q-187 0 -306.5 114t-119.5 321t119.5 320.5t306.5 113.5zM256 508h543q-25 95 -94 148t-177 53t-178 -53.5t-94 -147.5z" />
<glyph unicode="&#xe9;" d="M758 1251l-340 -213q-18 -12 -33 6l-33 46q-12 17 6 32l320 238q18 15 31 -4l55 -74q5 -7 3 -17t-9 -14zM528 844q187 0 306.5 -113t119.5 -317q0 -23 -22 -23h-686q5 -130 79 -205t203 -75q126 0 201 69q15 15 37 6l84 -43q19 -12 6 -28q-124 -140 -328 -140 q-187 0 -306.5 114t-119.5 321t119.5 320.5t306.5 113.5zM256 508h543q-25 95 -94 148t-177 53t-178 -53.5t-94 -147.5z" />
<glyph unicode="&#xea;" d="M528 1167l-217 -129q-17 -13 -32 6l-33 46q-12 17 6 32l258 191q18 15 37 0l256 -191q18 -15 4 -32l-33 -46q-5 -8 -14 -10t-17 4zM528 844q187 0 306.5 -113t119.5 -317q0 -23 -22 -23h-686q5 -130 79 -205t203 -75q126 0 201 69q15 15 37 6l84 -43q19 -12 6 -28 q-124 -140 -328 -140q-187 0 -306.5 114t-119.5 321t119.5 320.5t306.5 113.5zM256 508h543q-25 95 -94 148t-177 53t-178 -53.5t-94 -147.5z" />
<glyph unicode="&#xeb;" d="M193 1126q0 43 31 75t75 32q43 0 75 -32t32 -75q0 -44 -32 -75t-75 -31q-44 0 -75 31t-31 75zM651 1126q0 43 31.5 75t75.5 32q43 0 74.5 -32t31.5 -75q0 -44 -31.5 -75t-74.5 -31q-44 0 -75.5 31t-31.5 75zM528 844q187 0 306.5 -113t119.5 -317q0 -23 -22 -23h-686 q5 -130 79 -205t203 -75q126 0 201 69q15 15 37 6l84 -43q19 -12 6 -28q-124 -140 -328 -140q-187 0 -306.5 114t-119.5 321t119.5 320.5t306.5 113.5zM256 508h543q-25 95 -94 148t-177 53t-178 -53.5t-94 -147.5z" />
<glyph unicode="&#xec;" horiz-adv-x="477" d="M309 797v-774q0 -23 -22 -23h-99q-22 0 -22 23v774q0 22 22 22h99q22 0 22 -22zM119 1360l319 -238q18 -15 4 -32l-32 -46q-4 -7 -14 -9t-17 3l-340 213q-7 4 -9 14t3 17l55 74q13 19 31 4z" />
<glyph unicode="&#xed;" horiz-adv-x="477" d="M309 797v-774q0 -23 -22 -23h-99q-22 0 -22 23v774q0 22 22 22h99q22 0 22 -22zM39 1122l319 238q18 15 31 -4l55 -74q5 -7 3 -17t-9 -14l-340 -213q-17 -12 -32 6l-33 46q-12 17 6 32z" />
<glyph unicode="&#xee;" horiz-adv-x="628" d="M385 797v-774q0 -23 -23 -23h-98q-22 0 -22 23v774q0 22 22 22h98q23 0 23 -22zM39 1122l258 191q19 15 37 0l256 -191q18 -15 4 -32l-33 -46q-5 -8 -14 -10t-17 4l-215 129l-217 -129q-17 -13 -32 6l-33 46q-12 17 6 32z" />
<glyph unicode="&#xef;" horiz-adv-x="712" d="M20 1126q0 43 31.5 75t75.5 32q43 0 74.5 -32t31.5 -75q0 -44 -31.5 -75t-74.5 -31q-44 0 -75.5 31t-31.5 75zM479 1126q0 43 31.5 75t75.5 32q43 0 74.5 -32t31.5 -75q0 -44 -31.5 -75t-74.5 -31q-44 0 -75.5 31t-31.5 75zM428 797v-774q0 -23 -22 -23h-99q-22 0 -22 23 v774q0 22 22 22h99q22 0 22 -22z" />
<glyph unicode="&#xf0;" horiz-adv-x="1095" d="M952 1235l-149 -72q168 -374 160 -749q-7 -208 -127.5 -323.5t-307.5 -115.5q-181 0 -303.5 123.5t-122.5 311.5q0 207 119.5 320.5t306.5 113.5q30 0 70.5 -7.5t98.5 -33.5t96 -66q-23 178 -109 371l-168 -80q-23 -10 -31 10l-22 49q-10 23 10 31l170 80q-47 96 -94 174 q-9 19 8 33l70 39q23 10 32 -6q87 -157 101 -185l147 70q23 10 31 -10l25 -47q8 -19 -11 -31zM528 111q134 0 208.5 80.5t74.5 218.5t-74.5 218.5t-208.5 80.5t-208 -80.5t-74 -218.5t74 -218.5t208 -80.5z" />
<glyph unicode="&#xf1;" horiz-adv-x="1040" d="M774 23v411q0 78 -23.5 134.5t-63 85.5t-81 42t-86.5 13t-86.5 -13t-81 -42t-63 -85.5t-23.5 -134.5v-411q0 -23 -22 -23h-99q-22 0 -22 23v411q0 194 110 302t287 108t287.5 -108t110.5 -302v-411q0 -23 -23 -23h-98q-23 0 -23 23zM639 1024q-44 0 -81.5 15.5t-59 34.5 t-46 34.5t-44.5 15.5q-67 0 -82 -75q-10 -23 -27 -23h-59q-24 0 -21 23q11 93 60.5 143.5t130.5 50.5q43 0 74 -16t47 -35t43 -35t61 -16q37 0 58 23t26 55q3 22 24 22h58q23 0 20 -22q-8 -93 -54.5 -144t-127.5 -51z" />
<glyph unicode="&#xf2;" d="M528 844q187 0 306.5 -113.5t119.5 -320.5t-119.5 -321t-306.5 -114t-306.5 114t-119.5 321t119.5 320.5t306.5 113.5zM528 111q134 0 208.5 80.5t74.5 218.5t-74.5 218.5t-208.5 80.5t-208 -80.5t-74 -218.5t74 -218.5t208 -80.5zM408 1360l319 -238q18 -15 4 -32 l-33 -46q-4 -7 -13.5 -9t-16.5 3l-340 213q-7 4 -9 14t3 17l55 74q13 19 31 4z" />
<glyph unicode="&#xf3;" d="M528 844q187 0 306.5 -113.5t119.5 -320.5t-119.5 -321t-306.5 -114t-306.5 114t-119.5 321t119.5 320.5t306.5 113.5zM528 111q134 0 208.5 80.5t74.5 218.5t-74.5 218.5t-208.5 80.5t-208 -80.5t-74 -218.5t74 -218.5t208 -80.5zM328 1122l319 238q18 15 31 -4l55 -74 q5 -7 3 -17t-9 -14l-340 -213q-7 -5 -17 -3t-14 9l-32 46q-14 17 4 32z" />
<glyph unicode="&#xf4;" d="M528 844q187 0 306.5 -113.5t119.5 -320.5t-119.5 -321t-306.5 -114t-306.5 114t-119.5 321t119.5 320.5t306.5 113.5zM528 111q134 0 208.5 80.5t74.5 218.5t-74.5 218.5t-208.5 80.5t-208 -80.5t-74 -218.5t74 -218.5t208 -80.5zM252 1122l258 191q18 15 37 0l256 -191 q18 -15 4 -32l-33 -46q-5 -8 -14 -10t-17 4l-215 129l-217 -129q-17 -13 -32 6l-33 46q-12 17 6 32z" />
<glyph unicode="&#xf5;" d="M528 844q187 0 306.5 -113.5t119.5 -320.5t-119.5 -321t-306.5 -114t-306.5 114t-119.5 321t119.5 320.5t306.5 113.5zM528 111q134 0 208.5 80.5t74.5 218.5t-74.5 218.5t-208.5 80.5t-208 -80.5t-74 -218.5t74 -218.5t208 -80.5zM647 1024q-44 0 -81.5 15.5t-59 34.5 t-46 34.5t-44.5 15.5q-67 0 -82 -75q-10 -23 -27 -23h-59q-24 0 -21 23q11 93 60.5 143.5t130.5 50.5q43 0 74 -16t47 -35t43 -35t61 -16q37 0 58 23t26 55q3 22 25 22h57q23 0 20 -22q-8 -93 -54.5 -144t-127.5 -51z" />
<glyph unicode="&#xf6;" d="M528 844q187 0 306.5 -113.5t119.5 -320.5t-119.5 -321t-306.5 -114t-306.5 114t-119.5 321t119.5 320.5t306.5 113.5zM528 111q134 0 208.5 80.5t74.5 218.5t-74.5 218.5t-208.5 80.5t-208 -80.5t-74 -218.5t74 -218.5t208 -80.5zM193 1126q0 43 31 75t75 32 q43 0 75 -32t32 -75q0 -44 -32 -75t-75 -31q-44 0 -75 31t-31 75zM651 1126q0 43 31.5 75t75.5 32q43 0 74.5 -32t31.5 -75q0 -44 -31.5 -75t-74.5 -31q-44 0 -75.5 31t-31.5 75z" />
<glyph unicode="&#xf7;" horiz-adv-x="903" d="M336 106q0 50 34 83.5t83 33.5q48 0 82 -34t34 -83q0 -47 -34.5 -81.5t-81.5 -34.5q-49 0 -83 34t-34 82zM336 715q0 49 33.5 82.5t83.5 33.5q48 0 82 -33.5t34 -82.5q0 -47 -34.5 -82t-81.5 -35q-49 0 -83 34.5t-34 82.5zM737 354h-571q-23 0 -23 23v63q0 23 23 23h571 q23 0 23 -23v-63q0 -23 -23 -23z" />
<glyph unicode="&#xf8;" d="M528 844q139 0 240 -64l70 84q16 16 30 2l45 -37q19 -16 5 -30l-70 -84q106 -112 106 -305q0 -207 -119.5 -321t-306.5 -114q-141 0 -245 66l-70 -84q-16 -16 -33 -2l-45 37q-6 6 -7 15.5t5 15.5l70 83q-101 119 -101 304q0 207 119.5 320.5t306.5 113.5zM528 111 q134 0 208.5 80.5t74.5 218.5q0 121 -55 194l-383 -457q59 -36 155 -36zM246 410q0 -123 51 -191l381 455q-65 35 -150 35q-134 0 -208 -80.5t-74 -218.5z" />
<glyph unicode="&#xf9;" horiz-adv-x="1040" d="M774 385v412q0 22 23 22h98q23 0 23 -22v-412q0 -194 -110.5 -302t-287.5 -108t-287 108t-110 302v412q0 22 22 22h99q22 0 22 -22v-412q0 -63 16 -112.5t41.5 -79t60 -49t68 -26.5t68.5 -7t68.5 7t68 26.5t60 49t41.5 79t16 112.5zM399 1360l320 -238q18 -15 4 -32 l-33 -46q-4 -7 -14 -9t-17 3l-340 213q-7 4 -9 14t3 17l56 74q12 19 30 4z" />
<glyph unicode="&#xfa;" horiz-adv-x="1040" d="M266 797v-412q0 -63 16 -112.5t41.5 -79t60 -49t68 -26.5t68.5 -7t68.5 7t68 26.5t60 49t41.5 79t16 112.5v412q0 22 23 22h98q23 0 23 -22v-412q0 -194 -110.5 -302t-287.5 -108t-287 108t-110 302v412q0 22 22 22h99q22 0 22 -22zM322 1122l319 238q18 15 31 -4l55 -74 q5 -7 3 -17t-9 -14l-340 -213q-7 -5 -17 -3t-14 9l-33 46q-14 16 5 32z" />
<glyph unicode="&#xfb;" horiz-adv-x="1040" d="M774 385v412q0 22 23 22h98q23 0 23 -22v-412q0 -194 -110.5 -302t-287.5 -108t-287 108t-110 302v412q0 22 22 22h99q22 0 22 -22v-412q0 -63 16 -112.5t41.5 -79t60 -49t68 -26.5t68.5 -7t68.5 7t68 26.5t60 49t41.5 79t16 112.5zM244 1122l258 191q18 15 37 0 l256 -191q18 -15 4 -32l-33 -46q-5 -8 -14 -10t-17 4l-215 129l-217 -129q-8 -6 -17.5 -4t-15.5 10l-32 46q-12 17 6 32z" />
<glyph unicode="&#xfc;" horiz-adv-x="1040" d="M184 1126q0 43 31.5 75t75.5 32q43 0 74.5 -32t31.5 -75q0 -44 -31.5 -75t-74.5 -31q-44 0 -75.5 31t-31.5 75zM643 1126q0 43 31.5 75t75.5 32q43 0 74.5 -32t31.5 -75q0 -44 -31.5 -75t-74.5 -31q-44 0 -75.5 31t-31.5 75zM774 385v412q0 22 23 22h98q23 0 23 -22v-412 q0 -194 -110.5 -302t-287.5 -108t-287 108t-110 302v412q0 22 22 22h99q22 0 22 -22v-412q0 -63 16 -112.5t41.5 -79t60 -49t68 -26.5t68.5 -7t68.5 7t68 26.5t60 49t41.5 79t16 112.5z" />
<glyph unicode="&#xfd;" horiz-adv-x="1005" d="M291 -602l-94 33q-21 9 -13 28l242 541l-356 799q-4 7 1 13.5t13 6.5h111q24 0 30 -20l279 -629l276 629q6 20 31 20h111q8 0 12 -6.5t0 -13.5l-615 -1389q-10 -23 -28 -12zM334 1122l319 238q18 15 31 -4l55 -74q5 -7 3 -17t-9 -14l-340 -213q-18 -12 -33 6l-32 46 q-12 17 6 32z" />
<glyph unicode="&#xfe;" horiz-adv-x="1097" d="M575 844q185 5 302.5 -111.5t117.5 -322.5v-2q0 -207 -117.5 -322.5t-302.5 -110.5q-83 2 -159.5 37.5t-128.5 104.5v-709q0 -22 -23 -22h-98q-23 0 -23 22v2003q0 23 23 23h98q23 0 23 -23v-709q52 69 128.5 104.5t159.5 37.5zM852 408v2q0 141 -74 220t-209 79 q-132 0 -204.5 -78.5t-77.5 -220.5q5 -142 77.5 -220.5t204.5 -78.5q134 0 207.5 77.5t75.5 219.5z" />
<glyph unicode="&#xff;" horiz-adv-x="1005" d="M180 1126q0 43 31.5 75t75.5 32q43 0 74.5 -32t31.5 -75q0 -44 -31.5 -75t-74.5 -31q-44 0 -75.5 31t-31.5 75zM639 1126q0 43 31 75t75 32q43 0 75 -32t32 -75q0 -44 -32 -75t-75 -31q-44 0 -75 31t-31 75zM291 -602l-94 33q-21 9 -13 28l242 541l-356 799q-4 7 1 13.5 t13 6.5h111q24 0 30 -20l279 -629l276 629q6 20 31 20h111q8 0 12 -6.5t0 -13.5l-615 -1389q-10 -23 -28 -12z" />
<glyph unicode="&#x152;" horiz-adv-x="2459" d="M2200 768v-102q0 -23 -23 -23h-604v-496h741q23 0 23 -22v-102q0 -23 -23 -23h-874q-23 0 -23 23v215q-99 -128 -246 -197.5t-323 -69.5q-156 0 -287.5 48t-229.5 140t-153 234.5t-55 321.5t55 322t153 235.5t229.5 141t287.5 48.5q177 0 324 -69.5t245 -200.5v219 q0 23 23 23h874q23 0 23 -23v-102q0 -23 -23 -23h-741v-495h604q23 0 23 -23zM848 119q262 0 411.5 149t157.5 418v55q-8 271 -157.5 422.5t-411.5 151.5q-270 0 -419.5 -158.5t-149.5 -441.5t149.5 -439.5t419.5 -156.5z" />
<glyph unicode="&#x153;" horiz-adv-x="1765" d="M1491 209l72 -59q19 -15 4 -33q-121 -142 -330 -142q-240 0 -354 172q-56 -85 -148 -128.5t-207 -43.5q-187 0 -306.5 114t-119.5 321t119.5 320.5t306.5 113.5q115 0 207 -43.5t148 -128.5q114 172 354 172q187 0 306.5 -113t119.5 -317q0 -23 -23 -23h-686 q5 -130 79.5 -205t203.5 -75q69 0 129.5 25.5t95.5 68.5q4 7 13.5 8.5t15.5 -4.5zM528 111q132 0 205 78.5t78 220.5q-5 142 -78 220.5t-205 78.5q-134 0 -208 -80.5t-74 -218.5t74 -218.5t208 -80.5zM1237 709q-108 0 -178 -53.5t-94 -147.5h542q-25 95 -93.5 148 t-176.5 53z" />
<glyph unicode="&#x178;" horiz-adv-x="1433" d="M639 23v550l-545 842q-4 6 -1 12.5t11 6.5h140q19 0 35 -19l438 -684l438 684q16 19 35 19h139q8 0 11 -6.5t-1 -12.5l-544 -842v-550q0 -23 -23 -23h-110q-23 0 -23 23zM381 1741q0 43 31 74.5t75 31.5q43 0 75 -31.5t32 -74.5q0 -44 -32 -75.5t-75 -31.5 q-44 0 -75 31.5t-31 75.5zM840 1741q0 43 31 74.5t75 31.5q43 0 75 -31.5t32 -74.5q0 -44 -32 -75.5t-75 -31.5q-44 0 -75 31.5t-31 75.5z" />
<glyph unicode="&#x2c6;" horiz-adv-x="587" d="M18 1122l258 191q18 15 37 0l256 -191q18 -15 4 -32l-32 -46q-5 -8 -14 -10t-17 4l-215 129l-217 -129q-8 -6 -17.5 -4t-15.5 10l-33 46q-12 17 6 32z" />
<glyph unicode="&#x2dc;" horiz-adv-x="606" d="M422 1024q-44 0 -81.5 15.5t-59 34.5t-46.5 34.5t-45 15.5q-66 0 -81 -75q-10 -23 -27 -23h-59q-24 0 -21 23q11 93 60.5 143.5t130.5 50.5q43 0 74 -16t47 -35t43 -35t61 -16q37 0 58 23t26 55q3 22 24 22h58q23 0 20 -22q-8 -93 -54.5 -144t-127.5 -51z" />
<glyph unicode="&#x2000;" horiz-adv-x="1014" />
<glyph unicode="&#x2001;" horiz-adv-x="2028" />
<glyph unicode="&#x2002;" horiz-adv-x="1014" />
<glyph unicode="&#x2003;" horiz-adv-x="2028" />
<glyph unicode="&#x2004;" horiz-adv-x="676" />
<glyph unicode="&#x2005;" horiz-adv-x="507" />
<glyph unicode="&#x2006;" horiz-adv-x="338" />
<glyph unicode="&#x2007;" horiz-adv-x="338" />
<glyph unicode="&#x2008;" horiz-adv-x="253" />
<glyph unicode="&#x2009;" horiz-adv-x="405" />
<glyph unicode="&#x200a;" horiz-adv-x="112" />
<glyph unicode="&#x2010;" horiz-adv-x="903" d="M737 354h-571q-23 0 -23 23v63q0 23 23 23h571q23 0 23 -23v-63q0 -23 -23 -23z" />
<glyph unicode="&#x2011;" horiz-adv-x="903" d="M737 354h-571q-23 0 -23 23v63q0 23 23 23h571q23 0 23 -23v-63q0 -23 -23 -23z" />
<glyph unicode="&#x2012;" horiz-adv-x="903" d="M737 354h-571q-23 0 -23 23v63q0 23 23 23h571q23 0 23 -23v-63q0 -23 -23 -23z" />
<glyph unicode="&#x2013;" horiz-adv-x="991" d="M825 354h-659q-23 0 -23 23v63q0 23 23 23h659q23 0 23 -23v-63q0 -23 -23 -23z" />
<glyph unicode="&#x2014;" horiz-adv-x="1126" d="M961 354h-795q-23 0 -23 23v63q0 23 23 23h795q22 0 22 -23v-63q0 -23 -22 -23z" />
<glyph unicode="&#x2018;" horiz-adv-x="389" d="M147 1092l76 319q7 23 29 23h12q23 0 23 -23v-444q0 -23 -23 -23h-98q-23 0 -23 23v80q0 17 4 45z" />
<glyph unicode="&#x2019;" horiz-adv-x="389" d="M240 1286l-76 -319q-3 -23 -27 -23h-12q-23 0 -23 23v444q0 23 23 23h98q23 0 23 -23v-80q0 -24 -6 -45z" />
<glyph unicode="&#x201a;" horiz-adv-x="485" d="M338 166l-88 -399q-3 -23 -27 -23h-57q-24 0 -21 23l41 399q0 22 25 22h108q22 0 19 -22z" />
<glyph unicode="&#x201c;" horiz-adv-x="661" d="M147 1092l76 319q7 23 29 23h12q23 0 23 -23v-444q0 -23 -23 -23h-98q-23 0 -23 23v80q0 17 4 45zM420 1092l76 319q7 23 28 23h13q22 0 22 -23v-444q0 -23 -22 -23h-99q-22 0 -22 23v80q0 17 4 45z" />
<glyph unicode="&#x201d;" horiz-adv-x="661" d="M512 1286l-76 -319q-3 -23 -26 -23h-13q-22 0 -22 23v444q0 23 22 23h99q22 0 22 -23v-80q0 -24 -6 -45zM240 1286l-76 -319q-3 -23 -27 -23h-12q-23 0 -23 23v444q0 23 23 23h98q23 0 23 -23v-80q0 -24 -6 -45z" />
<glyph unicode="&#x201e;" horiz-adv-x="753" d="M338 166l-88 -399q-3 -23 -27 -23h-57q-24 0 -21 23l41 399q0 22 25 22h108q22 0 19 -22zM606 166l-88 -399q-3 -23 -26 -23h-58q-23 0 -20 23l41 399q0 22 24 22h109q21 0 18 -22z" />
<glyph unicode="&#x2022;" horiz-adv-x="561" d="M143 410q0 57 40.5 97t97.5 40t97 -40t40 -97t-40 -97.5t-97 -40.5t-97.5 40.5t-40.5 97.5z" />
<glyph unicode="&#x2026;" horiz-adv-x="1562" d="M143 102q0 50 33.5 83.5t83.5 33.5q48 0 82.5 -34t34.5 -83q0 -47 -35 -81.5t-82 -34.5q-49 0 -83 34t-34 82zM664 102q0 50 33.5 83.5t82.5 33.5q48 0 82.5 -34t34.5 -83q0 -47 -35 -81.5t-82 -34.5q-49 0 -82.5 34t-33.5 82zM1186 102q0 50 34 83.5t83 33.5 q48 0 82 -34t34 -83q0 -47 -34.5 -81.5t-81.5 -34.5q-49 0 -83 34t-34 82z" />
<glyph unicode="&#x202f;" horiz-adv-x="405" />
<glyph unicode="&#x2039;" horiz-adv-x="755" d="M530 10l-391 379q-15 15 0 33l391 379q15 18 33 0l53 -51q16 -20 0 -33l-288 -311l288 -312q16 -13 0 -33l-53 -51q-18 -18 -33 0z" />
<glyph unicode="&#x203a;" horiz-adv-x="755" d="M616 389l-391 -379q-17 -17 -32 0l-54 51q-17 17 -2 33l291 312l-291 311q-15 15 2 33l54 51q15 17 32 0l391 -379q15 -18 0 -33z" />
<glyph unicode="&#x205f;" horiz-adv-x="507" />
<glyph unicode="&#x20ac;" horiz-adv-x="1302" d="M41 805v76q0 22 22 22h138q18 147 64 256t115 174.5t153 97t186 31.5q351 0 475 -360q9 -15 -14 -29l-90 -29q-18 -9 -27 13q-86 270 -344 270q-320 0 -375 -424h406q22 0 22 -22v-76q0 -23 -22 -23h-416v-65q0 -49 2 -72h414q22 0 22 -22v-76q0 -23 -22 -23h-406 q56 -418 375 -418q247 0 334 250q9 21 28 13l90 -35q21 -9 13 -29q-125 -334 -465 -334q-208 0 -345.5 135t-172.5 418h-138q-22 0 -22 23v76q0 22 22 22h130q-3 35 -3 72v65h-127q-22 0 -22 23z" />
<glyph unicode="&#x2122;" horiz-adv-x="1470" d="M1311 1434h55q23 0 23 -23v-641q0 -22 -23 -22h-53q-23 0 -23 22v500l-239 -320q-2 -2 -4 -2q-3 0 -5 2l-231 320v-500q0 -22 -23 -22h-55q-22 0 -22 22v641q0 23 22 23h55q22 0 35 -19l228 -307l223 307q16 19 37 19zM104 1434h459q23 0 23 -23v-53q0 -23 -23 -23h-178 v-565q0 -22 -23 -22h-55q-22 0 -22 22v565h-181q-22 0 -22 23v53q0 23 22 23z" />
<glyph unicode="&#x25fc;" horiz-adv-x="819" d="M0 819h819v-819h-819v819z" />
</font>
</defs>
</svg>
