<?xml version="1.0" standalone="no"?>
<!DOCTYPE svg PUBLIC "-//W3C//DTD SVG 1.1//EN" "http://www.w3.org/Graphics/SVG/1.1/DTD/svg11.dtd" >
<svg xmlns="http://www.w3.org/2000/svg">
<metadata></metadata>
<defs>
<font id="minimomedium_oblique" horiz-adv-x="1056" >
<font-face units-per-em="2048" ascent="1536" descent="-512" />
<missing-glyph horiz-adv-x="614" />
<glyph unicode="&#xfb01;" horiz-adv-x="1265" d="M885 1403l-33 -113q-12 -31 -37 -22q-58 10 -100 10q-173 0 -193 -164l-43 -295h246q28 0 25 -28l-19 -123q0 -13 -9.5 -21t-23.5 -8h-245l-84 -610q-3 -29 -31 -29h-131q-30 0 -27 29l84 610h-139q-25 0 -25 29l19 123q3 28 33 28h139l43 295q12 92 47 160.5t88 108 t115 58.5t135 19q78 0 151 -20q12 -5 16.5 -15t-1.5 -22zM1180 791l-107 -762q-3 -29 -31 -29h-131q-29 0 -26 29l106 762q3 28 33 28h131q28 0 25 -28zM1022 1145q6 47 45 81t86 34t75.5 -34t22.5 -81q-9 -48 -46.5 -81.5t-84.5 -33.5q-48 0 -77.5 34t-20.5 81z" />
<glyph unicode="&#xfb02;" horiz-adv-x="1265" d="M885 1403l-33 -113q-12 -31 -37 -22q-58 10 -100 10q-173 0 -193 -164l-43 -295h246q28 0 25 -28l-19 -123q0 -13 -9.5 -21t-23.5 -8h-245l-84 -610q-3 -29 -31 -29h-131q-30 0 -27 29l84 610h-139q-25 0 -25 29l19 123q3 28 33 28h139l43 295q12 92 47 160.5t88 108 t115 58.5t135 19q78 0 151 -20q12 -5 16.5 -15t-1.5 -22zM1266 1405l-193 -1376q-3 -29 -31 -29h-131q-29 0 -26 29l192 1376q3 29 33 29h131q28 0 25 -29z" />
<glyph horiz-adv-x="0" />
<glyph horiz-adv-x="682" />
<glyph unicode=" "  horiz-adv-x="614" />
<glyph unicode="&#x09;" horiz-adv-x="614" />
<glyph unicode="&#xa0;" horiz-adv-x="614" />
<glyph unicode="!" horiz-adv-x="540" d="M106 104q8 54 49 90.5t95 36.5q52 0 84.5 -37t25.5 -90q-6 -53 -48.5 -90t-94.5 -37q-54 0 -85.5 36.5t-25.5 90.5zM516 1405l-149 -936q-3 -29 -33 -29h-107q-27 0 -24 29l108 936q6 29 33 29h148q30 0 24 -29z" />
<glyph unicode="&#x22;" horiz-adv-x="710" d="M719 1405l-84 -475q0 -13 -9.5 -21t-23.5 -8h-80q-23 0 -26 29l51 475q3 29 33 29h116q12 0 19 -8.5t4 -20.5zM387 1405l-84 -475q0 -13 -9.5 -21t-23.5 -8h-80q-23 0 -26 29l51 475q3 29 33 29h117q12 0 18.5 -8.5t3.5 -20.5z" />
<glyph unicode="#" horiz-adv-x="1280" d="M1090 367h-195l-74 -338q-6 -29 -33 -29h-77q-12 0 -20 8.5t-5 20.5l74 338h-285l-74 -338q-6 -29 -32 -29h-78q-12 0 -20 8.5t-5 20.5l74 338h-186q-31 0 -25 28l8 78q3 29 33 29h197l86 411h-187q-27 0 -24 29l10 76q3 29 33 29h196l74 358q10 29 35 29h78 q12 0 19 -8.5t3 -20.5l-74 -358h285l74 358q10 29 35 29h77q12 0 19.5 -8.5t3.5 -20.5l-74 -358h187q27 0 24 -29l-10 -76q-3 -29 -33 -29h-196l-86 -411h186q28 0 25 -29l-11 -78q-6 -28 -32 -28zM786 502l86 411h-284l-86 -411h284z" />
<glyph unicode="$" horiz-adv-x="1259" d="M831 1257l-63 -456q75 -22 120.5 -39t105.5 -50.5t90.5 -72.5t48 -102t6.5 -142q-23 -160 -155 -280t-331 -140l-20 -145q-6 -29 -33 -29h-102q-14 0 -21 8t-4 21l21 145q-162 18 -261.5 101t-113.5 235q-3 26 26 37l146 37q11 4 19.5 -2.5t8.5 -17.5q9 -72 62.5 -121 t140.5 -66l66 469q-89 25 -145.5 49.5t-114.5 69t-80 115.5t-8 168q21 157 140.5 270t317.5 137l25 166q6 29 33 29h102q14 0 21 -8t4 -21l-25 -166q148 -19 242.5 -108t113.5 -230q3 -22 -26 -33l-141 -32q-24 -5 -33 22q-9 68 -55.5 116.5t-127.5 65.5zM616 850l56 407 q-96 -18 -153 -73.5t-66 -128.5q-11 -79 31 -126t132 -79zM739 602l-57 -426q105 17 172 77t78 138q11 84 -39.5 131t-153.5 80z" />
<glyph unicode="%" horiz-adv-x="1792" d="M1683 334q-24 -169 -132.5 -260.5t-260.5 -91.5t-235.5 91.5t-59.5 260.5t133 260.5t261 91.5t235 -91.5t59 -260.5zM1532 334q9 59 -3 102t-39.5 64.5t-57.5 31t-64 9.5q-27 0 -53 -5.5t-54 -20t-50 -37t-39.5 -59.5t-24.5 -85t0 -85t23 -59.5t40.5 -37t49 -20 t51.5 -5.5q34 0 66.5 9.5t65.5 31t57 64.5t32 102zM893 1100q-24 -169 -132.5 -260.5t-260.5 -91.5t-235.5 91.5t-59.5 260.5t132.5 260.5t260.5 91.5t235.5 -91.5t59.5 -260.5zM741 1100q8 59 -4 102t-39 64.5t-56.5 31t-63.5 9.5q-78 0 -142 -47.5t-80 -159.5 q-9 -49 -0.5 -85t23.5 -59.5t40 -37.5t49.5 -19.5t51.5 -5.5q34 0 66 9.5t65 31t57 64.5t33 102zM500 0h-138q-10 0 -13.5 9t1.5 16l993 1384q19 25 46 25h137q10 0 13.5 -9t-1.5 -16l-993 -1384q-19 -25 -45 -25z" />
<glyph unicode="&#x26;" horiz-adv-x="1509" d="M1165 305l183 -215q17 -20 -7 -41l-100 -82q-21 -21 -41 0l-158 185q-184 -173 -436 -181q-139 0 -244 51t-158.5 151.5t-35.5 234.5q30 203 217 327q15 10 33.5 21t42 24t37.5 21q-128 187 -105 342q18 134 129 226.5t273 92.5q165 0 243 -96.5t54 -243.5 q-11 -63 -40 -118t-74.5 -100t-91.5 -78.5t-108 -69.5l262 -305q55 113 66 208q3 29 33 29h131q27 0 24 -29q-38 -204 -129 -354zM770 1282q-46 0 -81 -16t-53.5 -42.5t-28 -51.5t-13.5 -52q-15 -102 78 -231q95 53 149 106t70 127q-1 11 1.5 29.5t-4.5 41t-17.5 42.5 t-37 33.5t-63.5 13.5zM612 164q190 0 312 125l-316 368q-106 -62 -166 -122.5t-71 -141.5q-13 -94 50 -161.5t191 -67.5z" />
<glyph unicode="'" horiz-adv-x="378" d="M387 1405l-84 -475q0 -13 -9.5 -21t-23.5 -8h-80q-23 0 -26 29l51 475q3 29 33 29h117q12 0 18.5 -8.5t3.5 -20.5z" />
<glyph unicode="(" horiz-adv-x="714" d="M772 1722l80 -92q13 -18 -4 -41q-183 -160 -302.5 -395.5t-160.5 -525.5q-41 -291 12.5 -526.5t192.5 -395.5q12 -20 -6 -41l-109 -92q-11 -11 -22 -11t-19 11q-170 184 -242 451t-24 604q46 338 192.5 604t370.5 450q22 22 41 0z" />
<glyph unicode=")" horiz-adv-x="714" d="M219 1630l109 92q25 22 41 0q169 -184 241.5 -450t26.5 -604q-48 -339 -195 -605.5t-370 -449.5q-19 -22 -41 0l-78 92q-16 19 6 41q182 160 301 396t160 526q41 291 -12.5 526t-192.5 395q-17 20 4 41z" />
<glyph unicode="*" horiz-adv-x="901" d="M293 1290l178 -102l35 217q6 29 33 29h69q14 0 21 -8t4 -21l-23 -217l207 102q10 6 21.5 3t15.5 -13l25 -59q12 -23 -17 -39l-198 -115l167 -115q22 -16 5 -39l-41 -59q-17 -24 -41 -10l-179 102l-36 -217q-3 -29 -33 -29h-70q-27 0 -24 29l24 217l-207 -102 q-24 -15 -36 10l-25 59q-12 24 16 39l201 115l-170 115q-22 15 -4 39l41 59q18 24 41 10z" />
<glyph unicode="+" horiz-adv-x="962" d="M807 330h-229l-33 -230q-6 -28 -33 -28h-100q-31 0 -25 28l33 230h-232q-30 0 -24 28l12 101q6 28 33 28h231l33 232q6 29 33 29h100q14 0 21 -8t4 -21l-33 -232h229q31 0 25 -28l-12 -101q-6 -28 -33 -28z" />
<glyph unicode="," horiz-adv-x="522" d="M395 160l-137 -387q-16 -29 -39 -29h-82q-28 0 -22 29l94 387q3 12 13 20t22 8h133q11 0 17.5 -9t0.5 -19z" />
<glyph unicode="-" horiz-adv-x="913" d="M758 330h-570q-30 0 -24 28l12 101q6 28 33 28h569q31 0 25 -28l-12 -101q-6 -28 -33 -28z" />
<glyph unicode="." horiz-adv-x="540" d="M150 104q8 54 48.5 90.5t94.5 36.5q52 0 84.5 -37t25.5 -90t-50 -90t-95 -37q-54 0 -85 36.5t-23 90.5z" />
<glyph unicode="/" horiz-adv-x="851" d="M127 0h-131q-11 0 -15.5 8.5t-0.5 18.5l804 1482q12 27 43 27h136q11 0 15.5 -8t-1.5 -19l-809 -1482q-9 -27 -41 -27z" />
<glyph unicode="0" horiz-adv-x="1302" d="M1229 717q-28 -196 -88 -342t-144 -233t-184 -129t-217 -42q-93 0 -168 26t-134.5 82t-92.5 143.5t-43 210.5t14 284q22 158 65 283.5t101.5 211t133 142.5t156.5 82.5t175 25.5t168 -26t134.5 -81.5t93 -143t44 -210.5t-13.5 -284zM1032 717q38 278 -27.5 417.5 t-226.5 139.5q-162 0 -266.5 -139.5t-142.5 -417.5q-39 -278 25.5 -417.5t226.5 -139.5t267 139.5t144 417.5z" />
<glyph unicode="1" horiz-adv-x="735" d="M735 1405l-192 -1376q-3 -29 -31 -29h-139q-30 0 -27 29l160 1132l-223 -147q-29 -15 -41 6l-60 84q-13 23 8 41l345 270q25 19 53 19h123q30 0 24 -29z" />
<glyph unicode="2" horiz-adv-x="1132" d="M371 188h624q31 0 25 -28l-19 -131q-3 -29 -30 -29h-862q-30 0 -27 29l18 139q7 32 29 49l569 496q132 113 180.5 190t55.5 146q16 103 -41.5 164t-187.5 61q-123 0 -206 -65t-112 -169q-9 -27 -35 -24l-129 14q-12 2 -19 11.5t-3 21.5q51 190 190.5 294.5t337.5 104.5 q209 0 319 -107t80 -311q-5 -44 -18.5 -86t-43.5 -98.5t-89.5 -125.5t-145.5 -144z" />
<glyph unicode="3" horiz-adv-x="1224" d="M956 795q87 -53 129 -148t25 -221q-23 -143 -104.5 -247t-199.5 -156t-259 -52q-100 0 -182 25t-142 73.5t-91.5 125.5t-27.5 176q0 12 9.5 21t21.5 9l139 15q27 0 27 -27q-4 -115 66.5 -172t203.5 -57q139 0 231.5 69.5t110.5 196.5q18 131 -53.5 197.5t-212.5 66.5 h-110q-14 0 -21 8t-4 21l16 127q6 28 33 28h111q233 6 260 199q13 97 -40 149t-163 52q-96 0 -161 -41.5t-89 -112.5q-9 -27 -37 -24l-135 16q-11 2 -17.5 12t-0.5 21q44 156 169 236.5t296 80.5q188 0 292 -98.5t82 -290.5q-27 -176 -172 -278z" />
<glyph unicode="4" horiz-adv-x="1048" d="M584 29l39 270h-543q-28 0 -25 29l19 131q3 30 20 55l549 893q15 27 43 27h160q11 0 15.5 -8t-1.5 -19l-563 -920h352l31 222q3 28 33 28h131q27 0 24 -28l-30 -222h137q27 0 24 -28l-18 -131q-3 -29 -33 -29h-137l-39 -270q-3 -29 -31 -29h-131q-29 0 -26 29z" />
<glyph unicode="5" horiz-adv-x="1208" d="M897 426q15 119 -52.5 192.5t-191.5 73.5q-108 0 -202 -43q-34 -12 -60 -6l-100 25q-26 6 -23 34l97 703q6 29 32 29h744q30 0 24 -29l-16 -131q-6 -29 -33 -29h-584l-57 -414q116 46 227 46q90 0 167.5 -30.5t133 -86t81 -142.5t10.5 -192q-28 -195 -186 -325t-363 -130 q-200 0 -313.5 105.5t-106.5 294.5q2 12 10.5 21.5t20.5 10.5l135 17q11 1 18.5 -6.5t7.5 -18.5q-5 -107 61 -172t191 -65q135 0 224 74.5t104 193.5z" />
<glyph unicode="6" horiz-adv-x="1218" d="M686 881q216 0 330 -117.5t88 -337.5q-33 -198 -184.5 -326.5t-360.5 -128.5q-214 0 -333 123.5t-93 331.5q21 154 123.5 348.5t229.5 360t268 307.5q21 21 45 6l98 -70q20 -13 0 -37q-145 -157 -229.5 -265.5t-161.5 -235.5q77 41 180 41zM659 694q-136 0 -224 -71.5 t-105 -196.5q-19 -124 50 -195t206 -71q134 0 219.5 73t103.5 193q17 125 -48.5 196.5t-201.5 71.5z" />
<glyph unicode="7" horiz-adv-x="1038" d="M1092 1210l-738 -1183q-18 -27 -43 -27h-159q-11 0 -16 8t1 19l754 1218h-678q-14 0 -21 8t-4 21l17 131q6 29 33 29h868q30 0 24 -29l-18 -139q-3 -25 -20 -56z" />
<glyph unicode="8" horiz-adv-x="1245" d="M774 1462q188 0 292.5 -98.5t82.5 -290.5q-27 -176 -172 -278q86 -53 128 -148t25 -221q-23 -143 -104.5 -247t-199.5 -156t-259 -52q-142 0 -245.5 50t-156 154.5t-34.5 250.5q20 126 87 219.5t169 149.5q-116 95 -94 278q21 129 91 218t169 130t221 41zM594 162 q139 0 230.5 68.5t109.5 195.5q17 127 -55 196.5t-211 69.5q-145 -5 -233.5 -71.5t-106.5 -194.5q-18 -126 54 -195t212 -69zM692 872q114 4 181 58t79 143q12 93 -40.5 147t-161.5 54q-110 0 -179.5 -54t-81.5 -147q-12 -89 38.5 -143t164.5 -58z" />
<glyph unicode="9" horiz-adv-x="1218" d="M756 1462q214 0 332 -123t94 -331q-21 -154 -123.5 -348.5t-229.5 -360t-268 -307.5q-19 -22 -45 -8l-98 69q-9 6 -9 17.5t9 21.5q145 156 229 265t162 237q-77 -41 -180 -41q-216 0 -330 117.5t-88 337.5q33 198 184.5 326t360.5 128zM655 739q136 0 224.5 72t105.5 197 q19 124 -50 195t-206 71q-134 0 -219.5 -73t-103.5 -193q-17 -125 48 -197t201 -72z" />
<glyph unicode=":" horiz-adv-x="540" d="M127 104q8 54 48.5 90.5t94.5 36.5q52 0 85 -37t26 -90q-6 -53 -48.5 -90t-94.5 -37q-54 0 -85.5 36.5t-25.5 90.5zM213 719q6 54 47.5 90.5t95.5 36.5q52 0 84.5 -37t26.5 -90t-48.5 -90t-94.5 -37q-54 0 -85.5 36.5t-25.5 90.5z" />
<glyph unicode=";" horiz-adv-x="540" d="M221 719q6 54 48 90.5t96 36.5q51 0 83.5 -36.5t26.5 -90.5q-7 -53 -49 -90t-94 -37q-54 0 -86 36.5t-25 90.5zM373 160l-137 -385q-16 -29 -39 -29h-82q-29 0 -23 29l94 385q1 12 12 20t23 8h133q11 0 17 -9t2 -19z" />
<glyph unicode="&#x3c;" horiz-adv-x="788" d="M150 410q3 27 28 41l545 348q8 5 15.5 1t4.5 -14l-16 -131q-7 -32 -31 -45l-299 -200l246 -201q20 -20 14 -45l-16 -131q-3 -10 -12.5 -14t-16.5 1l-446 349q-19 11 -16 41z" />
<glyph unicode="=" horiz-adv-x="974" d="M848 549h-631q-24 0 -24 29l16 100q0 13 9.5 21t23.5 8h630q25 0 25 -29l-16 -100q0 -13 -9.5 -21t-23.5 -8zM786 113h-630q-25 0 -25 28l16 101q0 13 9.5 20.5t23.5 7.5h631q25 0 25 -28l-17 -101q0 -13 -9.5 -20.5t-23.5 -7.5z" />
<glyph unicode="&#x3e;" horiz-adv-x="788" d="M692 410q-3 -27 -28 -41l-547 -349q-6 -5 -14 -1t-5 14l17 131q7 32 30 45l299 201l-245 200q-20 20 -15 45l17 131q3 10 11.5 14t14.5 -1l449 -348q19 -11 16 -41z" />
<glyph unicode="?" horiz-adv-x="1150" d="M336 104q9 54 50 90.5t95 36.5q52 0 85 -37t24 -90q-6 -53 -49 -90t-95 -37q-54 0 -85 36.5t-25 90.5zM416 438l28 205q1 12 11 22t22 15q107 33 189.5 76.5t128.5 83t76.5 84t41 73.5t15.5 58q19 106 -35.5 162.5t-187.5 56.5q-121 0 -197.5 -64.5t-101.5 -167.5 q-9 -27 -35 -24l-127 18q-12 2 -19 11.5t-4 21.5q46 182 181 287.5t329 105.5q101 0 179.5 -25t131.5 -74.5t74 -129t4 -182.5q-5 -35 -21 -78.5t-54 -102t-91 -112.5t-139.5 -106.5t-191.5 -86.5l-19 -127q-3 -28 -33 -28h-131q-27 0 -24 28z" />
<glyph unicode="@" horiz-adv-x="2179" d="M784 -346l-65 -109q-18 -26 -43 -18q-138 50 -244.5 136.5t-178 207t-98.5 280.5t-1 345q32 220 132 406t247 313.5t335 198.5t392 71q203 0 371 -71t279.5 -198.5t160 -313.5t16.5 -406q-23 -162 -93 -296.5t-179.5 -216.5t-237.5 -85q-143 0 -229 84.5t-68 220.5 q-41 -42 -106.5 -67t-122.5 -25q-167 0 -256.5 104t-65.5 281q26 176 150 280.5t292 104.5q166 0 259.5 -105t66.5 -291l-37 -264q-12 -84 28 -127.5t109 -38.5q65 4 118.5 42t89 101t59 137.5t34.5 160.5q52 370 -128 590.5t-535 220.5q-184 0 -340.5 -63t-267.5 -173.5 t-182.5 -257t-96.5 -317.5q-39 -296 75.5 -508t350.5 -299q21 -10 10 -35zM1090 295q85 0 142 56.5t73 144.5q9 57 -2.5 97.5t-38.5 61t-56 29t-63 8.5q-78 0 -141.5 -47.5t-77.5 -148.5q-7 -58 5.5 -100t39.5 -62.5t56 -29.5t63 -9z" />
<glyph unicode="A" horiz-adv-x="1603" d="M1069 1407l391 -1380q3 -11 -2.5 -19t-15.5 -8h-164q-30 0 -39 27l-78 280h-737l-160 -280q-12 -27 -41 -27h-164q-11 0 -16.5 8t0.5 19l780 1380q15 27 43 27h166q31 0 37 -27zM913 1180l-378 -676h571z" />
<glyph unicode="B" horiz-adv-x="1316" d="M1085 715q63 -38 95.5 -120.5t17.5 -184.5q-14 -103 -56 -182.5t-103 -128.5t-136 -74t-160 -25h-602q-29 0 -26 29l192 1376q6 29 33 29h602q176 0 272 -103.5t72 -302.5q-17 -105 -72 -189.5t-129 -123.5zM344 197h426q32 0 62.5 8t65.5 28.5t60.5 65.5t34.5 111 q7 64 -6 108t-41.5 64t-56 28t-60.5 8h-426zM430 815h426q32 0 62.5 8t66 28.5t61 65.5t35.5 111q6 64 -7.5 108t-42 64.5t-56 28.5t-60.5 8h-426z" />
<glyph unicode="C" horiz-adv-x="1609" d="M172 717q32 233 151.5 404t293.5 256t382 85q222 0 379.5 -94.5t216.5 -273.5q4 -10 -1.5 -22t-16.5 -17l-137 -62q-25 -9 -37 15q-43 123 -156.5 190.5t-273.5 67.5q-244 0 -403 -149.5t-193 -399.5q-36 -250 81 -399.5t361 -149.5q160 0 293 67.5t211 190.5 q17 23 41 14l117 -61q11 -5 14 -16.5t-4 -22.5q-111 -180 -294 -274.5t-404 -94.5q-155 0 -280.5 50t-210 143t-120 235t-10.5 318z" />
<glyph unicode="D" horiz-adv-x="1505" d="M340 1434h494q150 0 269.5 -46t202 -133.5t116.5 -225.5t10 -312q-25 -174 -97.5 -311.5t-179 -225.5t-238.5 -134t-282 -46h-494q-29 0 -26 29l192 1376q6 29 33 29zM344 197h318q233 0 381.5 136.5t183.5 383.5q34 247 -76.5 383.5t-343.5 136.5h-318z" />
<glyph unicode="E" horiz-adv-x="1224" d="M971 618h-568l-59 -421h705q27 0 24 -29l-20 -139q-3 -29 -31 -29h-881q-29 0 -26 29l192 1376q6 29 33 29h881q30 0 24 -29l-18 -139q-3 -29 -33 -29h-705l-59 -422h567q14 0 21 -8t4 -21l-18 -139q-6 -29 -33 -29z" />
<glyph unicode="F" horiz-adv-x="1224" d="M971 618h-568l-84 -589q-3 -29 -30 -29h-148q-29 0 -26 29l192 1376q6 29 33 29h881q30 0 24 -29l-18 -139q-3 -29 -33 -29h-705l-59 -422h567q14 0 21 -8t4 -21l-18 -139q-6 -29 -33 -29z" />
<glyph unicode="G" horiz-adv-x="1675" d="M1577 1055l-137 -62q-25 -9 -37 15q-43 123 -156.5 190.5t-273.5 67.5q-244 0 -403 -149.5t-193 -399.5q-36 -253 80.5 -401t361.5 -148q196 0 334.5 89.5t210.5 260.5h-573q-28 0 -25 29l20 141q3 29 33 29h774q28 0 25 -29q-27 -166 -103.5 -302.5t-186.5 -226.5 t-247.5 -139t-287.5 -49q-155 0 -280.5 50t-210 143t-120 235t-10.5 318q32 233 151.5 404t293.5 256t382 85q222 0 379.5 -94.5t216.5 -273.5q4 -10 -1.5 -22t-16.5 -17z" />
<glyph unicode="H" horiz-adv-x="1517" d="M1497 1405l-192 -1376q-3 -29 -31 -29h-148q-29 0 -26 29l84 589h-781l-84 -589q-3 -29 -30 -29h-148q-29 0 -26 29l192 1376q6 29 33 29h147q14 0 21 -8t4 -21l-82 -590h780l82 590q6 29 33 29h148q30 0 24 -29z" />
<glyph unicode="I" horiz-adv-x="532" d="M512 1405l-193 -1376q-3 -29 -30 -29h-148q-29 0 -26 29l192 1376q6 29 33 29h147q14 0 21 -8t4 -21z" />
<glyph unicode="J" horiz-adv-x="1269" d="M127 473l147 16q31 0 25 -26q-5 -69 9 -122t39.5 -85t63 -52.5t75 -28t79.5 -7.5q43 0 84 8t86 31t80.5 58t63.5 94t39 135l106 743h-430q-14 0 -21 8t-4 21l17 139q6 29 32 29h607q30 0 24 -29l-127 -909q-36 -254 -195 -389.5t-386 -135.5q-215 0 -338.5 122 t-106.5 349q-1 12 9 21.5t22 9.5z" />
<glyph unicode="K" horiz-adv-x="1382" d="M512 1405l-82 -590h250l500 594q19 25 47 25h192q10 0 13 -9t-2 -16l-584 -692l389 -694q5 -6 0.5 -14.5t-14.5 -8.5h-193q-30 0 -43 23l-330 593h-252l-84 -587q-3 -29 -30 -29h-148q-29 0 -26 29l192 1376q6 29 33 29h147q14 0 21 -8t4 -21z" />
<glyph unicode="L" horiz-adv-x="1081" d="M115 29l192 1376q6 29 33 29h147q14 0 21 -8t4 -21l-168 -1208h602q28 0 25 -29l-21 -139q-3 -29 -30 -29h-779q-29 0 -26 29z" />
<glyph unicode="M" horiz-adv-x="1687" d="M1495 1434h147q14 0 21 -8t4 -21l-192 -1376q-3 -29 -31 -29h-148q-29 0 -26 29l151 1071l-555 -633q-4 -4 -10 -4t-10 4l-375 633l-152 -1071q-3 -29 -30 -29h-148q-29 0 -26 29l192 1376q6 29 33 29h147q30 0 43 -23l371 -629l547 629q20 23 47 23z" />
<glyph unicode="N" horiz-adv-x="1548" d="M1528 1405l-193 -1376q-3 -29 -30 -29h-148q-30 0 -43 23l-643 1077l-152 -1071q-3 -29 -30 -29h-148q-29 0 -26 29l192 1376q6 29 33 29h147q30 0 43 -23l644 -1075l149 1069q6 29 33 29h147q14 0 21 -8t4 -21z" />
<glyph unicode="O" horiz-adv-x="1695" d="M1622 717q-26 -180 -101 -323.5t-185.5 -235t-248.5 -139.5t-294 -48t-281 48t-210 139.5t-120.5 235t-9.5 323.5q25 180 99.5 323t185 234.5t248.5 139.5t294 48t281 -48t210.5 -139.5t121 -234.5t10.5 -323zM1417 717q35 262 -80.5 405.5t-363.5 143.5t-404.5 -143.5 t-191.5 -405.5q-37 -262 78.5 -405.5t363.5 -143.5t404.5 143.5t193.5 405.5z" />
<glyph unicode="P" horiz-adv-x="1316" d="M115 29l192 1376q6 29 33 29h510q105 0 189 -30.5t143 -90.5t83.5 -157.5t6.5 -223.5q-34 -243 -189.5 -372.5t-371.5 -129.5h-334l-58 -401q-3 -29 -30 -29h-148q-29 0 -26 29zM403 627h334q142 0 226 78t104 227q22 148 -40 226.5t-204 78.5h-334z" />
<glyph unicode="Q" horiz-adv-x="1695" d="M1450 -211l-104 -78q-28 -19 -41 4l-213 301q-134 -45 -289 -45q-156 0 -281 48t-211 139.5t-121.5 235t-9.5 323.5t101 323t186 234.5t249 139.5t294 48t280.5 -48t210 -139.5t120.5 -234.5t9 -323q-30 -208 -122 -362t-234 -249l188 -276q14 -24 -12 -41zM1425 717 q37 262 -78.5 405.5t-363.5 143.5t-404.5 -143.5t-193.5 -405.5t78.5 -405.5t363.5 -143.5t404.5 143.5t193.5 405.5z" />
<glyph unicode="R" horiz-adv-x="1316" d="M115 29l192 1376q6 29 33 29h510q105 0 189 -30.5t143 -90.5t83.5 -157.5t6.5 -223.5q-25 -186 -132 -309.5t-257 -161.5l245 -438q5 -6 0.5 -14.5t-14.5 -8.5h-190q-30 0 -43 23l-226 407h-278l-58 -401q-3 -29 -30 -29h-148q-29 0 -26 29zM403 627h334q142 0 226 78 t104 227q22 148 -40 226.5t-204 78.5h-334z" />
<glyph unicode="S" horiz-adv-x="1368" d="M195 367l139 24q23 8 31 -22q4 -96 83 -147.5t207 -51.5q138 0 225.5 62.5t102.5 166.5q5 34 -1.5 62.5t-19 48.5t-37 37t-46 27.5t-56 20.5t-57 15t-60 13t-55.5 12q-70 16 -125.5 35.5t-111 53t-90.5 75.5t-52 104.5t-6 138.5q15 106 67.5 188.5t130.5 132t170.5 74.5 t194.5 25q195 0 320 -100t125 -270q0 -29 -29 -35l-141 -25q-21 -3 -29 25q-2 89 -76 149t-196 60q-140 0 -229.5 -59.5t-102.5 -162.5q-6 -44 9 -79t41.5 -57.5t73.5 -41t90 -29.5t106 -22q38 -8 70.5 -16.5t69 -21t66 -27t60 -33.5t51.5 -42t41.5 -52t28.5 -62.5t13.5 -74 t-3.5 -87.5q-18 -130 -98.5 -228.5t-200.5 -149t-260 -50.5q-129 0 -231 39t-166.5 122.5t-67.5 201.5q-3 12 7 21.5t24 11.5z" />
<glyph unicode="T" horiz-adv-x="1175" d="M258 1434h954q14 0 21 -8t4 -21l-18 -139q-3 -29 -33 -29h-375l-170 -1208q-3 -29 -31 -29h-147q-30 0 -27 29l170 1208h-375q-27 0 -24 29l18 139q6 29 33 29z" />
<glyph unicode="U" horiz-adv-x="1495" d="M719 168q51 0 101 9.5t106.5 37t101 70t79.5 114.5t48 164l115 842q6 29 33 29h147q14 0 21 -8t4 -21l-115 -840q-21 -143 -82 -257t-150 -187t-199.5 -111.5t-234.5 -38.5t-224.5 38.5t-170 111.5t-98.5 187t-8 257l114 840q6 29 33 29h147q14 0 21 -8t4 -21l-115 -842 q-13 -92 1.5 -164t47 -114.5t80.5 -70t95 -37t98 -9.5z" />
<glyph unicode="V" horiz-adv-x="1603" d="M1655 1407l-781 -1380q-12 -27 -40 -27h-166q-30 0 -39 27l-391 1380q-3 10 3 18.5t17 8.5h164q31 0 37 -27l325 -1153l650 1153q15 27 43 27h163q11 0 16 -8t-1 -19z" />
<glyph unicode="W" horiz-adv-x="2357" d="M2410 1407l-667 -1380q-12 -27 -41 -27h-160q-31 0 -37 27l-223 1099l-530 -1099q-14 -27 -39 -27h-160q-31 0 -37 27l-278 1380q-3 10 3 18.5t17 8.5h158q28 0 35 -27l225 -1100l530 1100q12 27 41 27h158q28 0 35 -27l225 -1100l530 1100q12 27 41 27h158q11 0 16.5 -8 t-0.5 -19z" />
<glyph unicode="X" horiz-adv-x="1417" d="M1464 1409l-583 -692l389 -694q5 -6 0 -14.5t-15 -8.5h-192q-30 0 -43 23l-287 520l-434 -520q-20 -23 -47 -23h-193q-10 0 -12.5 8.5t2.5 14.5l586 694l-391 692q-5 7 -0.5 16t14.5 9h193q31 0 43 -25l286 -518l434 518q19 25 48 25h192q10 0 12.5 -9t-2.5 -16z" />
<glyph unicode="Y" horiz-adv-x="1478" d="M762 0h-148q-29 0 -26 29l78 551l-422 829q-6 7 -1 16t15 9h186q27 0 43 -25l310 -618l485 618q22 25 47 25h187q10 0 13 -9t-3 -16l-656 -829l-77 -551q-3 -29 -31 -29z" />
<glyph unicode="Z" horiz-adv-x="1306" d="M1282 1212l-926 -1015h774q28 0 25 -29l-20 -139q-3 -29 -31 -29h-1004q-29 0 -26 29l20 141q3 27 27 51l926 1016h-775q-27 0 -24 29l18 139q6 29 33 29h1004q30 0 24 -29l-18 -141q-6 -31 -27 -52z" />
<glyph unicode="[" horiz-adv-x="595" d="M61 -381l293 2093q6 29 33 29h354q14 0 21 -8t4 -21l-21 -139q0 -13 -9 -21t-23 -8h-178l-244 -1757h178q28 0 25 -29l-21 -139q-3 -29 -31 -29h-354q-30 0 -27 29z" />
<glyph unicode="\" horiz-adv-x="851" d="M748 0h-134q-27 0 -36 27l-392 1482q-3 10 4.5 18.5t18.5 8.5h135q29 0 35 -27l389 -1482q4 -10 -2.5 -18.5t-17.5 -8.5z" />
<glyph unicode="]" horiz-adv-x="595" d="M621 1671l-293 -2093q-6 -29 -33 -29h-352q-12 0 -19 8t-4 21l19 139q0 13 9 21t23 8h176l244 1757h-178q-28 0 -25 29l21 139q3 29 33 29h354q28 0 25 -29z" />
<glyph unicode="^" horiz-adv-x="954" d="M641 1409l279 -510q3 -8 -2 -16.5t-15 -8.5h-127q-28 0 -41 23l-174 299l-258 -299q-20 -23 -49 -23h-125q-10 0 -12 9t4 16l422 510q19 25 47 25h8q30 0 43 -25z" />
<glyph unicode="_" horiz-adv-x="845" d="M799 -150h-789q-23 0 -20 29l12 92q3 29 31 29h788q28 0 25 -29l-15 -92q-3 -29 -32 -29z" />
<glyph unicode="`" horiz-adv-x="456" d="M233 1391l277 -234q18 -15 0 -41l-57 -67q-22 -22 -41 -9l-299 207q-23 17 -4 39l86 98q16 22 38 7z" />
<glyph unicode="a" horiz-adv-x="1085" d="M987 401l-53 -372q0 -13 -8.5 -21t-22.5 -8h-131q-27 0 -27 29l13 82q-55 -73 -137 -103.5t-158 -30.5q-93 0 -164 34.5t-111.5 93.5t-56.5 135.5t-4 162.5q30 202 170 321.5t326 119.5q188 0 291 -115t73 -328zM799 403q10 75 -4 129t-47 81t-70 39t-80 12 q-33 0 -66.5 -7.5t-69 -26.5t-64 -47t-51 -72.5t-30.5 -100.5q-17 -129 39.5 -192t147.5 -68q31 -2 65.5 4t72.5 24t69 46t55.5 74.5t32.5 104.5z" />
<glyph unicode="b" horiz-adv-x="1097" d="M147 410l140 995q6 29 32 29h132q30 0 24 -29l-90 -662q42 48 115.5 74.5t134.5 26.5q91 0 164 -28t123 -81.5t71 -137t6 -187.5q-25 -188 -163.5 -311.5t-319.5 -123.5q-187 0 -291.5 114t-77.5 321zM336 410q-8 -59 0.5 -105t28.5 -73.5t50.5 -45t61 -24t64.5 -6.5 q43 0 83.5 12.5t80.5 39.5t68.5 79t37.5 123q10 73 -4 125.5t-47 79t-70 38t-80 11.5t-83.5 -11.5t-81 -38t-70 -79t-39.5 -125.5z" />
<glyph unicode="c" horiz-adv-x="1011" d="M782 279l115 -46q11 -5 15 -15t-3 -21q-63 -108 -172 -165t-241 -57q-186 0 -290.5 116t-76.5 319q19 139 89.5 239t172 147.5t223.5 47.5q139 0 236 -62t123 -178q4 -10 -3 -20t-20 -15l-127 -34q-28 -9 -37 18q-23 58 -78 84.5t-118 26.5q-43 0 -83.5 -11.5t-81 -38 t-69.5 -79t-39 -125.5t4.5 -125.5t48 -79t70.5 -38t80 -11.5q62 0 121.5 25.5t97.5 80.5q20 26 43 17z" />
<glyph unicode="d" horiz-adv-x="1097" d="M942 1434h131q14 0 21 -8t4 -21l-140 -995q-27 -207 -161.5 -321t-321.5 -114q-184 0 -290 120.5t-79 314.5q30 207 165.5 320.5t322.5 113.5q60 0 127 -26.5t98 -74.5l90 662q6 29 33 29zM500 156q43 0 82.5 11.5t79.5 38t69 79t39 125.5t-4 125.5t-47 79t-70 38 t-80 11.5t-83.5 -11.5t-81 -38t-70 -79t-39.5 -125.5q-8 -59 0.5 -105t28.5 -73.5t50.5 -45t61 -24t64.5 -6.5z" />
<glyph unicode="e" d="M981 410l-2 -7q0 -11 -11 -19.5t-24 -8.5h-633q-3 -63 15 -108t50.5 -68t68 -33t75.5 -10q105 0 174 59q26 19 47 8l113 -53q11 -5 13.5 -15.5t-7.5 -21.5q-140 -158 -364 -158q-187 0 -291 114t-76 321q19 138 89.5 238t172 148t223.5 48q187 0 291 -113.5t76 -320.5z M346 512h447q-14 82 -71.5 117t-131.5 35q-47 0 -89.5 -12.5t-86 -48t-68.5 -91.5z" />
<glyph unicode="f" horiz-adv-x="782" d="M659 1270q-24 0 -47.5 -6t-46.5 -20t-39.5 -41.5t-21.5 -65.5l-45 -318h246q27 0 24 -28l-16 -123q-3 -29 -33 -29h-246l-86 -610q-3 -29 -31 -29h-131q-29 0 -26 29l86 610h-140q-27 0 -24 29l16 123q3 28 33 28h139l45 318q12 84 46 146.5t83.5 98t105 52t118.5 16.5 q141 0 231 -94q17 -20 -2 -43l-68 -82q-18 -21 -41 -6q-57 45 -129 45z" />
<glyph unicode="g" horiz-adv-x="1120" d="M1026 410q-29 -235 -215 -353q114 -104 90 -286q-26 -177 -150.5 -281t-295.5 -104q-81 0 -148 23t-115 67t-69 115t-8 161q6 51 28 113q5 13 16 19.5t23 2.5l127 -22q25 -9 13 -33q-15 -34 -21 -70q-7 -55 6.5 -95t42 -61t60.5 -30.5t69 -9.5q51 0 98.5 19.5t87 68 t48.5 117.5q10 76 -9.5 131.5t-58.5 83.5q-68 -11 -108 -11q-189 0 -294 114t-77 321q30 207 165 320.5t322 113.5q127 0 213 -51l156 125q25 18 43 -3l59 -61q15 -19 -4 -41l-137 -133q66 -115 43 -270zM561 156q33 0 65.5 6.5t67.5 24t63.5 45t50.5 73.5t30 105 q10 73 -5 125.5t-49 79t-71 38t-80 11.5q-42 0 -83.5 -12.5t-83 -39.5t-72 -79t-40.5 -123q-10 -73 5.5 -125.5t49.5 -79t71.5 -38t80.5 -11.5z" />
<glyph unicode="h" horiz-adv-x="1069" d="M594 664q-38 0 -74.5 -9.5t-73.5 -32t-65 -67t-39 -106.5l-59 -420q-3 -29 -31 -29h-131q-30 0 -27 29l193 1376q6 29 32 29h132q30 0 24 -29l-90 -651q97 90 233 90q178 0 271 -104t65 -306l-57 -405q-3 -29 -31 -29h-131q-29 0 -26 29l57 405q34 230 -172 230z" />
<glyph unicode="i" horiz-adv-x="475" d="M238 1145q6 47 45 81t86 34t75.5 -34t22.5 -81q-8 -47 -46 -81t-85 -34t-76 34t-22 81zM395 791l-106 -762q-3 -29 -31 -29h-131q-30 0 -27 29l107 762q6 28 33 28h131q30 0 24 -28z" />
<glyph unicode="j" horiz-adv-x="475" d="M260 1143q6 47 43 80.5t84 33.5t77.5 -33.5t24.5 -80.5q-9 -48 -46.5 -81.5t-84.5 -33.5q-48 0 -77.5 34t-20.5 81zM80 -291l149 1082q3 28 31 28h131q30 0 27 -28l-154 -1110q-18 -128 -113 -211.5t-214 -83.5q-58 0 -130 10q-14 2 -19 11t-1 22l29 110q1 13 12 20t25 5 q12 -4 63 -4q61 0 106.5 39t57.5 110z" />
<glyph unicode="k" horiz-adv-x="980" d="M963 797l-334 -387l225 -387q5 -6 0.5 -14.5t-14.5 -8.5h-172q-30 0 -43 23l-162 296h-139l-41 -290q-3 -29 -31 -29h-131q-30 0 -27 29l193 1376q6 29 32 29h132q30 0 24 -29l-125 -905h139l244 295q18 24 47 24h172q10 0 13.5 -8t-2.5 -14z" />
<glyph unicode="l" horiz-adv-x="475" d="M475 1405l-192 -1376q-3 -29 -31 -29h-131q-30 0 -27 29l193 1376q6 29 32 29h132q30 0 24 -29z" />
<glyph unicode="m" horiz-adv-x="1531" d="M643 29l66 452q17 183 -156 183q-180 0 -207 -195l-63 -440q-3 -29 -31 -29h-131q-30 0 -27 29l64 440q25 181 141.5 278t278.5 97q86 0 154.5 -33t103.5 -94q49 61 126.5 94t163.5 33q163 0 253 -97.5t65 -277.5l-64 -440q-3 -29 -30 -29h-131q-30 0 -27 29l63 440 q27 195 -153 195q-173 0 -205 -183l-66 -452q-3 -29 -30 -29h-131q-30 0 -27 29z" />
<glyph unicode="n" horiz-adv-x="1048" d="M586 664q-39 0 -74.5 -10t-72 -34t-63 -71.5t-36.5 -114.5l-57 -405q-3 -29 -31 -29h-131q-30 0 -27 29l58 405q28 197 154.5 303.5t303.5 106.5q178 0 275 -106.5t69 -303.5l-57 -405q-3 -29 -31 -29h-131q-29 0 -26 29l57 405q10 67 -3 114.5t-43 71.5t-62.5 34 t-71.5 10z" />
<glyph unicode="o" d="M981 410q-19 -138 -89.5 -238t-172 -148.5t-223.5 -48.5q-187 0 -291 114t-76 321q19 138 89.5 238t172 148t223.5 48q187 0 291 -113.5t76 -320.5zM793 410q10 73 -5 125.5t-48 79t-70 38t-80 11.5t-83.5 -11.5t-81 -38t-69.5 -79t-39 -125.5t4.5 -125.5t48 -79 t70.5 -38t80 -11.5t83 11.5t80.5 38t70 79t39.5 125.5z" />
<glyph unicode="p" horiz-adv-x="1097" d="M53 -586l137 996q19 138 90 238t172.5 148t223.5 48q184 0 289.5 -120t76.5 -314q-19 -138 -89.5 -238t-172 -148.5t-223.5 -48.5q-60 0 -127 26.5t-98 74.5l-90 -662q-6 -28 -33 -28h-131q-31 0 -25 28zM379 410q-10 -73 4.5 -125.5t48 -79t70.5 -38t80 -11.5 q34 0 66 6.5t66.5 24t61.5 45t48.5 73.5t29.5 105q10 73 -4.5 125.5t-48 79t-70.5 38t-80 11.5q-34 0 -66 -6.5t-66.5 -24t-61.5 -45t-48.5 -73.5t-29.5 -105z" />
<glyph unicode="q" horiz-adv-x="1097" d="M635 844q187 0 290.5 -113.5t75.5 -320.5l-137 -996q-6 -28 -33 -28h-131q-30 0 -24 28l90 662q-42 -48 -115.5 -74.5t-134.5 -26.5q-187 0 -290.5 114t-75.5 321q29 195 165.5 314.5t319.5 119.5zM541 156q34 0 66 6.5t66.5 24t61.5 45t48.5 73.5t29.5 105 q10 73 -4.5 125.5t-48 79t-70.5 38t-80 11.5q-34 0 -66 -6.5t-66.5 -24t-61.5 -45t-48.5 -73.5t-29.5 -105q-10 -73 4.5 -125.5t48 -79t70.5 -38t80 -11.5z" />
<glyph unicode="r" horiz-adv-x="684" d="M715 782l-37 -112q-3 -12 -14 -19.5t-21 -3.5q-58 10 -98 10q-175 0 -197 -163l-65 -465q0 -13 -8.5 -21t-22.5 -8h-131q-27 0 -27 29l66 465q13 92 49 160.5t89 108t115.5 58.5t135.5 19q77 0 147 -21q13 -5 19 -15.5t0 -21.5z" />
<glyph unicode="s" horiz-adv-x="929" d="M158 211l116 29q26 6 35 -21q16 -33 58.5 -50t89.5 -17q63 0 112.5 24.5t55.5 65.5q4 30 -21 48t-68 26t-95 14.5t-103.5 20t-92 36.5t-61.5 70t-12 114q10 72 46.5 126.5t90.5 85.5t114.5 46t127.5 15q75 0 134.5 -17t106 -64t58.5 -120q4 -10 -4 -20t-21 -15l-112 -26 q-24 -7 -33 18q-28 68 -154 68q-66 0 -113 -21.5t-55 -68.5q-4 -27 15.5 -44t53.5 -24t77.5 -14.5t89.5 -14t88.5 -23.5t74 -41t47 -69t7.5 -106q-10 -71 -47.5 -125t-92 -83.5t-114.5 -44t-125 -14.5q-56 0 -104.5 10t-92 32t-71.5 63t-33 96q-6 25 27 35z" />
<glyph unicode="t" horiz-adv-x="802" d="M541 639l-84 -610q-3 -29 -31 -29h-131q-30 0 -27 29l84 610h-217q-24 0 -24 29l18 123q3 28 33 28h217l43 320q6 28 33 28h131q30 0 24 -28l-43 -320h217q28 0 25 -28l-18 -123q0 -13 -9.5 -21t-23.5 -8h-217z" />
<glyph unicode="u" horiz-adv-x="1048" d="M516 156q39 0 74.5 10t72 33.5t63 71t36.5 114.5l55 406q6 28 33 28h131q31 0 25 -28l-56 -406q-28 -197 -154.5 -303.5t-303.5 -106.5q-178 0 -275.5 106.5t-69.5 303.5l56 406q6 28 33 28h131q30 0 24 -28l-55 -406q-10 -67 3 -114.5t43 -71t62.5 -33.5t71.5 -10z" />
<glyph unicode="v" horiz-adv-x="1024" d="M1032 793l-436 -766q-9 -27 -39 -27h-147q-29 0 -41 27l-215 766q-4 10 1.5 18t16.5 8h147q30 0 39 -26l154 -566l317 566q9 26 39 26h148q11 0 15.5 -8t0.5 -18z" />
<glyph unicode="w" horiz-adv-x="1449" d="M1460 793l-373 -766q-9 -27 -38 -27h-142q-27 0 -37 27l-100 524l-248 -524q-10 -27 -37 -27h-141q-30 0 -39 27l-151 766q-4 10 1.5 18t16.5 8h143q27 0 37 -26l99 -527l247 527q10 26 37 26h144q26 0 36 -26l99 -527l248 527q10 26 36 26h144q11 0 16.5 -8t1.5 -18z " />
<glyph unicode="x" horiz-adv-x="925" d="M930 797l-332 -387l221 -387q5 -6 1.5 -14.5t-13.5 -8.5h-172q-29 0 -45 25l-123 229l-188 -229q-16 -25 -46 -25h-172q-10 0 -13.5 8.5t1.5 14.5l332 387l-221 387q-5 6 -1.5 14t13.5 8h172q30 0 45 -24l123 -230l188 230q15 24 45 24h173q10 0 13.5 -8t-1.5 -14z" />
<glyph unicode="y" d="M248 -590l-117 43q-23 8 -10 37l297 510l-242 793q-4 10 2 18t17 8h151q28 0 37 -26l166 -576l332 576q12 26 43 26h147q10 0 14.5 -7.5t-0.5 -18.5l-796 -1366q-20 -26 -41 -17z" />
<glyph unicode="z" horiz-adv-x="837" d="M774 616l-434 -436h362q25 0 25 -28l-20 -123q0 -29 -29 -29h-576q-28 0 -28 29l20 123q0 24 23 51l432 436h-361q-24 0 -24 29l18 123q3 28 31 28h575q30 0 27 -28l-18 -123q0 -25 -23 -52z" />
<glyph unicode="{" horiz-adv-x="688" d="M563 879q-10 -81 -45.5 -129.5t-97.5 -83.5q52 -35 73.5 -83.5t10.5 -129.5q-12 -91 -69 -269.5t-70 -269.5q-12 -72 17.5 -111t90.5 -39q45 0 66 5q28 3 28 -25l-4 -111q0 -29 -28 -32q-79 -11 -132 -11q-121 0 -193 83.5t-54 211.5q13 91 70 269.5t69 269.5 q11 75 -22 114.5t-89 39.5h-63q-25 0 -25 28l17 119q6 29 32 29h64q55 0 100 40t56 115q13 91 4 269.5t4 269.5q18 129 113.5 212t215.5 83q60 0 132 -10q23 -3 20 -33l-29 -111q-9 -27 -37 -24q-46 4 -63 4q-61 0 -101.5 -39t-50.5 -111q-12 -89 -4 -270t-6 -270z" />
<glyph unicode="|" horiz-adv-x="446" d="M467 1528l-236 -1698q-6 -29 -32 -29h-103q-30 0 -24 29l235 1698q3 28 33 28h102q28 0 25 -28z" />
<glyph unicode="}" horiz-adv-x="688" d="M272 879q13 89 71 269t71 271q10 72 -20 111t-91 39q-17 0 -63 -4q-14 -2 -22 4.5t-7 19.5l4 111q-1 13 7 22t22 11q72 10 131 10q121 0 193.5 -83.5t54.5 -211.5q-13 -91 -70.5 -269.5t-69.5 -269.5q-11 -75 20.5 -115t86.5 -40h63q14 0 21 -8t4 -21l-16 -119 q0 -13 -9.5 -20.5t-23.5 -7.5h-64q-55 0 -97.5 -39.5t-53.5 -114.5q-12 -91 -4 -269.5t-4 -269.5q-18 -128 -113.5 -211.5t-216.5 -83.5q-50 0 -129 11q-25 3 -19 32l27 111q6 28 37 25q15 -5 59 -5q61 0 101.5 38.5t52.5 111.5q12 91 4 269.5t4 269.5q11 81 46 129t95 84 q-49 36 -70.5 84t-11.5 129z" />
<glyph unicode="~" horiz-adv-x="1138" d="M590 563l119 -86q59 -39 113.5 -26.5t92.5 65.5q4 6 21.5 25t24.5 32q8 11 20.5 15t22.5 0l90 -49q10 -4 12.5 -16.5t-2.5 -22.5q-9 -13 -25.5 -38t-29.5 -43.5t-25 -33.5q-82 -101 -198 -126.5t-220 44.5l-119 86q-59 39 -113.5 26.5t-94.5 -65.5q-8 -12 -24 -30 t-22 -27q-17 -23 -40 -14l-91 49q-10 4 -12.5 16.5t2.5 22.5q48 75 80 114q80 101 196.5 126.5t221.5 -44.5z" />
<glyph unicode="&#xa1;" horiz-adv-x="540" d="M233 717q6 54 48 90.5t96 36.5q51 0 83.5 -36.5t26.5 -90.5q-6 -53 -48.5 -90t-94.5 -37q-54 0 -85.5 36.5t-25.5 90.5zM393 352l-110 -936q-6 -28 -33 -28h-148q-30 0 -24 28l151 936q0 13 9.5 21t23.5 8h107q24 0 24 -29z" />
<glyph unicode="&#xa2;" horiz-adv-x="1073" d="M823 584l117 -45q11 -5 14.5 -15.5t-2.5 -21.5q-54 -92 -144 -147.5t-198 -69.5l-37 -256q-3 -29 -30 -29h-103q-29 0 -26 29l37 258q-151 27 -228 138t-53 290q27 184 134 293t265 133l37 264q6 29 33 29h102q14 0 21 -8t4 -21l-35 -262q109 -14 183.5 -73.5 t101.5 -160.5q3 -10 -4 -20t-21 -15l-127 -34q-29 -9 -35 18q-23 58 -78 84.5t-118 26.5q-43 0 -83.5 -11.5t-81.5 -38t-70.5 -79t-39.5 -125.5t4.5 -125.5t48 -79t70.5 -38t80 -11.5q62 0 122 25.5t99 80.5q18 27 41 17z" />
<glyph unicode="&#xa3;" horiz-adv-x="1052" d="M215 819h139l45 318q12 84 46 146.5t83.5 98t105 52t118.5 16.5q141 0 231 -94q17 -20 -2 -43l-68 -82q-18 -21 -41 -6q-57 45 -129 45q-24 0 -47.5 -6t-46.5 -20t-39.5 -41.5t-21.5 -65.5l-45 -318h245q28 0 25 -28l-16 -123q-3 -29 -33 -29h-246l-63 -459h440 q28 0 25 -28l-19 -123q-3 -29 -31 -29h-811q-29 0 -26 29l18 123q3 28 33 28h182l64 459h-140q-27 0 -24 29l16 123q3 28 33 28z" />
<glyph unicode="&#xa4;" horiz-adv-x="1021" d="M872 410q-12 -112 -71 -189l86 -96q14 -25 -8 -41l-70 -61q-11 -11 -22 -11t-19 11l-82 96q-83 -45 -192 -45q-106 0 -183 47l-114 -98q-21 -21 -41 0l-54 61q-16 22 9 41l112 100q-29 80 -18 185q18 111 74 184l-91 102q-16 22 9 41l69 62q19 19 41 0l84 -103 q85 49 197 49q102 0 176 -45l115 99q21 21 41 0l53 -62q16 -22 -8 -41l-111 -98q35 -78 18 -188zM692 410q7 43 -2 75.5t-30.5 50t-45.5 25.5t-51 8q-61 0 -112.5 -38t-65.5 -121q-6 -45 4 -77.5t31.5 -49.5t45.5 -25t52 -8q27 0 53 8t52 25t44.5 49.5t24.5 77.5z" />
<glyph unicode="&#xa5;" horiz-adv-x="1478" d="M762 0h-148q-29 0 -26 29l26 178h-213q-30 0 -24 29l12 100q6 29 33 29h213l20 141h-213q-27 0 -24 29l14 100q3 29 33 29h158l-379 745q-6 7 -1 16t15 9h186q27 0 43 -25l310 -618l485 618q22 25 47 25h187q10 0 13 -9t-3 -16l-590 -745h160q27 0 24 -29l-14 -100 q-3 -29 -33 -29h-213l-20 -141h213q30 0 24 -29l-12 -100q-6 -29 -33 -29h-213l-26 -178q-3 -29 -31 -29z" />
<glyph unicode="&#xa6;" horiz-adv-x="446" d="M322 485l-91 -655q-6 -29 -32 -29h-103q-30 0 -24 29l90 655q6 29 33 29h102q14 0 21 -8t4 -21zM340 1556h102q28 0 25 -28l-92 -656q-3 -28 -33 -28h-102q-28 0 -25 28l92 656q3 28 33 28z" />
<glyph unicode="&#xa7;" horiz-adv-x="1259" d="M1225 678q-20 -146 -129 -262q79 -100 57 -248q-18 -130 -98.5 -228.5t-200.5 -149t-260 -50.5q-129 0 -231 38.5t-166 122t-66 201.5q-3 11 6.5 21t22.5 12l141 25q20 8 29 -23q4 -96 83.5 -147t207.5 -51q138 0 225.5 62.5t101.5 166.5q5 34 -1.5 62.5t-19 48t-36.5 37 t-45.5 27.5t-56 20t-58 15.5t-60.5 13t-55 11.5q-69 16 -124.5 35.5t-111.5 53t-90.5 75.5t-52 105t-6.5 139q22 161 131 266q-79 95 -59 244q12 86 49 156t91 118.5t123 81.5t145 48.5t157 15.5q194 0 318.5 -100.5t124.5 -270.5q0 -29 -29 -35l-141 -24q-21 -3 -29 24 q0 89 -74.5 149t-197.5 60q-140 0 -229.5 -59t-102.5 -162q-7 -54 15 -92.5t65.5 -61.5t101.5 -40t122.5 -32.5t129 -34t121 -48.5t97.5 -71.5t59 -109t6 -155.5zM688 913q-118 30 -164 50q-76 -61 -88 -150q-7 -52 12.5 -89.5t54.5 -59t90 -39t108.5 -28t120.5 -29.5 t116 -40q70 61 82 150q5 34 -1.5 62.5t-19 48t-36.5 37t-45.5 27.5t-56 20t-58 15.5t-60.5 13t-55 11.5z" />
<glyph unicode="&#xa8;" horiz-adv-x="704" d="M80 1145q6 47 44 81t85 34t76.5 -34t23.5 -81q-9 -48 -46.5 -81.5t-84.5 -33.5q-48 0 -77.5 34t-20.5 81zM555 1145q6 47 44 81t85 34t76.5 -34t23.5 -81q-9 -48 -46.5 -81.5t-84.5 -33.5q-48 0 -77.5 34t-20.5 81z" />
<glyph unicode="&#xa9;" horiz-adv-x="1427" d="M137 831q24 173 128.5 319t261.5 230t329 84q130 0 240 -50t183 -134.5t106.5 -201.5t15.5 -247q-23 -172 -127.5 -317t-262.5 -229t-331 -84q-129 0 -238.5 49.5t-182 134t-106 201t-16.5 245.5zM258 831q-19 -140 32 -257t158.5 -184.5t247.5 -67.5t267.5 67.5 t212.5 184.5t104 257q20 140 -31.5 258t-160 186t-248.5 68q-213 0 -382 -149t-200 -363zM997 737l80 -10q11 -2 17 -11.5t0 -19.5q-54 -120 -153.5 -180.5t-225.5 -60.5q-162 0 -250.5 97t-63.5 277q17 120 77.5 206.5t148 127.5t192.5 41q125 0 207.5 -61t103.5 -180 q6 -26 -24 -33l-82 -15q-22 -8 -35 21q-17 64 -66 99.5t-122 35.5q-110 0 -177.5 -63t-84.5 -179q-15 -117 34.5 -179t159.5 -62q73 0 131 32.5t90 94.5q14 25 43 22z" />
<glyph unicode="&#xaa;" horiz-adv-x="616" d="M260 1266l-63 24q-10 5 -13.5 15.5t4.5 21.5q36 54 100.5 82.5t139.5 28.5q107 0 168 -60.5t45 -173.5l-14 -114q-18 -112 -95.5 -173t-183.5 -61q-111 0 -173.5 47t-49.5 144q14 97 89 142t183 40q51 0 105 -23v4q12 101 -92 101q-63 0 -105 -33q-24 -21 -45 -12z M477 1047q4 22 -18 40.5t-78 18.5q-33 0 -57 -7t-35 -18.5t-15.5 -19t-5.5 -14.5q-1 -9 1 -18.5t10 -22t30 -20t56 -7.5q42 0 69 14.5t35 28.5t8 25z" />
<glyph unicode="&#xab;" horiz-adv-x="1245" d="M172 426l436 371q8 11 19 11t22 -11l58 -66q18 -21 -5 -41l-299 -284l222 -285q13 -22 -11 -41l-75 -66q-11 -10 -22 -10t-19 10l-330 371q-18 19 4 41zM639 426l436 371q7 11 19 11t22 -11l58 -66q18 -21 -5 -41l-299 -284l222 -285q13 -22 -11 -41l-75 -66 q-10 -10 -22 -10t-19 10l-330 371q-19 19 4 41z" />
<glyph unicode="&#xac;" d="M739 61l37 269h-577q-31 0 -25 28l12 101q6 28 33 28h713q30 0 24 -28l-53 -398q-6 -28 -33 -28h-106q-31 0 -25 28z" />
<glyph unicode="&#xad;" horiz-adv-x="913" d="M758 330h-570q-30 0 -24 28l12 101q6 28 33 28h569q31 0 25 -28l-12 -101q-6 -28 -33 -28z" />
<glyph unicode="&#xae;" horiz-adv-x="1427" d="M137 831q24 173 128.5 319t261.5 230t329 84q130 0 240 -50t183 -134.5t106.5 -201.5t15.5 -247q-23 -172 -127.5 -317t-262.5 -229t-331 -84q-129 0 -238.5 49.5t-182 134t-106 201t-16.5 245.5zM258 831q-19 -140 32 -257t158.5 -184.5t247.5 -67.5t267.5 67.5 t212.5 184.5t104 257q20 140 -31.5 258t-160 186t-248.5 68q-213 0 -382 -149t-200 -363zM483 500l92 663q3 29 33 29h246q112 0 173.5 -65.5t43.5 -194.5q-12 -89 -59.5 -149.5t-116.5 -86.5l115 -202q5 -6 0 -14.5t-15 -8.5h-106q-30 0 -43 23l-98 182h-105l-25 -176 q-3 -29 -32 -29h-78q-28 0 -25 29zM662 807h139q115 0 133 125q18 127 -98 127h-140z" />
<glyph unicode="&#xaf;" horiz-adv-x="593" d="M70 1059l12 94q3 29 33 29h536q28 0 25 -29l-12 -94q-6 -29 -33 -29h-537q-30 0 -24 29z" />
<glyph unicode="&#xb0;" horiz-adv-x="710" d="M160 1169q19 116 109 195.5t204 79.5q116 0 184.5 -80t49.5 -195q-15 -114 -105.5 -193t-206.5 -79q-114 0 -182 79t-53 193zM272 1169q-9 -67 31.5 -113t108.5 -46t120.5 46t61.5 113q12 67 -28.5 114.5t-108.5 47.5q-67 0 -120 -47t-65 -115z" />
<glyph unicode="&#xb1;" horiz-adv-x="962" d="M819 424h-229l-19 -125q-3 -29 -32 -29h-101q-27 0 -24 29l18 125h-231q-14 0 -21 8t-4 21l12 100q6 29 33 29h232l32 231q6 29 33 29h100q14 0 21 -8t4 -21l-33 -231h230q30 0 24 -29l-12 -100q-6 -29 -33 -29zM760 0h-619q-29 0 -26 29l14 98q3 29 33 29h618 q28 0 25 -29l-14 -98q-3 -29 -31 -29z" />
<glyph unicode="&#xb2;" horiz-adv-x="655" d="M582 928h-418q-28 0 -25 28l8 68q7 27 29 49l266 225q57 52 78.5 85t26.5 63q3 39 -20 66.5t-74 27.5q-45 0 -79 -27.5t-52 -72.5q-6 -27 -35 -27l-70 8q-12 1 -18.5 11t-3.5 22q32 103 103.5 158t170.5 55q108 0 166 -58t41 -165q-6 -50 -36.5 -103t-113.5 -127 l-182 -159h256q28 0 25 -29l-11 -70q-3 -28 -32 -28z" />
<glyph unicode="&#xb3;" horiz-adv-x="679" d="M180 1157l70 6q12 1 20 -6t6 -18q4 -49 36 -74t83 -25q56 0 96 31t46 78q11 111 -107 111h-41q-30 0 -27 28l11 60q0 28 30 28h39q46 2 72 23t29 59q6 33 -15 55.5t-63 22.5q-74 0 -100 -63q-16 -28 -39 -25l-70 8q-12 2 -18 11.5t-2 21.5q28 84 94.5 129t150.5 45 q97 0 151.5 -52.5t41.5 -152.5q-12 -88 -78 -129q38 -23 57.5 -71.5t14.5 -108.5q-17 -108 -97.5 -172t-191.5 -64q-103 0 -165.5 54.5t-63.5 156.5q-1 12 8.5 21.5t21.5 11.5z" />
<glyph unicode="&#xb4;" horiz-adv-x="456" d="M98 1157l340 234q10 6 21.5 4.5t15.5 -11.5l57 -98q12 -22 -12 -39l-356 -207q-28 -14 -41 9l-37 67q-6 10 -3 22.5t15 18.5z" />
<glyph unicode="&#xb5;" horiz-adv-x="1069" d="M752 4l8 62q-44 -42 -105.5 -66.5t-122.5 -24.5t-115.5 24.5t-86.5 66.5l-90 -652q-6 -28 -33 -28h-129q-31 0 -25 28l191 1377q6 28 32 28h132q30 0 24 -28l-55 -406q-9 -62 4 -108.5t42.5 -71.5t63 -37t70.5 -12t73.5 11t72 34.5t62 67t36.5 102.5l57 420q6 28 33 28 h131q31 0 25 -28l-109 -787q-3 -29 -33 -29h-129q-27 0 -24 29z" />
<glyph unicode="&#xb6;" horiz-adv-x="1259" d="M725 0h-147q-30 0 -27 29l90 639q-56 -15 -117 -15q-169 0 -261.5 103t-65.5 288q26 184 147 287t289 103h291q30 0 24 -29l-192 -1376q-3 -29 -31 -29zM1239 1405l-192 -1376q-3 -29 -31 -29h-98q-30 0 -27 29l192 1376q6 29 33 29h98q14 0 21 -8t4 -21z" />
<glyph unicode="&#xb7;" horiz-adv-x="540" d="M170 410q7 54 49 90.5t96 36.5q52 0 84 -37t25 -90t-50 -90t-95 -37q-54 0 -85.5 36.5t-23.5 90.5z" />
<glyph unicode="&#xb8;" horiz-adv-x="458" d="M-8 -348l51 37q20 14 39 -8q37 -52 104 -52q41 0 76 23.5t41 64.5q6 39 -18 61.5t-62 22.5q-4 0 -12 -1t-12 -1q-29 -6 -54 0q-26 10 -20 37l33 242h118l-20 -154q90 -5 139 -58.5t37 -148.5q-14 -96 -90.5 -154.5t-169.5 -58.5q-137 0 -195 107q-12 29 15 41z" />
<glyph unicode="&#xb9;" horiz-adv-x="442" d="M496 1634l-93 -663q-3 -29 -32 -29h-76q-28 0 -25 29l70 506l-76 -54q-29 -14 -41 7l-30 47q-13 23 8 41l159 127q24 18 54 18h57q28 0 25 -29z" />
<glyph unicode="&#xba;" horiz-adv-x="772" d="M780 1143q-21 -147 -116.5 -227t-231.5 -80q-134 0 -207.5 80t-52.5 227q20 147 115.5 227t230.5 80t208.5 -79.5t53.5 -227.5zM614 1143q6 43 -2.5 74t-27.5 46.5t-40 22t-46 6.5t-48.5 -6.5t-47.5 -22t-41 -46.5t-23 -74q-12 -82 25 -116t92 -34q25 0 48 7t46.5 22.5 t41 46.5t23.5 74zM119 557l12 98q6 29 33 29h493q14 0 21 -8t4 -21l-12 -98q-6 -29 -33 -29h-494q-30 0 -24 29z" />
<glyph unicode="&#xbb;" horiz-adv-x="1245" d="M334 797l330 -371q12 -17 -5 -41l-436 -371q-21 -20 -41 0l-59 66q-17 24 6 41l299 285l-221 284q-16 20 8 41l78 66q21 21 41 0zM801 797l329 -371q13 -18 -4 -41l-436 -371q-20 -20 -41 0l-59 66q-17 24 6 41l299 285l-221 284q-16 20 8 41l78 66q20 21 41 0z" />
<glyph unicode="&#xbc;" horiz-adv-x="1325" d="M358 0h-86q-11 0 -16.5 8t0.5 19l752 1380q12 27 41 27h88q11 0 16.5 -8t-0.5 -19l-754 -1380q-12 -27 -41 -27zM999 29l17 112h-246q-28 0 -25 29l9 55q3 31 20 56l252 413q15 27 45 27h82q11 0 14.5 -8.5t-2.5 -18.5l-254 -424h123l13 90q3 29 32 29h72q28 0 25 -29 l-13 -90h58q27 0 24 -28l-10 -72q-3 -29 -33 -29h-57l-17 -112q-3 -29 -30 -29h-72q-30 0 -27 29zM504 1405l-92 -664q-3 -28 -33 -28h-76q-27 0 -24 28l71 506l-78 -53q-26 -15 -41 6l-28 47q-13 22 6 41l160 127q25 19 53 19h57q14 0 21 -8t4 -21z" />
<glyph unicode="&#xbd;" horiz-adv-x="1415" d="M358 0h-86q-11 0 -16.5 8t0.5 19l752 1380q12 27 41 27h88q11 0 16.5 -8t-0.5 -19l-754 -1380q-12 -27 -41 -27zM1274 0h-418q-30 0 -27 29l11 67q3 26 26 49l267 226q97 85 104 147q5 38 -19 66t-75 28q-46 0 -79.5 -27.5t-49.5 -72.5q-9 -27 -35 -27l-72 9 q-12 2 -18.5 11t-3.5 21q32 103 104.5 158t171.5 55q108 0 165 -58t42 -165q-5 -33 -14.5 -59.5t-44 -72.5t-92.5 -97l-183 -160h256q28 0 25 -29l-10 -69q-3 -29 -31 -29zM504 1405l-92 -664q-3 -28 -33 -28h-76q-27 0 -24 28l71 506l-78 -53q-26 -15 -41 6l-28 47 q-13 22 6 41l160 127q25 19 53 19h57q14 0 21 -8t4 -21z" />
<glyph unicode="&#xbe;" horiz-adv-x="1427" d="M461 0h-86q-11 0 -17 8.5t0 18.5l752 1380q12 27 41 27h88q11 0 15.5 -8.5t0.5 -18.5l-753 -1380q-12 -27 -41 -27zM168 936l72 6q12 1 19 -6t7 -18q9 -99 117 -99q55 0 94 30.5t47 78.5q14 110 -108 110h-41q-28 0 -25 29l8 59q6 29 33 29h39q90 3 102 82 q5 33 -16.5 55.5t-62.5 22.5q-71 0 -101 -64q-12 -27 -39 -24l-67 8q-13 2 -20 11.5t-1 21.5q28 84 95 129t151 45q97 0 151 -52.5t42 -152.5q-12 -86 -80 -129q38 -23 57.5 -71.5t13.5 -108.5q-17 -108 -97 -172t-191 -64q-102 0 -164.5 54.5t-65.5 156.5q0 12 9.5 21.5 t21.5 11.5zM1102 29l16 112h-246q-27 0 -24 29l8 55q3 29 18 56l254 413q15 27 46 27h81q11 0 15 -8.5t-2 -18.5l-254 -424h123l12 90q3 29 33 29h71q28 0 25 -29l-12 -90h57q28 0 25 -28l-11 -72q-3 -29 -32 -29h-58l-16 -112q-3 -29 -31 -29h-72q-29 0 -26 29z" />
<glyph unicode="&#xbf;" horiz-adv-x="1150" d="M868 727q-7 -54 -49 -90.5t-96 -36.5q-52 0 -84 37t-25 90t50.5 90t95.5 37q54 0 85 -36.5t23 -90.5zM788 393l-28 -205q-3 -25 -33 -36q-106 -32 -188.5 -76t-128 -84t-76.5 -85t-41 -74t-14 -56q-21 -106 33.5 -162.5t187.5 -56.5q119 0 196.5 64.5t102.5 166.5 q12 28 35 25l129 -19q11 -2 17 -11.5t3 -21.5q-46 -182 -181 -287.5t-329 -105.5q-136 0 -229.5 43.5t-137.5 137.5t-22 231q5 36 21.5 78.5t55 100.5t91.5 111t139.5 106t192.5 89l16 127q6 29 33 29h131q30 0 24 -29z" />
<glyph unicode="&#xc0;" horiz-adv-x="1603" d="M1049 1407l391 -1380q4 -10 -2 -18.5t-17 -8.5h-164q-29 0 -38 27l-78 280h-738l-159 -280q-12 -27 -41 -27h-164q-11 0 -15.5 8.5t-0.5 18.5l780 1380q15 27 43 27h166q31 0 37 -27zM893 1180l-379 -676h571zM893 2005l274 -233q18 -15 0 -41l-57 -68q-21 -21 -41 -8 l-299 207q-21 15 -4 39l86 98q15 21 41 6z" />
<glyph unicode="&#xc1;" horiz-adv-x="1603" d="M1049 1407l391 -1380q4 -10 -2 -18.5t-17 -8.5h-164q-29 0 -38 27l-78 280h-738l-159 -280q-12 -27 -41 -27h-164q-11 0 -15.5 8.5t-0.5 18.5l780 1380q15 27 43 27h166q31 0 37 -27zM893 1180l-379 -676h571zM772 1772l340 233q10 6 21.5 5t15.5 -11l57 -98 q14 -20 -12 -39l-356 -207q-28 -14 -41 8l-37 68q-6 10 -3 22.5t15 18.5z" />
<glyph unicode="&#xc2;" horiz-adv-x="1603" d="M1051 1407l389 -1380q4 -10 -1 -18.5t-16 -8.5h-163q-29 0 -41 27l-78 280h-738l-159 -280q-9 -27 -39 -27h-164q-11 0 -16.5 8.5t-1.5 18.5l782 1380q12 27 43 27h166q28 0 37 -27zM895 1180l-379 -676h571zM686 1772l297 202q24 17 45 2l242 -204q18 -13 2 -41l-60 -68 q-18 -21 -41 -8l-194 127l-225 -127q-25 -14 -41 8l-35 68q-7 11 -4 23t14 18z" />
<glyph unicode="&#xc3;" horiz-adv-x="1603" d="M1053 1407l391 -1380q4 -10 -2 -18.5t-17 -8.5h-163q-30 0 -39 27l-78 280h-737l-160 -280q-12 -27 -41 -27h-164q-11 0 -15.5 8.5t-0.5 18.5l780 1380q15 27 43 27h166q31 0 37 -27zM897 1180l-379 -676h572zM1075 1647q-43 2 -74.5 18t-46 33.5t-36 32t-48.5 14.5 q-60 0 -84 -70q-6 -28 -34 -28h-76q-28 0 -25 28q22 97 84.5 154.5t149.5 62.5q43 -2 74.5 -18t45.5 -33.5t35.5 -32t49.5 -14.5q33 0 54.5 20.5t29.5 49.5q6 28 34 28h76q12 0 19 -8t4 -20q-20 -98 -82 -155t-150 -62z" />
<glyph unicode="&#xc4;" horiz-adv-x="1603" d="M629 1759q6 48 43 81.5t84 33.5t77.5 -34t24.5 -81q-9 -48 -46.5 -81t-84.5 -33q-48 0 -77.5 33.5t-20.5 80.5zM1104 1759q6 48 43 81.5t84 33.5t77.5 -34t24.5 -81q-9 -48 -46.5 -81t-84.5 -33q-48 0 -77.5 33.5t-20.5 80.5zM1055 1407l389 -1380q4 -10 -1 -18.5 t-16 -8.5h-163q-29 0 -41 27l-78 280h-737l-160 -280q-9 -27 -39 -27h-164q-11 0 -16.5 8.5t-1.5 18.5l782 1380q12 27 41 27h166q30 0 39 -27zM899 1180l-379 -676h572z" />
<glyph unicode="&#xc5;" horiz-adv-x="1603" d="M784 1849q12 86 79 144.5t153 58.5t136 -58.5t38 -144.5t-79 -144t-153 -58t-136 58t-38 144zM905 1849q-6 -35 14.5 -58.5t55.5 -23.5t61.5 23.5t32.5 58.5q3 35 -18 58.5t-56 23.5t-61 -23.5t-29 -58.5zM1049 1407l389 -1380q4 -10 -2 -18.5t-17 -8.5h-164 q-26 0 -38 27l-78 280h-738l-159 -280q-9 -27 -41 -27h-164q-11 0 -16 8.5t-1 18.5l783 1380q12 27 41 27h166q30 0 39 -27zM893 1180l-379 -676h571z" />
<glyph unicode="&#xc6;" horiz-adv-x="2361" d="M2107 618h-567l-59 -421h704q28 0 25 -29l-21 -139q-3 -29 -30 -29h-881q-30 0 -39 27l-78 280h-737l-160 -280q-12 -27 -41 -27h-164q-11 0 -16.5 8t0.5 19l780 1380q15 27 43 27h166q31 0 37 -27l252 -887l123 885q6 29 33 29h880q14 0 21 -8t4 -21l-19 -139 q-3 -29 -32 -29h-705l-59 -422h567q14 0 21 -8t4 -21l-19 -139q-6 -29 -33 -29zM913 1180l-378 -676h571z" />
<glyph unicode="&#xc7;" horiz-adv-x="1609" d="M582 -348l55 37q23 14 39 -8q37 -52 104 -52q41 0 76 23.5t41 64.5q6 39 -18 61.5t-62 22.5q-4 0 -12 -1t-12 -1q-29 -6 -54 0q-23 9 -20 37l20 139q-141 10 -252.5 64t-186.5 146.5t-105.5 229t-8.5 302.5q25 176 100.5 318t186 235t249.5 142.5t294 49.5 q222 0 379.5 -94.5t216.5 -273.5q4 -10 -2 -22t-17 -17l-137 -62q-25 -9 -37 15q-43 123 -156.5 190.5t-273.5 67.5q-244 0 -403 -149.5t-195 -399.5q-34 -250 83.5 -399.5t361.5 -149.5q160 0 292.5 67.5t210.5 190.5q17 23 41 14l117 -61q11 -5 14 -16.5t-4 -22.5 q-100 -167 -271 -261t-378 -106l-8 -49q90 -5 139.5 -58.5t36.5 -148.5q-13 -96 -89.5 -154.5t-170.5 -58.5q-136 0 -197 107q-6 10 -2.5 22.5t15.5 18.5z" />
<glyph unicode="&#xc8;" horiz-adv-x="1224" d="M950 618h-567l-59 -421h704q28 0 25 -29l-21 -139q-3 -29 -31 -29h-880q-30 0 -27 29l193 1376q6 29 32 29h881q14 0 21 -8t4 -21l-19 -139q-3 -29 -32 -29h-705l-59 -422h567q30 0 24 -29l-18 -139q-3 -29 -33 -29zM719 2005l274 -233q18 -15 0 -41l-57 -68 q-21 -21 -41 -8l-299 207q-21 15 -4 39l86 98q15 21 41 6z" />
<glyph unicode="&#xc9;" horiz-adv-x="1224" d="M950 618h-567l-59 -421h704q28 0 25 -29l-21 -139q-3 -29 -31 -29h-880q-30 0 -27 29l193 1376q6 29 32 29h881q14 0 21 -8t4 -21l-19 -139q-3 -29 -32 -29h-705l-59 -422h567q30 0 24 -29l-18 -139q-3 -29 -33 -29zM582 1772l340 233q27 15 36 -6l58 -98q14 -20 -12 -39 l-357 -207q-26 -13 -41 8l-37 68q-11 26 13 41z" />
<glyph unicode="&#xca;" horiz-adv-x="1224" d="M952 618h-567l-61 -421h704q14 0 21 -8t4 -21l-19 -139q-3 -29 -30 -29h-881q-30 0 -27 29l193 1376q3 29 33 29h880q28 0 25 -29l-19 -139q-6 -29 -32 -29h-705l-61 -422h567q30 0 24 -29l-16 -139q-6 -29 -33 -29zM496 1772l297 202q24 17 45 2l241 -204q18 -13 2 -41 l-59 -68q-18 -21 -41 -8l-195 127l-225 -127q-25 -14 -41 8l-35 68q-7 11 -3.5 23t14.5 18z" />
<glyph unicode="&#xcb;" horiz-adv-x="1224" d="M440 1759q6 48 43 81.5t84 33.5t78 -34t25 -81q-9 -48 -46.5 -81t-84.5 -33q-48 0 -78 33.5t-21 80.5zM915 1759q6 48 43 81.5t84 33.5t78 -34t25 -81q-9 -48 -46.5 -81t-84.5 -33q-48 0 -78 33.5t-21 80.5zM956 618h-567l-61 -421h704q14 0 21 -8t4 -21l-21 -139 q0 -29 -28 -29h-881q-29 0 -29 29l193 1376q6 29 33 29h880q14 0 21 -8t4 -21l-17 -139q-6 -29 -32 -29h-705l-61 -422h567q14 0 21 -8t4 -21l-17 -139q-6 -29 -33 -29z" />
<glyph unicode="&#xcc;" horiz-adv-x="497" d="M475 1405l-192 -1376q-3 -29 -31 -29h-148q-29 0 -26 29l192 1376q6 29 33 29h148q30 0 24 -29zM356 2005l275 -233q18 -15 0 -41l-58 -68q-21 -21 -41 -8l-299 207q-21 15 -4 39l86 98q15 21 41 6z" />
<glyph unicode="&#xcd;" horiz-adv-x="497" d="M76 29l192 1376q6 29 33 29h148q30 0 24 -29l-192 -1376q-3 -29 -31 -29h-148q-29 0 -26 29zM219 1772l340 233q10 6 21.5 5t15.5 -11l57 -98q14 -20 -12 -39l-356 -207q-26 -13 -41 8l-37 68q-12 26 12 41z" />
<glyph unicode="&#xce;" horiz-adv-x="669" d="M561 1405l-192 -1376q-3 -29 -31 -29h-148q-29 0 -26 29l192 1376q3 29 33 29h148q27 0 24 -29zM219 1772l297 202q24 17 45 2l242 -204q18 -13 2 -41l-60 -68q-18 -21 -40 -8l-195 127l-225 -127q-25 -14 -41 8l-35 68q-7 11 -4 23t14 18z" />
<glyph unicode="&#xcf;" horiz-adv-x="745" d="M201 1759q6 48 43 81.5t84 33.5t77.5 -34t24.5 -81q-9 -48 -46.5 -81t-84.5 -33q-48 0 -77.5 33.5t-20.5 80.5zM676 1759q6 48 43 81.5t84 33.5t77.5 -34t24.5 -81q-9 -48 -46.5 -81t-84.5 -33q-48 0 -77.5 33.5t-20.5 80.5zM602 1405l-192 -1376q0 -29 -29 -29h-148 q-28 0 -28 29l192 1376q6 29 33 29h148q30 0 24 -29z" />
<glyph unicode="&#xd0;" horiz-adv-x="1525" d="M221 637h-135q-28 0 -25 29l15 100q3 29 33 29h135l84 610q6 29 32 29h494q150 0 269.5 -46t202 -133.5t116.5 -225.5t10 -312q-25 -174 -97.5 -311.5t-179 -225.5t-238.5 -134t-282 -46h-493q-30 0 -27 29zM365 197h317q233 0 381.5 136.5t183.5 383.5 q34 247 -76.5 383.5t-343.5 136.5h-317l-61 -442h309q27 0 24 -29l-14 -100q-3 -29 -33 -29h-309z" />
<glyph unicode="&#xd1;" horiz-adv-x="1548" d="M1511 1405l-192 -1376q0 -13 -8.5 -21t-22.5 -8h-147q-30 0 -43 23l-643 1077l-152 -1071q0 -13 -8.5 -21t-22.5 -8h-147q-27 0 -27 29l193 1376q6 29 33 29h147q30 0 43 -23l645 -1075l148 1069q6 29 32 29h148q30 0 24 -29zM1049 1647q-43 2 -74.5 18t-46 33.5t-36 32 t-48.5 14.5q-60 0 -84 -70q-6 -28 -35 -28h-76q-27 0 -24 28q22 98 84 155t149 62q43 -2 74.5 -18t45.5 -33.5t35.5 -32t49.5 -14.5q33 0 54.5 20.5t29.5 49.5q6 28 35 28h75q12 0 19 -8t4 -20q-20 -98 -81.5 -155t-149.5 -62z" />
<glyph unicode="&#xd2;" horiz-adv-x="1695" d="M1602 717q-26 -180 -101 -323.5t-185 -235t-248 -139.5t-294 -48t-281 48t-210.5 139.5t-121 235t-9.5 323.5t101 323t185.5 234.5t248.5 139.5t294 48t281 -48t210 -139.5t120.5 -234.5t9.5 -323zM1397 717q37 262 -79 405.5t-364 143.5t-404.5 -143.5t-193.5 -405.5 t79 -405.5t364 -143.5t404.5 143.5t193.5 405.5zM932 2005l274 -233q18 -13 2 -41l-59 -68q-18 -21 -41 -8l-299 207q-21 17 -2 39l86 98q12 21 39 6z" />
<glyph unicode="&#xd3;" horiz-adv-x="1695" d="M1602 717q-26 -180 -101 -323.5t-185 -235t-248 -139.5t-294 -48t-281 48t-210.5 139.5t-121 235t-9.5 323.5t101 323t185.5 234.5t248.5 139.5t294 48t281 -48t210 -139.5t120.5 -234.5t9.5 -323zM1397 717q37 262 -79 405.5t-364 143.5t-404.5 -143.5t-193.5 -405.5 t79 -405.5t364 -143.5t404.5 143.5t193.5 405.5zM821 1772l340 233q27 15 39 -6l57 -98q13 -22 -14 -39l-356 -207q-23 -13 -41 8l-35 68q-13 24 10 41z" />
<glyph unicode="&#xd4;" horiz-adv-x="1695" d="M1604 717q-21 -145 -74 -266.5t-130 -209t-176 -149t-212.5 -91.5t-237.5 -30q-156 0 -280.5 48t-210 139.5t-120.5 235t-9 323.5q25 180 99.5 323t185 234.5t248.5 139.5t294 48t281 -48t210.5 -139.5t121 -234.5t10.5 -323zM1399 717q37 262 -80 405.5t-365 143.5 t-403.5 -143.5t-192.5 -405.5t79 -405.5t364 -143.5t404.5 143.5t193.5 405.5zM733 1772l295 202q27 17 47 2l242 -204q18 -15 0 -41l-57 -68q-21 -21 -41 -8l-195 127l-225 -127q-28 -14 -41 8l-37 68q-6 10 -3 22.5t15 18.5z" />
<glyph unicode="&#xd5;" horiz-adv-x="1695" d="M1606 717q-26 -180 -101 -323.5t-185 -235t-248 -139.5t-294 -48t-281 48t-210.5 139.5t-121 235t-9.5 323.5t101 323t185.5 234.5t248.5 139.5t294 48t281 -48t210 -139.5t120.5 -234.5t9.5 -323zM1401 717q37 262 -79 405.5t-364 143.5t-404.5 -143.5t-193.5 -405.5 t79 -405.5t364 -143.5t404.5 143.5t193.5 405.5zM1124 1647q-44 2 -75.5 18t-46 33.5t-36 32t-48.5 14.5q-62 0 -82 -70q-9 -28 -35 -28h-76q-31 0 -25 28q20 97 82.5 154.5t149.5 62.5q43 -2 74.5 -18t46 -33.5t36.5 -32t50 -14.5q62 0 82 70q9 28 34 28h76q13 0 20 -8 t3 -20q-19 -97 -81 -154.5t-149 -62.5z" />
<glyph unicode="&#xd6;" horiz-adv-x="1695" d="M1606 717q-25 -180 -100 -323.5t-185.5 -235t-248.5 -139.5t-294 -48t-281 48t-210 139.5t-120.5 235t-10.5 323.5q26 180 101 323t185.5 234.5t248.5 139.5t294 48t281 -48t210 -139.5t120.5 -234.5t9.5 -323zM1401 717q37 262 -79 405.5t-364 143.5t-404.5 -143.5 t-193.5 -405.5q-35 -262 81 -405.5t364 -143.5t404.5 143.5t191.5 405.5zM676 1759q6 47 44 81t85 34t76.5 -34t23.5 -81q-8 -47 -46 -80.5t-85 -33.5t-76 33.5t-22 80.5zM1151 1759q6 47 44 81t85 34t76.5 -34t23.5 -81q-8 -47 -46 -80.5t-85 -33.5t-76 33.5t-22 80.5z" />
<glyph unicode="&#xd7;" horiz-adv-x="876" d="M762 571l-184 -161l139 -162q17 -23 -4 -41l-82 -72q-21 -21 -41 0l-137 164l-189 -164q-10 -11 -22 -11t-19 11l-61 70q-19 22 6 41l186 164l-141 163q-15 22 4 41l84 70q19 22 41 0l139 -164l187 164q20 15 41 0l57 -72q20 -20 -4 -41z" />
<glyph unicode="&#xd8;" horiz-adv-x="1695" d="M1624 1368l-115 -117q161 -201 113 -534q-26 -180 -101 -323.5t-185.5 -235t-248.5 -139.5t-294 -48q-250 0 -418 121l-137 -139q-26 -22 -41 -4l-62 59q-22 19 0 41l139 141q-150 196 -102 527q26 180 100.5 323t185 234.5t248 139.5t293.5 48q243 0 410 -114l113 116 q25 22 43 4l61 -59q21 -21 -2 -41zM377 717q-30 -229 51 -369l827 844q-109 74 -280 74q-248 0 -404.5 -143.5t-193.5 -405.5zM819 168q248 0 404.5 143.5t193.5 405.5q30 235 -61 377l-830 -848q110 -78 293 -78z" />
<glyph unicode="&#xd9;" horiz-adv-x="1495" d="M1083 1731l-59 -68q-18 -21 -41 -8l-299 207q-21 17 -2 39l86 98q12 21 39 6l274 -233q18 -13 2 -41zM1284 1434h148q27 0 24 -29l-117 -840q-20 -143 -80.5 -257t-149.5 -187t-200 -111.5t-235 -38.5t-224.5 38.5t-170 111.5t-98.5 187t-9 257l117 840q3 29 33 29h147 q28 0 25 -29l-117 -842q-13 -92 1.5 -164t46.5 -114.5t80 -70t95 -37t98 -9.5t101 9.5t106.5 37t101.5 70t80 114.5t48 164l116 842q3 29 33 29z" />
<glyph unicode="&#xda;" horiz-adv-x="1495" d="M791 1663l-35 68q-13 24 10 41l340 233q27 15 39 -6l57 -98q13 -22 -14 -39l-357 -207q-22 -13 -40 8zM322 1434h147q28 0 25 -29l-117 -842q-13 -92 1.5 -164t46.5 -114.5t80 -70t95 -37t98 -9.5t101 9.5t106.5 37t101.5 70t80 114.5t48 164l116 842q3 29 33 29h148 q27 0 24 -29l-117 -840q-20 -143 -80.5 -257t-149.5 -187t-200 -111.5t-235 -38.5t-224.5 38.5t-170 111.5t-98.5 187t-9 257l117 840q3 29 33 29z" />
<glyph unicode="&#xdb;" horiz-adv-x="1495" d="M700 168q51 0 101 9.5t106 37t100.5 70t79.5 114.5t48 164l116 842q6 29 33 29h148q30 0 24 -29l-117 -840q-20 -143 -80.5 -257t-149.5 -187t-200 -111.5t-235 -38.5t-224.5 38.5t-170 111.5t-98.5 187t-9 257l117 840q6 29 33 29h147q14 0 21 -8t4 -21l-117 -842 q-13 -92 2 -164t47 -114.5t80.5 -70t95.5 -37t98 -9.5zM633 1772l295 202q27 17 47 2l242 -204q18 -15 0 -41l-58 -68q-21 -21 -41 -8l-194 127l-226 -127q-28 -14 -41 8l-36 68q-6 10 -3 22.5t15 18.5z" />
<glyph unicode="&#xdc;" horiz-adv-x="1495" d="M575 1759q6 47 44.5 81t85.5 34t76.5 -34t23.5 -81q-8 -47 -46 -80.5t-85 -33.5q-48 0 -77 33.5t-22 80.5zM1051 1759q6 47 44 81t85 34t76.5 -34t23.5 -81q-8 -47 -46 -80.5t-85 -33.5t-76 33.5t-22 80.5zM705 168q51 0 101 9.5t106 37t100 70t79 114.5t48 164l116 842 q6 29 33 29h148q30 0 24 -29l-117 -840q-20 -143 -80.5 -257t-149.5 -187t-200 -111.5t-235 -38.5t-224.5 38.5t-170 111.5t-98.5 187t-9 257l117 840q6 29 33 29h147q14 0 21 -8t4 -21l-117 -842q-13 -92 2 -164t47.5 -114.5t80.5 -70t95.5 -37t98.5 -9.5z" />
<glyph unicode="&#xdd;" horiz-adv-x="1478" d="M741 0h-147q-30 0 -27 29l78 551l-422 829q-5 8 0 16.5t15 8.5h186q27 0 43 -25l309 -618l486 618q22 25 47 25h186q11 0 14 -9t-4 -16l-655 -829l-78 -551q-3 -29 -31 -29zM709 1772l340 233q27 15 36 -6l58 -98q14 -20 -13 -39l-356 -207q-28 -14 -41 8l-37 68 q-6 10 -2.5 22.5t15.5 18.5z" />
<glyph unicode="&#xde;" horiz-adv-x="1316" d="M346 215l-27 -186q-3 -29 -30 -29h-148q-29 0 -26 29l192 1376q6 29 33 29h147q14 0 21 -8t4 -21l-25 -186h334q104 0 188 -31.5t143 -92t83.5 -158t7.5 -220.5q-18 -126 -69.5 -223.5t-128 -157.5t-168.5 -90.5t-197 -30.5h-334zM793 1022h-334l-84 -610h334 q141 0 224 78t105 227q20 149 -41.5 227t-203.5 78z" />
<glyph unicode="&#xdf;" horiz-adv-x="1249" d="M414 29l45 118q10 29 35 21q50 -12 102 -12q132 0 224 71t110 199q18 132 -52 199t-210 67h-47q-14 0 -21 8t-4 21l16 123q3 28 33 28h47q113 0 178 55t78 146q13 96 -38 146.5t-162 50.5t-190.5 -60t-96.5 -174l-142 -1007q-3 -29 -30 -29h-148q-29 0 -26 29l143 1022 q14 101 65 181.5t124 129.5t156.5 74.5t170.5 25.5q188 0 292.5 -98.5t82.5 -290.5q-27 -176 -172 -278q189 -116 158 -369q-23 -143 -104 -248t-196 -156t-251 -51q-75 0 -154 21q-11 5 -16 15t0 22z" />
<glyph unicode="&#xe0;" horiz-adv-x="1085" d="M854 1116l-57 -67q-22 -22 -41 -9l-299 207q-23 17 -4 39l86 98q16 22 39 7l276 -234q18 -15 0 -41zM604 844q91 0 164 -28t123.5 -82t71.5 -139.5t6 -193.5l-54 -372q-3 -29 -30 -29h-131q-30 0 -27 29l12 82q-56 -73 -138.5 -103.5t-158.5 -30.5q-123 0 -205 60 t-113 155t-15 211q29 202 168.5 321.5t326.5 119.5zM483 150q41 -2 85 9.5t89 38t79 80t44 125.5q11 63 0.5 108t-28.5 75t-48.5 47t-60 24t-63.5 7q-33 0 -66.5 -7.5t-69 -26.5t-64 -47t-51 -72.5t-30.5 -100.5q-17 -130 38.5 -192.5t145.5 -67.5z" />
<glyph unicode="&#xe1;" horiz-adv-x="1085" d="M508 1049l-37 67q-12 26 12 41l338 234q30 15 39 -7l58 -98q12 -21 -13 -39l-356 -207q-25 -13 -41 9zM604 844q91 0 164 -28t123.5 -82t71.5 -139.5t6 -193.5l-54 -372q-3 -29 -30 -29h-131q-30 0 -27 29l12 82q-56 -73 -138.5 -103.5t-158.5 -30.5q-123 0 -205 60 t-113 155t-15 211q29 202 168.5 321.5t326.5 119.5zM483 150q41 -2 85 9.5t89 38t79 80t44 125.5q11 63 0.5 108t-28.5 75t-48.5 47t-60 24t-63.5 7q-33 0 -66.5 -7.5t-69 -26.5t-64 -47t-51 -72.5t-30.5 -100.5q-17 -130 38.5 -192.5t145.5 -67.5z" />
<glyph unicode="&#xe2;" horiz-adv-x="1085" d="M643 1167l-225 -127q-25 -14 -41 9l-35 67q-7 11 -4 23t14 18l297 203q24 17 45 2l242 -205q18 -13 2 -41l-59 -67q-19 -22 -41 -9zM604 844q91 0 164 -28t123.5 -82t71.5 -139.5t6 -193.5l-54 -372q0 -29 -30 -29h-131q-27 0 -27 29l12 82q-55 -73 -137 -103.5 t-158 -30.5q-123 0 -205.5 60t-114 155t-15.5 211q30 202 169.5 321.5t325.5 119.5zM485 150q31 -2 65.5 4t72.5 24t69 46t55.5 74.5t32.5 104.5q11 63 0.5 108t-28.5 75t-48.5 47t-60 24t-63.5 7q-33 0 -66.5 -7.5t-69 -26.5t-64 -47t-51 -72.5t-30.5 -100.5 q-17 -129 39 -192t147 -68z" />
<glyph unicode="&#xe3;" horiz-adv-x="1085" d="M526 1130q-33 0 -54.5 -20t-29.5 -49q-6 -29 -34 -29h-76q-28 0 -25 29q22 98 84 155t150 62q35 -2 61.5 -12.5t41.5 -24.5t28.5 -28t31.5 -23.5t41 -9.5q33 0 54.5 20t29.5 49q6 29 35 29h76q12 0 19 -8.5t4 -20.5q-20 -98 -82 -155t-150 -62q-43 2 -74.5 18t-46 33.5 t-36 32t-48.5 14.5zM608 844q91 0 164 -28t123.5 -82t71.5 -139.5t6 -193.5l-53 -372q-3 -29 -31 -29h-131q-30 0 -27 29l12 82q-56 -73 -138.5 -103.5t-158.5 -30.5q-123 0 -205 60t-113 155t-15 211q29 202 168.5 321.5t326.5 119.5zM487 150q41 -2 85 9.5t89 38t79 80 t44 125.5q11 63 0.5 108t-28.5 75t-48.5 47t-60 24t-63.5 7q-33 0 -66.5 -7.5t-69 -26.5t-64 -47t-51 -72.5t-30.5 -100.5q-17 -130 38.5 -192.5t145.5 -67.5z" />
<glyph unicode="&#xe4;" horiz-adv-x="1085" d="M307 1145q8 47 46 81t85 34t76.5 -34t22.5 -81q-8 -48 -45 -81.5t-84 -33.5q-48 0 -78 34t-23 81zM782 1145q8 47 46 81t85 34t76.5 -34t22.5 -81q-8 -48 -45 -81.5t-84 -33.5q-48 0 -78 34t-23 81zM608 844q91 0 164 -28t123.5 -82t71.5 -139.5t6 -193.5l-53 -372 q0 -13 -8.5 -21t-22.5 -8h-131q-27 0 -27 29l12 82q-57 -73 -137.5 -103.5t-156.5 -30.5q-93 0 -164 34.5t-111.5 93.5t-56.5 135.5t-4 162.5q30 202 169.5 321.5t325.5 119.5zM487 150q41 -2 85 9.5t89 38t79 80t44 125.5q11 63 0.5 108t-28.5 75t-48.5 47t-60 24t-63.5 7 q-33 0 -66.5 -7.5t-69 -26.5t-64 -47t-51 -72.5t-30.5 -100.5q-17 -129 39 -192t145 -68z" />
<glyph unicode="&#xe5;" horiz-adv-x="1085" d="M453 1235q10 86 76.5 144.5t152.5 58.5t136.5 -58.5t39.5 -144.5q-12 -86 -78.5 -144.5t-152.5 -58.5t-136 58.5t-38 144.5zM573 1235q-6 -35 14.5 -58.5t55.5 -23.5t61.5 23.5t32.5 58.5q3 35 -17.5 58.5t-55.5 23.5t-61.5 -23.5t-29.5 -58.5zM602 844q91 0 164 -28 t123.5 -82t71.5 -139.5t6 -193.5l-54 -372q0 -29 -30 -29h-131q-27 0 -27 29l12 82q-57 -73 -138 -103.5t-157 -30.5q-93 0 -164 34.5t-111.5 93.5t-56.5 135.5t-4 162.5q30 202 170 321.5t326 119.5zM481 150q41 -2 85 9.5t89 38t79 80t44 125.5q11 63 0.5 108t-28.5 75 t-48.5 47t-60 24t-63.5 7q-33 0 -66.5 -7.5t-69 -26.5t-64 -47t-51 -72.5t-30.5 -100.5q-17 -129 39 -192t145 -68z" />
<glyph unicode="&#xe6;" horiz-adv-x="1595" d="M1280 223l113 -53q11 -5 13.5 -15.5t-7.5 -21.5q-140 -158 -365 -158q-194 0 -297 121q-118 -121 -301 -121q-78 0 -141.5 16t-110.5 48.5t-68 87.5t-10 127q21 136 133.5 204.5t270.5 63.5q104 -4 172 -43l4 31q1 17 3 38t-7 43t-24 40t-48 29.5t-80 11.5 q-106 0 -174 -64q-19 -26 -43 -16l-116 31q-12 5 -16.5 14t1.5 20q47 94 146.5 140.5t226.5 46.5q194 0 272 -117q135 117 326 117q187 0 291 -113.5t76 -320.5l-2 -7q0 -11 -11 -19.5t-24 -8.5h-631q-3 -65 15.5 -110.5t52 -68t67.5 -31.5t72 -9q105 0 174 59q26 19 47 8z M647 283q-20 71 -158 71q-54 0 -94.5 -11.5t-60 -29.5t-28.5 -32.5t-11 -26.5q-2 -15 3 -30t19.5 -33t51.5 -29.5t92 -11.5q137 0 178 75q20 30 8 58zM1128 664q-34 0 -66.5 -7.5t-66 -23.5t-62.5 -47t-48 -74h446q-14 82 -71.5 117t-131.5 35z" />
<glyph unicode="&#xe7;" horiz-adv-x="1052" d="M299 -348l55 37q20 14 39 -8q34 -52 105 -52q41 0 75.5 23.5t40.5 64.5q6 39 -17.5 61.5t-61.5 22.5q-4 0 -12.5 -1t-12.5 -1q-28 -6 -53 0q-27 10 -21 37l21 146q-156 24 -236.5 135.5t-54.5 292.5q19 139 89.5 239t172 147.5t223.5 47.5q139 0 236 -62t123 -178 q4 -10 -3 -20t-20 -15l-127 -34q-28 -9 -37 18q-23 58 -78 84.5t-118 26.5q-43 0 -83 -11.5t-80.5 -38t-70 -79t-39.5 -125.5t4.5 -125.5t48 -79t70.5 -38t80 -11.5q62 0 122 25.5t99 80.5q17 26 41 17l117 -46q10 -5 13.5 -15t-3.5 -21q-55 -99 -152 -154t-219 -66l-8 -53 q90 -5 139 -58.5t37 -148.5q-14 -96 -90.5 -154.5t-169.5 -58.5q-134 0 -198 107q-5 10 -2 22.5t16 18.5z" />
<glyph unicode="&#xe8;" d="M836 1116l-58 -67q-22 -22 -41 -9l-299 207q-23 17 -4 39l86 98q15 22 41 7l275 -234q18 -15 0 -41zM961 410v-7q-1 -12 -12 -20t-23 -8h-633q-3 -63 14.5 -108t50 -68t67.5 -33t75 -10q107 0 174 59q29 18 49 8l113 -53q11 -5 13 -15.5t-7 -21.5q-140 -158 -367 -158 q-187 0 -290.5 114t-75.5 321q30 207 165 320.5t322 113.5q91 0 164 -28t123.5 -81.5t71.5 -137t6 -187.5zM328 512h446q-14 82 -71.5 117t-131.5 35q-34 0 -66.5 -7.5t-66 -23.5t-62.5 -47t-48 -74z" />
<glyph unicode="&#xe9;" d="M494 1049l-37 67q-12 26 12 41l340 234q10 6 21.5 4.5t15.5 -11.5l57 -98q12 -22 -12 -39l-356 -207q-25 -13 -41 9zM961 410v-7q-1 -12 -12 -20t-23 -8h-633q-3 -63 14.5 -108t50 -68t67.5 -33t75 -10q107 0 174 59q29 18 49 8l113 -53q11 -5 13 -15.5t-7 -21.5 q-140 -158 -367 -158q-187 0 -290.5 114t-75.5 321q30 207 165 320.5t322 113.5q91 0 164 -28t123.5 -81.5t71.5 -137t6 -187.5zM328 512h446q-14 82 -71.5 117t-131.5 35q-34 0 -66.5 -7.5t-66 -23.5t-62.5 -47t-48 -74z" />
<glyph unicode="&#xea;" d="M639 1167l-225 -127q-25 -14 -41 9l-35 67q-7 11 -4 23t14 18l297 203q24 17 45 2l242 -205q18 -13 2 -41l-60 -67q-18 -21 -40 -9zM961 410v-7q0 -11 -11 -19.5t-24 -8.5h-633q-3 -63 15 -108t50.5 -68t68 -33t75.5 -10q105 0 174 59q26 19 47 8l113 -53 q11 -5 13.5 -15.5t-7.5 -21.5q-140 -158 -365 -158q-187 0 -291 114t-77 321q30 207 165 320.5t322 113.5q91 0 164 -28t123.5 -81.5t71.5 -137t6 -187.5zM328 512h446q-14 82 -71.5 117t-131.5 35q-34 0 -66.5 -7.5t-66 -23.5t-62.5 -47t-48 -74z" />
<glyph unicode="&#xeb;" d="M293 1145q6 47 44 81t85 34t76.5 -34t23.5 -81q-9 -48 -46.5 -81.5t-84.5 -33.5q-48 0 -77.5 34t-20.5 81zM768 1145q6 47 44 81t85 34t76.5 -34t23.5 -81q-9 -48 -46.5 -81.5t-84.5 -33.5q-48 0 -77.5 34t-20.5 81zM965 410v-7q0 -11 -11 -19.5t-24 -8.5h-633 q-3 -63 15 -108t50.5 -68t68 -33t75.5 -10q105 0 174 59q26 19 47 8l113 -53q11 -5 13 -15.5t-7 -21.5q-140 -158 -365 -158q-187 0 -291 114t-77 321q30 207 165 320.5t322 113.5q91 0 164 -28t123.5 -81.5t71.5 -137t6 -187.5zM332 512h446q-14 82 -71.5 117t-131.5 35 q-34 0 -66.5 -7.5t-66 -23.5t-62.5 -47t-48 -74z" />
<glyph unicode="&#xec;" horiz-adv-x="497" d="M403 791l-106 -762q-3 -29 -31 -29h-131q-29 0 -26 29l106 762q3 28 33 28h131q27 0 24 -28zM291 1391l274 -234q18 -13 2 -41l-59 -67q-19 -22 -41 -9l-299 207q-21 17 -2 39l86 98q13 22 39 7z" />
<glyph unicode="&#xed;" horiz-adv-x="497" d="M403 791l-106 -762q-3 -29 -31 -29h-131q-29 0 -26 29l106 762q3 28 33 28h131q27 0 24 -28zM154 1157l340 234q26 15 38 -7l58 -98q12 -22 -15 -39l-356 -207q-25 -14 -41 9l-35 67q-7 11 -3.5 23t14.5 18z" />
<glyph unicode="&#xee;" horiz-adv-x="669" d="M487 791l-106 -762q-3 -29 -31 -29h-131q-29 0 -26 29l106 762q6 28 33 28h131q30 0 24 -28zM156 1157l297 203q24 17 45 2l241 -205q18 -15 0 -41l-57 -67q-22 -22 -41 -9l-195 127l-225 -127q-28 -14 -41 9l-37 67q-6 10 -2.5 22.5t15.5 18.5z" />
<glyph unicode="&#xef;" horiz-adv-x="745" d="M135 1145q6 47 45 81t86 34t76 -34t23 -81q-8 -47 -46.5 -81t-85.5 -34t-76 34t-22 81zM610 1145q6 47 45 81t86 34t76 -34t23 -81q-8 -47 -46 -81t-85 -34t-76.5 34t-22.5 81zM530 791l-106 -762q-3 -29 -31 -29h-131q-29 0 -26 29l106 762q6 28 33 28h131q30 0 24 -28z " />
<glyph unicode="&#xf0;" horiz-adv-x="1097" d="M1065 1221l-143 -64q52 -182 63.5 -378.5t-16.5 -364.5q-36 -208 -172.5 -323.5t-323.5 -115.5q-181 0 -286.5 123.5t-80.5 311.5q30 207 165.5 320.5t322.5 113.5q49 0 112.5 -20t94.5 -56q-5 163 -45 315l-138 -63q-10 -5 -21.5 -1.5t-14.5 13.5l-23 64q-4 10 2 22 t17 17l141 63q-16 49 -64 148q-9 24 17 38l100 58q28 15 37 -10q41 -75 74 -162l145 65q10 5 22 0.5t15 -14.5l20 -61q3 -10 -3 -22t-17 -17zM762 360q15 58 9.5 112.5t-25.5 97t-65.5 68.5t-111.5 26q-43 0 -83.5 -11.5t-81 -38t-70 -79t-39.5 -125.5t4.5 -125.5t48 -79 t70.5 -38t80 -11.5q38 0 74.5 9.5t74.5 30.5t68.5 63.5t46.5 100.5z" />
<glyph unicode="&#xf1;" horiz-adv-x="1048" d="M541 662q-187 -21 -215 -228l-58 -405q-3 -29 -30 -29h-132q-29 0 -26 29l57 405q28 197 154 303.5t303 106.5q178 0 276 -106.5t70 -303.5l-57 -405q-3 -29 -31 -29h-131q-30 0 -27 29l58 405q28 207 -154 228q-28 3 -57 0zM735 1032q-36 2 -63.5 12.5t-43 24.5 t-29.5 28t-31.5 23.5t-39.5 9.5q-62 0 -82 -69q-10 -29 -34 -29h-76q-14 0 -21 8t-4 21q20 97 82.5 154.5t149.5 62.5q43 -2 74.5 -18t46 -33.5t36.5 -32t50 -14.5q61 0 81 69q10 29 35 29h76q12 0 19.5 -8.5t3.5 -20.5q-19 -97 -81 -154.5t-149 -62.5z" />
<glyph unicode="&#xf2;" d="M961 410q-19 -138 -89.5 -238t-172.5 -148.5t-224 -48.5q-187 0 -290.5 114t-75.5 321q30 207 165 320.5t322 113.5q91 0 164 -28t123.5 -81.5t71.5 -137t6 -187.5zM772 410q10 73 -4 125.5t-47 79t-70 38t-80 11.5t-83.5 -11.5t-81 -38t-70 -79t-39.5 -125.5t4.5 -125.5 t48 -79t70.5 -38t80 -11.5q34 0 66 6.5t66.5 24t61.5 45t48.5 73.5t29.5 105zM532 1391l275 -234q18 -15 0 -41l-57 -67q-22 -22 -41 -9l-299 207q-23 17 -4 39l86 98q15 21 40 7z" />
<glyph unicode="&#xf3;" d="M961 410q-19 -138 -89.5 -238t-172.5 -148.5t-224 -48.5q-187 0 -290.5 114t-75.5 321q30 207 165 320.5t322 113.5q91 0 164 -28t123.5 -81.5t71.5 -137t6 -187.5zM772 410q10 73 -4 125.5t-47 79t-70 38t-80 11.5t-83.5 -11.5t-81 -38t-70 -79t-39.5 -125.5t4.5 -125.5 t48 -79t70.5 -38t80 -11.5q34 0 66 6.5t66.5 24t61.5 45t48.5 73.5t29.5 105zM424 1157l340 234q10 6 21.5 4.5t15.5 -11.5l57 -98q12 -22 -12 -39l-357 -207q-25 -12 -40 9l-37 67q-12 26 12 41z" />
<glyph unicode="&#xf4;" d="M961 410q-27 -207 -162 -321t-322 -114t-291 114t-77 321q30 207 165 320.5t322 113.5q91 0 164 -28t123.5 -81.5t71.5 -137t6 -187.5zM772 410q10 73 -4 125.5t-47 79t-70 38t-80 11.5t-83.5 -11.5t-81 -38t-70 -79t-39.5 -125.5q-8 -59 0.5 -105t28.5 -73.5t50.5 -45 t61 -24t64.5 -6.5q43 0 82.5 11.5t79.5 38t69 79t39 125.5zM348 1157l297 203q24 17 45 2l242 -205q18 -13 2 -41l-60 -67q-18 -21 -40 -9l-195 127l-225 -127q-25 -14 -41 9l-35 67q-7 11 -4 23t14 18z" />
<glyph unicode="&#xf5;" d="M965 410q-19 -138 -89.5 -238t-172.5 -148.5t-224 -48.5q-187 0 -290.5 114t-75.5 321q30 207 165 320.5t322 113.5q91 0 164 -28t123.5 -81.5t71.5 -137t6 -187.5zM776 410q10 73 -4 125.5t-47 79t-70 38t-80 11.5t-83.5 -11.5t-81 -38t-70 -79t-39.5 -125.5t4.5 -125.5 t48 -79t70.5 -38t80 -11.5q34 0 66 6.5t66.5 24t61.5 45t48.5 73.5t29.5 105zM739 1032q-43 2 -74.5 18t-45.5 33.5t-35.5 32t-48.5 14.5q-60 0 -84 -69q-6 -29 -35 -29h-76q-28 0 -25 29q22 97 84.5 154.5t149.5 62.5q43 -2 74.5 -18t45.5 -33.5t35.5 -32t49.5 -14.5 q33 0 54.5 20t29.5 49q6 29 34 29h76q12 0 19 -8.5t4 -20.5q-20 -98 -82 -155t-150 -62z" />
<glyph unicode="&#xf6;" d="M965 410q-27 -207 -162 -321t-322 -114t-291 114t-77 321q30 207 165 320.5t322 113.5q91 0 164 -28t123.5 -81.5t71.5 -137t6 -187.5zM776 410q10 73 -4 125.5t-47 79t-70 38t-80 11.5t-83.5 -11.5t-81 -38t-70 -79t-39.5 -125.5q-8 -59 0.5 -105t28.5 -73.5t50.5 -45 t61 -24t64.5 -6.5q43 0 82.5 11.5t79.5 38t69 79t39 125.5zM293 1145q6 47 44 81t85 34t76.5 -34t23.5 -81q-9 -48 -46.5 -81.5t-84.5 -33.5q-48 0 -77.5 34t-20.5 81zM768 1145q6 47 44 81t85 34t76.5 -34t23.5 -81q-9 -48 -46.5 -81.5t-84.5 -33.5q-48 0 -77.5 34 t-20.5 81z" />
<glyph unicode="&#xf7;" horiz-adv-x="913" d="M315 104q8 54 49 90.5t95 36.5q52 0 84.5 -37t25.5 -90q-6 -53 -48.5 -90t-94.5 -37q-54 0 -85.5 36.5t-25.5 90.5zM401 719q6 54 48 90.5t96 36.5q51 0 83.5 -36.5t26.5 -90.5q-6 -53 -48.5 -90t-94.5 -37q-54 0 -85.5 36.5t-25.5 90.5zM758 330h-570q-30 0 -24 28 l12 101q6 28 33 28h569q31 0 25 -28l-12 -101q-6 -28 -33 -28z" />
<glyph unicode="&#xf8;" horiz-adv-x="1058" d="M1010 778l-80 -80q79 -116 51 -288q-27 -207 -161.5 -321t-321.5 -114q-127 0 -224 54l-75 -80q-26 -22 -41 -4l-62 59q-22 19 0 41l82 82q-73 107 -49 283q30 207 165 320.5t322 113.5q129 0 215 -51l76 81q26 23 41 5l62 -60q24 -20 0 -41zM317 410q-6 -89 9 -131 l362 368q-60 17 -96 17q-43 0 -83.5 -11.5t-81.5 -38t-70.5 -79t-39.5 -125.5zM522 156q43 0 83 11.5t80 38t69 79t39 125.5q12 81 -9 139l-366 -375q45 -18 104 -18z" />
<glyph unicode="&#xf9;" horiz-adv-x="1048" d="M815 1116l-57 -67q-22 -22 -41 -9l-299 207q-23 17 -4 39l86 98q15 22 41 7l274 -234q18 -15 0 -41zM829 819h132q30 0 24 -28l-55 -406q-28 -197 -155 -303.5t-304 -106.5q-178 0 -275 106.5t-69 303.5l55 406q6 28 33 28h131q31 0 25 -28l-56 -406q-10 -67 3 -114.5 t43.5 -71t63 -33.5t71.5 -10t74.5 10t72 33.5t62.5 71t36 114.5l56 406q6 28 32 28z" />
<glyph unicode="&#xfa;" horiz-adv-x="1048" d="M483 1049l-37 67q-11 26 13 41l340 234q10 6 21.5 4.5t15.5 -11.5l57 -98q12 -22 -12 -39l-357 -207q-25 -13 -41 9zM215 819h131q31 0 25 -28l-56 -406q-10 -67 3 -114.5t43.5 -71t63 -33.5t71.5 -10t74.5 10t72 33.5t62.5 71t36 114.5l56 406q6 28 32 28h132 q30 0 24 -28l-55 -406q-28 -197 -155 -303.5t-304 -106.5q-178 0 -275 106.5t-69 303.5l55 406q6 28 33 28z" />
<glyph unicode="&#xfb;" horiz-adv-x="1048" d="M215 819h131q31 0 25 -28l-54 -406q-10 -67 2.5 -114.5t43 -71t63.5 -33.5t72 -10t74 10t71.5 33.5t63 71t36.5 114.5l54 406q6 28 32 28h132q30 0 24 -28l-53 -406q-30 -197 -156 -303.5t-303 -106.5q-86 0 -155.5 26t-117 76.5t-67 129.5t-4.5 178l53 406q6 28 33 28z M344 1157l297 203q24 17 45 2l242 -205q18 -13 2 -41l-60 -67q-19 -22 -41 -9l-194 127l-225 -127q-25 -14 -41 9l-35 67q-7 11 -4 23t14 18z" />
<glyph unicode="&#xfc;" horiz-adv-x="1048" d="M289 1145q6 47 44 81t85 34t76.5 -34t23.5 -81q-9 -48 -46.5 -81.5t-84.5 -33.5q-48 0 -77.5 34t-20.5 81zM764 1145q6 47 44 81t85 34t76.5 -34t23.5 -81q-9 -48 -46.5 -81.5t-84.5 -33.5q-48 0 -77.5 34t-20.5 81zM502 156q39 0 74 10t71.5 33.5t63.5 71t37 114.5 l53 406q6 28 33 28h131q30 0 24 -28l-53 -406q-30 -197 -156 -303.5t-303 -106.5q-86 0 -155.5 26t-117 76.5t-67 129.5t-4.5 178l53 406q6 28 33 28h131q31 0 25 -28l-53 -406q-10 -67 2.5 -114.5t42.5 -71t63 -33.5t72 -10z" />
<glyph unicode="&#xfd;" d="M227 -590l-116 43q-24 9 -11 37l297 510l-241 793q-4 10 1.5 18t16.5 8h152q27 0 36 -26l166 -576l332 576q12 26 43 26h148q10 0 14.5 -7.5t-0.5 -18.5l-797 -1366q-18 -27 -41 -17zM469 1157l340 234q30 15 39 -7l57 -98q13 -22 -14 -39l-356 -207q-26 -14 -39 9 l-37 67q-7 11 -4 23t14 18z" />
<glyph unicode="&#xfe;" horiz-adv-x="1097" d="M655 844q187 0 291 -113.5t76 -320.5q-19 -138 -89.5 -238t-172 -148.5t-223.5 -48.5q-60 0 -127.5 26.5t-98.5 74.5l-90 -662q-6 -28 -33 -28h-131q-30 0 -24 28l274 1991q6 29 33 29h131q14 0 21 -8t4 -21l-90 -662q42 48 115.5 74.5t133.5 26.5zM561 156q43 0 83 11.5 t80.5 38t70 79t39.5 125.5t-5 125.5t-48 79t-70 38t-80 11.5t-83.5 -11.5t-81 -38t-69.5 -79t-39 -125.5t4.5 -125.5t48 -79t70.5 -38t80 -11.5z" />
<glyph unicode="&#xff;" d="M311 1145q6 47 45 81t86 34t76 -34t23 -81q-8 -47 -46 -81t-85 -34t-76.5 34t-22.5 81zM786 1145q6 47 45.5 81t86.5 34t75.5 -34t22.5 -81q-8 -47 -46 -81t-85 -34t-76.5 34t-22.5 81zM231 -590l-114 43q-26 10 -11 37l295 510l-241 793q-3 11 2.5 18.5t15.5 7.5h152 q31 0 37 -26l168 -576l329 576q14 26 43 26h148q11 0 15.5 -7.5t-1.5 -18.5l-795 -1366q-20 -26 -43 -17z" />
<glyph unicode="&#x152;" horiz-adv-x="2459" d="M2206 618h-568l-59 -421h705q27 0 24 -29l-20 -139q-3 -29 -31 -29h-881q-29 0 -26 29l26 186q-113 -118 -264.5 -181t-318.5 -63q-156 0 -281 48t-210 139.5t-120.5 235t-9.5 323.5q25 180 99.5 323t185 234.5t248.5 139.5t294 48q170 0 305.5 -62t213.5 -183l24 188 q6 29 33 29h881q30 0 24 -29l-18 -139q-3 -29 -33 -29h-705l-59 -422h567q14 0 21 -8t4 -21l-19 -139q-6 -29 -32 -29zM1417 717q35 262 -80.5 405.5t-363.5 143.5t-404.5 -143.5t-191.5 -405.5q-37 -262 78.5 -405.5t363.5 -143.5t404.5 143.5t193.5 405.5z" />
<glyph unicode="&#x153;" horiz-adv-x="1720" d="M1645 410l-3 -11q0 -12 -10.5 -20t-23.5 -8h-631q-3 -63 14.5 -108t50 -67.5t67 -32t75.5 -9.5q117 0 192 75q27 20 45 7l88 -64q22 -16 4 -41q-135 -156 -356 -156q-209 0 -311 142q-139 -142 -350 -142q-187 0 -291 114t-76 321q19 138 89.5 238t172 148t223.5 48 q215 0 312 -142q142 142 352 142q186 0 290.5 -115.5t76.5 -318.5zM793 410l2 14q8 69 -8 118.5t-49.5 74.5t-70 36t-77.5 11q-43 0 -83.5 -11.5t-81 -38t-69.5 -79t-39 -125.5t4.5 -125.5t48 -79t70.5 -38t80 -11.5t83 11.5t80.5 38t70 79t39.5 125.5zM1020 530h434 q-15 49 -48.5 80.5t-71 42.5t-81.5 11q-67 0 -132.5 -31.5t-100.5 -102.5z" />
<glyph unicode="&#x178;" horiz-adv-x="1478" d="M567 1759q6 48 43 81.5t84 33.5t78 -34t25 -81q-9 -48 -46.5 -81t-84.5 -33q-48 0 -78 33.5t-21 80.5zM1042 1759q6 48 43 81.5t84 33.5t78 -34t25 -81q-9 -48 -46.5 -81t-84.5 -33q-48 0 -78 33.5t-21 80.5zM748 0h-148q-29 0 -29 29l78 551l-420 829q-6 7 -1.5 16 t14.5 9h186q26 0 45 -25l309 -618l486 618q19 25 45 25h186q10 0 14 -9t-2 -16l-657 -829l-78 -551q0 -29 -28 -29z" />
<glyph unicode="&#x2c6;" horiz-adv-x="628" d="M98 1157l297 203q24 17 45 2l242 -205q18 -13 2 -41l-59 -67q-19 -22 -41 -9l-195 127l-225 -127q-25 -14 -41 9l-35 67q-7 11 -4 23t14 18z" />
<glyph unicode="&#x2dc;" horiz-adv-x="630" d="M489 1032q-43 2 -74.5 18t-45.5 33.5t-35.5 32t-48.5 14.5q-33 0 -54.5 -20t-29.5 -49q-6 -29 -35 -29h-76q-27 0 -24 29q22 98 83.5 155t149.5 62q43 -2 74 -18t45 -33.5t36 -32t50 -14.5q33 0 54.5 20t29.5 49q6 29 35 29h75q12 0 19 -8.5t4 -20.5q-20 -98 -82 -155 t-150 -62z" />
<glyph unicode="&#x2000;" horiz-adv-x="1026" />
<glyph unicode="&#x2001;" horiz-adv-x="2052" />
<glyph unicode="&#x2002;" horiz-adv-x="1026" />
<glyph unicode="&#x2003;" horiz-adv-x="2052" />
<glyph unicode="&#x2004;" horiz-adv-x="684" />
<glyph unicode="&#x2005;" horiz-adv-x="513" />
<glyph unicode="&#x2006;" horiz-adv-x="342" />
<glyph unicode="&#x2007;" horiz-adv-x="342" />
<glyph unicode="&#x2008;" horiz-adv-x="256" />
<glyph unicode="&#x2009;" horiz-adv-x="410" />
<glyph unicode="&#x200a;" horiz-adv-x="114" />
<glyph unicode="&#x2010;" horiz-adv-x="913" d="M758 330h-570q-30 0 -24 28l12 101q6 28 33 28h569q31 0 25 -28l-12 -101q-6 -28 -33 -28z" />
<glyph unicode="&#x2011;" horiz-adv-x="913" d="M758 330h-570q-30 0 -24 28l12 101q6 28 33 28h569q31 0 25 -28l-12 -101q-6 -28 -33 -28z" />
<glyph unicode="&#x2012;" horiz-adv-x="913" d="M758 330h-570q-30 0 -24 28l12 101q6 28 33 28h569q31 0 25 -28l-12 -101q-6 -28 -33 -28z" />
<glyph unicode="&#x2013;" horiz-adv-x="1064" d="M909 330h-721q-30 0 -24 28l12 101q6 28 33 28h721q30 0 24 -28l-12 -101q-6 -28 -33 -28z" />
<glyph unicode="&#x2014;" horiz-adv-x="1241" d="M1085 330h-897q-30 0 -24 28l12 101q6 28 33 28h897q30 0 24 -28l-12 -101q-6 -28 -33 -28z" />
<glyph unicode="&#x2018;" horiz-adv-x="434" d="M217 1098l121 307q13 29 39 29h41q30 0 24 -29l-59 -432q-6 -29 -33 -29h-131q-30 0 -24 29l8 67q11 48 14 58z" />
<glyph unicode="&#x2019;" horiz-adv-x="434" d="M379 1280l-121 -307q-16 -29 -39 -29h-41q-30 0 -24 29l59 432q6 29 33 29h131q30 0 24 -29l-8 -68q-7 -37 -14 -57z" />
<glyph unicode="&#x201a;" horiz-adv-x="522" d="M395 160l-137 -387q-16 -29 -39 -29h-82q-28 0 -22 29l94 387q3 12 13 20t22 8h133q11 0 17.5 -9t0.5 -19z" />
<glyph unicode="&#x201c;" horiz-adv-x="757" d="M217 1098l121 307q13 29 39 29h41q30 0 24 -29l-59 -432q-6 -29 -33 -29h-131q-30 0 -24 29l8 67q11 48 14 58zM541 1098l121 307q13 29 38 29h41q14 0 21 -8t4 -21l-59 -432q-6 -29 -33 -29h-131q-14 0 -21 8t-4 21l8 67q9 39 15 58z" />
<glyph unicode="&#x201d;" horiz-adv-x="757" d="M702 1280l-120 -307q-16 -29 -39 -29h-41q-14 0 -21 8t-4 21l60 432q6 29 32 29h131q14 0 21 -8t4 -21l-8 -68q-6 -30 -15 -57zM379 1280l-121 -307q-16 -29 -39 -29h-41q-30 0 -24 29l59 432q6 29 33 29h131q30 0 24 -29l-8 -68q-7 -37 -14 -57z" />
<glyph unicode="&#x201e;" horiz-adv-x="866" d="M395 160l-137 -387q-16 -29 -39 -29h-82q-28 0 -22 29l94 387q3 12 13 20t22 8h133q11 0 17.5 -9t0.5 -19zM739 160l-137 -387q-16 -29 -39 -29h-82q-28 0 -22 29l94 387q3 12 13 20t22 8h133q11 0 17.5 -9t0.5 -19z" />
<glyph unicode="&#x2022;" horiz-adv-x="630" d="M170 410q11 72 67 122t128 50t115.5 -50t33.5 -122q-11 -72 -67 -122t-128 -50t-115.5 50t-33.5 122z" />
<glyph unicode="&#x2026;" horiz-adv-x="1622" d="M150 104q8 54 48.5 90.5t94.5 36.5q52 0 84.5 -37t25.5 -90t-50 -90t-95 -37q-54 0 -85 36.5t-23 90.5zM690 104q8 54 49 90.5t95 36.5q52 0 84.5 -37t25.5 -90t-50 -90t-95 -37q-54 0 -85.5 36.5t-23.5 90.5zM1231 104q8 54 48.5 90.5t94.5 36.5q52 0 85 -37t26 -90 t-50.5 -90t-95.5 -37q-54 0 -85 36.5t-23 90.5z" />
<glyph unicode="&#x202f;" horiz-adv-x="410" />
<glyph unicode="&#x2039;" horiz-adv-x="778" d="M172 426l436 371q8 11 19 11t22 -11l58 -66q18 -21 -5 -41l-299 -284l222 -285q13 -22 -11 -41l-75 -66q-11 -10 -22 -10t-19 10l-330 371q-18 19 4 41z" />
<glyph unicode="&#x203a;" horiz-adv-x="778" d="M334 797l330 -371q12 -17 -5 -41l-436 -371q-21 -20 -41 0l-59 66q-17 24 6 41l299 285l-221 284q-16 20 8 41l78 66q21 21 41 0z" />
<glyph unicode="&#x205f;" horiz-adv-x="513" />
<glyph unicode="&#x20ac;" horiz-adv-x="1329" d="M102 817l17 113q3 28 33 28h167q53 174 143 289t198.5 165t238.5 50q166 0 276 -84t148 -262q6 -28 -25 -37l-133 -49q-12 -4 -22 1t-13 16q-26 110 -92 168.5t-164 58.5q-246 0 -354 -316h305q28 0 25 -28l-16 -113q-3 -29 -33 -29h-326q-9 -54 -10 -71q-8 -55 -10 -78 h325q28 0 25 -29l-17 -112q-3 -29 -30 -29h-305q21 -309 264 -309q198 0 313 207q12 23 39 14l115 -53q22 -14 10 -39q-86 -163 -215.5 -240.5t-286.5 -77.5q-198 0 -316 122t-124 376h-168q-30 0 -27 29l17 112q3 29 32 29h152q2 23 10 78q0 4 11 71h-152q-28 0 -25 29z " />
<glyph unicode="&#x2122;" horiz-adv-x="1501" d="M1442 1434h69q14 0 21 -8t4 -21l-86 -635q-6 -29 -33 -29h-78q-30 0 -24 29l57 428l-235 -262q-3 -6 -13 -6q-7 0 -10 6l-156 260l-57 -426q-6 -29 -33 -29h-80q-30 0 -24 29l86 635q6 29 33 29h69q29 0 45 -23l160 -272l240 272q16 23 45 23zM231 1434h463q14 0 21 -8 t4 -21l-8 -76q-6 -29 -33 -29h-162l-74 -530q-6 -29 -32 -29h-80q-14 0 -21 8t-4 21l74 530h-164q-14 0 -21 8t-4 21l9 76q6 29 32 29z" />
<glyph unicode="&#x25fc;" horiz-adv-x="819" d="M0 819h819v-819h-819v819z" />
</font>
</defs>
</svg>
