<?xml version="1.0" standalone="no"?>
<!DOCTYPE svg PUBLIC "-//W3C//DTD SVG 1.1//EN" "http://www.w3.org/Graphics/SVG/1.1/DTD/svg11.dtd" >
<svg xmlns="http://www.w3.org/2000/svg">
<metadata></metadata>
<defs>
<font id="minimoregular_oblique" horiz-adv-x="1056" >
<font-face units-per-em="2048" ascent="1536" descent="-512" />
<missing-glyph horiz-adv-x="614" />
<glyph unicode="&#xfb01;" horiz-adv-x="1173" d="M834 1335l-50 -55q-15 -18 -32 -4q-53 43 -131 43q-66 0 -116 -40.5t-61 -125.5l-47 -334h230q20 0 20 -22l-12 -86q-7 -23 -27 -23h-229l-94 -665q0 -23 -23 -23h-98q-23 0 -23 23l95 665h-130q-11 0 -16 6.5t-2 16.5l12 86q0 22 25 22h129l47 330q21 149 109.5 226 t212.5 77q131 0 213 -82q18 -18 -2 -35zM1073 797l-110 -774q0 -23 -23 -23h-98q-23 0 -23 23l111 774q0 22 24 22h99q20 0 20 -22zM942 1126q6 43 42.5 75t80.5 32q43 0 69.5 -32t20.5 -75q-6 -44 -42 -75t-79 -31q-44 0 -71 31t-21 75z" />
<glyph unicode="&#xfb02;" horiz-adv-x="1144" d="M834 1335l-50 -55q-15 -18 -32 -4q-53 43 -131 43q-66 0 -116 -40.5t-61 -125.5l-47 -334h230q20 0 20 -22l-12 -86q-7 -23 -27 -23h-229l-94 -665q0 -23 -23 -23h-98q-23 0 -23 23l95 665h-130q-11 0 -16 6.5t-2 16.5l12 86q0 22 25 22h129l47 330q21 149 109.5 226 t212.5 77q131 0 213 -82q18 -18 -2 -35zM1147 1411l-197 -1388q0 -23 -22 -23h-99q-22 0 -22 23l197 1388q0 23 24 23h98q21 0 21 -23z" />
<glyph horiz-adv-x="0" />
<glyph horiz-adv-x="682" />
<glyph unicode=" "  horiz-adv-x="614" />
<glyph unicode="&#x09;" horiz-adv-x="614" />
<glyph unicode="&#xa0;" horiz-adv-x="614" />
<glyph unicode="!" horiz-adv-x="520" d="M106 102q6 49 45 83t89 34q47 0 76.5 -34t23.5 -83q-6 -47 -46 -81.5t-87 -34.5q-49 0 -78 34t-23 82zM485 1411l-157 -979q0 -10 -8 -16t-19 -6h-72q-18 0 -18 22l117 979q3 23 24 23h113q23 0 20 -23z" />
<glyph unicode="&#x22;" horiz-adv-x="616" d="M629 1411l-88 -487q0 -10 -8 -16.5t-19 -6.5h-57q-19 0 -19 23l51 487q0 10 7 16.5t18 6.5h94q21 0 21 -23zM356 1411l-88 -487q0 -10 -7.5 -16.5t-18.5 -6.5h-58q-18 0 -18 23l51 487q0 10 7 16.5t18 6.5h94q20 0 20 -23z" />
<glyph unicode="#" horiz-adv-x="1218" d="M340 381h-193q-23 0 -20 22l8 62q3 22 27 22h200l93 441h-193q-23 0 -20 22l6 60q3 22 26 22h201l80 379q7 23 27 23h61q11 0 16.5 -6.5t2.5 -16.5l-80 -379h284l80 379q7 23 27 23h61q11 0 16.5 -6.5t2.5 -16.5l-80 -379h192q22 0 19 -22l-8 -60q-3 -22 -25 -22h-199 l-92 -441h193q21 0 18 -22l-8 -62q-3 -22 -25 -22h-200l-76 -358q-7 -23 -27 -23h-61q-11 0 -16.5 6.5t-2.5 16.5l76 358h-285l-75 -358q-7 -23 -27 -23h-61q-11 0 -16.5 6.5t-2.5 16.5zM561 928l-92 -441h285l92 441h-285z" />
<glyph unicode="$" horiz-adv-x="1253" d="M854 1606l-20 -146q173 -12 280.5 -111t108.5 -257q0 -24 -25 -27l-104 -14q-17 -3 -23 18q-3 101 -75 165.5t-183 76.5l-72 -516q69 -14 125 -32.5t113 -51t93.5 -74t55 -104.5t7.5 -140q-27 -184 -168.5 -296t-339.5 -124l-23 -149q0 -23 -24 -23h-66q-20 0 -20 23 l22 151q-172 12 -280.5 103.5t-114.5 249.5q-3 10 4 17t18 9l111 23q19 3 25 -19q4 -101 75.5 -160t182.5 -73l75 537l-12 4q-85 18 -153 46.5t-126 72.5t-85 111.5t-15 152.5q14 98 60.5 175.5t115 126t151 76t175.5 33.5l20 146q3 22 27 22h66q21 0 18 -22zM979 416 q1 47 -20.5 84.5t-62 63.5t-82 42.5t-95.5 30.5l-72 -512q124 11 213.5 74.5t114.5 171.5q4 28 4 45zM377 1051q-12 -90 58 -144t198 -88l69 494q-129 -13 -218 -79t-107 -183z" />
<glyph unicode="%" horiz-adv-x="1763" d="M614 1448q150 0 232 -92t59 -256q-24 -164 -132 -256t-257 -92q-150 0 -232.5 92t-58.5 256q23 164 131 256t258 92zM530 860q108 0 177 64.5t84 175.5t-35 175t-158 64t-175.5 -64t-82.5 -175q-15 -112 34 -176t156 -64zM1343 678q150 0 232 -92t59 -256t-131 -256 t-258 -92t-232 92t-59 256t131 256t258 92zM1262 90q107 0 175 64t83 176t-34.5 175.5t-156.5 63.5q-108 0 -176.5 -64t-83.5 -175q-15 -112 35 -176t158 -64zM467 0h-100q-8 0 -12.5 6t1.5 12l1000 1395q18 21 37 21h100q8 0 11 -7t-3 -14l-999 -1395q-12 -18 -35 -18z" />
<glyph unicode="&#x26;" horiz-adv-x="1505" d="M164 379l8 45q46 228 340 364q-77 108 -103.5 192.5t-15.5 162.5q18 130 129.5 224.5t272.5 94.5q109 0 183 -49t101 -125.5t11 -165.5q-10 -61 -41 -114.5t-81.5 -97.5t-101.5 -77.5t-121 -70.5l316 -356q67 127 84 260q3 22 26 22h105q21 0 18 -22q-38 -205 -139 -367 l191 -215q14 -17 -5 -33l-86 -71q-20 -17 -32 0l-168 188q-182 -188 -449 -197q-136 0 -239.5 46.5t-159.5 140.5t-43 221zM604 117q217 0 361 151l-369 414q-119 -65 -190.5 -135.5t-83.5 -159.5q-18 -129 61.5 -199.5t220.5 -70.5zM547 1120q-13 -93 115 -258 q121 65 188.5 123.5t83.5 136.5q12 78 -28 135.5t-132 57.5q-61 0 -106 -20t-69 -53t-35.5 -62t-16.5 -60z" />
<glyph unicode="'" horiz-adv-x="344" d="M356 1411l-88 -487q0 -10 -7.5 -16.5t-18.5 -6.5h-58q-18 0 -18 23l51 487q0 10 7 16.5t18 6.5h94q20 0 20 -23z" />
<glyph unicode="(" horiz-adv-x="661" d="M530 -326l-65 -57q-21 -18 -33 -2q-167 188 -238.5 453.5t-25.5 599.5t191.5 599t365.5 451q21 18 33 0l49 -57q13 -16 -4 -33q-187 -165 -312.5 -415.5t-166.5 -544.5t14.5 -545.5t198.5 -415.5q10 -19 -7 -33z" />
<glyph unicode=")" horiz-adv-x="661" d="M-6 -383l-49 57q-6 6 -4.5 16t10.5 17q185 165 310.5 416.5t166.5 544.5q41 294 -14.5 545t-198.5 415q-10 19 4 33l66 57q23 17 32 0q168 -186 240.5 -451t26.5 -599t-192 -599.5t-367 -453.5q-21 -18 -31 2z" />
<glyph unicode="*" horiz-adv-x="884" d="M760 854l-201 113l-47 -244q-3 -23 -27 -23h-45q-20 0 -20 23l24 244l-233 -113q-24 -9 -29 10l-20 39q-6 21 12 33l225 131l-188 131q-14 11 -2 33l29 39q11 19 32 10l201 -115l45 246q7 23 27 23h45q23 0 20 -23l-22 -246l233 115q23 10 29 -10l20 -39q6 -21 -14 -33 l-223 -131l186 -131q17 -11 4 -33l-28 -39q-12 -21 -33 -10z" />
<glyph unicode="+" horiz-adv-x="962" d="M817 354h-260l-37 -260q-6 -22 -26 -22h-64q-24 0 -18 22l37 260h-263q-22 0 -22 23l12 63q0 23 23 23h262l37 262q7 23 26 23h64q11 0 16 -6.5t2 -16.5l-37 -262h260q23 0 23 -23l-12 -63q0 -23 -23 -23z" />
<glyph unicode="," horiz-adv-x="485" d="M360 166l-141 -399q-10 -23 -31 -23h-57q-11 0 -15.5 6.5t-0.5 16.5l94 399q6 22 29 22h108q23 0 14 -22z" />
<glyph unicode="-" horiz-adv-x="903" d="M758 354h-572q-22 0 -22 23l12 63q0 23 23 23h571q23 0 23 -23l-13 -63q0 -23 -22 -23z" />
<glyph unicode="." horiz-adv-x="520" d="M150 102q6 50 44 83.5t87 33.5q48 0 78 -34t24 -83q-8 -47 -47 -81.5t-86 -34.5q-49 0 -78.5 34t-21.5 82z" />
<glyph unicode="/" horiz-adv-x="802" d="M84 0h-94q-8 0 -12.5 6.5t-0.5 13.5l809 1496q11 20 35 20h99q8 0 12 -6t-2 -14l-813 -1496q-9 -20 -33 -20z" />
<glyph unicode="0" horiz-adv-x="1302" d="M803 1462q93 0 168 -26t134.5 -81.5t93 -143t44 -210.5t-13.5 -284q-28 -196 -88 -342t-144 -233t-184 -129t-217 -42q-93 0 -168 26t-134.5 82t-92.5 143.5t-43 210.5t14 284q22 158 65 283.5t101.5 211t133 142.5t156.5 82.5t175 25.5zM614 106q92 0 167.5 37.5 t124.5 96.5t87 142.5t58 163t34 171.5q21 139 13 252t-41.5 192.5t-102.5 122.5t-170 43q-385 0 -469 -610q-41 -290 30 -450.5t269 -160.5z" />
<glyph unicode="1" horiz-adv-x="684" d="M686 1411l-194 -1388q-3 -23 -25 -23h-102q-24 0 -21 23l168 1200l-262 -176q-21 -15 -33 4l-39 57q-10 17 6 33l355 278q21 15 41 15h86q23 0 20 -23z" />
<glyph unicode="2" horiz-adv-x="1134" d="M309 1036l-92 11q-19 0 -16 24q49 181 191 286t325 105q199 0 310.5 -110t86.5 -289q-17 -117 -79.5 -223.5t-219.5 -243.5l-522 -461h682q24 0 18 -22l-12 -90q0 -23 -23 -23h-864q-22 0 -22 23l12 90q8 27 25 39l626 550q206 177 234 359q6 54 -4.5 100t-40 84 t-86.5 60t-138 22q-130 0 -229 -70.5t-133 -199.5q-10 -24 -29 -21z" />
<glyph unicode="3" horiz-adv-x="1214" d="M528 741l13 82q3 23 24 23h97q125 5 210 63t99 164q18 123 -53 188.5t-189 65.5q-99 0 -183.5 -50t-121.5 -140q-7 -24 -29 -21l-92 8q-22 3 -16 25q44 146 175 229.5t286 83.5q85 0 156.5 -24t124 -70.5t76.5 -122.5t11 -172q-15 -90 -70 -164t-135 -118 q93 -45 150 -143.5t39 -221.5q-35 -211 -189.5 -333t-369.5 -122q-197 0 -318.5 103.5t-120.5 287.5q0 23 25 27l94 12q23 3 23 -18q-2 -90 42 -154.5t114.5 -93.5t158.5 -29q93 0 175.5 35.5t142.5 109.5t75 175q18 135 -70.5 211.5t-236.5 81.5h-96q-24 0 -21 22z" />
<glyph unicode="4" horiz-adv-x="1048" d="M795 324l-43 -301q-3 -23 -25 -23h-98q-24 0 -21 23l43 301h-573q-24 0 -21 22l13 90q3 16 16 43l573 934q12 21 35 21h113q22 0 10 -21l-581 -954h434l32 231q3 23 25 23h98q24 0 21 -23l-33 -231h164q21 0 18 -23l-12 -90q-3 -22 -25 -22h-163z" />
<glyph unicode="5" horiz-adv-x="1189" d="M928 426q23 155 -53 231t-211 76q-145 0 -267 -76q-20 -14 -41 -8l-69 19q-19 5 -19 28l103 715q0 23 22 23h735q23 0 23 -23l-12 -90q-7 -23 -27 -23h-608l-70 -483q123 57 258 57q188 0 300 -118.5t83 -327.5q-28 -193 -182 -324t-358 -131q-195 0 -306.5 110.5 t-103.5 295.5q3 23 25 26l98 17q11 2 16 -3.5t2 -15.5q-6 -136 72.5 -215.5t212.5 -79.5q144 0 250 87.5t127 232.5z" />
<glyph unicode="6" horiz-adv-x="1206" d="M680 881q210 0 322.5 -125t89.5 -330q-33 -194 -183 -324.5t-356 -130.5q-211 0 -328 127t-92 328q22 160 121.5 354.5t229.5 362.5t274 305q18 15 35 2l67 -55q16 -15 0 -31q-273 -259 -450 -565q68 43 141 62.5t129 19.5zM662 745q-144 0 -254.5 -84.5t-131.5 -234.5 t65 -235t230 -85q139 0 247.5 88t129.5 232q21 151 -61.5 235t-224.5 84z" />
<glyph unicode="7" horiz-adv-x="1017" d="M1075 1278l-731 -1258q-9 -20 -33 -20h-104q-8 0 -12.5 6t0.5 14l731 1278h-713q-21 0 -18 23l12 90q3 23 24 23h850q24 0 21 -23l-12 -90q-3 -22 -15 -43z" />
<glyph unicode="8" horiz-adv-x="1236" d="M563 -29q-105 0 -191 31t-144 88.5t-84 143.5t-13 192q16 118 101 216.5t184 143.5q-63 39 -98 118t-23 169q18 125 90.5 215t171.5 132t213 42q84 0 156 -24.5t125 -71.5t77 -123t11 -170q-15 -91 -71.5 -169.5t-131.5 -117.5q87 -44 144.5 -142.5t41.5 -217.5 q-35 -211 -189.5 -333t-369.5 -122zM582 106q54 0 105 11t100 36.5t88 62t66.5 90.5t37.5 120q19 137 -71 212.5t-240 80.5q-98 -3 -180.5 -35t-141.5 -98.5t-72 -159.5q-12 -82 9.5 -145.5t67.5 -100.5t104.5 -55.5t126.5 -18.5zM438 1071q-16 -110 52.5 -167t193.5 -62 q125 5 210 62t101 167q16 122 -55 189t-188 67q-76 0 -141.5 -28t-113.5 -87t-59 -141z" />
<glyph unicode="9" horiz-adv-x="1206" d="M750 1460q211 0 327.5 -126.5t91.5 -327.5q-22 -161 -120.5 -354.5t-228.5 -361.5t-275 -306q-19 -16 -35 -2l-68 55q-17 17 0 31q276 261 451 565q-67 -43 -140 -62.5t-130 -19.5q-210 0 -322.5 125t-89.5 330q31 193 181.5 323.5t357.5 130.5zM641 686q144 0 254 85 t131 235q22 150 -64.5 234.5t-230.5 84.5q-139 0 -247.5 -87.5t-129.5 -231.5q-21 -151 62 -235.5t225 -84.5z" />
<glyph unicode=":" horiz-adv-x="520" d="M127 106q6 49 44.5 83t88.5 34q47 0 76.5 -34t23.5 -83q-6 -47 -46 -81.5t-87 -34.5q-49 0 -77.5 34t-22.5 82zM213 715q6 49 44.5 82.5t88.5 33.5q48 0 77 -33.5t23 -82.5q-6 -47 -46 -82t-87 -35q-49 0 -77.5 34.5t-22.5 82.5z" />
<glyph unicode=";" horiz-adv-x="520" d="M221 715q6 49 44.5 82.5t88.5 33.5q48 0 77.5 -33.5t23.5 -82.5q-6 -47 -46 -82t-87 -35q-49 0 -78 34.5t-23 82.5zM342 166l-141 -399q-10 -23 -31 -23h-57q-11 0 -16 6.5t-1 16.5l94 399q6 22 29 22h109q23 0 14 -22z" />
<glyph unicode="&#x3c;" horiz-adv-x="788" d="M705 643l-349 -233l283 -236q20 -13 14 -35l-16 -112q0 -8 -6.5 -11.5t-12.5 0.5l-456 355q-15 10 -15 35l5 8q0 20 22 35l555 354q6 4 12.5 1t6.5 -11l-17 -113q-7 -25 -26 -37z" />
<glyph unicode="=" horiz-adv-x="974" d="M858 561h-643q-22 0 -22 23l12 75q7 23 26 23h643q11 0 16.5 -6.5t2.5 -16.5l-12 -75q0 -23 -23 -23zM797 137h-643q-11 0 -16.5 6.5t-2.5 16.5l12 76q0 22 23 22h643q23 0 23 -22l-13 -76q-7 -23 -26 -23z" />
<glyph unicode="&#x3e;" horiz-adv-x="788" d="M485 410l-286 233q-16 20 -11 37l17 113q0 8 6 11t12 -1l457 -354q14 -9 14 -35l-4 -8q0 -20 -22 -35l-555 -355q-6 -4 -12.5 -0.5t-6.5 11.5l17 112q7 25 22 35z" />
<glyph unicode="?" horiz-adv-x="1130" d="M334 102q8 50 46 83.5t87 33.5q48 0 77.5 -34t22.5 -83q-6 -47 -46 -81.5t-87 -34.5q-49 0 -77.5 34t-22.5 82zM340 1044l-98 17q-11 2 -16 9t-1 17q48 174 177 274.5t317 100.5q205 0 312.5 -110.5t68.5 -302.5q-7 -37 -24 -79.5t-55.5 -101.5t-92 -111.5t-140 -105 t-192.5 -86.5l-21 -135q0 -22 -24 -22h-111q-20 0 -20 22l29 199q3 21 26 28q109 33 194 77.5t132.5 86t80.5 89.5t44.5 79.5t17.5 63.5q24 126 -42.5 194t-203.5 68q-121 0 -208.5 -70t-120.5 -182q-6 -22 -29 -19z" />
<glyph unicode="@" horiz-adv-x="2179" d="M1257 1462q203 0 371 -71t280 -198.5t161 -313.5t18 -406q-22 -155 -92 -288t-180.5 -216t-237.5 -86q-140 -5 -213 87t-51 247q-49 -62 -123.5 -91.5t-140.5 -29.5q-164 0 -253.5 103.5t-64.5 273.5q23 164 148.5 271.5t289.5 107.5q166 0 257.5 -106.5t64.5 -292.5 l-35 -254q-14 -100 25.5 -144t113.5 -39q85 5 156.5 66.5t117.5 162.5t64 228q26 187 -12.5 344.5t-130.5 266.5t-234.5 170t-318.5 61q-184 0 -347.5 -66.5t-282 -181t-196.5 -268t-102 -326.5q-22 -160 1 -298.5t85.5 -242.5t155.5 -179.5t213 -119.5q9 -1 11 -10t-3 -16 l-51 -84q-14 -24 -35 -15q-140 50 -248.5 136t-182 205t-100.5 279t-1 345q31 220 131 406t246 313.5t334 198.5t392 71zM1083 238q91 0 162.5 61t91.5 168q10 67 -6 117t-48.5 75t-66 36.5t-67.5 11.5q-29 0 -59 -6t-64 -23t-61 -42t-48.5 -67.5t-29.5 -95.5 q-8 -56 2 -99.5t31 -68.5t51.5 -41t57.5 -21t54 -5z" />
<glyph unicode="A" horiz-adv-x="1550" d="M1014 1413l397 -1393q3 -7 -2.5 -13.5t-13.5 -6.5h-125q-26 0 -29 20l-88 310h-768l-174 -310q-9 -20 -33 -20h-125q-8 0 -12.5 6t0.5 14l786 1393q9 21 33 21h125q26 0 29 -21zM897 1241l-428 -762h641z" />
<glyph unicode="B" horiz-adv-x="1298" d="M729 0h-594q-23 0 -20 23l194 1388q3 23 25 23h594q171 0 269 -105.5t71 -290.5q-29 -210 -193 -321q62 -52 91 -133.5t14 -188.5q-27 -186 -153.5 -290.5t-297.5 -104.5zM827 643h-471l-67 -496h461q114 0 185.5 65.5t88.5 182.5q15 115 -38.5 179t-158.5 69zM907 1286 h-461l-69 -495h461q114 0 186.5 67.5t87.5 179.5q17 119 -39.5 183.5t-165.5 64.5z" />
<glyph unicode="C" horiz-adv-x="1609" d="M1583 1057l-100 -47q-22 -9 -27 10q-46 141 -169.5 218t-307.5 77q-267 0 -440 -159t-211 -437q-40 -278 88.5 -437t396.5 -159q185 0 329.5 76.5t231.5 216.5q11 19 31 10l84 -45q17 -8 4 -31q-108 -180 -294.5 -277.5t-405.5 -97.5q-155 0 -280.5 49t-210 141 t-120 234.5t-10.5 319.5t100 319t185 234t248.5 141t293.5 49q224 0 380.5 -96t217.5 -279q6 -21 -14 -30z" />
<glyph unicode="D" horiz-adv-x="1488" d="M334 1434h483q150 0 269.5 -46t202 -133.5t116.5 -225.5t10 -312q-25 -174 -97.5 -311.5t-179 -225.5t-238.5 -134t-282 -46h-483q-23 0 -20 23l194 1388q3 23 25 23zM289 147h350q257 0 420 149.5t201 420.5q38 274 -86 421.5t-377 147.5h-351z" />
<glyph unicode="E" horiz-adv-x="1206" d="M377 791h604q23 0 20 -23l-14 -102q-3 -23 -26 -23h-605l-67 -496h741q22 0 19 -22l-15 -102q-3 -23 -24 -23h-875q-23 0 -20 23l194 1388q3 23 25 23h874q24 0 21 -23l-15 -102q-3 -23 -26 -23h-742z" />
<glyph unicode="F" horiz-adv-x="1206" d="M377 791h604q23 0 20 -23l-14 -102q-3 -23 -26 -23h-605l-86 -620q-3 -23 -24 -23h-111q-23 0 -20 23l194 1388q3 23 25 23h874q24 0 21 -23l-15 -102q-3 -23 -26 -23h-742z" />
<glyph unicode="G" horiz-adv-x="1675" d="M999 1462q224 0 380.5 -96t217.5 -279q6 -21 -14 -30l-100 -47q-22 -9 -27 10q-46 141 -169.5 218t-307.5 77q-270 0 -441.5 -156.5t-209.5 -439.5q-40 -283 87.5 -439.5t397.5 -156.5q228 0 385 112t229 322h-628q-24 0 -21 23l15 102q3 23 26 23h778q22 0 19 -23 q-30 -171 -106.5 -306.5t-186 -222.5t-244 -132.5t-286.5 -45.5q-156 0 -281 48t-210 139.5t-120.5 234.5t-9.5 322q25 179 99.5 321.5t185 234t248.5 139.5t294 48z" />
<glyph unicode="H" horiz-adv-x="1501" d="M465 1411l-88 -620h862l88 620q3 23 25 23h110q24 0 21 -23l-195 -1388q-3 -23 -24 -23h-111q-23 0 -20 23l86 620h-863l-86 -620q-3 -23 -24 -23h-111q-23 0 -20 23l194 1388q3 23 25 23h110q24 0 21 -23z" />
<glyph unicode="I" horiz-adv-x="483" d="M465 1411l-195 -1388q-3 -23 -24 -23h-111q-23 0 -20 23l194 1388q3 23 25 23h110q24 0 21 -23z" />
<glyph unicode="J" horiz-adv-x="1255" d="M121 477l100 15q23 3 23 -19q-9 -85 8 -150.5t49.5 -103t79.5 -61t88.5 -31.5t85.5 -8q46 0 89 7.5t95 32.5t92.5 64.5t74 110.5t46.5 164l111 786h-477q-19 0 -19 23l17 104q0 23 22 23h611q22 0 22 -23l-127 -911q-36 -254 -194 -389.5t-383 -135.5q-216 0 -337 123.5 t-104 354.5q0 10 8 17t19 7z" />
<glyph unicode="K" horiz-adv-x="1370" d="M465 1411l-88 -620h332l524 624q16 19 37 19h143q8 0 11 -6.5t-3 -12.5l-592 -698l398 -699q3 -6 -1.5 -12t-11.5 -6h-143q-24 0 -33 18l-350 625h-332l-86 -620q-3 -23 -24 -23h-111q-23 0 -20 23l194 1388q3 23 25 23h110q24 0 21 -23z" />
<glyph unicode="L" horiz-adv-x="1064" d="M115 23l194 1388q3 23 25 23h110q24 0 21 -23l-176 -1264h641q21 0 18 -22l-14 -102q-3 -23 -25 -23h-774q-23 0 -20 23z" />
<glyph unicode="M" horiz-adv-x="1687" d="M1653 1411l-195 -1388q-3 -23 -24 -23h-111q-23 0 -20 23l161 1157l-598 -658q-4 -4 -10 -4t-10 4l-414 658l-162 -1157q-3 -23 -24 -23h-111q-23 0 -20 23l194 1388q3 23 25 23h110q22 0 35 -19l410 -661l594 661q16 19 39 19h110q24 0 21 -23z" />
<glyph unicode="N" horiz-adv-x="1533" d="M115 23l194 1388q3 23 25 23h110q22 0 35 -19l719 -1159l162 1155q3 23 24 23h111q24 0 21 -23l-195 -1388q-3 -23 -25 -23h-110q-26 0 -35 18l-719 1162l-162 -1157q-3 -23 -24 -23h-111q-23 0 -20 23z" />
<glyph unicode="O" horiz-adv-x="1695" d="M999 1462q156 0 281 -48.5t210 -141t120.5 -235.5t9.5 -322q-25 -179 -99.5 -321.5t-185 -234.5t-248.5 -140t-294 -48q-124 0 -229.5 30.5t-187.5 90.5t-135 149.5t-72 208t1 265.5q34 238 154 409t293 254.5t382 83.5zM813 119q270 0 441.5 156.5t209.5 439.5 q40 283 -87.5 441.5t-397.5 158.5t-441.5 -158.5t-211.5 -441.5q-38 -283 89.5 -439.5t397.5 -156.5z" />
<glyph unicode="P" horiz-adv-x="1306" d="M115 23l194 1388q3 23 25 23h500q216 0 339 -130t91 -366q-17 -122 -69.5 -218t-129.5 -156t-171 -91t-198 -31h-366l-60 -419q-3 -23 -24 -23h-111q-23 0 -20 23zM813 1286h-367l-96 -696h367q164 0 265 90t126 258q24 171 -57.5 259.5t-237.5 88.5z" />
<glyph unicode="Q" horiz-adv-x="1695" d="M1010 1462q156 0 281 -48.5t210 -141t120 -235.5t9 -322q-59 -421 -373 -619l183 -297q9 -18 -8 -32l-76 -56q-19 -13 -31 2l-219 310q-140 -52 -303 -52q-156 0 -281 48t-211 139.5t-121.5 234.5t-9.5 322t101 322t186 235.5t249 141t294 48.5zM823 119q270 0 441 156.5 t211 439.5t-88 441.5t-398 158.5t-441.5 -158.5t-211.5 -441.5t88.5 -439.5t398.5 -156.5z" />
<glyph unicode="R" horiz-adv-x="1306" d="M115 23l194 1388q3 23 25 23h500q216 0 339 -130t91 -366q-27 -189 -134 -309.5t-264 -163.5l252 -447q3 -6 -1 -12t-11 -6h-143q-24 0 -33 18l-234 424h-366l-60 -419q-3 -23 -24 -23h-111q-23 0 -20 23zM813 1286h-367l-96 -696h367q164 0 265 90t126 258 q24 171 -57.5 259.5t-237.5 88.5z" />
<glyph unicode="S" horiz-adv-x="1253" d="M143 354l111 23q19 3 25 -19q3 -77 49.5 -131.5t116.5 -79t155 -24.5q145 0 252 71t125 199q6 43 -6.5 79.5t-39 62t-62 46t-76.5 34t-81.5 24.5t-77.5 19q-19 4 -28 6q-68 14 -125.5 33.5t-111 52t-89 73.5t-52.5 99t-7 127q15 106 66.5 187.5t128.5 129.5t168.5 72 t195.5 24q194 0 318.5 -100.5t124.5 -269.5q0 -23 -25 -27l-104 -14q-21 -3 -21 18q-6 114 -94 180t-219 66q-97 0 -176.5 -27t-136.5 -88t-70 -149q-7 -47 12.5 -86t51 -63.5t87 -46.5t100 -34t111.5 -26q57 -12 105.5 -26.5t99 -37t87 -54t64 -71.5t37.5 -94.5t1 -118.5 q-18 -130 -97 -226.5t-197.5 -146t-258.5 -49.5q-128 0 -229 38.5t-164 120.5t-66 198q-3 10 4 17t18 9z" />
<glyph unicode="T" horiz-adv-x="1159" d="M252 1434h950q24 0 21 -23l-15 -102q-3 -23 -26 -23h-398l-176 -1263q-3 -23 -24 -23h-111q-23 0 -20 23l176 1263h-398q-21 0 -18 23l14 102q3 23 25 23z" />
<glyph unicode="U" horiz-adv-x="1478" d="M1188 557l119 854q0 23 22 23h111q22 0 22 -23l-119 -846q-39 -276 -221.5 -435t-435.5 -159q-123 0 -222.5 40.5t-166.5 115t-95 187.5t-9 251l118 846q0 23 23 23h110q23 0 23 -23l-119 -854q-31 -208 65 -323t294 -115q199 0 324.5 116t156.5 322z" />
<glyph unicode="V" horiz-adv-x="1529" d="M1595 1413l-786 -1393q-9 -20 -33 -20h-125q-25 0 -28 20l-398 1393q-3 7 3 14t14 7h125q25 0 28 -21l346 -1220l684 1220q9 21 33 21h125q8 0 12.5 -7t-0.5 -14z" />
<glyph unicode="W" horiz-adv-x="2301" d="M2357 1413l-671 -1393q-11 -20 -33 -20h-119q-23 0 -29 20l-237 1184l-570 -1184q-11 -20 -32 -20h-119q-23 0 -29 20l-282 1393q-3 7 2.5 14t13.5 7h119q22 0 28 -21l238 -1186l569 1186q12 21 33 21h119q22 0 28 -21l238 -1186l569 1186q12 21 33 21h119q8 0 12.5 -7 t-0.5 -14z" />
<glyph unicode="X" horiz-adv-x="1357" d="M1409 1415l-592 -698l397 -699q3 -6 -1 -12t-11 -6h-143q-24 0 -33 18l-317 570l-476 -570q-15 -18 -36 -18h-144q-8 0 -11 6t3 12l592 699l-397 698q-3 6 1 12.5t11 6.5h143q23 0 33 -19l315 -571l478 571q16 19 36 19h144q8 0 11 -6.5t-3 -12.5z" />
<glyph unicode="Y" horiz-adv-x="1433" d="M590 23l78 550l-428 842q-3 6 1 12.5t11 6.5h139q20 0 33 -19l342 -684l534 684q19 19 37 19h140q8 0 11 -6.5t-3 -12.5l-662 -842l-78 -550q-3 -23 -24 -23h-111q-23 0 -20 23z" />
<glyph unicode="Z" horiz-adv-x="1292" d="M1280 1266l-995 -1119h831q22 0 19 -22l-15 -102q-3 -23 -24 -23h-1002q-23 0 -20 23l14 104q3 26 21 41l993 1118h-830q-21 0 -18 23l14 102q3 23 25 23h1001q24 0 21 -23l-15 -104q-3 -27 -20 -41z" />
<glyph unicode="[" horiz-adv-x="546" d="M61 -387l293 2105q7 23 27 23h317q11 0 16.5 -6.5t2.5 -16.5l-12 -102q-7 -23 -27 -23h-184l-258 -1855h184q21 0 18 -23l-14 -102q-3 -23 -25 -23h-317q-24 0 -21 23z" />
<glyph unicode="\" horiz-adv-x="802" d="M705 0h-97q-25 0 -28 20l-396 1496q-3 7 4 13.5t15 6.5h98q27 0 27 -20l393 -1496q4 -7 -2 -13.5t-14 -6.5z" />
<glyph unicode="]" horiz-adv-x="546" d="M573 1718l-292 -2105q-3 -23 -25 -23h-315q-22 0 -19 23l12 102q3 23 27 23h182l258 1855h-184q-11 0 -16 6.5t-2 16.5l12 102q7 23 27 23h317q11 0 16 -6.5t2 -16.5z" />
<glyph unicode="^" horiz-adv-x="903" d="M580 1427l292 -534q3 -6 -2 -12.5t-12 -6.5h-100q-20 0 -33 19l-188 315l-275 -315q-16 -19 -39 -19h-100q-8 0 -10 6.5t4 12.5l440 534q3 7 10 7q9 0 13 -7z" />
<glyph unicode="_" horiz-adv-x="790" d="M756 -106h-746q-19 0 -16 22l8 61q0 23 23 23h745q21 0 21 -23l-11 -61q-3 -22 -24 -22z" />
<glyph unicode="`" horiz-adv-x="436" d="M203 1360l286 -238q13 -16 0 -32l-40 -46q-4 -7 -14 -9t-17 3l-312 213q-15 9 -2 31l68 74q13 19 31 4z" />
<glyph unicode="a" horiz-adv-x="1077" d="M614 844q186 0 290.5 -115.5t76.5 -318.5l-55 -387q0 -23 -23 -23h-98q-23 0 -23 23l15 94q-62 -69 -143.5 -104.5t-164.5 -37.5q-122 -3 -209.5 46t-128.5 149.5t-22 239.5q26 190 164.5 312t320.5 122zM512 111q132 0 216.5 78.5t109.5 220.5q20 138 -43 218.5 t-197 80.5q-133 0 -219.5 -80.5t-106.5 -218.5q-20 -141 42.5 -220t197.5 -79z" />
<glyph unicode="b" horiz-adv-x="1097" d="M641 844q186 5 287 -111.5t71 -322.5q-16 -126 -85.5 -225.5t-174 -154.5t-223.5 -55q-186 0 -291 116t-78 319l144 1001q0 23 22 23h99q22 0 22 -23l-102 -709q63 69 145 104.5t164 37.5zM532 111q134 0 219.5 80.5t104.5 218.5q22 141 -40.5 220t-197.5 79 q-132 0 -216 -78t-111 -221q-19 -138 44 -218.5t197 -80.5z" />
<glyph unicode="c" horiz-adv-x="1011" d="M821 268l80 -39q21 -9 8 -28q-65 -110 -173 -168t-240 -58q-187 0 -291 114t-76 321q19 138 89.5 238t172 148t223.5 48q139 0 234 -64t127 -186q2 -8 -3.5 -17t-15.5 -10l-94 -30q-14 -9 -28 14q-19 75 -80 116.5t-156 41.5q-133 0 -219.5 -80.5t-106.5 -218.5 t43 -218.5t197 -80.5q92 0 163.5 38t112.5 107q14 20 33 12z" />
<glyph unicode="d" horiz-adv-x="1097" d="M981 1434h98q23 0 23 -23l-144 -1001q-27 -203 -162 -319t-321 -116q-119 0 -209 55t-133 154.5t-27 225.5q30 206 164.5 322.5t317.5 111.5q83 -2 156 -37.5t112 -104.5l102 709q0 23 23 23zM492 111q133 0 218.5 80.5t104.5 218.5q17 142 -44 220.5t-193 78.5 q-134 0 -220 -78.5t-108 -220.5q-19 -138 44.5 -218.5t197.5 -80.5z" />
<glyph unicode="e" d="M762 186l76 -43q8 -5 9 -12.5t-7 -15.5q-143 -140 -344 -140q-187 0 -291 114t-76 321q19 138 89.5 238t172 148t223.5 48q187 0 291.5 -113t77.5 -317q-7 -23 -27 -23h-686q-14 -130 49.5 -205t192.5 -75q125 0 213 69q15 15 37 6zM598 709q-108 0 -186.5 -53.5 t-114.5 -147.5h543q-12 95 -73 148t-169 53z" />
<glyph unicode="f" horiz-adv-x="714" d="M834 1335l-50 -55q-15 -18 -32 -4q-53 43 -131 43q-66 0 -116 -40.5t-61 -125.5l-47 -334h230q20 0 20 -22l-12 -86q-7 -23 -27 -23h-229l-94 -665q0 -23 -23 -23h-98q-23 0 -23 23l95 665h-130q-11 0 -16 6.5t-2 16.5l12 86q0 22 25 22h129l47 330q21 149 109.5 226 t212.5 77q131 0 213 -82q18 -18 -2 -35z" />
<glyph unicode="g" horiz-adv-x="1095" d="M1018 410q-29 -238 -209 -355q116 -101 92 -284q-27 -177 -152 -281t-296 -104q-81 0 -147.5 22.5t-114.5 67t-69 115.5t-9 161q4 38 32 117q12 21 33 18l96 -24q19 -3 9 -25q-20 -41 -25 -82q-7 -54 4 -97t33 -68.5t53.5 -42.5t61 -23t59.5 -6t62.5 7t70.5 25t68.5 45 t55 72.5t32.5 102.5q8 74 -18.5 132t-69.5 91q-68 -19 -135 -19q-187 0 -291.5 114t-77.5 321q30 207 165 320.5t322 113.5q137 0 228 -60l147 115q16 12 33 -2l45 -45q11 -21 -6 -33l-127 -127q69 -106 45 -282zM551 111q133 0 218.5 80.5t104.5 218.5q22 138 -40.5 218.5 t-196.5 80.5q-133 0 -219.5 -80.5t-108.5 -218.5q-19 -138 44.5 -218.5t197.5 -80.5z" />
<glyph unicode="h" horiz-adv-x="1060" d="M745 23l58 411q11 79 -4.5 136t-51 85.5t-75 41t-84.5 12.5t-88 -13t-87 -42t-75.5 -85.5t-42.5 -134.5l-57 -411q-3 -23 -25 -23h-98q-24 0 -21 23l195 1388q3 23 24 23h99q23 0 20 -23l-96 -684q59 59 134 88t144 29q176 0 268 -106t64 -304l-57 -411q-3 -23 -25 -23 h-98q-24 0 -21 23z" />
<glyph unicode="i" horiz-adv-x="458" d="M236 1126q6 43 42 75t80 32q43 0 70 -32t21 -75q-6 -44 -43 -75t-80 -31q-44 0 -70 31t-20 75zM367 797l-111 -774q0 -10 -7 -16.5t-18 -6.5h-98q-20 0 -20 23l110 774q0 22 23 22h98q23 0 23 -22z" />
<glyph unicode="j" horiz-adv-x="458" d="M256 1126q6 43 42.5 75t80.5 32q43 0 69.5 -32t20.5 -75q-6 -44 -42 -75t-79 -31q-44 0 -71 31t-21 75zM-233 -575l20 83q3 22 27 19q46 -4 63 -4q30 0 51 2t50.5 12.5t49.5 29.5t38 55.5t26 88.5l152 1086q3 22 24 22h99q23 0 20 -22l-156 -1114q-20 -136 -112.5 -215.5 t-212.5 -79.5q-55 0 -123 10q-23 3 -16 27z" />
<glyph unicode="k" horiz-adv-x="976" d="M963 801l-334 -391l225 -392q3 -6 -1 -12t-11 -6h-129q-24 0 -33 18l-178 324h-219l-45 -319q-3 -23 -25 -23h-98q-24 0 -21 23l195 1388q3 23 24 23h99q23 0 20 -23l-131 -934h219l268 324q15 18 37 18h129q8 0 11.5 -6t-2.5 -12z" />
<glyph unicode="l" horiz-adv-x="430" d="M432 1411l-194 -1388q-3 -23 -25 -23h-98q-24 0 -21 23l195 1388q3 23 24 23h99q23 0 20 -23z" />
<glyph unicode="m" horiz-adv-x="1544" d="M1147 844q163 0 248.5 -96.5t60.5 -278.5l-63 -446q-3 -23 -25 -23h-98q-24 0 -21 23l64 446q5 51 2.5 89t-18 64.5t-33 43.5t-43 26.5t-47.5 13t-46 3.5q-94 0 -162 -54.5t-87 -185.5l-64 -446q-3 -23 -24 -23h-99q-23 0 -20 23l63 446q18 130 -37 185t-147 55 q-38 0 -73 -9.5t-73 -33t-66 -74t-38 -123.5l-63 -446q-3 -23 -25 -23h-98q-24 0 -21 23l64 446q25 182 137 278.5t274 96.5q195 0 269 -144q55 71 135 107.5t174 36.5z" />
<glyph unicode="n" horiz-adv-x="1040" d="M745 23l58 411q11 78 -4.5 134.5t-51 85.5t-75 42t-84.5 13t-88 -13t-87 -42t-75.5 -85.5t-42.5 -134.5l-57 -411q-3 -23 -25 -23h-98q-24 0 -21 23l58 411q27 194 152 302t302 108t272 -108t68 -302l-57 -411q-3 -23 -25 -23h-98q-24 0 -21 23z" />
<glyph unicode="o" d="M614 844q187 0 291 -113.5t76 -320.5q-19 -138 -89.5 -238t-172 -148.5t-223.5 -48.5q-187 0 -291 114t-76 321q19 138 89.5 238t172 148t223.5 48zM512 111q133 0 219.5 80.5t106.5 218.5t-43 218.5t-197 80.5q-133 0 -219.5 -80.5t-106.5 -218.5t43 -218.5t197 -80.5z " />
<glyph unicode="p" horiz-adv-x="1097" d="M676 844q182 0 287 -122t79 -312q-29 -208 -162 -324t-317 -111q-83 2 -156 37.5t-114 104.5l-100 -709q0 -22 -23 -22h-98q-23 0 -23 22l141 1002q28 203 164 318.5t322 115.5zM573 111q135 0 220.5 79t105.5 220q20 138 -43 218.5t-197 80.5q-133 0 -218.5 -80.5 t-106.5 -218.5q-15 -143 46 -221t193 -78z" />
<glyph unicode="q" horiz-adv-x="1097" d="M635 844q186 0 290 -115.5t76 -318.5l-141 -1002q0 -22 -22 -22h-99q-22 0 -22 22l100 709q-62 -70 -144 -106t-163 -36q-187 0 -287.5 113t-72.5 322q26 190 164.5 312t320.5 122zM532 111q130 0 218 79.5t108 219.5q20 138 -43 218.5t-197 80.5q-133 0 -218.5 -80.5 t-106.5 -218.5q-20 -142 42 -220.5t197 -78.5z" />
<glyph unicode="r" horiz-adv-x="622" d="M674 788l-33 -86q-3 -19 -27 -16q-54 14 -98 14q-79 0 -137 -42.5t-72 -133.5l-69 -501q0 -10 -7 -16.5t-18 -6.5h-98q-21 0 -21 23l70 495q22 158 120.5 238t237.5 80q72 0 140 -19q23 -10 12 -29z" />
<glyph unicode="s" horiz-adv-x="915" d="M139 203l80 26q22 3 31 -14q38 -109 184 -109q33 0 65 5t66 17.5t57 38.5t27 62q6 37 -19 60.5t-68.5 35t-97.5 20.5t-108 23.5t-97.5 37t-67.5 67.5t-17 109q25 128 129.5 195t241.5 67q246 0 297 -195q4 -19 -17 -28l-84 -33q-17 -5 -28 12q-34 111 -181 111 q-32 0 -64 -5.5t-65.5 -19t-56.5 -40t-29 -64.5q-4 -29 16 -49.5t55.5 -31t81.5 -20.5t93.5 -18t92 -25.5t77.5 -41t49.5 -65.5t8.5 -98q-9 -68 -44.5 -120t-88 -81t-112 -43t-124.5 -14q-116 0 -198.5 48t-102.5 151q0 21 18 29z" />
<glyph unicode="t" horiz-adv-x="757" d="M504 688l-94 -665q0 -23 -23 -23h-98q-23 0 -23 23l94 665h-223q-11 0 -16 6.5t-2 16.5l12 86q0 22 25 22h223l47 326q0 22 23 22h98q22 0 22 -22l-47 -326h223q21 0 21 -22l-12 -86q-7 -23 -27 -23h-223z" />
<glyph unicode="u" horiz-adv-x="1040" d="M799 385l57 412q3 22 25 22h98q23 0 20 -22l-57 -412q-27 -194 -152.5 -302t-302.5 -108t-272 108t-68 302l58 412q3 22 24 22h99q23 0 20 -22l-57 -412q-11 -65 0 -112.5t31 -78.5t52.5 -49.5t64.5 -26t67 -7.5t69.5 7t71.5 26.5t67 49t53 79t32 112.5z" />
<glyph unicode="v" horiz-adv-x="976" d="M989 799l-442 -779q-6 -20 -31 -20h-113q-24 0 -30 20l-221 779q-4 7 1 13.5t13 6.5h113q24 0 30 -20l176 -623l346 623q6 20 31 20h113q8 0 13 -6.5t1 -13.5z" />
<glyph unicode="w" horiz-adv-x="1400" d="M1413 799l-377 -779q-9 -20 -30 -20h-105q-22 0 -31 20l-116 588l-283 -588q-6 -20 -29 -20h-104q-22 0 -31 20l-155 779q-4 7 1 13.5t13 6.5h106q23 0 29 -20l119 -588l278 588q9 20 31 20h107q22 0 28 -20l119 -588l279 588q9 20 30 20h107q8 0 13 -6.5t1 -13.5z" />
<glyph unicode="x" horiz-adv-x="870" d="M879 801l-334 -391l223 -392q4 -6 1 -12t-11 -6h-129q-23 0 -35 18l-150 271l-225 -271q-12 -18 -35 -18h-129q-8 0 -11 6t1 12l334 392l-223 391q-4 6 -1 12t11 6h129q23 0 35 -18l151 -273l224 273q12 18 34 18h129q8 0 11.5 -6t-0.5 -12z" />
<glyph unicode="y" horiz-adv-x="1005" d="M197 -602l-91 33q-16 8 -8 28l320 541l-246 799q-3 7 2.5 13.5t13.5 6.5h111q26 0 29 -20l190 -629l365 629q9 20 32 20h111q8 0 12 -6.5t-2 -13.5l-809 -1389q-13 -22 -30 -12z" />
<glyph unicode="z" horiz-adv-x="829" d="M109 150l503 538h-422q-11 0 -16 6.5t-2 16.5l12 86q0 22 23 22h579q23 0 23 -22l-12 -86q-7 -30 -23 -41l-506 -539h424q25 0 19 -22l-13 -86q0 -23 -22 -23h-580q-22 0 -22 23l12 86q7 30 23 41z" />
<glyph unicode="{" horiz-adv-x="671" d="M451 453q-12 -90 -71.5 -284t-72.5 -284q-10 -73 19 -113t90 -40q34 0 96 12q22 6 25 -16l10 -86q6 -21 -21 -31q-77 -23 -137 -23q-122 0 -194 81t-52 214q12 91 69.5 269.5t70.5 269.5q11 88 -20 129t-87 41h-57q-24 0 -21 22l15 103q3 22 26 22h58q57 0 99.5 41 t55.5 129q12 91 4 269.5t4 269.5q18 133 113 214t217 81q59 0 133 -23q22 -11 8 -30l-30 -86q-12 -22 -31 -19q-54 14 -94 14q-61 0 -102 -40.5t-50 -112.5q-12 -89 -6 -283.5t-8 -283.5q-10 -80 -48 -130t-100 -83q109 -70 89 -213z" />
<glyph unicode="|" horiz-adv-x="397" d="M420 1534l-242 -1710q0 -23 -22 -23h-66q-22 0 -22 23l241 1710q0 22 25 22h65q21 0 21 -22z" />
<glyph unicode="}" horiz-adv-x="671" d="M250 453q20 145 149 213q-108 69 -90 213q13 88 73 282t73 285q9 73 -20.5 113t-90.5 40q-40 0 -94 -14q-21 -3 -27 19l-10 86q-3 21 20 30q80 23 138 23q122 0 193.5 -81t53.5 -214q-12 -91 -69 -269.5t-70 -269.5q-13 -87 18.5 -128.5t88.5 -41.5h57q22 0 19 -22 l-15 -103q-3 -22 -24 -22h-58q-57 0 -100.5 -41.5t-54.5 -128.5q-13 -91 -4.5 -269.5t-4.5 -269.5q-20 -133 -114.5 -214t-216.5 -81q-54 0 -131 23q-18 11 -9 31l31 86q15 21 33 16q58 -12 90 -12q61 0 102.5 40t51.5 113q12 90 6 284t6 284z" />
<glyph unicode="~" horiz-adv-x="1110" d="M1001 575l70 -43q16 -8 6 -30q-77 -104 -80 -107q-85 -101 -199 -120.5t-218 61.5l-74 57q-37 30 -72.5 41.5t-61 9t-53.5 -20t-44 -33t-39 -40.5l-41 -55q-14 -20 -33 -10l-68 43q-8 5 -9 13.5t5 16.5q66 95 78 109q87 101 200 120.5t218 -61.5l76 -57q36 -32 71.5 -43 t61 -8t54.5 21.5t43.5 33t37.5 39.5q7 7 43 55q12 20 28 8z" />
<glyph unicode="&#xa1;" horiz-adv-x="520" d="M233 709q6 47 45.5 81.5t88.5 34.5q47 0 76.5 -34.5t23.5 -81.5q-7 -49 -46 -83t-87 -34q-50 0 -79 34t-22 83zM362 379l-114 -979q-3 -23 -27 -23h-112q-22 0 -19 23l156 979q3 22 26 22h72q21 0 18 -22z" />
<glyph unicode="&#xa2;" horiz-adv-x="1073" d="M526 0h-65q-24 0 -21 23l37 258q-163 18 -248 130.5t-59 301.5q27 188 143.5 300t284.5 130l37 268q3 23 24 23h66q23 0 20 -23l-36 -268q119 -11 199.5 -73.5t107.5 -172.5q3 -8 -3 -17t-16 -10l-94 -30q-17 -9 -26 14q-21 75 -82 116.5t-156 41.5q-133 0 -219.5 -80.5 t-106.5 -218.5q-19 -138 44.5 -218.5t197.5 -80.5q186 0 276 145q12 20 31 12l82 -39q19 -9 8 -28q-120 -200 -364 -223l-37 -258q-3 -23 -25 -23z" />
<glyph unicode="&#xa3;" horiz-adv-x="989" d="M31 23l12 86q6 22 27 22h168l77 557h-129q-11 0 -16 6.5t-2 16.5l12 86q0 22 25 22h129l47 330q21 149 109 226t212 77q131 0 213 -82q18 -18 -2 -35l-49 -55q-15 -19 -33 -4q-53 43 -131 43q-66 0 -115.5 -40.5t-60.5 -125.5l-47 -334h230q20 0 20 -22l-12 -86 q-7 -23 -27 -23h-229l-78 -557h448q25 0 19 -22l-12 -86q0 -23 -23 -23h-760q-22 0 -22 23z" />
<glyph unicode="&#xa4;" horiz-adv-x="983" d="M567 743q115 0 191 -55l104 92q18 15 33 0l43 -47q10 -20 -8 -33l-107 -94q44 -77 29 -196q-14 -112 -82 -201l78 -92q13 -19 -6 -33l-51 -47q-24 -18 -33 0l-82 92q-89 -53 -203 -53q-117 0 -190 55l-107 -94q-24 -18 -33 0l-43 47q-13 17 6 33l109 94q-42 85 -27 199 q15 117 78 194l-82 96q-13 16 9 33l51 47q17 15 32 0l82 -94q89 57 209 57zM494 213q90 0 146 54t67 143t-29.5 142.5t-130.5 53.5t-146 -53.5t-67 -142.5t30 -143t130 -54z" />
<glyph unicode="&#xa5;" horiz-adv-x="1433" d="M1018 219h-244l-29 -196q-3 -23 -24 -23h-111q-23 0 -20 23l28 196h-243q-24 0 -21 23l11 75q3 23 26 23h244l27 190h-244q-24 0 -21 23l11 76q3 22 26 22h193l-387 764q-3 6 1 12.5t11 6.5h139q20 0 33 -19l342 -684l534 684q19 19 37 19h140q8 0 11 -6.5t-3 -12.5 l-602 -764h194q22 0 19 -22l-11 -76q-3 -23 -24 -23h-244l-26 -190h243q22 0 19 -23l-11 -75q-3 -23 -24 -23z" />
<glyph unicode="&#xa6;" horiz-adv-x="399" d="M274 492l-94 -668q0 -23 -22 -23h-68q-22 0 -22 23l94 668q6 22 26 22h68q24 0 18 -22zM334 1556h67q21 0 21 -22l-94 -668q-3 -22 -27 -22h-68q-21 0 -18 22l94 668q0 22 25 22z" />
<glyph unicode="&#xa7;" horiz-adv-x="1253" d="M1169 672q-20 -157 -135 -269q85 -99 66 -243q-27 -194 -183.5 -308t-371.5 -114q-128 0 -229 38t-164 120t-66 198q-3 10 4.5 17.5t18.5 9.5l110 22q18 3 27 -18q3 -114 95 -175t224 -61q145 0 253 71.5t126 199.5q5 37 -4 69.5t-26.5 55.5t-48.5 43.5t-59.5 33.5 t-69.5 26t-68 19.5t-66 15.5q-21 5 -31 7q-68 14 -125.5 33.5t-111 52t-89 73.5t-52.5 99t-7 127q22 168 142 275q-90 96 -68 237q15 106 66.5 187.5t128.5 130t168.5 72.5t195.5 24q194 0 317.5 -101t123.5 -270q1 -10 -6.5 -17.5t-18.5 -9.5l-102 -14q-23 -3 -23 19 q-4 114 -91.5 179.5t-219.5 65.5q-150 0 -257.5 -66.5t-125.5 -197.5q-8 -57 15 -99t68.5 -67.5t106 -44.5t128.5 -35.5t135.5 -35t127 -48t102.5 -70t62.5 -106t7.5 -151.5zM915 494q87 68 99 178q9 60 -17.5 107t-73 74t-112.5 49.5t-127.5 35.5t-127 30.5t-101.5 35.5 q-96 -70 -113 -187q-6 -47 14 -86t52 -63.5t87.5 -46.5t99.5 -34t110 -26q132 -28 210 -67z" />
<glyph unicode="&#xa8;" horiz-adv-x="671" d="M78 1126q5 43 41 75t80 32q42 0 69.5 -32t22.5 -75q-7 -44 -43.5 -75t-79.5 -31q-44 0 -70.5 31t-19.5 75zM537 1126q5 43 40.5 75t79.5 32q43 0 70.5 -32t22.5 -75q-7 -44 -43.5 -75t-79.5 -31q-44 0 -70.5 31t-19.5 75z" />
<glyph unicode="&#xa9;" horiz-adv-x="1402" d="M137 831q24 169 126.5 312t257 226t323.5 83t300 -83t193.5 -226t38.5 -312q-23 -169 -125.5 -311.5t-257 -224.5t-323.5 -82q-127 0 -234.5 48.5t-179 131t-104 197t-15.5 241.5zM225 831q-20 -146 33 -268t165.5 -192t258.5 -70q223 0 399 154t207 376 q21 146 -32.5 268.5t-166 193.5t-258.5 71t-278 -71t-219.5 -193.5t-108.5 -268.5zM1012 705l43 -11q21 -9 10 -26q-57 -104 -152.5 -158.5t-210.5 -54.5q-160 0 -248.5 100.5t-64.5 273.5q24 169 142 272t276 103q118 0 199.5 -56.5t107.5 -164.5q6 -17 -18 -27l-45 -12 q-20 -9 -29 14q-20 72 -81.5 113t-147.5 41q-126 0 -206 -78t-98 -205q-19 -132 39.5 -207t186.5 -75q179 0 264 143q14 23 33 15z" />
<glyph unicode="&#xaa;" horiz-adv-x="600" d="M238 1294l-37 21q-19 10 -4 28q88 97 223 97q104 0 162.5 -57.5t44.5 -168.5l-21 -135q-14 -106 -88.5 -164.5t-177.5 -58.5q-106 0 -167 44.5t-48 133.5q11 90 84.5 133.5t177.5 38.5q24 0 64.5 -10.5t60.5 -26.5l4 25q3 24 4.5 38t-1.5 39.5t-13.5 40t-35.5 26.5 t-62 12q-69 0 -134 -50q-18 -15 -36 -6zM496 1034q4 32 -23 58t-98 26q-35 0 -62 -7.5t-41.5 -18.5t-24 -23.5t-12 -21t-2.5 -13.5q0 -8 -1.5 -19t5.5 -24t17.5 -24t35.5 -18t60 -7q42 0 72 10.5t44.5 27.5t21 29.5t8.5 24.5z" />
<glyph unicode="&#xab;" horiz-adv-x="1157" d="M502 10l-338 379q-14 15 4 33l444 379q15 18 33 0l45 -51q6 -8 5 -17.5t-9 -15.5l-332 -311l246 -312q12 -12 -4 -33l-61 -51q-21 -18 -33 0zM903 10l-338 379q-15 15 4 33l445 379q15 18 33 0l45 -51q6 -8 4.5 -17.5t-9.5 -15.5l-331 -311l245 -312q12 -12 -4 -33 l-61 -51q-21 -18 -33 0z" />
<glyph unicode="&#xac;" horiz-adv-x="1036" d="M737 76l37 272h-581q-22 0 -19 23l12 94q6 22 27 22h705q24 0 18 -22l-53 -389q-3 -23 -27 -23h-100q-22 0 -19 23z" />
<glyph unicode="&#xad;" horiz-adv-x="903" d="M758 354h-572q-22 0 -22 23l12 63q0 23 23 23h571q23 0 23 -23l-13 -63q0 -23 -22 -23z" />
<glyph unicode="&#xae;" horiz-adv-x="1402" d="M137 831q24 169 126.5 312t257 226t323.5 83t300 -83t193.5 -226t38.5 -312q-23 -169 -125.5 -311.5t-257 -224.5t-323.5 -82q-127 0 -234.5 48.5t-179 131t-104 197t-15.5 241.5zM225 831q-20 -146 33 -268t165.5 -192t258.5 -70q223 0 399 154t207 376 q21 146 -32.5 268.5t-166 193.5t-258.5 71t-278 -71t-219.5 -193.5t-108.5 -268.5zM494 498l94 671q3 23 26 23h246q106 0 167 -67.5t44 -186.5q-12 -85 -67 -148.5t-130 -84.5l119 -211q4 -6 0 -12.5t-12 -6.5h-74q-20 0 -33 19l-106 196h-152l-28 -192q0 -10 -7 -16.5 t-18 -6.5h-49q-20 0 -20 23zM629 782h174q145 0 166 156q9 69 -22.5 113.5t-100.5 44.5h-174z" />
<glyph unicode="&#xaf;" horiz-adv-x="587" d="M68 1053l12 86q3 22 26 22h543q22 0 19 -22l-13 -86q0 -23 -24 -23h-543q-20 0 -20 23z" />
<glyph unicode="&#xb0;" horiz-adv-x="710" d="M160 1169q19 116 109 195.5t204 79.5q116 0 184.5 -80t49.5 -195q-15 -114 -105.5 -193t-206.5 -79q-114 0 -182 79t-53 193zM252 1169q-9 -78 34.5 -129t121.5 -51q79 0 138 51.5t68 128.5q12 78 -31.5 130.5t-121.5 52.5t-137.5 -52.5t-71.5 -130.5z" />
<glyph unicode="&#xb1;" horiz-adv-x="962" d="M768 0h-631q-22 0 -22 23l8 55q6 22 27 22h630q25 0 19 -22l-8 -55q0 -23 -23 -23zM829 446h-260l-24 -155q0 -23 -23 -23h-63q-23 0 -23 23l25 155h-262q-11 0 -16.5 6.5t-2.5 16.5l8 63q0 23 23 23h262l37 242q0 22 22 22h64q22 0 22 -22l-36 -242h260q22 0 22 -23 l-8 -63q-7 -23 -27 -23z" />
<glyph unicode="&#xb2;" horiz-adv-x="649" d="M272 1421l-61 4q-22 3 -16 25q30 101 103 157t167 56q105 0 162.5 -56.5t44.5 -152.5q-8 -60 -41 -113t-111 -124l-213 -187h289q20 0 20 -22l-8 -58q-6 -22 -26 -22h-428q-25 0 -19 22l4 45q8 27 25 39l297 262q51 43 72 79t28 77q7 46 -19.5 76.5t-90.5 30.5 q-52 0 -93 -30.5t-59 -86.5q-7 -24 -27 -21z" />
<glyph unicode="&#xb3;" horiz-adv-x="675" d="M352 1292l4 51q7 23 27 23h53q48 0 83.5 25t41.5 67q9 48 -19 75.5t-77 27.5q-37 0 -72.5 -22t-54.5 -62q-9 -21 -31 -21l-55 8q-11 0 -15.5 7.5t-0.5 17.5q28 82 95.5 128t145.5 46q93 0 150 -53t43 -152q-6 -41 -28 -77t-54 -56q36 -19 59 -69.5t17 -106.5 q-17 -109 -97 -172.5t-192 -63.5q-101 0 -162.5 55t-62.5 156q-1 10 6 17.5t18 9.5l55 8q11 2 16.5 -3t4.5 -15q3 -62 42.5 -94.5t94.5 -32.5q63 0 111 36t57 99q6 55 -32 89t-99 32h-53q-25 0 -19 22z" />
<glyph unicode="&#xb4;" horiz-adv-x="436" d="M90 1122l352 238q18 15 31 -4l43 -74q4 -8 1 -17t-11 -14l-369 -213q-18 -12 -33 6l-24 46q-12 18 10 32z" />
<glyph unicode="&#xb5;" horiz-adv-x="1060" d="M786 -6l13 84q-112 -103 -271 -103q-150 0 -241 88l-92 -655q-3 -22 -25 -22h-98q-24 0 -21 22l195 1389q3 22 24 22h99q23 0 20 -22l-57 -412q-11 -65 0 -112.5t31 -78.5t52.5 -49.5t64.5 -26t67 -7.5t69.5 7t71.5 26.5t67 49t53 79t32 112.5l57 412q3 22 25 22h98 q23 0 20 -22l-112 -803q-3 -23 -25 -23h-96q-24 0 -21 23z" />
<glyph unicode="&#xb6;" horiz-adv-x="1165" d="M674 0h-111q-23 0 -20 23l92 661q-55 -14 -107 -14q-93 0 -163.5 31.5t-109 85t-53.5 119.5t-5 138q10 75 45 143.5t90.5 124t136.5 89t176 33.5h227q24 0 21 -23l-195 -1388q-3 -23 -24 -23zM1147 1411l-195 -1388q-3 -23 -24 -23h-74q-23 0 -20 23l194 1388q3 23 25 23 h73q24 0 21 -23z" />
<glyph unicode="&#xb7;" horiz-adv-x="516" d="M170 410q8 48 44 81t85 33q48 0 77.5 -33.5t22.5 -80.5q-8 -48 -45 -81.5t-84 -33.5q-49 0 -78.5 34t-21.5 81z" />
<glyph unicode="&#xb8;" horiz-adv-x="446" d="M-14 -358l51 36q18 15 31 -4q39 -57 110 -57q41 0 78.5 27t44.5 73q10 58 -26.5 85t-92.5 20q-26 -4 -41 4q-20 8 -16 33l27 194h100l-19 -129q90 0 144 -56.5t41 -150.5q-12 -90 -86 -149.5t-166 -59.5q-129 0 -191 103q-3 8 0.5 17.5t10.5 13.5z" />
<glyph unicode="&#xb9;" horiz-adv-x="417" d="M473 1640l-96 -675q-3 -23 -25 -23h-63q-24 0 -21 23l76 538l-96 -65q-22 -10 -33 4l-25 37q-13 16 7 32l170 138q20 14 41 14h45q23 0 20 -23z" />
<glyph unicode="&#xba;" horiz-adv-x="772" d="M778 1143q-21 -148 -116 -227.5t-230 -79.5t-209 80t-53 227q20 147 115.5 227t230.5 80t208.5 -79.5t53.5 -227.5zM657 1143q7 55 -4 95.5t-36 62t-53.5 31t-61.5 9.5q-74 0 -135.5 -46.5t-75.5 -151.5q-8 -56 2.5 -96.5t36 -62t54.5 -31t62 -9.5q73 0 134 46.5 t77 152.5zM121 594l10 68q3 22 25 22h506q23 0 20 -22l-10 -68q-3 -23 -25 -23h-506q-23 0 -20 23z" />
<glyph unicode="&#xbb;" horiz-adv-x="1157" d="M641 389l-444 -379q-21 -18 -33 0l-45 51q-17 17 2 33l334 312l-248 311q-13 13 6 33l61 51q15 18 33 0l338 -379q12 -17 -4 -33zM1042 389l-444 -379q-21 -18 -33 0l-45 51q-17 17 2 33l334 312l-248 311q-14 13 6 33l62 51q15 18 33 0l338 -379q11 -17 -5 -33z" />
<glyph unicode="&#xbc;" horiz-adv-x="1247" d="M295 0h-76q-8 0 -12.5 6t0.5 14l756 1393q9 21 32 21h78q8 0 12.5 -7t-0.5 -14l-757 -1393q-9 -20 -33 -20zM481 1411l-94 -676q-3 -22 -27 -22h-63q-21 0 -18 22l75 539l-98 -66q-19 -10 -33 4l-24 37q-10 17 6 33l170 137q21 15 41 15h45q23 0 20 -23zM1044 154 l-18 -131q-3 -23 -25 -23h-61q-23 0 -20 23l18 131h-260q-22 0 -19 22l7 43q0 15 14 43l268 438q12 21 37 21h72q20 0 8 -21l-270 -444h157l15 98q3 23 24 23h62q23 0 20 -23l-14 -98h67q22 0 19 -23l-6 -57q-3 -22 -27 -22h-68z" />
<glyph unicode="&#xbd;" horiz-adv-x="1353" d="M295 0h-76q-8 0 -12.5 6t0.5 14l756 1393q9 21 32 21h78q8 0 12.5 -7t-0.5 -14l-757 -1393q-9 -20 -33 -20zM481 1411l-94 -676q-3 -22 -27 -22h-63q-21 0 -18 22l75 539l-98 -66q-19 -10 -33 4l-24 37q-10 17 6 33l170 137q21 15 41 15h45q23 0 20 -23zM887 494l-62 4 q-22 4 -16 24q32 101 105 157t167 56q105 0 161.5 -56.5t43.5 -152.5q-8 -61 -40 -114t-111 -123l-211 -187h288q22 0 19 -22l-8 -57q-3 -23 -25 -23h-428q-23 0 -20 23l6 45q3 22 22 38l297 263q52 44 74 80t27 75q7 46 -19 76.5t-90 30.5q-52 0 -93 -30.5t-59 -86.5 q-7 -23 -28 -20z" />
<glyph unicode="&#xbe;" horiz-adv-x="1425" d="M473 0h-76q-8 0 -12.5 6t0.5 14l756 1393q9 21 33 21h77q8 0 13 -7t0 -14l-758 -1393q-9 -20 -33 -20zM1223 154l-19 -131q-3 -23 -24 -23h-62q-23 0 -20 23l18 131h-260q-21 0 -18 22l6 43q0 15 14 43l268 438q12 21 37 21h72q20 0 8 -21l-270 -444h157l15 98 q3 23 24 23h62q23 0 20 -23l-14 -98h68q21 0 18 -23l-6 -57q-3 -22 -27 -22h-67zM358 1063l9 51q3 23 24 23h53q48 0 83.5 25t41.5 67q7 48 -21 75t-77 27q-37 0 -72 -22t-53 -62q-6 -20 -31 -20l-55 8q-11 0 -15.5 7.5t1.5 17.5q27 82 94 128t145 46q93 0 150 -53t43 -152 q-4 -40 -27.5 -76t-56.5 -57q38 -19 60.5 -69.5t15.5 -106.5q-17 -109 -97 -172.5t-192 -63.5q-100 0 -161 55t-62 156q0 24 22 27l58 8q22 3 22 -19q3 -62 41.5 -94.5t93.5 -32.5q63 0 110 36t56 100q7 54 -30.5 88t-98.5 32h-53q-24 0 -21 23z" />
<glyph unicode="&#xbf;" horiz-adv-x="1130" d="M852 737q-9 -50 -46.5 -83t-86.5 -33q-48 0 -79 34t-22 82q6 47 46.5 82t87.5 35q49 0 77.5 -34.5t22.5 -82.5zM846 -205l98 -16q11 -2 15.5 -9.5t1.5 -17.5q-51 -174 -179.5 -274.5t-316.5 -100.5q-205 0 -312.5 111t-68.5 303q8 38 25.5 81t56.5 101t92 109.5 t139.5 103.5t192.5 88l18 136q3 22 25 22h110q24 0 21 -22l-27 -199q-7 -23 -26 -29q-79 -24 -145.5 -54t-112.5 -59.5t-82.5 -63.5t-58.5 -62.5t-38 -60t-22.5 -52.5t-11.5 -43q-24 -126 42 -194t203 -68q122 0 210.5 69.5t121.5 182.5q3 22 29 18z" />
<glyph unicode="&#xc0;" horiz-adv-x="1550" d="M995 1413l396 -1393q4 -7 -1.5 -13.5t-13.5 -6.5h-125q-24 0 -30 20l-86 310h-768l-177 -310q-6 -20 -30 -20h-125q-8 0 -13.5 6.5t-1.5 13.5l789 1393q6 21 33 21h125q22 0 28 -21zM879 1241l-428 -762h641zM846 1974l287 -237q15 -15 0 -33l-41 -45q-4 -7 -14 -9t-17 3 l-311 213q-14 10 -2 30l67 74q13 19 31 4z" />
<glyph unicode="&#xc1;" horiz-adv-x="1550" d="M995 1413l396 -1393q4 -7 -1.5 -13.5t-13.5 -6.5h-125q-24 0 -30 20l-86 310h-768l-177 -310q-6 -20 -30 -20h-125q-8 0 -13.5 6.5t-1.5 13.5l789 1393q6 21 33 21h125q22 0 28 -21zM879 1241l-428 -762h641zM748 1737l352 237q18 15 30 -4l44 -74q5 -7 1.5 -16.5 t-12.5 -13.5l-368 -213q-18 -12 -33 6l-25 45q-11 17 11 33z" />
<glyph unicode="&#xc2;" horiz-adv-x="1550" d="M997 1413l396 -1393q4 -7 -2.5 -13.5t-14.5 -6.5h-125q-22 0 -28 20l-86 310h-768l-176 -310q-6 -20 -33 -20h-125q-8 0 -12 6.5t0 13.5l788 1393q6 21 31 21h125q24 0 30 -21zM881 1241l-428 -762h641zM674 1737l282 190q25 15 37 0l232 -190q13 -17 0 -33l-41 -45 q-5 -8 -14 -10t-17 4l-199 129l-233 -129q-8 -6 -17.5 -4t-15.5 10l-24 45q-13 19 10 33z" />
<glyph unicode="&#xc3;" horiz-adv-x="1550" d="M999 1413l396 -1393q4 -7 -1.5 -13.5t-13.5 -6.5h-125q-24 0 -30 20l-86 310h-768l-176 -310q-6 -20 -31 -20h-125q-8 0 -13 6.5t-1 13.5l788 1393q9 21 33 21h125q25 0 28 -21zM883 1241l-428 -762h641zM1055 1638q-44 0 -79.5 16t-54 34.5t-41 34.5t-42.5 16 q-66 0 -93 -76q-13 -23 -28 -23h-60q-11 0 -16 6.5t-2 16.5q23 93 79.5 144t137.5 51q35 0 60 -10.5t39.5 -26t28 -30.5t34.5 -25.5t49 -10.5q38 0 61.5 23.5t32.5 54.5q9 22 29 22h57q11 0 16 -6t1 -16q-20 -93 -74 -144t-135 -51z" />
<glyph unicode="&#xc4;" horiz-adv-x="1550" d="M614 1741q6 43 42.5 74.5t80.5 31.5q43 0 69.5 -31.5t20.5 -74.5q-6 -44 -41.5 -75.5t-78.5 -31.5q-44 0 -71.5 31.5t-21.5 75.5zM1073 1741q6 43 42.5 74.5t80.5 31.5q43 0 69.5 -31.5t20.5 -74.5q-6 -44 -42 -75.5t-79 -31.5q-44 0 -71 31.5t-21 75.5zM999 1413 l398 -1393q3 -7 -3 -13.5t-14 -6.5h-125q-25 0 -28 20l-88 310h-768l-174 -310q-9 -20 -33 -20h-125q-8 0 -12.5 6t0.5 14l786 1393q9 21 33 21h125q25 0 28 -21zM883 1241l-428 -762h641z" />
<glyph unicode="&#xc5;" horiz-adv-x="1550" d="M766 1835q10 79 74.5 136t144.5 57q79 0 128 -56.5t38 -136.5q-10 -79 -74.5 -136t-144.5 -57q-79 0 -128 56.5t-38 136.5zM860 1835q-6 -41 18.5 -69.5t65.5 -28.5t74 28.5t39 69.5q5 42 -19 70t-65 28q-42 0 -75.5 -28.5t-37.5 -69.5zM993 1413l398 -1393 q3 -7 -3 -13.5t-14 -6.5h-125q-25 0 -28 20l-88 310h-768l-175 -310q-9 -20 -32 -20h-125q-8 0 -13 6t0 14l787 1393q9 21 33 21h125q25 0 28 -21zM877 1241l-428 -762h641z" />
<glyph unicode="&#xc6;" horiz-adv-x="2340" d="M1511 791h605q23 0 20 -23l-14 -102q-3 -23 -27 -23h-604l-68 -496h742q21 0 18 -22l-14 -102q-3 -23 -25 -23h-874q-26 0 -29 20l-88 310h-768l-174 -310q-9 -20 -33 -20h-125q-8 0 -12.5 6t0.5 14l786 1393q9 21 33 21h125q26 0 29 -21l289 -1014l141 1012q3 23 24 23 h875q23 0 20 -23l-14 -102q-3 -23 -27 -23h-741zM897 1241l-428 -762h641z" />
<glyph unicode="&#xc7;" horiz-adv-x="1609" d="M594 -358l55 36q18 15 31 -4q37 -57 111 -57q41 0 78 27t44 73q10 58 -26 85t-92 20q-26 -4 -41 4q-20 9 -17 33l17 118q-144 9 -258.5 61.5t-192 144t-109 229t-8.5 307.5q26 177 101 319t186 234t249.5 141t293.5 49q224 0 380.5 -96t217.5 -279q6 -21 -15 -30 l-100 -47q-21 -9 -26 10q-46 141 -169.5 218t-308.5 77q-267 0 -440 -159t-213 -437q-38 -278 90.5 -437t396.5 -159q185 0 330 76.5t232 216.5q11 19 28 10l86 -45q17 -8 4 -31q-102 -170 -274.5 -266t-380.5 -107l-8 -53q89 0 143 -56.5t41 -150.5q-12 -90 -86 -149.5 t-166 -59.5q-126 0 -194 103q-4 7 -1 17t11 14z" />
<glyph unicode="&#xc8;" horiz-adv-x="1206" d="M358 791h605q20 0 20 -23l-16 -102q0 -10 -7 -16.5t-18 -6.5h-604l-68 -496h742q18 0 18 -22l-16 -102q0 -23 -23 -23h-874q-23 0 -23 23l197 1388q0 23 24 23h875q20 0 20 -23l-16 -102q0 -10 -7 -16.5t-18 -6.5h-741zM688 1974l287 -237q15 -15 0 -33l-41 -45 q-4 -7 -14 -9t-17 3l-311 213q-14 10 -2 30l67 74q13 19 31 4z" />
<glyph unicode="&#xc9;" horiz-adv-x="1206" d="M358 791h605q20 0 20 -23l-16 -102q0 -10 -7 -16.5t-18 -6.5h-604l-68 -496h742q18 0 18 -22l-16 -102q0 -23 -23 -23h-874q-23 0 -23 23l197 1388q0 23 24 23h875q20 0 20 -23l-16 -102q0 -10 -7 -16.5t-18 -6.5h-741zM575 1737l353 237q18 15 30 -4l43 -74 q5 -7 2 -16.5t-12 -13.5l-368 -213q-7 -5 -17 -3t-14 9l-25 45q-14 17 8 33z" />
<glyph unicode="&#xca;" horiz-adv-x="1206" d="M358 791h605q22 0 22 -23l-16 -102q0 -10 -8 -16.5t-19 -6.5h-604l-68 -496h742q20 0 20 -22l-16 -102q0 -10 -7 -16.5t-18 -6.5h-874q-21 0 -21 23l197 1388q0 23 22 23h875q22 0 22 -23l-16 -102q0 -10 -8 -16.5t-19 -6.5h-741zM502 1737l282 190q25 15 37 0l232 -190 q13 -17 0 -33l-41 -45q-5 -8 -14 -10t-17 4l-199 129l-233 -129q-8 -6 -17.5 -4t-15.5 10l-24 45q-13 19 10 33z" />
<glyph unicode="&#xcb;" horiz-adv-x="1206" d="M442 1741q6 43 42.5 74.5t80.5 31.5q43 0 69.5 -31.5t20.5 -74.5q-6 -44 -41.5 -75.5t-78.5 -31.5q-44 0 -71.5 31.5t-21.5 75.5zM901 1741q6 43 42.5 74.5t80.5 31.5q43 0 69.5 -31.5t20.5 -74.5q-6 -44 -42 -75.5t-79 -31.5q-44 0 -71 31.5t-21 75.5zM362 791h605 q23 0 20 -23l-14 -102q-3 -23 -27 -23h-604l-68 -496h742q21 0 18 -22l-14 -102q-3 -23 -25 -23h-874q-24 0 -21 23l195 1388q3 23 24 23h875q23 0 20 -23l-14 -102q-3 -23 -26 -23h-742z" />
<glyph unicode="&#xcc;" horiz-adv-x="477" d="M444 1411l-196 -1388q0 -23 -23 -23h-110q-23 0 -23 23l197 1388q0 23 24 23h111q20 0 20 -23zM324 1974l286 -237q15 -15 0 -33l-41 -45q-4 -7 -13.5 -9t-16.5 3l-312 213q-14 10 -2 30l68 74q13 19 31 4z" />
<glyph unicode="&#xcd;" horiz-adv-x="477" d="M444 1411l-196 -1388q0 -23 -23 -23h-110q-23 0 -23 23l197 1388q0 23 24 23h111q20 0 20 -23zM211 1737l352 237q18 15 31 -4l43 -74q5 -7 2 -16.5t-12 -13.5l-369 -213q-7 -5 -17 -3t-14 9l-24 45q-14 17 8 33z" />
<glyph unicode="&#xce;" horiz-adv-x="628" d="M520 1411l-196 -1388q0 -10 -7 -16.5t-18 -6.5h-111q-20 0 -20 23l197 1388q0 23 22 23h111q22 0 22 -23zM213 1737l283 190q24 15 36 0l232 -190q13 -17 0 -33l-41 -45q-5 -8 -14 -10t-17 4l-198 129l-234 -129q-8 -6 -17.5 -4t-15.5 10l-24 45q-13 19 10 33z" />
<glyph unicode="&#xcf;" horiz-adv-x="712" d="M197 1741q6 43 42 74.5t80 31.5q43 0 70 -31.5t21 -74.5q-6 -44 -42 -75.5t-79 -31.5q-44 0 -71 31.5t-21 75.5zM655 1741q6 43 42.5 74.5t80.5 31.5q43 0 69.5 -31.5t20.5 -74.5q-6 -44 -41.5 -75.5t-78.5 -31.5q-44 0 -71.5 31.5t-21.5 75.5zM565 1411l-194 -1388 q-3 -23 -25 -23h-110q-24 0 -21 23l195 1388q3 23 24 23h111q23 0 20 -23z" />
<glyph unicode="&#xd0;" horiz-adv-x="1488" d="M334 1434h483q150 0 269.5 -46t202 -133.5t116.5 -225.5t10 -312q-25 -174 -97.5 -311.5t-179 -225.5t-238.5 -134t-282 -46h-483q-23 0 -20 23l88 634h-121q-22 0 -19 23l11 72q3 22 24 22h121l90 637q3 23 25 23zM289 147h350q257 0 420 149.5t201 420.5 q38 274 -86 421.5t-377 147.5h-351l-71 -512h385q23 0 20 -22l-10 -72q-3 -23 -27 -23h-385z" />
<glyph unicode="&#xd1;" horiz-adv-x="1533" d="M100 23l195 1388q0 23 24 23h111q22 0 35 -19l719 -1159l162 1155q0 23 24 23h111q20 0 20 -23l-194 -1388q-3 -23 -25 -23h-111q-24 0 -36 18l-717 1162l-162 -1157q-3 -23 -25 -23h-110q-24 0 -21 23zM1047 1638q-44 0 -79.5 16t-54.5 34.5t-41.5 34.5t-42.5 16 q-65 0 -92 -76q-13 -23 -28 -23h-60q-11 0 -16 6.5t-2 16.5q23 93 79.5 144t137.5 51q35 0 60 -10.5t39.5 -26t28 -30.5t34.5 -25.5t49 -10.5q38 0 61.5 23.5t32.5 54.5q9 22 29 22h57q25 0 16 -22q-20 -93 -73.5 -144t-134.5 -51z" />
<glyph unicode="&#xd2;" horiz-adv-x="1695" d="M981 1462q156 0 281 -48.5t210.5 -141t121 -235.5t10.5 -322q-26 -179 -101 -321.5t-186 -234.5t-249 -140t-294 -48q-124 0 -229.5 30.5t-187 90.5t-134 149.5t-71.5 208t2 265.5q25 179 99.5 322t185 235.5t248.5 141t294 48.5zM795 119q270 0 441.5 156.5t211.5 439.5 q38 283 -90 441.5t-397 158.5q-270 0 -442 -158.5t-210 -441.5q-40 -283 88 -439.5t398 -156.5zM877 1974l284 -237q17 -17 0 -33l-39 -45q-6 -7 -15 -9t-15 3l-312 213q-15 9 -2 30l66 74q15 19 33 4z" />
<glyph unicode="&#xd3;" horiz-adv-x="1695" d="M981 1462q156 0 281 -48.5t210.5 -141t121 -235.5t10.5 -322q-26 -179 -101 -321.5t-186 -234.5t-249 -140t-294 -48q-124 0 -229.5 30.5t-187 90.5t-134 149.5t-71.5 208t2 265.5q25 179 99.5 322t185 235.5t248.5 141t294 48.5zM795 119q270 0 441.5 156.5t211.5 439.5 q38 283 -90 441.5t-397 158.5q-270 0 -442 -158.5t-210 -441.5q-40 -283 88 -439.5t398 -156.5zM856 1737l354 237q19 16 29 -4l45 -74q4 -8 1 -16.5t-11 -13.5l-369 -213q-9 -5 -18.5 -3t-12.5 9l-26 45q-12 18 8 33z" />
<glyph unicode="&#xd4;" horiz-adv-x="1695" d="M983 1462q156 0 281 -48.5t210 -141t120.5 -235.5t9.5 -322q-25 -179 -100 -321.5t-185.5 -234.5t-248.5 -140t-294 -48t-281 48t-210 139.5t-120.5 234.5t-10.5 322q34 238 154 409t293 254.5t382 83.5zM797 119q270 0 440.5 156.5t210.5 439.5t-87.5 441.5 t-397.5 158.5t-442 -158.5t-212 -441.5q-40 -282 89 -439t399 -157zM745 1737l285 190q22 15 37 0l229 -190q16 -17 0 -33l-39 -45q-15 -19 -32 -6l-197 129l-235 -129q-8 -6 -17 -4t-14 10l-27 45q-10 19 10 33z" />
<glyph unicode="&#xd5;" horiz-adv-x="1695" d="M985 1462q156 0 281 -48.5t210.5 -141t121 -235.5t10.5 -322q-26 -179 -101 -321.5t-186 -234.5t-249 -140t-294 -48q-124 0 -229.5 30.5t-187 90.5t-134 149.5t-71.5 208t2 265.5q25 179 99.5 322t185 235.5t248.5 141t294 48.5zM799 119q270 0 441.5 156.5t211.5 439.5 t-88.5 441.5t-398.5 158.5q-269 0 -440.5 -158.5t-211.5 -441.5t88 -439.5t398 -156.5zM1128 1638q-44 0 -79 16t-53.5 34.5t-40.5 34.5t-42 16q-67 0 -94 -76q-10 -23 -28 -23h-60q-21 0 -18 23q23 93 80.5 144t138.5 51q35 0 60 -10.5t39 -26t27.5 -30.5t34 -25.5 t48.5 -10.5q38 0 62.5 23.5t33.5 54.5q6 22 29 22h57q22 0 16 -22q-20 -93 -75 -144t-136 -51z" />
<glyph unicode="&#xd6;" horiz-adv-x="1695" d="M985 1462q124 0 229.5 -30.5t188 -91.5t135.5 -151t72 -208.5t-2 -265.5q-26 -179 -101 -321.5t-186 -234.5t-249 -140t-294 -48q-124 0 -229.5 30.5t-187 90.5t-134 149.5t-71.5 208t2 265.5q34 238 153.5 409t292 254.5t381.5 83.5zM801 119q270 0 440.5 156.5 t210.5 439.5t-88.5 441.5t-398.5 158.5q-269 0 -440.5 -158.5t-211.5 -441.5q-40 -282 89 -439t399 -157zM690 1741q6 43 42.5 74.5t80.5 31.5q43 0 69.5 -31.5t20.5 -74.5q-6 -44 -43 -75.5t-80 -31.5q-44 0 -70 31.5t-20 75.5zM1149 1741q6 43 42.5 74.5t80.5 31.5 q43 0 69.5 -31.5t20.5 -74.5q-6 -44 -43 -75.5t-80 -31.5q-44 0 -70 31.5t-20 75.5z" />
<glyph unicode="&#xd7;" horiz-adv-x="843" d="M598 147l-160 185l-209 -185q-23 -17 -32 0l-39 46q-14 14 4 32l211 183l-160 186q-17 15 4 33l49 43q9 7 18.5 6.5t14.5 -6.5l160 -185l209 185q22 16 32 0l41 -43q12 -17 -4 -33l-213 -186l158 -183q14 -18 -4 -32l-47 -46q-24 -18 -33 0z" />
<glyph unicode="&#xd8;" horiz-adv-x="1695" d="M999 1462q253 0 416 -123l119 123q23 19 33 2l53 -47q16 -15 0 -31l-123 -124q172 -203 125 -547q-26 -179 -101 -321.5t-185.5 -234.5t-248.5 -140t-294 -48q-266 0 -431 131l-141 -143q-6 -6 -16.5 -7t-16.5 5l-51 47q-17 17 0 31l144 147q-156 203 -109 533 q25 179 99.5 322t185 235.5t248.5 141t294 48.5zM813 119q270 0 441.5 156.5t211.5 439.5q37 269 -84 430l-907 -928q122 -98 338 -98zM328 715q-37 -260 67 -414l908 924q-129 90 -324 90q-270 0 -441.5 -158.5t-209.5 -441.5z" />
<glyph unicode="&#xd9;" horiz-adv-x="1478" d="M1167 557l119 854q3 23 25 23h110q24 0 21 -23l-119 -846q-25 -184 -119.5 -320t-233.5 -205t-304 -69q-253 0 -392 159t-102 435l119 846q3 23 24 23h111q23 0 20 -23l-118 -854q-29 -208 66 -323t292 -115q199 0 325.5 116t155.5 322zM782 1974l285 -237q17 -17 0 -33 l-39 -45q-6 -7 -15.5 -9t-15.5 3l-311 213q-15 9 -2 30l66 74q15 18 32 4z" />
<glyph unicode="&#xda;" horiz-adv-x="1478" d="M1167 557l119 854q3 23 25 23h110q24 0 21 -23l-119 -846q-25 -184 -119.5 -320t-233.5 -205t-304 -69q-253 0 -392 159t-102 435l119 846q3 23 24 23h111q23 0 20 -23l-118 -854q-29 -208 66 -323t292 -115q199 0 325.5 116t155.5 322zM717 1737l354 237q19 16 29 -4 l45 -74q4 -8 1 -16.5t-11 -13.5l-369 -213q-9 -5 -18.5 -3t-12.5 9l-26 45q-12 18 8 33z" />
<glyph unicode="&#xdb;" horiz-adv-x="1478" d="M1169 557l119 854q3 23 25 23h110q24 0 21 -23l-119 -846q-39 -276 -221.5 -435t-435.5 -159q-165 0 -285 69t-177.5 205t-31.5 320l119 846q3 23 24 23h111q24 0 21 -23l-119 -854q-31 -208 64.5 -323t293.5 -115q199 0 325.5 116t155.5 322zM637 1737l285 190 q21 15 36 0l230 -190q16 -17 0 -33l-39 -45q-6 -8 -15.5 -10t-17.5 4l-196 129l-236 -129q-8 -6 -17 -4t-14 10l-26 45q-10 19 10 33z" />
<glyph unicode="&#xdc;" horiz-adv-x="1478" d="M582 1741q6 43 42.5 74.5t80.5 31.5q43 0 69.5 -31.5t20.5 -74.5q-6 -44 -43 -75.5t-80 -31.5q-44 0 -70 31.5t-20 75.5zM1040 1741q6 43 42.5 74.5t80.5 31.5q43 0 69.5 -31.5t20.5 -74.5q-6 -44 -43 -75.5t-80 -31.5q-44 0 -70 31.5t-20 75.5zM1171 557l121 854 q0 23 23 23h110q23 0 23 -23l-119 -846q-26 -184 -121 -320t-234 -205t-304 -69t-284.5 69t-176.5 205t-31 320l119 846q0 23 22 23h111q23 0 23 -23l-121 -854q-29 -208 66.5 -323t293.5 -115q199 0 324 116t155 322z" />
<glyph unicode="&#xdd;" horiz-adv-x="1433" d="M569 23l78 550l-426 842q-4 6 0 12.5t12 6.5h140q17 0 33 -19l342 -684l534 684q16 19 37 19h139q7 0 10 -6.5t-2 -12.5l-663 -842l-78 -550q0 -23 -23 -23h-110q-23 0 -23 23zM721 1737l352 237q18 15 31 -4l43 -74q5 -7 2 -16.5t-12 -13.5l-369 -213q-18 -12 -33 6 l-24 45q-12 18 10 33z" />
<glyph unicode="&#xde;" horiz-adv-x="1245" d="M465 1411l-27 -192h312q104 0 188 -32t142 -93t82.5 -158t8.5 -219q-23 -158 -105.5 -273.5t-200.5 -172t-257 -56.5h-311l-27 -192q-3 -23 -24 -23h-111q-23 0 -20 23l194 1388q3 23 25 23h110q24 0 21 -23zM317 362h336q141 0 241 100t122 255q21 155 -50.5 254.5 t-211.5 99.5h-336z" />
<glyph unicode="&#xdf;" horiz-adv-x="1239" d="M403 23l33 86q12 21 31 16q58 -14 113 -14q94 0 174.5 32t141 105t75.5 178q20 138 -56.5 210.5t-218.5 72.5h-78q-20 0 -20 22l12 88q3 23 27 23h78q110 0 178 65.5t82 165.5q17 114 -50 178t-182 64q-56 0 -107.5 -15t-99 -47t-81 -91t-45.5 -138l-140 -1001 q-3 -23 -24 -23h-111q-23 0 -20 23l141 1015q14 101 64 183.5t121 134t154 79t169 27.5q187 0 292 -100.5t83 -288.5q-29 -177 -172 -278q188 -115 157 -369q-23 -143 -104 -248t-196 -156t-251 -51q-69 0 -159 23q-19 10 -11 29z" />
<glyph unicode="&#xe0;" horiz-adv-x="1077" d="M821 1090l-41 -46q-4 -7 -13.5 -9t-16.5 3l-312 213q-14 11 -2 31l68 74q13 19 31 4l286 -238q15 -15 0 -32zM596 844q186 0 290.5 -115.5t76.5 -318.5l-56 -387q0 -23 -22 -23h-99q-22 0 -22 23l14 94q-62 -69 -143.5 -104.5t-163.5 -37.5q-122 -3 -209.5 46 t-128.5 149.5t-22 239.5q26 190 164.5 312t320.5 122zM494 111q132 0 216 78.5t109 220.5q20 138 -42.5 218.5t-196.5 80.5q-133 0 -219.5 -80.5t-106.5 -218.5q-20 -141 42.5 -220t197.5 -79z" />
<glyph unicode="&#xe1;" horiz-adv-x="1077" d="M446 1044l-24 46q-14 16 8 32l352 238q18 15 31 -4l43 -74q5 -7 2 -17t-12 -14l-369 -213q-7 -5 -17 -3t-14 9zM596 844q186 0 290.5 -115.5t76.5 -318.5l-56 -387q0 -23 -22 -23h-99q-22 0 -22 23l14 94q-62 -69 -143.5 -104.5t-163.5 -37.5q-122 -3 -209.5 46 t-128.5 149.5t-22 239.5q26 190 164.5 312t320.5 122zM494 111q132 0 216 78.5t109 220.5q20 138 -42.5 218.5t-196.5 80.5q-133 0 -219.5 -80.5t-106.5 -218.5q-20 -141 42.5 -220t197.5 -79z" />
<glyph unicode="&#xe2;" horiz-adv-x="1077" d="M653 1167l-233 -129q-8 -6 -17.5 -4t-15.5 10l-25 46q-12 18 11 32l282 191q25 15 37 0l232 -191q13 -16 0 -32l-41 -46q-5 -8 -14 -10t-17 4zM598 844q121 0 210 -49.5t132 -149t23 -235.5l-54 -387q0 -23 -24 -23h-99q-20 0 -20 23l12 94q-60 -69 -141.5 -104.5 t-163.5 -37.5q-188 -5 -288.5 110.5t-73.5 324.5q27 190 166 312t321 122zM496 111q132 0 216 78.5t107 220.5q22 138 -40.5 218.5t-196.5 80.5q-133 0 -219.5 -80.5t-108.5 -218.5q-19 -142 44.5 -220.5t197.5 -78.5z" />
<glyph unicode="&#xe3;" horiz-adv-x="1077" d="M602 844q186 0 289.5 -115.5t75.5 -318.5l-54 -387q-3 -23 -24 -23h-98q-24 0 -21 23l12 94q-60 -69 -142 -104.5t-165 -37.5q-122 -3 -209.5 46t-128.5 149.5t-22 239.5q27 190 166 312t321 122zM500 111q132 0 215 78t108 221q20 138 -42.5 218.5t-196.5 80.5 q-133 0 -219.5 -80.5t-106.5 -218.5q-20 -141 43.5 -220t198.5 -79zM539 1124q-66 0 -93 -75q-13 -23 -28 -23h-60q-11 0 -16 6.5t-2 16.5q23 93 79.5 143.5t137.5 50.5q35 0 60 -10.5t39.5 -25.5t28 -30t34.5 -25.5t49 -10.5q38 0 61.5 23.5t32.5 54.5q9 22 29 22h57 q11 0 16 -6t1 -16q-20 -93 -74 -144t-135 -51q-44 0 -79.5 15.5t-54 34.5t-41 34.5t-42.5 15.5z" />
<glyph unicode="&#xe4;" horiz-adv-x="1077" d="M315 1126q6 43 42.5 75t80.5 32q43 0 69.5 -32t20.5 -75q-6 -44 -41.5 -75t-78.5 -31q-44 0 -71.5 31t-21.5 75zM774 1126q6 43 42.5 75t80.5 32q43 0 69.5 -32t20.5 -75q-6 -44 -42 -75t-79 -31q-44 0 -71 31t-21 75zM602 844q186 0 289.5 -115.5t75.5 -318.5l-54 -387 q-3 -23 -24 -23h-98q-24 0 -21 23l12 94q-60 -69 -142 -104.5t-165 -37.5q-122 -3 -209.5 46t-128.5 149.5t-22 239.5q27 190 166 312t321 122zM500 111q132 0 216 78.5t107 220.5q20 138 -42.5 218.5t-196.5 80.5q-133 0 -219.5 -80.5t-106.5 -218.5q-19 -142 44.5 -220.5 t197.5 -78.5z" />
<glyph unicode="&#xe5;" horiz-adv-x="1077" d="M467 1221q10 79 74.5 135.5t144.5 56.5q79 0 128 -56t38 -136q-10 -79 -74.5 -136t-144.5 -57q-79 0 -128 56.5t-38 136.5zM561 1221q-6 -41 18.5 -70t65.5 -29t74 29t39 70q5 42 -19 70t-65 28q-42 0 -75.5 -28.5t-37.5 -69.5zM596 844q186 0 289.5 -115.5t75.5 -318.5 l-54 -387q-3 -23 -24 -23h-99q-23 0 -20 23l12 94q-60 -69 -142 -104.5t-165 -37.5q-122 -3 -209.5 46t-128.5 149.5t-22 239.5q27 190 166 312t321 122zM494 111q132 0 215 78t108 221q20 138 -42.5 218.5t-196.5 80.5q-133 0 -219.5 -80.5t-106.5 -218.5 q-20 -141 43.5 -220t198.5 -79z" />
<glyph unicode="&#xe6;" horiz-adv-x="1615" d="M1323 190l74 -47q8 -5 9 -12.5t-7 -15.5q-143 -140 -344 -140q-220 0 -314 144q-117 -146 -319 -146q-75 0 -136 15t-106 45.5t-65 82.5t-9 120q10 83 65.5 141t138 83.5t182.5 22.5q119 -4 204 -49l13 88q3 16 3 31.5t-3 39t-15 43t-31.5 37t-55.5 28t-83 10.5 q-66 0 -125.5 -24.5t-93.5 -61.5q-25 -19 -39 -11l-76 27q-15 15 -6 29q54 85 149 130.5t208 45.5q101 0 174.5 -37t105.5 -109q144 144 353 144q187 0 291 -113t77 -317q-7 -23 -26 -23h-687q-14 -130 49.5 -205t192.5 -75q114 0 217 75q20 20 35 4zM664 254 q-2 42 -45.5 72t-143.5 30q-66 0 -114 -14t-71.5 -35t-33.5 -38.5t-12 -32.5q-4 -19 1 -38.5t22 -41.5t61 -36t110 -14q96 0 148 32t71 71q11 33 7 45zM1157 709q-108 0 -186.5 -53.5t-114.5 -147.5h543q-12 95 -73 148t-169 53z" />
<glyph unicode="&#xe7;" horiz-adv-x="1011" d="M279 -358l57 36q19 16 29 -4q39 -57 110 -57q41 0 79.5 27t45.5 73q10 58 -27 85t-94 20q-26 -4 -39 4q-23 10 -16 33l16 121q-156 21 -238.5 133t-58.5 297q30 207 165.5 320.5t322.5 113.5q139 0 233.5 -64t126.5 -186q2 -8 -3 -17t-15 -10l-94 -30q-15 -9 -29 14 q-19 75 -80 116.5t-156 41.5q-133 0 -219 -80.5t-108 -218.5q-19 -138 44 -218.5t197 -80.5q92 0 164 38t113 107q14 20 33 12l80 -39q21 -9 8 -28q-60 -103 -161.5 -160.5t-223.5 -63.5l-9 -53q89 0 143 -56.5t42 -150.5q-12 -90 -86 -149.5t-166 -59.5q-126 0 -197 103 q-4 22 11 31z" />
<glyph unicode="&#xe8;" d="M786 1090l-41 -46q-4 -7 -13.5 -9t-16.5 3l-312 213q-15 9 -2 31l68 74q13 19 31 4l286 -238q13 -16 0 -32zM596 844q187 0 291.5 -113t77.5 -317q-7 -23 -27 -23h-686q-14 -130 49.5 -205t192.5 -75q125 0 213 69q15 15 36 6l76 -43q8 -5 9 -12.5t-7 -15.5 q-143 -140 -344 -140q-187 0 -290.5 114t-75.5 321q19 138 89.5 238t172 148t223.5 48zM279 508h542q-12 95 -73 148t-168 53q-108 0 -186.5 -53.5t-114.5 -147.5z" />
<glyph unicode="&#xe9;" d="M883 1251l-369 -213q-18 -12 -33 6l-24 46q-12 18 10 32l352 238q18 15 31 -4l43 -74q4 -8 1 -17t-11 -14zM596 844q187 0 291.5 -113t77.5 -317q-7 -23 -27 -23h-686q-14 -130 49.5 -205t192.5 -75q125 0 213 69q15 15 36 6l76 -43q8 -5 9 -12.5t-7 -15.5 q-143 -140 -344 -140q-187 0 -290.5 114t-75.5 321q19 138 89.5 238t172 148t223.5 48zM279 508h542q-12 95 -73 148t-168 53q-108 0 -186.5 -53.5t-114.5 -147.5z" />
<glyph unicode="&#xea;" d="M643 1167l-233 -129q-8 -6 -17.5 -4t-15.5 10l-25 46q-12 18 10 32l283 191q25 15 37 0l231 -191q13 -16 0 -32l-41 -46q-5 -8 -13.5 -10t-16.5 4zM598 844q187 0 291 -113t76 -317q-3 -23 -25 -23h-686q-14 -130 49.5 -205t192.5 -75q126 0 211 69q18 15 38 6l76 -43 q8 -5 9 -12.5t-7 -15.5q-143 -140 -346 -140q-187 0 -290 114t-76 321q30 207 165 320.5t322 113.5zM281 508h542q-12 95 -73 148t-168 53q-108 0 -186.5 -53.5t-114.5 -147.5z" />
<glyph unicode="&#xeb;" d="M305 1126q6 43 42.5 75t80.5 32q43 0 69.5 -32t20.5 -75q-6 -44 -42 -75t-79 -31q-44 0 -71 31t-21 75zM764 1126q6 43 42.5 75t80.5 32q43 0 69.5 -32t20.5 -75q-6 -44 -42 -75t-79 -31q-44 0 -71 31t-21 75zM602 844q187 0 291 -113t76 -317q-3 -23 -27 -23h-686 q-14 -130 50.5 -205t193.5 -75q126 0 211 69q15 15 37 6l77 -43q8 -5 8.5 -12.5t-6.5 -15.5q-143 -140 -346 -140q-187 0 -290.5 114t-75.5 321q30 207 165 320.5t322 113.5zM283 508h542q-12 95 -73 148t-168 53q-108 0 -186.5 -53.5t-114.5 -147.5z" />
<glyph unicode="&#xec;" horiz-adv-x="477" d="M371 797l-109 -774q-3 -23 -24 -23h-99q-23 0 -20 23l108 774q3 22 25 22h98q24 0 21 -22zM260 1360l285 -238q16 -16 0 -32l-39 -46q-6 -7 -15.5 -9t-15.5 3l-311 213q-15 9 -2 31l65 74q15 19 33 4z" />
<glyph unicode="&#xed;" horiz-adv-x="477" d="M371 797l-109 -774q-3 -23 -24 -23h-99q-23 0 -20 23l108 774q3 22 25 22h98q24 0 21 -22zM145 1122l355 238q18 15 28 -4l45 -74q4 -8 1 -17t-11 -14l-368 -213q-21 -12 -33 6l-27 46q-9 18 10 32z" />
<glyph unicode="&#xee;" horiz-adv-x="628" d="M449 797l-109 -774q-3 -23 -25 -23h-98q-23 0 -20 23l108 774q3 22 25 22h98q24 0 21 -22zM147 1122l285 191q22 15 37 0l229 -191q16 -16 0 -32l-39 -46q-15 -19 -32 -6l-197 129l-235 -129q-8 -6 -17 -4t-14 10l-27 46q-9 18 10 32z" />
<glyph unicode="&#xef;" horiz-adv-x="712" d="M133 1126q6 43 42.5 75t80.5 32q43 0 69.5 -32t20.5 -75q-6 -44 -43 -75t-80 -31q-44 0 -70 31t-20 75zM592 1126q6 43 42.5 75t80.5 32q43 0 69.5 -32t20.5 -75q-6 -44 -43 -75t-80 -31q-44 0 -70 31t-20 75zM496 797l-111 -774q0 -10 -7 -16.5t-18 -6.5h-98 q-20 0 -20 23l110 774q0 22 23 22h98q23 0 23 -22z" />
<glyph unicode="&#xf0;" horiz-adv-x="1095" d="M1073 1235l-160 -72q118 -378 56 -749q-36 -208 -172.5 -323.5t-323.5 -115.5q-181 0 -286.5 123.5t-80.5 311.5q30 207 165.5 320.5t322.5 113.5q30 0 69.5 -7.5t93.5 -33.5t87 -66q3 179 -58 371l-178 -80q-25 -9 -28 10l-17 49q-7 23 15 31l180 80q-21 66 -70 174 q-6 18 12 33l76 39q27 10 33 -6q5 -12 32.5 -80t41.5 -105l157 70q24 9 29 -10l18 -47q6 -21 -14 -31zM492 111q133 0 218.5 80.5t104.5 218.5q20 138 -43 218.5t-197 80.5q-133 0 -218.5 -80.5t-106.5 -218.5q-19 -138 44.5 -218.5t197.5 -80.5z" />
<glyph unicode="&#xf1;" horiz-adv-x="1040" d="M731 23l57 411q12 78 -3.5 134.5t-51 85.5t-75.5 42t-85 13t-88 -13t-86 -42t-74.5 -85.5t-43.5 -134.5l-58 -411q0 -23 -24 -23h-99q-20 0 -20 23l57 411q27 194 152.5 302t302.5 108t272 -108t68 -302l-58 -411q0 -23 -24 -23h-98q-21 0 -21 23zM735 1024 q-44 0 -79 15.5t-53.5 34.5t-40.5 34.5t-42 15.5q-67 0 -94 -75q-10 -23 -29 -23h-59q-22 0 -19 23q23 92 80.5 143t139.5 51q35 0 60 -10.5t39 -25.5t27.5 -30t34 -25.5t48.5 -10.5q38 0 62.5 23.5t33.5 54.5q6 22 28 22h58q22 0 16 -22q-20 -93 -75 -144t-136 -51z" />
<glyph unicode="&#xf2;" d="M596 844q187 0 291 -113.5t76 -320.5q-19 -138 -89.5 -238t-172.5 -148.5t-224 -48.5q-187 0 -290.5 114t-75.5 321q19 138 89.5 238t172 148t223.5 48zM494 111q133 0 218.5 80.5t106.5 218.5q20 138 -42.5 218.5t-196.5 80.5q-133 0 -219.5 -80.5t-106.5 -218.5 t43 -218.5t197 -80.5zM549 1360l287 -238q13 -16 0 -32l-41 -46q-4 -7 -14 -9t-17 3l-311 213q-15 9 -2 31l67 74q13 19 31 4z" />
<glyph unicode="&#xf3;" d="M596 844q187 0 291 -113.5t76 -320.5q-19 -138 -89.5 -238t-172.5 -148.5t-224 -48.5q-187 0 -290.5 114t-75.5 321q19 138 89.5 238t172 148t223.5 48zM494 111q133 0 218.5 80.5t106.5 218.5q20 138 -42.5 218.5t-196.5 80.5q-133 0 -219.5 -80.5t-106.5 -218.5 t43 -218.5t197 -80.5zM436 1122l352 238q18 15 31 -4l43 -74q4 -8 1 -17t-11 -14l-369 -213q-7 -5 -16.5 -3t-13.5 9l-25 46q-15 18 8 32z" />
<glyph unicode="&#xf4;" d="M598 844q91 0 164 -28t123.5 -81.5t71.5 -137t6 -187.5q-27 -206 -162.5 -320.5t-323.5 -114.5q-187 0 -290 114t-76 321q30 207 165 320.5t322 113.5zM496 111q133 0 218.5 80.5t104.5 218.5q22 138 -40.5 218.5t-196.5 80.5q-133 0 -219.5 -80.5t-108.5 -218.5 q-19 -138 44.5 -218.5t197.5 -80.5zM362 1122l283 191q25 15 37 0l231 -191q13 -16 0 -32l-41 -46q-5 -8 -13.5 -10t-16.5 4l-199 129l-233 -129q-8 -6 -17.5 -4t-15.5 10l-25 46q-12 18 10 32z" />
<glyph unicode="&#xf5;" d="M602 844q187 0 290 -113.5t75 -320.5q-19 -138 -89.5 -238t-172.5 -148.5t-224 -48.5q-187 0 -290.5 114t-75.5 321q19 138 90 238t173 148t224 48zM498 111q133 0 218.5 80.5t106.5 218.5q20 138 -42.5 218.5t-196.5 80.5q-133 0 -219.5 -80.5t-106.5 -218.5t43 -218.5 t197 -80.5zM745 1024q-44 0 -79.5 15.5t-54 34.5t-41 34.5t-42.5 15.5q-63 0 -94 -75q-10 -23 -26 -23h-60q-23 0 -20 23q25 93 81.5 143.5t137.5 50.5q35 0 60 -10.5t39.5 -25.5t28 -30t34.5 -25.5t49 -10.5q38 0 61.5 23.5t32.5 54.5q9 22 29 22h57q25 0 16 -22 q-20 -93 -74 -144t-135 -51z" />
<glyph unicode="&#xf6;" d="M602 844q91 0 164 -28t123.5 -81.5t71.5 -137t6 -187.5q-19 -138 -89.5 -238t-172.5 -148.5t-224 -48.5q-187 0 -290.5 114t-75.5 321q30 207 165 320.5t322 113.5zM500 111q133 0 218.5 80.5t104.5 218.5q20 138 -42.5 218.5t-196.5 80.5q-133 0 -219.5 -80.5 t-106.5 -218.5q-19 -138 44.5 -218.5t197.5 -80.5zM305 1126q6 43 42.5 75t80.5 32q43 0 69.5 -32t20.5 -75q-6 -44 -42 -75t-79 -31q-44 0 -71 31t-21 75zM764 1126q6 43 42.5 75t80.5 32q43 0 69.5 -32t20.5 -75q-6 -44 -42 -75t-79 -31q-44 0 -71 31t-21 75z" />
<glyph unicode="&#xf7;" horiz-adv-x="903" d="M319 106q6 49 45 83t89 34q47 0 76.5 -34t23.5 -83q-6 -47 -46 -81.5t-87 -34.5q-49 0 -78 34t-23 82zM406 715q6 49 44.5 82.5t88.5 33.5q48 0 77 -33.5t23 -82.5q-6 -47 -46 -82t-87 -35q-49 0 -77.5 34.5t-22.5 82.5zM758 354h-572q-22 0 -22 23l12 63q0 23 23 23h571 q23 0 23 -23l-13 -63q0 -23 -22 -23z" />
<glyph unicode="&#xf8;" d="M614 844q144 0 232 -64l82 84q16 16 30 2l41 -37q13 -17 0 -30l-81 -84q90 -117 61 -305q-27 -207 -161.5 -321t-321.5 -114q-147 0 -238 66l-82 -84q-16 -16 -33 -2l-41 37q-12 17 2 31l82 83q-82 118 -59 304q30 207 165 320.5t322 113.5zM512 111q134 0 219.5 80.5 t104.5 218.5q18 118 -27 194l-447 -457q56 -36 150 -36zM270 410q-12 -123 27 -191l444 455q-62 35 -143 35q-133 0 -219.5 -80.5t-108.5 -218.5z" />
<glyph unicode="&#xf9;" horiz-adv-x="1040" d="M780 385l58 412q0 22 22 22h98q23 0 23 -22l-57 -412q-27 -194 -152.5 -302t-302.5 -108t-272 108t-68 302l57 412q0 22 23 22h98q23 0 23 -22l-58 -412q-12 -78 3.5 -134.5t50.5 -85.5t74.5 -41.5t84.5 -12.5t88 12.5t87 41.5t76 85.5t44 134.5zM541 1360l286 -238 q13 -16 0 -32l-41 -46q-4 -7 -13.5 -9t-16.5 3l-312 213q-15 9 -2 31l68 74q13 19 31 4z" />
<glyph unicode="&#xfa;" horiz-adv-x="1040" d="M330 797l-58 -412q-12 -78 3.5 -134.5t50.5 -85.5t74.5 -41.5t84.5 -12.5t88 12.5t87 41.5t76 85.5t44 134.5l58 412q0 22 22 22h98q23 0 23 -22l-57 -412q-27 -194 -152.5 -302t-302.5 -108t-272 108t-68 302l57 412q0 22 23 22h98q23 0 23 -22zM430 1122l352 238 q18 15 31 -4l43 -74q4 -8 1 -17t-11 -14l-369 -213q-7 -5 -17 -3t-14 9l-24 46q-15 18 8 32z" />
<glyph unicode="&#xfb;" horiz-adv-x="1040" d="M780 385l60 412q0 22 22 22h99q22 0 22 -22l-59 -412q-27 -194 -152.5 -302t-302.5 -108t-272 108t-68 302l59 412q0 22 23 22h98q23 0 23 -22l-60 -412q-11 -65 0 -112.5t31 -78.5t52.5 -49.5t64.5 -26t67 -7.5t69.5 7t71.5 26.5t67 49t53 79t32 112.5zM354 1122 l283 191q25 15 37 0l231 -191q13 -16 0 -32l-41 -46q-5 -8 -13.5 -10t-16.5 4l-199 129l-234 -129q-17 -13 -32 6l-25 46q-12 18 10 32z" />
<glyph unicode="&#xfc;" horiz-adv-x="1040" d="M297 1126q6 43 42.5 75t80.5 32q43 0 69.5 -32t20.5 -75q-6 -44 -42 -75t-79 -31q-44 0 -71 31t-21 75zM756 1126q6 43 42.5 75t80.5 32q43 0 69.5 -32t20.5 -75q-6 -44 -42 -75t-79 -31q-44 0 -71 31t-21 75zM784 385l58 412q3 22 24 22h99q23 0 20 -22l-57 -412 q-27 -194 -152.5 -302t-302.5 -108t-272 108t-68 302l57 412q3 22 25 22h98q24 0 21 -22l-58 -412q-9 -63 0.5 -112.5t30.5 -79t53 -49t64.5 -26.5t67.5 -7t69.5 7t71.5 26.5t66.5 49t52.5 79t32 112.5z" />
<glyph unicode="&#xfd;" horiz-adv-x="1005" d="M178 -602l-90 33q-17 7 -8 28l317 541l-243 799q-4 7 1 13.5t13 6.5h111q24 0 30 -20l189 -629l366 629q6 20 31 20h111q8 0 12 -6.5t0 -13.5l-811 -1389q-10 -23 -29 -12zM463 1122l352 238q18 15 31 -4l43 -74q4 -8 1 -17t-11 -14l-369 -213q-18 -12 -33 6l-24 46 q-12 18 10 32z" />
<glyph unicode="&#xfe;" horiz-adv-x="1097" d="M662 844q187 5 288 -111t72 -323l-2 -2q-27 -206 -160.5 -322t-316.5 -111q-83 2 -156.5 37.5t-114.5 104.5l-100 -709q0 -22 -22 -22h-99q-22 0 -22 22l282 2003q0 23 23 23h98q23 0 23 -23l-103 -709q63 69 145.5 104.5t164.5 37.5zM877 408l2 2q20 141 -42.5 220 t-197.5 79q-132 0 -216.5 -78.5t-109.5 -220.5q-15 -142 46.5 -220.5t193.5 -78.5q135 0 219.5 78t104.5 219z" />
<glyph unicode="&#xff;" horiz-adv-x="1005" d="M313 1126q6 43 42.5 75t80.5 32q43 0 69.5 -32t20.5 -75q-6 -44 -41.5 -75t-78.5 -31q-44 0 -71.5 31t-21.5 75zM772 1126q6 43 42.5 75t80.5 32q43 0 69.5 -32t20.5 -75q-6 -44 -42 -75t-79 -31q-44 0 -71 31t-21 75zM182 -602l-90 33q-16 8 -8 28l319 541l-245 799 q-4 7 2 13.5t14 6.5h111q25 0 28 -20l191 -629l364 629q9 20 33 20h111q8 0 11 -6.5t-1 -13.5l-809 -1389q-13 -23 -31 -12z" />
<glyph unicode="&#x152;" horiz-adv-x="2459" d="M2255 768l-14 -102q-3 -23 -27 -23h-604l-68 -496h742q21 0 18 -22l-14 -102q-3 -23 -25 -23h-874q-24 0 -21 23l31 215q-118 -128 -274 -197.5t-332 -69.5q-124 0 -229.5 30.5t-187.5 90.5t-135 149.5t-72 208t1 265.5q34 238 154 409t293 254.5t382 83.5 q177 0 315.5 -70t217.5 -200l31 219q3 23 24 23h875q23 0 20 -23l-14 -102q-3 -23 -27 -23h-741l-70 -495h604q24 0 21 -23zM813 119q262 0 432.5 149t214.5 418l8 55q31 270 -98 422t-391 152q-270 0 -441.5 -158.5t-211.5 -441.5q-38 -283 89.5 -439.5t397.5 -156.5z" />
<glyph unicode="&#x153;" horiz-adv-x="1765" d="M1491 209l63 -59q14 -17 -2 -33q-142 -142 -348 -142q-242 0 -330 172q-68 -85 -165.5 -128.5t-212.5 -43.5q-187 0 -291 114t-76 321q19 138 89.5 238t172 148t223.5 48q115 0 201 -43.5t129 -128.5q138 172 379 172q187 0 291.5 -113t77.5 -317q-7 -23 -27 -23h-686 q-14 -130 49.5 -205t192.5 -75q69 0 134 25.5t105 68.5q6 8 15.5 9t15.5 -5zM512 111q132 0 216.5 78.5t109.5 220.5q15 142 -46.5 220.5t-193.5 78.5q-133 0 -219.5 -80.5t-106.5 -218.5t43 -218.5t197 -80.5zM1307 709q-108 0 -186.5 -53.5t-114.5 -147.5h542 q-12 95 -73 148t-168 53z" />
<glyph unicode="&#x178;" horiz-adv-x="1433" d="M575 23l78 550l-428 842q-3 6 1.5 12.5t11.5 6.5h139q20 0 33 -19l342 -684l534 684q19 19 37 19h139q8 0 11 -6.5t-3 -12.5l-661 -842l-78 -550q-3 -23 -24 -23h-111q-24 0 -21 23zM557 1741q6 43 42.5 74.5t80.5 31.5q43 0 69.5 -31.5t20.5 -74.5q-6 -44 -42 -75.5 t-79 -31.5q-44 0 -71 31.5t-21 75.5zM1016 1741q6 43 42.5 74.5t80.5 31.5q43 0 69.5 -31.5t20.5 -74.5q-6 -44 -42 -75.5t-79 -31.5q-44 0 -71 31.5t-21 75.5z" />
<glyph unicode="&#x2c6;" horiz-adv-x="587" d="M92 1122l283 191q22 15 37 0l231 -191q13 -16 0 -32l-41 -46q-5 -8 -14 -10t-17 4l-198 129l-234 -129q-8 -6 -17.5 -4t-15.5 10l-24 46q-12 18 10 32z" />
<glyph unicode="&#x2dc;" horiz-adv-x="606" d="M483 1024q-44 0 -79.5 15.5t-54 34.5t-41 34.5t-42.5 15.5q-65 0 -92 -75q-13 -23 -29 -23h-59q-11 0 -16 6.5t-2 16.5q23 93 79.5 143.5t137.5 50.5q35 0 60 -10.5t39.5 -25.5t28 -30t34.5 -25.5t49 -10.5q38 0 61.5 23.5t32.5 54.5q9 22 28 22h58q25 0 16 -22 q-20 -93 -74 -144t-135 -51z" />
<glyph unicode="&#x2000;" horiz-adv-x="1014" />
<glyph unicode="&#x2001;" horiz-adv-x="2028" />
<glyph unicode="&#x2002;" horiz-adv-x="1014" />
<glyph unicode="&#x2003;" horiz-adv-x="2028" />
<glyph unicode="&#x2004;" horiz-adv-x="676" />
<glyph unicode="&#x2005;" horiz-adv-x="507" />
<glyph unicode="&#x2006;" horiz-adv-x="338" />
<glyph unicode="&#x2007;" horiz-adv-x="338" />
<glyph unicode="&#x2008;" horiz-adv-x="253" />
<glyph unicode="&#x2009;" horiz-adv-x="405" />
<glyph unicode="&#x200a;" horiz-adv-x="112" />
<glyph unicode="&#x2010;" horiz-adv-x="903" d="M758 354h-572q-22 0 -22 23l12 63q0 23 23 23h571q23 0 23 -23l-13 -63q0 -23 -22 -23z" />
<glyph unicode="&#x2011;" horiz-adv-x="903" d="M758 354h-572q-22 0 -22 23l12 63q0 23 23 23h571q23 0 23 -23l-13 -63q0 -23 -22 -23z" />
<glyph unicode="&#x2012;" horiz-adv-x="903" d="M758 354h-572q-22 0 -22 23l12 63q0 23 23 23h571q23 0 23 -23l-13 -63q0 -23 -22 -23z" />
<glyph unicode="&#x2013;" horiz-adv-x="991" d="M846 354h-660q-22 0 -22 23l12 63q0 23 23 23h659q23 0 23 -23l-13 -63q0 -23 -22 -23z" />
<glyph unicode="&#x2014;" horiz-adv-x="1126" d="M981 354h-795q-22 0 -22 23l12 63q0 23 23 23h794q23 0 23 -23l-12 -63q0 -23 -23 -23z" />
<glyph unicode="&#x2018;" horiz-adv-x="389" d="M215 1092l121 319q10 23 31 23h12q23 0 20 -23l-61 -444q-7 -23 -27 -23h-98q-11 0 -16 6.5t-2 16.5l10 80q3 20 10 45z" />
<glyph unicode="&#x2019;" horiz-adv-x="389" d="M334 1286l-119 -319q-10 -23 -31 -23h-12q-11 0 -16 6.5t-2 16.5l61 444q3 23 25 23h98q23 0 20 -23l-12 -80q-3 -24 -12 -45z" />
<glyph unicode="&#x201a;" horiz-adv-x="485" d="M360 166l-141 -399q-10 -23 -31 -23h-57q-11 0 -15.5 6.5t-0.5 16.5l94 399q6 22 29 22h108q23 0 14 -22z" />
<glyph unicode="&#x201c;" horiz-adv-x="661" d="M215 1092l121 319q10 23 31 23h12q23 0 20 -23l-61 -444q-7 -23 -27 -23h-98q-11 0 -16 6.5t-2 16.5l10 80q3 20 10 45zM487 1092l121 319q10 23 31 23h12q24 0 21 -23l-62 -444q-7 -23 -26 -23h-99q-11 0 -16 6.5t-2 16.5l10 80q3 20 10 45z" />
<glyph unicode="&#x201d;" horiz-adv-x="661" d="M606 1286l-119 -319q-10 -23 -30 -23h-13q-11 0 -16 6.5t-2 16.5l61 444q3 23 25 23h98q24 0 21 -23l-13 -80q-3 -24 -12 -45zM334 1286l-119 -319q-10 -23 -31 -23h-12q-11 0 -16 6.5t-2 16.5l61 444q3 23 25 23h98q23 0 20 -23l-12 -80q-3 -24 -12 -45z" />
<glyph unicode="&#x201e;" horiz-adv-x="753" d="M360 166l-141 -399q-10 -23 -31 -23h-57q-11 0 -15.5 6.5t-0.5 16.5l94 399q6 22 29 22h108q23 0 14 -22zM629 166l-142 -399q-10 -23 -30 -23h-58q-11 0 -15.5 6.5t-0.5 16.5l94 399q6 22 29 22h108q24 0 15 -22z" />
<glyph unicode="&#x2022;" horiz-adv-x="561" d="M170 410q7 57 53 97t103 40t91.5 -40t26.5 -97t-53 -97.5t-102 -40.5t-92 40.5t-27 97.5z" />
<glyph unicode="&#x2026;" horiz-adv-x="1562" d="M150 102q6 50 44 83.5t87 33.5q48 0 78 -34t24 -83q-8 -47 -47 -81.5t-86 -34.5q-49 0 -78.5 34t-21.5 82zM670 102q6 50 44 83.5t87 33.5q48 0 78 -34t24 -83q-8 -47 -47 -81.5t-86 -34.5q-49 0 -78.5 34t-21.5 82zM1192 102q6 50 44 83.5t87 33.5q48 0 78 -34t24 -83 q-8 -47 -47 -81.5t-86 -34.5q-49 0 -78.5 34t-21.5 82z" />
<glyph unicode="&#x202f;" horiz-adv-x="405" />
<glyph unicode="&#x2039;" horiz-adv-x="755" d="M502 10l-338 379q-14 15 4 33l444 379q15 18 33 0l45 -51q6 -8 5 -17.5t-9 -15.5l-332 -311l246 -312q12 -12 -4 -33l-61 -51q-21 -18 -33 0z" />
<glyph unicode="&#x203a;" horiz-adv-x="755" d="M641 389l-444 -379q-21 -18 -33 0l-45 51q-17 17 2 33l334 312l-248 311q-13 13 6 33l61 51q15 18 33 0l338 -379q12 -17 -4 -33z" />
<glyph unicode="&#x205f;" horiz-adv-x="507" />
<glyph unicode="&#x20ac;" horiz-adv-x="1302" d="M102 805l11 76q3 22 24 22h137q76 288 231.5 423.5t364.5 135.5q351 0 426 -360q6 -15 -18 -29l-94 -29q-19 -8 -25 13q-52 270 -307 270q-318 0 -434 -424h405q24 0 21 -22l-10 -76q-7 -23 -27 -23h-416l-8 -65q-8 -50 -8 -72h413q22 0 19 -22l-10 -76q-3 -23 -27 -23 h-405q-3 -418 317 -418q247 0 369 250q12 21 30 13l84 -35q21 -9 9 -29q-171 -334 -510 -334q-208 0 -327.5 135t-115.5 418h-137q-21 0 -18 23l10 76q3 22 26 22h129q0 16 9 72l8 65h-127q-11 0 -16.5 6.5t-2.5 16.5z" />
<glyph unicode="&#x2122;" horiz-adv-x="1470" d="M1432 1434h55q23 0 20 -23l-88 -641q-6 -22 -26 -22h-54q-24 0 -18 22l70 500l-285 -320q-2 -2 -4 -2t-4 2l-187 320l-69 -500q-6 -22 -27 -22h-55q-25 0 -19 22l88 641q3 23 25 23h55q22 0 35 -19l182 -307l269 307q16 19 37 19zM225 1434h459q24 0 21 -23l-7 -53 q-7 -23 -26 -23h-178l-78 -565q-6 -22 -27 -22h-55q-25 0 -19 22l78 565h-180q-11 0 -16 6.5t-2 16.5l6 53q3 23 24 23z" />
<glyph unicode="&#x25fc;" horiz-adv-x="819" d="M0 819h819v-819h-819v819z" />
</font>
</defs>
</svg>
