<?xml version="1.0" standalone="no"?>
<!DOCTYPE svg PUBLIC "-//W3C//DTD SVG 1.1//EN" "http://www.w3.org/Graphics/SVG/1.1/DTD/svg11.dtd" >
<svg xmlns="http://www.w3.org/2000/svg">
<metadata></metadata>
<defs>
<font id="minimobold_oblique" horiz-adv-x="1064" >
<font-face units-per-em="2048" ascent="1536" descent="-512" />
<missing-glyph horiz-adv-x="614" />
<glyph unicode="&#xfb01;" horiz-adv-x="1386" d="M137 819h129l39 277q13 94 56.5 165.5t103.5 111t123 58.5t127 19q148 0 252 -70q23 -27 4 -51l-80 -119q-7 -12 -22 -15t-25 3q-53 33 -123 33q-57 0 -113 -36.5t-67 -113.5l-37 -262h237q13 0 23 -10.5t8 -24.5l-22 -159q-3 -14 -14.5 -24.5t-24.5 -10.5h-238l-78 -555 q-3 -14 -14.5 -24.5t-24.5 -10.5h-168q-14 0 -23.5 11t-6.5 24l78 555h-130q-14 0 -23.5 11t-6.5 24l22 159q1 13 13 24t26 11zM1300 819l-112 -819h-238l113 819h237zM1374 1171q-7 -60 -54.5 -101.5t-107.5 -41.5t-96.5 41.5t-28.5 101.5q7 60 55.5 102t108.5 42t95.5 -42 t27.5 -102z" />
<glyph unicode="&#xfb02;" horiz-adv-x="1378" d="M137 819h129l39 277q13 94 56.5 165.5t103.5 111t123 58.5t127 19q148 0 252 -70q23 -27 4 -51l-80 -119q-7 -12 -22 -15t-25 3q-53 33 -123 33q-57 0 -113 -36.5t-67 -113.5l-37 -262h237q13 0 23 -10.5t8 -24.5l-22 -159q-3 -14 -14.5 -24.5t-24.5 -10.5h-238l-78 -555 q-3 -14 -14.5 -24.5t-24.5 -10.5h-168q-14 0 -23.5 11t-6.5 24l78 555h-130q-14 0 -23.5 11t-6.5 24l22 159q1 13 13 24t26 11zM1378 1399l-190 -1364q-3 -14 -14.5 -24.5t-24.5 -10.5h-168q-14 0 -24 11t-7 24l191 1364q1 13 13 24t26 11h168q13 0 22.5 -10.5t7.5 -24.5z " />
<glyph horiz-adv-x="0" />
<glyph horiz-adv-x="682" />
<glyph unicode=" "  horiz-adv-x="614" />
<glyph unicode="&#x09;" horiz-adv-x="614" />
<glyph unicode="&#xa0;" horiz-adv-x="614" />
<glyph unicode="!" horiz-adv-x="577" d="M111 125q6 60 55 102.5t110 42.5q59 0 95 -42t30 -103q-9 -60 -57 -102.5t-108 -42.5t-97 42.5t-28 102.5zM348 1434h178q14 0 23.5 -11t5.5 -24l-149 -885q-3 -17 -14 -26t-25 -9h-123q-36 0 -33 35l98 885q3 14 14.5 24.5t24.5 10.5z" />
<glyph unicode="&#x22;" horiz-adv-x="808" d="M817 1399l-86 -473q-6 -35 -41 -35h-108q-33 0 -33 35l49 473q0 13 11.5 24t25.5 11h153q14 0 23 -11t6 -24zM436 1399l-86 -473q-6 -35 -41 -35h-108q-33 0 -33 35l49 473q0 13 11.5 24t25.5 11h154q14 0 22.5 -11t5.5 -24z" />
<glyph unicode="#" horiz-adv-x="1329" d="M1133 354h-193l-68 -319q-9 -35 -41 -35h-90q-14 0 -22.5 11t-5.5 24l67 319h-284l-68 -319q-9 -35 -41 -35h-90q-14 0 -23 11t-6 24l68 319h-180q-13 0 -23 10.5t-8 24.5l12 90q1 13 14 24t27 11h193l80 387h-181q-13 0 -22.5 10.5t-7.5 24.5l12 88q3 14 15.5 24.5 t25.5 10.5h190l72 340q6 35 41 35h90q13 0 22 -10.5t7 -24.5l-72 -340h285l71 340q6 35 41 35h90q13 0 22 -10.5t7 -24.5l-72 -340h181q14 0 22.5 -11t5.5 -24l-12 -88q-1 -13 -13 -24t-26 -11h-190l-80 -387h180q13 0 22 -10.5t7 -24.5l-13 -90q-2 -14 -13.5 -24.5 t-24.5 -10.5zM815 514l80 387h-285l-80 -387h285z" />
<glyph unicode="$" horiz-adv-x="1298" d="M864 1210l-55 -393q72 -22 116.5 -39t103 -52t89 -75t48 -105t5.5 -147q-24 -174 -158 -287.5t-321 -134.5l-20 -141q-3 -14 -14.5 -24.5t-24.5 -10.5h-129q-14 0 -24 11t-7 24l21 146q-157 21 -259 111t-112 237q0 37 33 45l163 43q12 4 23.5 -3.5t13.5 -21.5 q21 -134 170 -168l60 416q-87 25 -143.5 50t-114.5 69.5t-80.5 115t-9.5 166.5q13 92 55 165.5t105 123t138 80t162 43.5l25 162q1 13 13 24t26 11h129q13 0 23 -10.5t8 -24.5l-25 -158q160 -18 259 -103.5t116 -236.5q1 -13 -8.5 -25.5t-24.5 -17.5l-162 -45q-32 -8 -43 23 q-34 124 -170 157zM618 877l48 329q-74 -19 -123 -59.5t-58 -102.5q-8 -61 26.5 -99.5t106.5 -67.5zM776 582l-51 -359q85 19 135.5 71.5t57.5 104.5q11 67 -26.5 108.5t-115.5 74.5z" />
<glyph unicode="%" horiz-adv-x="1841" d="M1733 334q-24 -169 -133 -260.5t-261 -91.5t-235.5 91.5t-59.5 260.5t133 260.5t261 91.5t235.5 -91.5t59.5 -260.5zM1524 334q11 74 -25.5 111.5t-87.5 37.5q-52 0 -99.5 -37t-58.5 -112q-10 -75 26.5 -112.5t88.5 -37.5q51 0 98.5 38t57.5 112zM893 1100 q-24 -169 -132.5 -260.5t-260.5 -91.5t-235.5 91.5t-59.5 260.5t132.5 260.5t260.5 91.5t235.5 -91.5t59.5 -260.5zM684 1100q10 74 -27 111.5t-88 37.5q-52 0 -98.5 -37t-56.5 -112q-11 -75 24.5 -112.5t87.5 -37.5q51 0 99 38t59 112zM1395 1434h174q12 0 16 -10t-4 -21 l-983 -1372q-22 -31 -55 -31h-174q-12 0 -16.5 10t1.5 21l983 1372q28 31 58 31z" />
<glyph unicode="&#x26;" horiz-adv-x="1556" d="M1212 322l185 -203q17 -24 -8 -49l-132 -115q-31 -25 -49 0l-155 176q-185 -157 -439 -160q-104 0 -191.5 30t-149 84.5t-89.5 138t-14 184.5q23 189 219 317l100 63q-70 103 -89.5 187.5t-6.5 167.5q15 132 131 225.5t279 93.5q83 0 147 -28.5t100.5 -76.5t50 -108.5 t1.5 -126.5q-21 -116 -94.5 -198.5t-190.5 -155.5l227 -256q33 100 37 147q3 14 14.5 24.5t24.5 10.5h176q15 0 24.5 -9.5t6.5 -25.5q-22 -183 -115 -337zM764 1225q-71 0 -107 -54q-21 -25 -24 -51q-14 -86 61 -202q136 104 158 204q0 12 -2 23t-9 32.5t-27 34.5t-50 13z M627 207q164 0 276 94l-297 338q-83 -56 -131 -114t-55 -132q-3 -26 4.5 -55.5t28.5 -60t66 -50.5t108 -20z" />
<glyph unicode="'" horiz-adv-x="428" d="M254 1434h154q14 0 22.5 -11t5.5 -24l-86 -473q-6 -35 -41 -35h-108q-33 0 -33 35l49 473q0 13 11.5 24t25.5 11z" />
<glyph unicode="(" horiz-adv-x="786" d="M461 668q-41 -293 8.5 -525.5t187.5 -390.5q21 -21 -8 -47l-127 -98q-28 -21 -51 2q-167 185 -237.5 454t-24.5 605q46 334 192.5 603t366.5 455q27 23 53 3l97 -99q22 -22 -3 -47q-370 -320 -454 -915z" />
<glyph unicode=")" horiz-adv-x="786" d="M403 1726q167 -185 239 -454t26 -604q-46 -334 -194 -603.5t-368 -455.5q-11 -11 -25.5 -11.5t-25.5 9.5l-96 98q-20 23 4 47q180 160 296 392.5t157 523.5t-10 523t-187 392q-21 21 6 47l129 99q11 10 25.5 9t23.5 -12z" />
<glyph unicode="*" horiz-adv-x="925" d="M881 1167l-185 -110l156 -109q11 -8 11.5 -22.5t-9.5 -26.5l-43 -59q-7 -13 -22.5 -18t-24.5 3l-166 90l-39 -198q-9 -35 -41 -35h-69q-36 0 -33 35l18 198l-190 -90q-15 -7 -29 -3t-20 18l-27 59q-3 13 2 27.5t18 21.5l183 109l-154 110q-24 17 -4 50l43 59 q10 12 25.5 16t25.5 -2l164 -92l39 201q12 35 41 35h70q14 0 23.5 -11t8.5 -24l-18 -201l192 92q13 6 27.5 2t17.5 -16l27 -59q13 -34 -18 -50z" />
<glyph unicode="+" horiz-adv-x="999" d="M633 500h229q13 0 22 -10.5t7 -24.5l-14 -113q-3 -14 -15.5 -24.5t-25.5 -10.5h-230l-31 -229q-3 -14 -15 -24.5t-25 -10.5h-113q-14 0 -23 11t-6 24l31 229h-231q-14 0 -23 11t-6 24l14 113q1 13 14 24t27 11h232l28 219q3 14 14.5 24.5t24.5 10.5h113q14 0 24 -11 t7 -24z" />
<glyph unicode="," horiz-adv-x="563" d="M438 154l-147 -416q-9 -35 -47 -35h-107q-13 0 -20 10.5t-4 24.5l96 416q6 34 43 34h162q13 0 19.5 -10t4.5 -24z" />
<glyph unicode="-" horiz-adv-x="956" d="M791 317h-601q-13 0 -21 10.5t-5 24.5l12 113q3 13 16 24t27 11h600q13 0 21.5 -10.5t5.5 -24.5l-12 -113q-3 -13 -16 -24t-27 -11z" />
<glyph unicode="." horiz-adv-x="577" d="M152 125q6 60 54.5 102.5t108.5 42.5t96.5 -42.5t30.5 -102.5q-9 -60 -57.5 -102.5t-108.5 -42.5t-96.5 42.5t-27.5 102.5z" />
<glyph unicode="/" horiz-adv-x="901" d="M170 0h-170q-11 0 -16.5 10.5t0.5 22.5l798 1470q11 33 52 33h172q12 0 17.5 -10.5t0.5 -22.5l-803 -1470q-14 -33 -51 -33z" />
<glyph unicode="0" horiz-adv-x="1314" d="M809 1462q92 0 167.5 -26t136 -81.5t95 -143t46 -210.5t-12.5 -284q-28 -196 -89 -342.5t-147 -233t-186.5 -128.5t-216.5 -42q-92 0 -167.5 26t-136 82t-95 143.5t-45 210.5t13.5 284q22 157 66 283t103.5 211.5t135 142.5t158 82.5t174.5 25.5zM635 209q286 0 360 508 q69 508 -219 508q-289 0 -358 -508q-74 -508 217 -508z" />
<glyph unicode="1" horiz-adv-x="784" d="M784 1399l-190 -1364q-1 -13 -13 -24t-26 -11h-176q-13 0 -23 10.5t-8 24.5l152 1087l-203 -129q-26 -20 -49 6l-64 101q-15 26 11 49l319 260q28 25 64 25h176q13 0 22.5 -10.5t7.5 -24.5z" />
<glyph unicode="2" horiz-adv-x="1157" d="M432 238h569q13 0 21.5 -10.5t5.5 -24.5l-20 -168q-3 -14 -14.5 -24.5t-24.5 -10.5h-850q-14 0 -24 11t-7 24l25 176q3 36 32 59l562 480q164 138 188 276v50t-13 55t-32 50.5t-57 37t-88 14.5q-110 0 -183.5 -50t-99.5 -143q-5 -14 -16.5 -22.5t-24.5 -7.5l-152 20 q-37 3 -28 39q52 188 194 290.5t338 102.5q208 0 319 -109t81 -309q-5 -45 -18.5 -87.5t-44.5 -101t-91.5 -128.5t-147.5 -145z" />
<glyph unicode="3" horiz-adv-x="1234" d="M958 795q89 -52 134 -147.5t28 -221.5q-24 -146 -107 -250.5t-201.5 -154.5t-260.5 -50q-196 0 -321 98t-128 277q3 35 37 41l164 27q13 4 23.5 -5t13.5 -24q5 -78 67.5 -133t174.5 -55q126 0 207 69.5t94 159.5q21 112 -38.5 180t-195.5 72h-80q-13 0 -22.5 10.5 t-7.5 24.5l20 141q1 13 13 24t26 11h80q108 4 163 58t60 126q4 37 -8.5 71t-55 60.5t-110.5 26.5q-132 0 -199 -111q-11 -31 -49 -28l-166 22q-32 3 -26 39q49 150 177.5 229.5t293.5 79.5q189 0 296 -99t85 -290q-28 -185 -181 -278z" />
<glyph unicode="4" horiz-adv-x="1114" d="M102 547l547 858q22 31 58 31h198q12 0 16.5 -10t-3.5 -21l-570 -897h303l27 194q3 14 15.5 24.5t25.5 10.5h168q14 0 22.5 -11t5.5 -24l-26 -194h147q13 0 23 -10.5t8 -24.5l-25 -168q-2 -14 -13.5 -24.5t-24.5 -10.5h-148l-33 -235q-1 -13 -13 -24t-26 -11h-168 q-13 0 -22.5 10.5t-7.5 24.5l32 235h-536q-13 0 -23 10.5t-8 24.5l25 176q6 33 26 66z" />
<glyph unicode="5" horiz-adv-x="1216" d="M856 436q19 95 -32 169.5t-167 74.5q-124 0 -206 -47q-33 -17 -62 -8l-106 30q-29 8 -29 45l98 699q3 14 14.5 24.5t24.5 10.5h750q14 0 23.5 -11t6.5 -24l-20 -168q-3 -13 -16 -24t-27 -11h-547l-45 -340q79 35 195 35q91 0 168 -29t133.5 -84t81 -143.5t8.5 -198.5 q-28 -197 -184 -331t-361 -134q-198 0 -316.5 103.5t-115.5 290.5q3 32 37 41l147 30q35 3 35 -28q2 -92 64 -148.5t182 -50.5q64 2 115.5 26.5t81.5 61t46.5 71.5t22.5 68z" />
<glyph unicode="6" horiz-adv-x="1216" d="M684 881q217 0 330 -117.5t86 -337.5q-31 -195 -183 -325t-360 -130q-212 0 -330.5 129.5t-93.5 337.5q17 116 78.5 255.5t149.5 273.5t186.5 256t200.5 225q13 11 27.5 13.5t25.5 -7.5l119 -90q25 -25 0 -47q-147 -154 -219.5 -245t-151.5 -216q19 10 62.5 17.5 t72.5 7.5zM590 207q64 0 116 24t82 60.5t46.5 71t19.5 63.5q6 38 -0.5 75.5t-27 73t-65.5 58t-110 22.5t-117.5 -22t-84 -57t-50 -73t-24.5 -77q-3 -27 1 -55.5t18.5 -58.5t38 -53t64.5 -37.5t93 -14.5z" />
<glyph unicode="7" horiz-adv-x="1048" d="M244 1434h856q13 0 22.5 -10.5t7.5 -24.5l-24 -176q-5 -27 -25 -66l-721 -1126q-22 -31 -55 -31h-196q-12 0 -17 10t2 21l740 1165h-623q-14 0 -23 11t-6 24l23 168q1 13 13 24t26 11z" />
<glyph unicode="8" horiz-adv-x="1257" d="M573 -29q-142 0 -247 50t-159 154.5t-36 250.5q20 127 90.5 222.5t173.5 146.5q-125 93 -102 278q31 191 165 290t322 99q189 0 296 -99t85 -290q-28 -185 -180 -278q89 -52 134 -147.5t28 -221.5q-24 -146 -107.5 -250.5t-202 -154.5t-260.5 -50zM604 201 q127 0 207.5 67t93.5 158q21 113 -37.5 181.5t-195.5 72.5q-137 -4 -214.5 -72.5t-88.5 -181.5q-13 -91 47.5 -158t187.5 -67zM700 885q106 4 162.5 60t61.5 128q7 60 -34.5 110t-139.5 50q-99 0 -156 -50.5t-64 -109.5q-10 -46 1 -85.5t53.5 -69.5t115.5 -33z" />
<glyph unicode="9" horiz-adv-x="1216" d="M756 1460q212 0 330 -129.5t92 -337.5q-21 -153 -121 -345.5t-226 -357.5t-266 -306q-32 -28 -53 -7l-119 91q-12 7 -12.5 22t10.5 25q143 146 217 238t156 222q-19 -10 -62.5 -17t-72.5 -7q-217 0 -330 117.5t-86 337.5q31 195 183 324.5t360 129.5zM662 776 q65 0 117 21.5t84 56.5t50.5 73.5t24.5 78.5q3 27 -1 55.5t-18.5 58.5t-38 53t-64.5 37.5t-93 14.5q-64 0 -116 -24t-82 -60.5t-46.5 -71t-19.5 -63.5q-6 -38 0.5 -75.5t27 -73.5t65.5 -58.5t110 -22.5z" />
<glyph unicode=":" horiz-adv-x="577" d="M131 125q7 60 56.5 102.5t109.5 42.5t96.5 -42.5t28.5 -102.5q-9 -60 -57.5 -102.5t-108.5 -42.5t-97 42.5t-28 102.5zM209 694q9 60 57.5 103t108.5 43t97 -43t28 -103t-57.5 -102.5t-108.5 -42.5t-97 42.5t-28 102.5z" />
<glyph unicode=";" horiz-adv-x="600" d="M242 694q9 60 57.5 103t108.5 43t96.5 -43t27.5 -103t-57 -102.5t-108 -42.5t-97 42.5t-28 102.5zM414 154l-146 -416q-9 -35 -47 -35h-106q-13 0 -20.5 10.5t-4.5 24.5l94 416q9 34 45 34h162q13 0 19.5 -10t3.5 -24z" />
<glyph unicode="&#x3c;" horiz-adv-x="817" d="M715 580l-254 -168l209 -168q25 -22 20 -56l-24 -172q0 -10 -11 -15t-18 1l-471 367q-20 15 -14 43q0 26 26 41l572 368q12 6 20 1.5t6 -15.5l-24 -172q-6 -39 -37 -55z" />
<glyph unicode="=" horiz-adv-x="999" d="M862 524h-643q-13 0 -21 10.5t-5 24.5l12 113q3 13 16 24t27 11h643q13 0 21.5 -10.5t5.5 -24.5l-13 -113q-3 -13 -16 -24t-27 -11zM805 113h-643q-14 0 -22 10.5t-5 23.5l12 113q3 13 16 24t27 11h644q13 0 21 -10.5t5 -24.5l-12 -113q-3 -13 -16 -23.5t-27 -10.5z" />
<glyph unicode="&#x3e;" horiz-adv-x="817" d="M414 412l-213 168q-26 22 -21 55l25 172q2 11 12 15.5t19 -1.5l469 -368q18 -10 18 -41q-6 -25 -31 -43l-569 -367q-13 -6 -21 -1.5t-8 15.5l25 172q6 40 37 56z" />
<glyph unicode="?" horiz-adv-x="1175" d="M350 127q9 60 57.5 102.5t108.5 42.5t97 -42.5t28 -102.5t-57.5 -102.5t-108.5 -42.5t-97 42.5t-28 102.5zM426 465l29 205q3 36 39 45q104 32 182.5 76t117 80t63.5 79t30 61t8 40q4 10 1 27t-6 36.5t-17 39t-33 35.5t-52.5 26t-76.5 10q-109 0 -173.5 -56.5 t-84.5 -134.5q-15 -33 -43 -30l-160 24q-18 2 -25.5 12t-1.5 27q44 179 186 287t334 108q208 0 321 -106t81 -309q-5 -36 -18.5 -76.5t-47.5 -99t-83 -109.5t-133 -103t-189 -86l-15 -108q-2 -14 -13.5 -24.5t-24.5 -10.5h-164q-13 0 -23 10.5t-8 24.5z" />
<glyph unicode="@" horiz-adv-x="2179" d="M811 -322l-84 -127q-20 -29 -53 -20q-136 50 -241.5 136.5t-178 206t-99.5 279t-1 343.5q32 222 132 408.5t247 313t334.5 197t392.5 70.5q203 0 371 -71t279.5 -198.5t160 -313.5t16.5 -406q-22 -161 -92 -297t-181 -221.5t-239 -88.5q-147 -5 -231 79.5t-62 242.5 q-42 -47 -110 -73.5t-125 -26.5q-166 0 -255.5 107.5t-66.5 277.5q24 171 152 278t294 107q82 0 149 -25t114.5 -73.5t67.5 -125t7 -172.5l-36 -258q-9 -72 20.5 -110t89.5 -33q53 3 96.5 34t71.5 74.5t49.5 101t32 105.5t16.5 97q17 107 8.5 205t-35.5 182t-80.5 153 t-126 117.5t-171.5 75t-217 26.5q-145 0 -273 -44.5t-221 -119t-164.5 -173.5t-113.5 -205t-60 -217q-44 -290 62 -487.5t344 -289.5q11 -5 14 -17t-4 -24zM1096 344q64 0 111 43.5t59 108.5q6 44 -4 76t-32 47t-44 21.5t-47 6.5q-57 0 -108 -39.5t-62 -111.5 q-6 -42 4.5 -73t31.5 -47.5t44 -24t47 -7.5z" />
<glyph unicode="A" horiz-adv-x="1658" d="M49 33l772 1368q17 33 53 33h205q39 0 45 -33l392 -1368q3 -12 -5 -22.5t-20 -10.5h-207q-39 0 -45 33l-72 254h-700l-141 -254q-17 -33 -54 -33h-206q-12 0 -18 10.5t1 22.5zM934 1118l-330 -586h494z" />
<glyph unicode="B" horiz-adv-x="1341" d="M756 0h-609q-13 0 -22.5 10.5t-7.5 24.5l190 1364q1 13 13 24t26 11h608q181 0 280 -107t75 -313q-15 -97 -61.5 -174.5t-114.5 -122.5q53 -45 79 -122t13 -175q-33 -206 -160.5 -313t-308.5 -107zM483 840h391q74 0 123 47.5t60 126.5q10 81 -26.5 127.5t-106.5 46.5 h-392zM846 594h-397l-50 -348h392q70 0 121 47t61 127q11 76 -22.5 123t-104.5 51z" />
<glyph unicode="C" horiz-adv-x="1609" d="M1325 465l154 -80q11 -6 14 -19.5t-4 -25.5q-119 -182 -297.5 -275.5t-398.5 -93.5q-156 0 -281 48t-210 139.5t-120.5 235t-9.5 323.5q25 180 99.5 323t185 234.5t248.5 139.5t294 48q220 0 373 -92t219 -274q6 -12 0 -25.5t-20 -21.5l-174 -80q-14 -7 -26 -2.5 t-17 16.5q-23 63 -66 110t-97 73t-110 38.5t-114 12.5q-66 0 -130.5 -14t-133 -50t-123.5 -90.5t-97 -143.5t-57 -202q-16 -113 1 -202t56 -143.5t97.5 -90.5t118.5 -50t126 -14q126 0 250.5 56t202.5 176q8 14 22 18.5t25 -2.5z" />
<glyph unicode="D" horiz-adv-x="1529" d="M346 1434h512q150 0 269.5 -46t202 -133.5t116.5 -225.5t10 -312q-25 -174 -97.5 -311.5t-179 -225.5t-238.5 -134t-282 -46h-512q-13 0 -22.5 10.5t-7.5 24.5l190 1364q1 13 13 24t26 11zM399 246h293q223 0 351 127.5t159 343.5q29 216 -63 343.5t-314 127.5h-293z" />
<glyph unicode="E" horiz-adv-x="1249" d="M483 840h537q13 0 23 -10.5t8 -24.5l-27 -176q-1 -13 -13 -24t-26 -11h-536l-50 -348h674q13 0 23 -10.5t8 -24.5l-25 -176q-1 -13 -13 -24t-26 -11h-893q-13 0 -22.5 10.5t-7.5 24.5l190 1364q1 13 13 24t26 11h893q13 0 23 -10.5t8 -24.5l-25 -176q-1 -13 -13 -24 t-26 -11h-674z" />
<glyph unicode="F" horiz-adv-x="1249" d="M483 840h537q13 0 23 -10.5t8 -24.5l-27 -176q-1 -13 -13 -24t-26 -11h-536l-78 -559q-1 -13 -13 -24t-26 -11h-185q-13 0 -22.5 10.5t-7.5 24.5l190 1364q1 13 13 24t26 11h893q13 0 23 -10.5t8 -24.5l-25 -176q-1 -13 -13 -24t-26 -11h-674z" />
<glyph unicode="G" horiz-adv-x="1675" d="M813 762h780q13 0 22 -10.5t7 -24.5v-10q-26 -180 -101 -323.5t-185.5 -235t-248.5 -139.5t-294 -48t-281 48t-210 139.5t-120.5 235t-9.5 323.5q25 180 99.5 323t185 234.5t248.5 139.5t294 48q220 0 373 -92t219 -274q6 -12 0 -25.5t-20 -21.5l-174 -80 q-14 -7 -26 -2.5t-17 16.5q-23 63 -66 110t-97 73t-110 38.5t-114 12.5q-66 0 -130.5 -14t-133 -50t-123.5 -90.5t-97 -143.5t-57 -202q-16 -113 1 -202t56 -143.5t97.5 -90.5t118.5 -50t126 -14t131 15t131.5 48t124.5 93.5t97 142.5h-531q-13 0 -22.5 10.5t-7.5 24.5 l24 176q1 13 14 24t27 11z" />
<glyph unicode="H" horiz-adv-x="1542" d="M117 35l190 1364q1 13 13 24t26 11h184q13 0 23 -10.5t8 -24.5l-78 -559h707l78 559q1 13 13 24t26 11h184q13 0 23 -10.5t8 -24.5l-191 -1364q-1 -13 -13 -24t-26 -11h-184q-13 0 -23 10.5t-8 24.5l78 559h-706l-78 -559q-1 -13 -13 -24t-26 -11h-185q-13 0 -22.5 10.5 t-7.5 24.5z" />
<glyph unicode="I" horiz-adv-x="581" d="M561 1399l-190 -1364q-1 -13 -13 -24t-26 -11h-185q-13 0 -22.5 10.5t-7.5 24.5l190 1364q1 13 13 24t26 11h184q13 0 23 -10.5t8 -24.5z" />
<glyph unicode="J" horiz-adv-x="1275" d="M133 487l180 19q13 1 22 -8t11 -23q-20 -260 234 -260q107 0 191.5 73t102.5 206l99 694h-400q-13 0 -21.5 10.5t-8.5 24.5l24 176q3 14 14.5 24.5t24.5 10.5h619q14 0 23.5 -11t6.5 -24l-127 -903q-36 -254 -195 -389.5t-386 -135.5q-103 0 -188.5 30.5t-147.5 88.5 t-92.5 150t-22.5 209q3 35 37 38z" />
<glyph unicode="K" horiz-adv-x="1429" d="M561 1399l-78 -559h211l467 565q26 29 60 29h239q11 0 14 -9t-4 -20l-581 -690l389 -686q6 -11 0.5 -20t-16.5 -9h-242q-37 0 -53 29l-312 565h-206l-78 -559q-1 -13 -13 -24t-26 -11h-185q-13 0 -22.5 10.5t-7.5 24.5l190 1364q1 13 13 24t26 11h184q13 0 23 -10.5 t8 -24.5z" />
<glyph unicode="L" horiz-adv-x="1105" d="M117 35l190 1364q1 13 13 24t26 11h184q13 0 23 -10.5t8 -24.5l-166 -1182h572q13 0 22.5 -10.5t7.5 -24.5l-20 -147q-1 -13 -13 -24t-26 -11h-791q-13 0 -22.5 10.5t-7.5 24.5z" />
<glyph unicode="M" horiz-adv-x="1712" d="M1477 1434h184q13 0 23 -10.5t8 -24.5l-191 -1364q-1 -13 -13 -24t-26 -11h-184q-13 0 -23 10.5t-8 24.5l135 971l-491 -566q-12 -12 -29 -12q-18 0 -24 12l-332 566l-135 -971q-1 -13 -13 -24t-26 -11h-185q-13 0 -22.5 10.5t-7.5 24.5l190 1364q1 13 13 24t26 11h184 q39 0 52 -29l340 -569l495 569q26 29 60 29z" />
<glyph unicode="N" horiz-adv-x="1572" d="M346 1434h184q39 0 52 -29l581 -973l135 967q1 13 13 24t26 11h185q13 0 22.5 -10.5t7.5 -24.5l-190 -1364q-1 -13 -13 -24t-26 -11h-184q-38 0 -54 29l-579 970l-135 -964q-1 -13 -13 -24t-26 -11h-185q-13 0 -22.5 10.5t-7.5 24.5l190 1364q1 13 13 24t26 11z" />
<glyph unicode="O" horiz-adv-x="1695" d="M999 1462q156 0 281 -48t210.5 -139.5t121 -234.5t10.5 -323q-26 -180 -101 -323.5t-185.5 -235t-248.5 -139.5t-294 -48t-281 48t-210 139.5t-120.5 235t-9.5 323.5q25 180 99.5 323t185 234.5t248.5 139.5t294 48zM825 217q66 0 130.5 14t133 50t123.5 90.5t97.5 143.5 t58.5 202q13 84 5.5 151t-25.5 119t-51 91t-69.5 65.5t-82 43t-89 23.5t-89.5 7q-66 0 -130.5 -14t-133 -50t-123.5 -90.5t-97 -143.5t-57 -202q-16 -113 1 -202t56 -143.5t97.5 -90.5t118.5 -50t126 -14z" />
<glyph unicode="P" horiz-adv-x="1341" d="M346 1434h528q104 0 188.5 -32t143 -93t83 -158t7.5 -219q-34 -241 -190 -371.5t-371 -130.5h-309l-55 -395q-1 -13 -13 -24t-26 -11h-185q-13 0 -22.5 10.5t-7.5 24.5l190 1364q1 13 13 24t26 11zM532 1188l-71 -512h280q136 0 213 70t93 186q16 117 -41 186.5 t-193 69.5h-281z" />
<glyph unicode="Q" horiz-adv-x="1695" d="M1010 1462q156 0 281 -48t210 -139.5t120.5 -234.5t10.5 -323q-60 -406 -346 -602l199 -287q8 -11 4.5 -25t-14.5 -22l-146 -103q-28 -17 -49 7l-229 319q-112 -33 -248 -33q-156 0 -281 48t-210 139.5t-120.5 235t-9.5 323.5q25 180 100 323t185.5 234.5t248.5 139.5 t294 48zM838 217q66 0 130 14t132.5 50t123 90.5t96.5 143.5t58 202q13 84 5.5 151t-25.5 119t-51 91t-69.5 65.5t-82 43t-89 23.5t-89.5 7q-66 0 -130.5 -14t-133 -50t-123.5 -90.5t-97 -143.5t-57 -202q-16 -113 1.5 -202t57 -143.5t98 -90.5t119 -50t126.5 -14z" />
<glyph unicode="R" horiz-adv-x="1341" d="M346 1434h528q104 0 188.5 -32t143 -93t83 -158t7.5 -219q-27 -189 -134.5 -312t-260.5 -161l248 -430q6 -11 0.5 -20t-16.5 -9h-228q-37 0 -53 29l-225 401h-201l-55 -395q-1 -13 -13 -24t-26 -11h-185q-13 0 -22.5 10.5t-7.5 24.5l190 1364q1 13 13 24t26 11zM532 1188 l-71 -512h280q136 0 213 70t93 186q16 117 -41 186.5t-193 69.5h-281z" />
<glyph unicode="S" horiz-adv-x="1298" d="M156 375l163 43q13 4 24 -3.5t13 -21.5q33 -178 285 -178q124 0 197 58.5t82 125.5q8 50 -12.5 87t-61.5 60.5t-96 42t-117 35.5t-123 37t-115 51.5t-93 73t-56.5 107t-5.5 149.5q15 106 68.5 188.5t132.5 132t172 74.5t196 25q194 0 318.5 -85.5t144.5 -256.5 q3 -16 -6.5 -28t-24.5 -17l-164 -45q-32 -8 -43 23q-24 84 -84 125t-174 41q-71 0 -131.5 -17.5t-105 -58t-52.5 -99.5q-6 -42 11.5 -74.5t51.5 -53t81.5 -38.5t101.5 -31t110.5 -32t109.5 -39t98 -53.5t76.5 -75.5t44.5 -105.5t2 -142.5q-18 -129 -100.5 -228t-204 -149.5 t-261.5 -50.5q-95 0 -179 22.5t-151 66t-108 113t-47 157.5q0 36 33 45z" />
<glyph unicode="T" horiz-adv-x="1200" d="M264 1434h967q13 0 23 -10.5t8 -24.5l-25 -178q-1 -13 -13 -24t-26 -11h-356l-162 -1151q-1 -13 -13 -24t-26 -11h-184q-13 0 -23 10.5t-8 24.5l162 1151h-357q-13 0 -22.5 10.5t-7.5 24.5l24 178q1 13 13 24t26 11z" />
<glyph unicode="U" horiz-adv-x="1495" d="M1106 565l115 834q3 14 14.5 24.5t24.5 10.5h184q14 0 24 -11t7 -24l-115 -834q-21 -143 -82 -257t-150 -187t-199.5 -111.5t-234.5 -38.5t-224.5 38.5t-170 111.5t-98.5 187t-8 257l114 834q3 14 14.5 24.5t24.5 10.5h184q14 0 24 -11t7 -24l-115 -834q-12 -86 1.5 -151 t41.5 -101.5t71.5 -59t82.5 -29.5t84 -7q48 0 92.5 9t92.5 33.5t85.5 62t67 100.5t41.5 143z" />
<glyph unicode="V" horiz-adv-x="1658" d="M631 33l-391 1368q-4 12 4 22.5t20 10.5h207q39 0 45 -33l305 -1086l609 1086q17 33 53 33h207q12 0 17 -10.5t-1 -22.5l-772 -1368q-17 -33 -53 -33h-205q-39 0 -45 33z" />
<glyph unicode="W" horiz-adv-x="2406" d="M2456 1401l-662 -1368q-14 -33 -49 -33h-199q-37 0 -43 33l-205 1020l-491 -1020q-14 -33 -49 -33h-199q-37 0 -43 33l-280 1368q-3 12 6.5 22.5t21.5 10.5h199q38 0 41 -33l209 -1020l487 1020q20 33 51 33h199q38 0 41 -33l209 -1020l487 1020q20 33 51 33h199 q12 0 18.5 -10.5t0.5 -22.5z" />
<glyph unicode="X" horiz-adv-x="1476" d="M1518 1405l-582 -690l389 -686q6 -11 0.5 -20t-16.5 -9h-242q-37 0 -53 29l-256 473l-393 -473q-23 -29 -58 -29h-241q-11 0 -15 9t2 20l584 686l-391 690q-4 10 1.5 19.5t16.5 9.5h240q38 0 51 -29l262 -475l391 475q26 29 60 29h239q11 0 14.5 -9t-3.5 -20z" />
<glyph unicode="Y" horiz-adv-x="1536" d="M1579 1405l-655 -827l-76 -543q-1 -13 -13 -24t-26 -11h-184q-13 0 -23 10.5t-8 24.5l76 543l-426 827q-4 10 2.5 19.5t17.5 9.5h234q36 0 49 -29l287 -563l442 563q23 29 57 29h234q11 0 15 -9t-3 -20z" />
<glyph unicode="Z" horiz-adv-x="1306" d="M76 35l24 176q3 29 31 61l858 916h-717q-13 0 -22.5 10.5t-7.5 24.5l24 176q1 13 13 24t26 11h991q13 0 23 -10.5t8 -24.5l-24 -176q-6 -34 -31 -62l-860 -915h718q13 0 23 -10.5t8 -24.5l-24 -176q-1 -13 -13 -24t-26 -11h-992q-13 0 -22.5 10.5t-7.5 24.5z" />
<glyph unicode="[" horiz-adv-x="608" d="M63 -375l291 2081q1 13 13 24t26 11h355q13 0 22.5 -10.5t7.5 -24.5l-24 -176q-3 -14 -14.5 -24.5t-24.5 -10.5h-135l-234 -1659h135q13 0 23 -10.5t8 -24.5l-25 -176q-3 -14 -14 -24.5t-24 -10.5h-355q-14 0 -24 11t-7 24z" />
<glyph unicode="\" horiz-adv-x="901" d="M791 0h-170q-37 0 -43 33l-390 1470q-4 12 5 22.5t22 10.5h172q34 0 43 -33l387 -1470q3 -12 -5.5 -22.5t-20.5 -10.5z" />
<glyph unicode="]" horiz-adv-x="608" d="M635 1706l-291 -2081q-3 -14 -14.5 -24.5t-24.5 -10.5h-352q-14 0 -23 11t-6 24l23 176q1 13 13 24t26 11h133l233 1659h-135q-14 0 -24 11t-7 24l25 176q1 13 13 24t26 11h354q13 0 23 -10.5t8 -24.5z" />
<glyph unicode="^" horiz-adv-x="954" d="M643 1407l272 -504q4 -10 -1.5 -19.5t-16.5 -9.5h-145q-36 0 -52 29l-143 252l-219 -252q-23 -29 -59 -29h-144q-11 0 -15 9t5 20l416 504q24 27 53 27q31 0 49 -27z" />
<glyph unicode="_" horiz-adv-x="886" d="M829 -180h-817q-12 0 -18.5 10.5t-3.5 24.5l10 110q3 14 15.5 24.5t25.5 10.5h817q13 0 21.5 -10.5t5.5 -24.5l-13 -110q-3 -13 -16 -24t-27 -11z" />
<glyph unicode="`" horiz-adv-x="485" d="M260 1413l275 -227q25 -21 0 -49l-70 -82q-28 -28 -53 -11l-297 201q-11 8 -12 21t12 26l94 113q23 26 51 8z" />
<glyph unicode="a" horiz-adv-x="1089" d="M623 844q189 0 294 -112.5t78 -317.5l-53 -379q-3 -14 -14.5 -24.5t-24.5 -10.5h-145q-14 0 -24 11t-7 24l12 90q-52 -72 -130.5 -112t-166.5 -40q-172 0 -256 120t-59 315q30 198 170 317t326 119zM526 197q76 0 149.5 57t84.5 154q17 105 -36.5 157.5t-129.5 52.5 q-77 0 -148.5 -53.5t-87.5 -154.5q-8 -59 2.5 -102t36.5 -66.5t58 -34t71 -10.5z" />
<glyph unicode="b" horiz-adv-x="1110" d="M692 844q92 -4 161 -39.5t107.5 -94.5t52.5 -134t3 -160q-30 -199 -170.5 -320t-325.5 -121q-188 0 -294 116t-79 319l140 989q3 14 14.5 24.5t24.5 10.5h168q14 0 23.5 -11t6.5 -24l-90 -647q99 92 258 92zM549 201q75 0 144 54t83 155q8 53 -3 94.5t-36 65.5t-56 36 t-65 12q-79 0 -146 -50t-81 -156q-9 -57 2 -100t36.5 -66t56 -34t65.5 -11z" />
<glyph unicode="c" horiz-adv-x="1017" d="M528 203q114 0 179 76q24 27 53 18l137 -64q14 -5 18.5 -18t-4.5 -27q-68 -105 -174 -159t-237 -54q-189 0 -294 113.5t-77 321.5q19 139 90 239t173.5 147.5t225.5 47.5q137 0 232.5 -59t126.5 -173q6 -13 -2.5 -26.5t-22.5 -18.5l-164 -53q-13 -4 -26.5 2.5t-18.5 18.5 q-40 81 -153 81q-35 0 -69 -10.5t-67 -33t-57 -64.5t-32 -98t3.5 -98.5t37.5 -65t56.5 -33t65.5 -10.5z" />
<glyph unicode="d" horiz-adv-x="1069" d="M549 844q159 0 233 -92l90 647q3 14 14.5 24.5t24.5 10.5h168q14 0 24 -11t7 -24l-135 -981q-30 -203 -168 -323t-324 -120t-294 121.5t-78 319.5q15 114 69 207.5t150 154.5t219 66zM512 201q35 0 68.5 11t66.5 34t57 66t33 100q7 56 -6 97.5t-40 64.5t-58 33.5 t-66 10.5q-74 0 -141.5 -53t-83.5 -155q-7 -53 5.5 -94.5t39 -65.5t58.5 -36.5t67 -12.5z" />
<glyph unicode="e" d="M989 410l-2 -2q0 -17 -11.5 -26t-29.5 -9h-586q-1 -51 13 -87.5t39.5 -54.5t53.5 -26t62 -8q91 0 150 39q27 21 55 6l115 -76q12 -8 14 -22t-8 -25q-150 -144 -354 -144q-189 0 -294 113.5t-77 321.5q19 139 90 239t173.5 147.5t225.5 47.5q189 0 294 -113t77 -321z M393 504h359q-14 58 -59.5 85t-102.5 27q-58 0 -112 -27t-85 -85z" />
<glyph unicode="f" horiz-adv-x="854" d="M137 819h129l39 277q13 94 56.5 165.5t103.5 111t123 58.5t127 19q148 0 252 -70q23 -27 4 -51l-80 -119q-7 -12 -22 -15t-25 3q-53 33 -123 33q-57 0 -113 -36.5t-67 -113.5l-37 -262h237q13 0 23 -10.5t8 -24.5l-22 -159q-3 -14 -14.5 -24.5t-24.5 -10.5h-238l-78 -555 q-3 -14 -14.5 -24.5t-24.5 -10.5h-168q-14 0 -23.5 11t-6.5 24l78 555h-130q-14 0 -23.5 11t-6.5 24l22 159q1 13 13 24t26 11z" />
<glyph unicode="g" horiz-adv-x="1138" d="M1024 410q-29 -238 -209 -355q121 -111 98 -284q-27 -177 -158.5 -283t-303.5 -106q-80 0 -148 25t-115.5 71t-69 117t-9.5 157q7 60 28 109q14 32 47 26l160 -24q13 -1 18 -12.5t0 -24.5q-16 -26 -16 -53q-10 -74 23.5 -121t113.5 -47q78 0 136 54t67 132 q11 65 -17.5 115t-70.5 74q-58 -5 -61 -5q-189 0 -294.5 113.5t-78.5 321.5q30 208 166 321t325 113q119 0 193 -39l156 147q12 11 27.5 12.5t23.5 -8.5l86 -75q8 -10 7 -25t-11 -25l-148 -155q57 -117 35 -266zM565 203q77 0 143 49.5t80 157.5q9 56 -2 98t-37 64.5 t-56.5 33t-65.5 10.5t-69 -10.5t-67.5 -33t-58 -64.5t-33.5 -98q-7 -56 5 -98.5t38.5 -65t57 -33t65.5 -10.5z" />
<glyph unicode="h" horiz-adv-x="1077" d="M662 844q94 0 160.5 -32t99 -87.5t44.5 -130t-3 -160.5l-56 -399q-1 -13 -13 -24t-26 -11h-168q-13 0 -22.5 10.5t-7.5 24.5l55 401q25 185 -141 185q-80 0 -131.5 -50.5t-61.5 -119.5l-57 -416q-1 -13 -13 -24t-26 -11h-168q-13 0 -23 10.5t-8 24.5l191 1364q1 13 13 24 t26 11h168q13 0 22.5 -10.5t7.5 -24.5l-90 -647q42 47 110.5 69.5t117.5 22.5z" />
<glyph unicode="i" horiz-adv-x="532" d="M524 1171q-7 -60 -54.5 -101.5t-107.5 -41.5t-96 41.5t-28 101.5q9 60 56 102t107 42t96 -42t27 -102zM446 784l-104 -749q-1 -13 -13 -24t-26 -11h-168q-13 0 -23 10.5t-8 24.5l105 749q1 13 13 24t26 11h168q13 0 22.5 -10.5t7.5 -24.5z" />
<glyph unicode="j" horiz-adv-x="532" d="M547 1171q-7 -60 -54.5 -101.5t-107.5 -41.5t-96.5 41.5t-28.5 101.5t55 102t107 42t96.5 -42t28.5 -102zM82 -289l147 1073q3 14 15.5 24.5t25.5 10.5h168q14 0 23 -11t6 -24l-152 -1091q-10 -76 -49 -137t-94 -97t-114.5 -54.5t-118.5 -18.5q-70 0 -127 8q-36 6 -27 41 l29 123q5 14 19 23t24 5q46 -4 65 -4q139 0 160 129z" />
<glyph unicode="k" horiz-adv-x="1060" d="M1036 791l-331 -381l225 -381q6 -10 0 -19.5t-17 -9.5h-219q-37 0 -53 29l-143 266h-127l-37 -260q-1 -13 -13 -24t-26 -11h-168q-13 0 -23 10.5t-8 24.5l191 1364q1 13 13 24t26 11h168q13 0 22.5 -10.5t7.5 -24.5l-123 -875h127l220 267q25 28 59 28h219 q11 0 14.5 -8.5t-4.5 -19.5z" />
<glyph unicode="l" horiz-adv-x="524" d="M524 1399l-190 -1364q-1 -13 -13 -24t-26 -11h-168q-13 0 -23 10.5t-8 24.5l191 1364q1 13 13 24t26 11h168q13 0 22.5 -10.5t7.5 -24.5z" />
<glyph unicode="m" horiz-adv-x="1507" d="M1096 844q167 0 258 -90.5t65 -276.5l-61 -442q-1 -13 -13 -24t-26 -11h-168q-13 0 -23 10.5t-8 24.5l62 434q16 149 -117 149q-76 0 -112 -40.5t-44 -94.5l-63 -448q-1 -13 -13 -24t-26 -11h-168q-13 0 -23 10.5t-8 24.5l64 448q5 33 -1.5 61t-36 51t-81.5 23 q-43 0 -75 -14.5t-48.5 -39t-24 -47.5t-10.5 -48l-61 -434q-1 -13 -13 -24t-26 -11h-168q-13 0 -23 10.5t-8 24.5l62 442q13 95 52 167t97 115t127 64t150 21q76 0 141 -35.5t96 -99.5q50 64 124 99.5t151 35.5z" />
<glyph unicode="n" horiz-adv-x="1056" d="M614 844q178 0 277.5 -107t71.5 -303l-56 -399q-1 -13 -13 -24t-26 -11h-168q-13 0 -22.5 10.5t-7.5 24.5l55 399q11 83 -23 132.5t-118 49.5q-87 0 -135.5 -49.5t-59.5 -132.5l-55 -399q-1 -13 -13 -24t-26 -11h-168q-13 0 -23 10.5t-8 24.5l56 399q19 132 86.5 226 t163.5 139t212 45z" />
<glyph unicode="o" d="M618 844q189 0 294 -113t77 -321q-19 -139 -90 -239t-173.5 -148t-225.5 -48q-189 0 -294 113.5t-77 321.5q19 139 90 239t173.5 147.5t225.5 47.5zM528 203q35 0 69 10.5t67 33t57.5 65t32.5 98.5t-3.5 98t-38 64.5t-57 33t-65.5 10.5t-69 -10.5t-67 -33t-57 -64.5 t-32 -98t3.5 -98.5t37.5 -65t56.5 -33t65.5 -10.5z" />
<glyph unicode="p" horiz-adv-x="1110" d="M680 844q186 0 294.5 -121.5t78.5 -319.5q-15 -113 -69 -207t-151 -156t-219 -65q-160 0 -233 93l-90 -648q-3 -14 -14.5 -24t-24.5 -10h-168q-14 0 -24 10.5t-7 23.5l137 990q19 136 90 235.5t174.5 149t225.5 49.5zM596 201q74 0 141.5 54t81.5 155q8 52 -4.5 94 t-39 65.5t-58.5 36t-66 12.5q-35 0 -68.5 -11t-66.5 -33.5t-57 -65.5t-33 -100q-7 -56 5.5 -98t39.5 -64.5t58.5 -33.5t66.5 -11z" />
<glyph unicode="q" horiz-adv-x="1110" d="M643 844q188 0 293.5 -115.5t77.5 -318.5l-137 -990q-3 -14 -14.5 -24t-24.5 -10h-168q-14 0 -24 10.5t-7 23.5l90 648q-102 -93 -258 -93q-122 3 -202 65t-108.5 156t-13.5 207q30 199 170.5 320t325.5 121zM547 201q78 0 145.5 50.5t81.5 156.5q9 57 -2 100t-36.5 65.5 t-56 33.5t-65.5 11q-47 0 -93.5 -20.5t-85.5 -69.5t-50 -118q-7 -53 4.5 -94.5t37 -65.5t56 -36.5t64.5 -12.5z" />
<glyph unicode="r" horiz-adv-x="745" d="M776 776l-45 -129q-14 -32 -45 -29q-64 11 -96 11q-74 0 -130 -43t-67 -129l-59 -422q-1 -13 -13 -24t-26 -11h-168q-13 0 -23 10.5t-8 24.5l64 452q14 100 57.5 173t106 111t130.5 54.5t144 14.5q92 -4 154 -21q33 -9 24 -43z" />
<glyph unicode="s" horiz-adv-x="956" d="M567 494q44 -5 80.5 -14t75.5 -28t63.5 -45.5t37 -69t3.5 -95.5q-12 -85 -74.5 -148t-143 -91t-165.5 -28q-287 0 -317 207q-4 16 5 28t24 17l131 39q24 8 43 -22q16 -31 54.5 -47.5t82.5 -16.5q55 0 87.5 18t41.5 42q10 41 -41 58q-15 4 -82 17q-134 23 -188 49 q-126 61 -105 207q10 74 47.5 128.5t93 84t115 44t127.5 16.5q110 5 199 -46t117 -155q6 -13 -2.5 -26.5t-22.5 -18.5l-131 -49q-30 -10 -43 18q-41 66 -139 66q-57 0 -92.5 -17.5t-38.5 -42.5q-2 -14 1 -24.5t11.5 -17.5t18 -11.5t26 -8.5t29.5 -6t34.5 -5t36.5 -6z" />
<glyph unicode="t" horiz-adv-x="851" d="M586 590l-78 -555q-3 -14 -14.5 -24.5t-24.5 -10.5h-168q-14 0 -24 11t-7 24l78 555h-211q-14 0 -24 11t-7 24l21 159q3 14 15.5 24.5t25.5 10.5h211l43 314q3 14 14.5 24t24.5 10h168q14 0 23.5 -10.5t6.5 -23.5l-43 -314h211q14 0 23 -11t6 -24l-20 -159 q-3 -14 -14.5 -24.5t-24.5 -10.5h-211z" />
<glyph unicode="u" horiz-adv-x="1056" d="M496 -25q-178 0 -277.5 107t-71.5 303l56 399q1 13 13 24t26 11h168q13 0 22.5 -10.5t7.5 -24.5l-55 -399q-11 -84 22 -133t119 -49q84 0 134 50t61 132l55 399q1 13 13 24t26 11h168q13 0 23 -10.5t8 -24.5l-56 -399q-19 -132 -86.5 -226t-163.5 -139t-212 -45z" />
<glyph unicode="v" horiz-adv-x="1077" d="M1079 786l-422 -753q-17 -33 -53 -33h-188q-39 0 -45 33l-217 753q-3 12 4.5 22.5t19.5 10.5h189q39 0 45 -33l139 -491l270 491q17 33 53 33h189q12 0 17.5 -10.5t-1.5 -22.5z" />
<glyph unicode="w" horiz-adv-x="1501" d="M1505 786l-360 -753q-14 -33 -49 -33h-185q-38 0 -41 33l-86 426l-202 -426q-14 -33 -50 -33h-184q-37 0 -43 33l-155 753q-2 12 7 22.5t21 10.5h182q38 0 41 -33l88 -428l203 428q14 33 49 33h183q38 0 41 -33l88 -428l202 428q14 33 50 33h182q12 0 18.5 -10.5 t-0.5 -22.5z" />
<glyph unicode="x" horiz-adv-x="985" d="M983 791l-326 -381l217 -381q6 -11 1.5 -20t-15.5 -9h-219q-36 0 -55 29l-92 182l-152 -182q-19 -29 -55 -29h-219q-11 0 -16 9t1 20l328 381l-219 381q-4 11 1 19.5t15 8.5h219q40 0 52 -28l98 -185l149 185q19 28 56 28h219q11 0 15 -8.5t-3 -19.5z" />
<glyph unicode="y" horiz-adv-x="1112" d="M1137 786l-793 -1355q-19 -28 -49 -19l-148 58q-12 5 -16.5 18t4.5 27l283 485l-242 786q-3 12 5 22.5t20 10.5h190q36 0 45 -33l152 -497l289 497q14 33 53 33h190q12 0 17.5 -10.5t-0.5 -22.5z" />
<glyph unicode="z" horiz-adv-x="837" d="M131 254l367 336h-308q-14 0 -23.5 11t-6.5 24l20 159q3 14 14.5 24.5t24.5 10.5h563q14 0 24 -11t7 -24l-20 -159q-6 -33 -33 -60l-365 -336h305q14 0 24 -10.5t7 -23.5l-20 -160q-3 -14 -14.5 -24.5t-24.5 -10.5h-563q-14 0 -24 11t-7 24l20 160q5 31 33 59z" />
<glyph unicode="{" horiz-adv-x="718" d="M485 -193l78 5q15 4 26 -5.5t9 -23.5l-4 -148q0 -35 -35 -41q-106 -12 -151 -12q-130 0 -208.5 89.5t-60.5 226.5q12 87 71.5 262t72.5 266q9 64 -15 99.5t-67 35.5h-74q-14 0 -24 11t-7 24l21 139q1 13 13 24t26 11h73q43 0 77.5 36t43.5 99q14 91 3 266t1 263 q20 137 122.5 226t232.5 89q47 0 149 -12q31 -5 25 -41l-37 -148q-3 -13 -16 -22.5t-27 -7.5q-29 6 -76 6q-50 0 -87 -31t-44 -88q-14 -94 1 -268.5t3 -262.5q-10 -79 -44.5 -127.5t-92.5 -80.5q47 -32 68 -81t10 -128q-12 -88 -75 -262.5t-77 -268.5q-7 -58 20 -88.5 t76 -30.5z" />
<glyph unicode="|" horiz-adv-x="485" d="M504 1522l-234 -1686q-3 -14 -14.5 -24.5t-24.5 -10.5h-129q-14 0 -23.5 11t-6.5 24l233 1686q3 14 15.5 24t25.5 10h129q14 0 23 -10.5t6 -23.5z" />
<glyph unicode="}" horiz-adv-x="718" d="M608 770h74q13 0 23 -10.5t8 -24.5l-21 -139q-3 -14 -14.5 -24.5t-24.5 -10.5h-73q-44 0 -79 -36t-44 -99q-13 -90 -2 -265.5t-2 -262.5q-18 -137 -121.5 -226.5t-233.5 -89.5q-51 0 -145 12q-31 5 -25 41l35 148q5 14 18 23.5t23 5.5l78 -5q50 0 86 30.5t43 88.5 q14 94 -1 268.5t-3 262.5q20 143 139 209q-47 32 -68.5 80.5t-11.5 127.5q12 88 75 262.5t77 268.5q7 58 -19 88.5t-75 30.5q-34 0 -80 -6q-14 -2 -24.5 7.5t-10.5 22.5l4 148q0 35 37 41q102 12 149 12q130 0 209.5 -89t59.5 -226q-13 -88 -72 -263.5t-72 -265.5 q-9 -63 16 -99t68 -36z" />
<glyph unicode="~" horiz-adv-x="1175" d="M594 268l-111 82q-93 74 -190 -43q-21 -21 -43 -57q-9 -12 -22.5 -16t-22.5 2l-101 61q-13 6 -16 20.5t4 26.5q13 16 41 55t43 56q40 49 94 86.5t115 57.5t127 10t123 -54l110 -82q93 -74 191 43q21 21 43 57q9 12 23 16.5t26 -1.5l96 -62q12 -6 15.5 -20.5t-2.5 -26.5 q-46 -66 -84 -110q-40 -48 -93.5 -85.5t-115 -59t-128 -11.5t-122.5 55z" />
<glyph unicode="&#xa1;" horiz-adv-x="577" d="M229 686q9 60 57.5 102.5t108.5 42.5t97 -42.5t28 -102.5q-7 -60 -56.5 -102.5t-109.5 -42.5t-96.5 42.5t-28.5 102.5zM418 297l-99 -885q0 -13 -11 -24t-25 -11h-179q-13 0 -22.5 10.5t-7.5 24.5l149 885q8 35 41 35h123q13 0 23 -10.5t8 -24.5z" />
<glyph unicode="&#xa2;" horiz-adv-x="1058" d="M801 602l139 -63q14 -5 17.5 -18t-5.5 -27q-105 -171 -329 -209l-35 -250q-1 -13 -13 -24t-26 -11h-115q-13 0 -23 10.5t-8 24.5l35 256q-145 31 -219 138t-49 286q25 178 129.5 285.5t257.5 138.5l37 260q1 13 13 24t26 11h115q13 0 22.5 -10.5t7.5 -24.5l-35 -256 q221 -38 277 -225q4 -13 -4.5 -27t-22.5 -19l-164 -53q-13 -4 -26 2.5t-19 18.5q-40 82 -155 82q-77 0 -142 -49.5t-81 -157.5q-7 -56 5 -98.5t38 -65t56.5 -33t65.5 -10.5q112 0 177 76q24 27 53 18z" />
<glyph unicode="&#xa3;" horiz-adv-x="1095" d="M225 819h129l39 277q13 94 56.5 165.5t103.5 111t123 58.5t127 19q148 0 252 -70q23 -27 4 -51l-80 -119q-7 -12 -22 -15t-25 3q-53 33 -123 33q-57 0 -113 -36.5t-67 -113.5l-37 -262h237q13 0 23 -10.5t8 -24.5l-22 -159q-3 -14 -14.5 -24.5t-24.5 -10.5h-238l-49 -344 h469q13 0 23 -10.5t8 -24.5l-25 -176q-3 -14 -14.5 -24.5t-24.5 -10.5h-882q-14 0 -24 11t-7 24l24 176q1 13 13 24t26 11h176l50 344h-129q-14 0 -24 11t-7 24l22 159q1 13 13 24t26 11z" />
<glyph unicode="&#xa4;" horiz-adv-x="1021" d="M872 410q-12 -112 -71 -189l82 -92q20 -26 -9 -49l-61 -53q-25 -25 -49 0l-78 92q-83 -45 -192 -45q-106 0 -183 47l-110 -94q-25 -25 -49 0l-46 53q-20 26 9 49l108 96q-29 80 -18 185q18 111 74 184l-86 98q-20 27 8 49l61 54q24 25 49 0l80 -99q85 49 197 49 q102 0 176 -45l110 95q25 25 50 0l45 -54q20 -27 -8 -49l-107 -94q35 -78 18 -188zM659 410q11 66 -20 95.5t-80 29.5q-47 0 -88.5 -31.5t-52.5 -93.5q-8 -66 23.5 -95.5t80.5 -29.5q47 0 88 31.5t49 93.5z" />
<glyph unicode="&#xa5;" horiz-adv-x="1536" d="M1059 152h-195l-16 -117q-1 -13 -13 -24t-26 -11h-184q-13 0 -23 10.5t-8 24.5l16 117h-194q-14 0 -23 10.5t-8 23.5l16 113q1 13 13 24t26 11h195l22 162h-194q-13 0 -22 10t-7 24l15 113q3 14 15 24.5t25 10.5h129l-374 727q-4 10 2.5 19.5t17.5 9.5h234q36 0 49 -29 l287 -563l442 563q23 29 57 29h234q11 0 15 -9t-3 -20l-575 -727h129q14 0 22.5 -11t5.5 -24l-14 -113q-1 -13 -14 -23.5t-27 -10.5h-195l-22 -162h194q13 0 23 -10.5t8 -24.5l-16 -113q-1 -13 -13 -23.5t-26 -10.5z" />
<glyph unicode="&#xa6;" horiz-adv-x="485" d="M360 479l-90 -643q-3 -14 -14.5 -24.5t-24.5 -10.5h-129q-14 0 -23.5 11t-6.5 24l90 643q0 13 12.5 24t26.5 11h129q13 0 21.5 -10.5t8.5 -24.5zM346 1556h129q14 0 23 -10.5t6 -23.5l-90 -643q0 -13 -12.5 -24t-26.5 -11h-129q-13 0 -22 10.5t-9 24.5l90 643 q3 14 15.5 24t25.5 10z" />
<glyph unicode="&#xa7;" horiz-adv-x="1298" d="M1210 678q-21 -151 -123 -256q74 -93 52 -250q-18 -129 -100.5 -228t-204 -149.5t-261.5 -50.5q-129 0 -233.5 38t-173.5 120.5t-76 199.5q-3 36 33 45l164 43q12 4 23 -3t14 -21q33 -178 284 -178q124 0 197 59t80 125q9 50 -11 88t-61 61.5t-96 42t-116.5 36t-123 37.5 t-116 51t-93.5 72.5t-57 106.5t-6 148q23 154 129 260q-79 96 -58 246q15 106 69 188.5t133.5 132t173 74.5t196.5 25q194 0 317.5 -85.5t143.5 -256.5q3 -35 -31 -45l-164 -45q-33 -10 -41 22q-26 85 -86 125.5t-174 40.5q-111 0 -193.5 -43.5t-95.5 -130.5 q-7 -48 14.5 -84t63.5 -58.5t97.5 -40.5t117.5 -35t124 -37.5t115.5 -52.5t92.5 -74.5t56 -109.5t5 -153zM956 678q6 37 -2 67t-31 52t-51 38.5t-70.5 30.5t-80 25t-89 25.5t-87.5 27.5q-82 -54 -92 -127q-6 -41 10 -73t44 -52.5t75 -39.5t90.5 -30.5t104.5 -30t104 -34.5 q65 54 75 121z" />
<glyph unicode="&#xa8;" horiz-adv-x="724" d="M367 1171q-7 -60 -54.5 -101.5t-107.5 -41.5t-96.5 41.5t-28.5 101.5t55 102t107 42t96.5 -42t28.5 -102zM805 1171q-7 -60 -54.5 -101.5t-107.5 -41.5t-96.5 41.5t-28.5 101.5t55 102t107 42t96.5 -42t28.5 -102z" />
<glyph unicode="&#xa9;" horiz-adv-x="1427" d="M137 831q24 173 128.5 319t261.5 230t329 84q130 0 240 -50t183 -134.5t106.5 -201.5t15.5 -247q-23 -172 -127.5 -317t-262.5 -229t-331 -84q-129 0 -238.5 49.5t-182 134t-106 201t-16.5 245.5zM283 831q-18 -133 30.5 -244.5t151 -176t235.5 -64.5q203 0 365 141.5 t190 343.5q14 99 -11.5 189.5t-81 156t-140.5 104t-184 38.5t-194.5 -38.5t-169.5 -104t-125.5 -155.5t-65.5 -190zM987 748l84 -19q13 -1 20 -14t1 -25q-57 -116 -156 -175.5t-221 -59.5q-162 0 -250.5 97t-63.5 277q17 120 77.5 206.5t148 127.5t192.5 41q121 0 203 -60 t108 -175q3 -33 -28 -41l-92 -25q-32 -6 -41 25q-19 56 -64 87.5t-108 31.5q-99 0 -161 -57.5t-77 -160.5q-14 -100 32 -158.5t144 -58.5q62 0 115 29t86 82q18 31 51 25z" />
<glyph unicode="&#xaa;" horiz-adv-x="624" d="M260 1260l-61 22q-14 5 -16.5 18t7.5 25q40 55 106.5 85t137.5 30q110 0 170.5 -61.5t42.5 -178.5l-14 -115q-17 -113 -95.5 -174t-187.5 -61q-112 0 -175.5 47.5t-49.5 146.5q14 100 90 145t186 40q16 0 29.5 -2.5t37 -9t26.5 -7.5q0 43 -16.5 66.5t-63.5 23.5 q-58 0 -97 -26q-31 -27 -57 -14zM469 1044q2 8 -1 16.5t-11.5 17t-27 14.5t-44.5 6q-24 0 -42.5 -5t-28.5 -11.5t-16.5 -15t-8.5 -14t-2 -8.5q0 -10 1.5 -16t8 -18t25 -18.5t47.5 -6.5t50 7.5t31 18t14.5 19t4.5 14.5z" />
<glyph unicode="&#xab;" horiz-adv-x="1396" d="M762 694l-287 -280l209 -281q9 -10 6 -25.5t-16 -25.5l-101 -88q-25 -24 -49 0l-352 395q-22 23 4 49l467 396q28 24 49 0l76 -89q8 -10 7.5 -25.5t-13.5 -25.5zM1317 694l-287 -280l209 -281q9 -10 6 -25.5t-16 -25.5l-101 -88q-24 -24 -49 0l-352 395q-23 23 4 49 l467 396q28 24 49 0l76 -89q8 -10 7.5 -25.5t-13.5 -25.5z" />
<glyph unicode="&#xac;" horiz-adv-x="1056" d="M690 68l33 237h-522q-14 0 -24 11t-7 24l18 137q1 13 14 24t27 11h701q13 0 21.5 -10.5t6.5 -24.5l-55 -409q-3 -14 -15.5 -24.5t-25.5 -10.5h-143q-14 0 -23 11t-6 24z" />
<glyph unicode="&#xad;" horiz-adv-x="956" d="M791 317h-601q-13 0 -21 10.5t-5 24.5l12 113q3 13 16 24t27 11h600q13 0 21.5 -10.5t5.5 -24.5l-12 -113q-3 -13 -16 -24t-27 -11z" />
<glyph unicode="&#xae;" horiz-adv-x="1427" d="M137 831q24 173 128.5 319t261.5 230t329 84q130 0 240 -50t183 -134.5t106.5 -201.5t15.5 -247q-23 -172 -127.5 -317t-262.5 -229t-331 -84q-129 0 -238.5 49.5t-182 134t-106 201t-16.5 245.5zM283 831q-18 -133 30.5 -244.5t151 -176t235.5 -64.5q203 0 365 141.5 t190 343.5q14 99 -11.5 189.5t-81 156t-140.5 104t-184 38.5t-194.5 -38.5t-169.5 -104t-125.5 -155.5t-65.5 -190zM500 539l84 591q1 13 13 24t26 11h221q106 0 164.5 -62t42.5 -181q-23 -150 -142 -213l101 -177q4 -10 -2 -19t-17 -9h-129q-37 0 -49 28l-78 148h-55 l-21 -141q-2 -14 -13.5 -24.5t-24.5 -10.5h-91q-13 0 -22.5 10.5t-7.5 24.5zM702 838h97q76 0 88 84q9 82 -66 82h-96z" />
<glyph unicode="&#xaf;" horiz-adv-x="624" d="M68 1065l18 119q1 13 13 24t26 11h555q13 0 23 -10.5t8 -24.5l-19 -119q-1 -13 -13 -24t-26 -11h-555q-13 0 -22.5 10.5t-7.5 24.5z" />
<glyph unicode="&#xb0;" horiz-adv-x="727" d="M160 1169q19 118 112 200.5t209 82.5q117 0 189 -83t53 -200q-15 -117 -109 -198.5t-211 -81.5t-187.5 81.5t-55.5 198.5zM297 1169q-6 -62 30 -102.5t97 -40.5q62 0 109 41t53 102q9 61 -27 103.5t-98 42.5q-61 0 -108 -42t-56 -104z" />
<glyph unicode="&#xb1;" horiz-adv-x="999" d="M772 0h-606q-14 0 -24 11t-7 24l12 98q3 14 15.5 24.5t25.5 10.5h607q14 0 22.5 -11t5.5 -24l-12 -98q-3 -14 -14.5 -24.5t-24.5 -10.5zM852 449h-229l-19 -132q-1 -13 -13 -23.5t-26 -10.5h-112q-14 0 -23 10.5t-8 23.5l18 132h-231q-14 0 -23 10.5t-8 23.5l17 113 q2 14 13.5 24.5t24.5 10.5h232l27 188q3 14 15 24.5t25 10.5h113q14 0 23 -11t6 -24l-27 -188h230q13 0 22.5 -10.5t7.5 -24.5l-16 -113q-1 -13 -13 -23.5t-26 -10.5z" />
<glyph unicode="&#xb2;" horiz-adv-x="663" d="M584 928h-412q-13 0 -22 10.5t-9 24.5l13 79q6 37 32 60l258 219q73 66 80 115q2 28 -12.5 50.5t-56.5 22.5q-78 0 -105 -73q-6 -14 -19 -23t-26 -8l-82 10q-17 1 -24.5 13t-1.5 26q32 101 105 155t173 54q108 0 166 -56t43 -163q-16 -112 -152 -236l-143 -123h217 q14 0 23 -10.5t6 -23.5l-12 -88q0 -13 -12.5 -24t-26.5 -11z" />
<glyph unicode="&#xb3;" horiz-adv-x="690" d="M373 1286l8 57q3 13 16 24t27 11h25q37 1 55 24t22 52q3 20 -11.5 35.5t-49.5 15.5q-53 0 -76 -39q-25 -34 -49 -26l-78 10q-30 5 -24 41q30 83 97 127.5t150 44.5q98 0 155 -53.5t44 -153.5q-12 -84 -80 -133q86 -62 74 -172q-20 -115 -101 -177.5t-194 -62.5 q-96 0 -160.5 55.5t-68.5 147.5q-6 34 32 41l80 16q28 3 41 -28q7 -33 32 -56.5t64 -23.5q50 0 79 26t38 62q8 43 -16 71t-76 29h-25q-13 0 -21.5 10.5t-8.5 24.5z" />
<glyph unicode="&#xb4;" horiz-adv-x="485" d="M106 1186l340 227q30 20 48 -8l65 -113q4 -12 -0.5 -25.5t-15.5 -21.5l-355 -201q-28 -19 -45 11l-53 82q-15 25 16 49z" />
<glyph unicode="&#xb5;" horiz-adv-x="1077" d="M702 -31l15 92q-27 -39 -79 -60t-101 -21q-120 0 -158 77l-88 -635q-1 -13 -13 -23.5t-26 -10.5h-168q-14 0 -23 10.5t-8 23.5l191 1362q1 13 13 24t26 11h168q13 0 22.5 -10.5t7.5 -24.5l-55 -399q-11 -84 22 -133t119 -49q84 0 134 50t61 132l55 399q1 13 13 24t26 11 h168q13 0 23 -10.5t8 -24.5q-27 -198 -54 -377t-63 -438q-1 -13 -13 -24t-26 -11h-166q-13 0 -23 10.5t-8 24.5z" />
<glyph unicode="&#xb6;" horiz-adv-x="1368" d="M764 0h-180q-13 0 -23 10.5t-8 24.5l88 633q-56 -15 -117 -15q-169 0 -261.5 103t-65.5 288q26 184 147 287t289 103h330q13 0 22.5 -10.5t7.5 -24.5l-190 -1364q-1 -13 -13 -24t-26 -11zM1348 1399l-191 -1364q-1 -13 -13 -24t-26 -11h-131q-13 0 -23 10.5t-8 24.5 l191 1364q1 13 13 24t26 11h131q13 0 23 -10.5t8 -24.5z" />
<glyph unicode="&#xb7;" horiz-adv-x="581" d="M170 410q7 62 56.5 104.5t113.5 42.5q60 0 96 -42t29 -105q-7 -59 -59.5 -103.5t-110.5 -44.5q-62 0 -97.5 43.5t-27.5 104.5z" />
<glyph unicode="&#xb8;" horiz-adv-x="477" d="M-6 -342l61 45q12 8 26 6t23 -12q42 -49 93 -49q45 0 66.5 23t25.5 50q3 31 -16 48.5t-50 17.5q-14 0 -18 -2q-35 0 -47 10q-23 13 -17 41l29 215h117l-17 -127q95 0 145 -58t38 -147q-14 -99 -95 -159t-176 -60q-64 0 -116 28t-82 81q-17 22 10 49z" />
<glyph unicode="&#xb9;" horiz-adv-x="487" d="M541 1624l-92 -653q-1 -13 -14 -24t-27 -11h-93q-13 0 -21.5 10.5t-6.5 24.5l65 473l-78 -49q-14 -7 -27.5 -5t-21.5 13l-32 51q-9 12 -5 26t19 25l160 131q38 23 65 23h78q13 0 23 -10.5t8 -24.5z" />
<glyph unicode="&#xba;" horiz-adv-x="772" d="M780 1143q-21 -148 -116 -227.5t-230 -79.5t-209 80t-53 227q20 147 116.5 227t231.5 80t207.5 -79.5t52.5 -227.5zM588 1145q8 59 -23.5 85.5t-72.5 26.5t-79 -27t-46 -87q-9 -61 22 -89t72 -28t80 29t47 90zM117 537l14 112q1 13 14 24t27 11h481q13 0 22 -10.5 t7 -24.5l-14 -112q-3 -14 -15.5 -24.5t-25.5 -10.5h-482q-14 0 -22.5 11t-5.5 24z" />
<glyph unicode="&#xbb;" horiz-adv-x="1396" d="M424 414l-213 280q-8 10 -5.5 25.5t15.5 25.5l101 89q28 24 49 0l352 -396q19 -22 -4 -49l-467 -395q-24 -24 -49 0l-76 88q-8 10 -6.5 25.5t12.5 25.5zM979 414l-213 280q-8 10 -5.5 25.5t15.5 25.5l101 89q28 24 49 0l352 -396q19 -22 -4 -49l-467 -395q-25 -24 -49 0 l-76 88q-8 10 -6.5 25.5t12.5 25.5z" />
<glyph unicode="&#xbc;" horiz-adv-x="1404" d="M406 0h-123q-12 0 -18.5 10.5t-0.5 22.5l744 1368q14 33 51 33h125q12 0 18 -10.5t0 -22.5l-745 -1368q-17 -33 -51 -33zM549 1399l-92 -654q-1 -13 -13 -23.5t-26 -10.5h-92q-14 0 -23 10.5t-8 23.5l67 474l-79 -50q-12 -7 -26.5 -4.5t-20.5 13.5l-35 51q-7 12 -3.5 26 t17.5 25l162 131q33 23 63 23h78q13 0 23 -10.5t8 -24.5zM805 303l248 391q19 31 55 31h106q12 0 17 -10.5t-2 -20.5l-256 -407h92l10 73q1 13 14 24t27 11h88q13 0 22 -10.5t7 -24.5l-10 -73h53q13 0 23 -10.5t8 -24.5l-13 -90q-3 -14 -15.5 -24.5t-25.5 -10.5h-53l-12 -92 q-1 -13 -13 -24t-26 -11h-88q-13 0 -23 10.5t-8 24.5l12 92h-241q-14 0 -23 11t-6 24l10 76q1 15 23 65z" />
<glyph unicode="&#xbd;" horiz-adv-x="1458" d="M440 0h-192l776 1434h195zM553 1434l-100 -723h-162l71 508l-110 -68l-68 106l222 177h147zM1325 0h-481l20 150l285 243q72 63 80 115q4 27 -12 50.5t-58 23.5q-47 0 -75.5 -28.5t-36.5 -80.5l-154 19q24 116 103 179.5t186 63.5q108 0 165 -56t42 -163 q-16 -113 -152 -235l-143 -123h252z" />
<glyph unicode="&#xbe;" horiz-adv-x="1544" d="M580 0h-193l776 1434h195zM926 272l286 453h177l-277 -438h92l15 108h157l-14 -108h88l-23 -160h-88l-16 -127h-158l17 127h-277zM379 1036l16 127h60q39 1 58.5 24t23.5 52q3 20 -12 35.5t-50 15.5q-70 0 -94 -71l-143 22q25 101 95.5 154t162.5 53q98 0 154.5 -53.5 t43.5 -153.5q-12 -82 -82 -133q86 -62 74 -172q-18 -115 -100 -177.5t-195 -62.5q-105 0 -169.5 64.5t-61.5 173.5l151 29q-2 -45 25.5 -80t75.5 -35q50 0 79.5 26.5t36.5 61.5q8 43 -15 71t-75 29h-59z" />
<glyph unicode="&#xbf;" horiz-adv-x="1175" d="M881 717q-9 -60 -57.5 -103t-108.5 -43t-97 43t-28 103t57.5 102.5t108.5 42.5t97 -42.5t28 -102.5zM803 379l-29 -205q0 -35 -37 -45q-357 -111 -402 -331q-1 -4 -1 -5q-2 -16 0 -34t12 -44.5t28 -46.5t55.5 -34.5t88.5 -14.5q109 0 171.5 55t88.5 136q15 33 43 30 l160 -24q17 -1 25 -13t2 -26q-44 -178 -187.5 -286.5t-335.5 -108.5q-102 0 -182 25.5t-134.5 76t-76.5 130.5t-6 183q5 37 18 77.5t47 97.5t82.5 107.5t133 102.5t190.5 88l12 109q3 14 15.5 24.5t25.5 10.5h164q14 0 23 -11t6 -24z" />
<glyph unicode="&#xc0;" horiz-adv-x="1658" d="M29 33l772 1368q14 33 53 33h205q36 0 45 -33l391 -1368q2 -12 -5.5 -22.5t-19.5 -10.5h-206q-39 0 -45 33l-74 254h-701l-139 -254q-17 -33 -53 -33h-207q-13 0 -18.5 10.5t2.5 22.5zM913 1118l-329 -586h493zM946 2028l275 -228q25 -21 0 -49l-72 -82q-25 -28 -51 -10 l-297 201q-10 8 -11 21t11 26l94 112q24 27 51 9z" />
<glyph unicode="&#xc1;" horiz-adv-x="1658" d="M29 33l772 1368q14 33 53 33h205q36 0 45 -33l391 -1368q2 -12 -5.5 -22.5t-19.5 -10.5h-206q-39 0 -45 33l-74 254h-701l-139 -254q-17 -33 -53 -33h-207q-13 0 -18.5 10.5t2.5 22.5zM913 1118l-329 -586h493zM793 1800l340 228q28 19 47 -9l65 -112q5 -12 0.5 -26 t-16.5 -21l-355 -201q-28 -19 -47 10l-51 82q-15 24 17 49z" />
<glyph unicode="&#xc2;" horiz-adv-x="1658" d="M29 33l772 1368q17 33 53 33h205q39 0 45 -33l391 -1368q3 -12 -5 -22.5t-20 -10.5h-206q-39 0 -45 33l-72 254h-701l-141 -254q-17 -33 -53 -33h-207q-12 0 -17.5 10.5t1.5 22.5zM913 1118l-329 -586h493zM700 1800l308 205q32 22 57 0l250 -205q24 -21 2 -49l-74 -82 q-23 -26 -51 -10l-186 125l-222 -125q-30 -18 -49 10l-49 82q-18 24 14 49z" />
<glyph unicode="&#xc3;" horiz-adv-x="1658" d="M33 33l772 1368q14 33 53 33h205q36 0 45 -33l391 -1368q2 -12 -5 -22.5t-19 -10.5h-207q-39 0 -45 33l-72 254h-700l-142 -254q-17 -33 -53 -33h-207q-13 0 -18.5 10.5t2.5 22.5zM918 1118l-330 -586h493zM1212 1909h91q13 0 21.5 -10.5t6.5 -24.5q-19 -105 -82.5 -166 t-156.5 -66q-41 2 -72 17.5t-45 32.5t-32.5 31t-37.5 14q-16 0 -28.5 -10.5t-18 -20.5t-12.5 -27q-3 -14 -14.5 -24t-24.5 -10h-92q-14 0 -23 10.5t-8 23.5q20 108 83 167.5t157 64.5q34 -2 59 -12.5t39 -24t25 -27t25 -23t32 -9.5q46 0 67 59q3 14 15.5 24.5t25.5 10.5z " />
<glyph unicode="&#xc4;" horiz-adv-x="1658" d="M934 1786q-8 -60 -55 -102t-107 -42t-96.5 42t-28.5 102q7 60 54.5 101.5t107.5 41.5t96.5 -41.5t28.5 -101.5zM1372 1786q-8 -60 -55 -102t-107 -42t-96.5 42t-28.5 102q7 60 54.5 101.5t107.5 41.5t96.5 -41.5t28.5 -101.5zM33 33l770 1368q17 33 55 33h205 q37 0 43 -33l393 -1368q2 -12 -5 -22.5t-19 -10.5h-207q-39 0 -45 33l-74 254h-700l-140 -254q-17 -33 -53 -33h-207q-13 0 -18.5 10.5t2.5 22.5zM918 1118l-330 -586h493z" />
<glyph unicode="&#xc5;" horiz-adv-x="1658" d="M801 1849q14 91 83 152t160 61t143.5 -61t39.5 -152q-12 -90 -82.5 -151.5t-161.5 -61.5q-90 0 -142 61t-40 152zM940 1849q-4 -31 14.5 -52t49.5 -21t54.5 21t28.5 52t-13.5 52.5t-49.5 21.5t-55 -21.5t-29 -52.5zM27 33l772 1368q17 33 53 33h205q39 0 45 -33 l391 -1368q3 -12 -5 -22.5t-20 -10.5h-206q-36 0 -45 33l-72 254h-701l-141 -254q-14 -33 -53 -33h-207q-12 0 -17.5 10.5t1.5 22.5zM911 1118l-329 -586h493z" />
<glyph unicode="&#xc6;" horiz-adv-x="2385" d="M1620 840h537q13 0 22.5 -10.5t7.5 -24.5l-26 -176q-1 -13 -13 -24t-26 -11h-537l-49 -348h674q13 0 23 -10.5t8 -24.5l-25 -176q-1 -13 -13 -24t-26 -11h-893q-39 0 -45 33l-72 254h-700l-141 -254q-17 -33 -54 -33h-206q-12 0 -18 10.5t1 22.5l772 1368q17 33 53 33 h205q39 0 45 -33l215 -752l105 750q1 13 13 24t26 11h893q13 0 22.5 -10.5t7.5 -24.5l-24 -176q-1 -13 -13 -24t-26 -11h-674zM934 1118l-330 -586h494z" />
<glyph unicode="&#xc7;" horiz-adv-x="1609" d="M561 -342l64 45q12 8 26 6t23 -12q42 -49 92 -49q45 0 66.5 23t25.5 50q3 31 -15.5 48.5t-49.5 17.5q-15 0 -19 -2q-35 0 -47 10q-21 12 -18 41l20 139q-140 10 -250 63t-183.5 144.5t-102.5 228.5t-5 306q25 180 100 323t185.5 234.5t248.5 139.5t294 48q220 0 373 -92 t219 -274q6 -12 -0.5 -25.5t-20.5 -21.5l-174 -80q-14 -7 -26 -2.5t-17 16.5q-23 63 -66 110t-97 73t-110 38.5t-114 12.5q-66 0 -130.5 -14t-133 -50t-123.5 -90.5t-97 -143.5t-57 -202q-16 -113 1 -202t56.5 -143.5t98 -90.5t118.5 -50t126 -14q126 0 250 56t202 176 q8 14 22 18.5t25 -2.5l154 -80q11 -6 14 -19.5t-4 -25.5q-114 -175 -282.5 -267t-376.5 -100l-8 -49q95 0 144.5 -58t37.5 -147q-13 -99 -93 -159t-175 -60q-135 0 -203 109q-17 23 12 49z" />
<glyph unicode="&#xc8;" horiz-adv-x="1249" d="M461 840h536q14 0 24 -11t7 -24l-24 -176q-1 -13 -13 -24t-26 -11h-537l-49 -348h674q13 0 22.5 -10.5t7.5 -24.5l-24 -176q-3 -14 -14.5 -24.5t-24.5 -10.5h-893q-14 0 -24 11t-7 24l189 1364q3 14 15.5 24.5t25.5 10.5h893q14 0 22.5 -11t5.5 -24l-24 -176 q0 -13 -12.5 -24t-26.5 -11h-674zM711 2028l274 -228q25 -21 0 -49l-72 -82q-25 -28 -51 -10l-297 201q-10 8 -11 21t11 26l94 112q24 27 52 9z" />
<glyph unicode="&#xc9;" horiz-adv-x="1249" d="M461 840h536q14 0 24 -11t7 -24l-24 -176q-1 -13 -13 -24t-26 -11h-537l-49 -348h674q13 0 22.5 -10.5t7.5 -24.5l-24 -176q-3 -14 -14.5 -24.5t-24.5 -10.5h-893q-14 0 -24 11t-7 24l189 1364q3 14 15.5 24.5t25.5 10.5h893q14 0 22.5 -11t5.5 -24l-24 -176 q0 -13 -12.5 -24t-26.5 -11h-674zM614 1800l340 228q28 19 47 -9l66 -112q5 -12 0.5 -26t-16.5 -21l-355 -201q-28 -19 -47 10l-51 82q-15 25 16 49z" />
<glyph unicode="&#xca;" horiz-adv-x="1249" d="M1186 1188h-674l-49 -348h536q13 0 23 -10.5t8 -24.5l-26 -176q-1 -13 -13 -24t-26 -11h-537l-49 -348h674q13 0 22.5 -10.5t7.5 -24.5l-24 -176q-1 -13 -13 -24t-26 -11h-893q-13 0 -23 10.5t-8 24.5l191 1364q1 13 13 24t26 11h893q13 0 22.5 -10.5t7.5 -24.5l-24 -176 q-1 -13 -13 -24t-26 -11zM801 1784l-221 -125q-31 -19 -50 10l-49 82q-18 24 15 49l307 205q32 22 57 0l250 -205q24 -21 2 -49l-74 -82q-23 -26 -51 -10z" />
<glyph unicode="&#xcb;" horiz-adv-x="1249" d="M729 1786q-7 -60 -54.5 -102t-107.5 -42t-96.5 42t-28.5 102q7 60 54.5 101.5t107.5 41.5t96.5 -41.5t28.5 -101.5zM1167 1786q-8 -60 -54.5 -102t-106.5 -42t-96.5 42t-28.5 102q7 60 54 101.5t107 41.5t96.5 -41.5t28.5 -101.5zM465 840h536q14 0 24 -11t7 -24 l-24 -176q-3 -14 -14.5 -24.5t-24.5 -10.5h-537l-49 -348h674q13 0 21.5 -10.5t8.5 -24.5l-24 -176q-3 -14 -14.5 -24.5t-24.5 -10.5h-893q-14 0 -24 11t-7 24l189 1364q3 14 15.5 24.5t25.5 10.5h893q14 0 22.5 -11t5.5 -24l-24 -176q0 -13 -12.5 -24t-26.5 -11h-674z" />
<glyph unicode="&#xcc;" horiz-adv-x="526" d="M70 35l188 1364q3 14 15.5 24.5t25.5 10.5h184q14 0 23 -11t6 -24l-188 -1364q-3 -14 -14.5 -24.5t-24.5 -10.5h-185q-14 0 -23.5 11t-6.5 24zM381 2028l274 -228q25 -21 0 -49l-71 -82q-25 -28 -52 -10l-296 201q-10 8 -11 21t11 26l94 112q24 27 51 9z" />
<glyph unicode="&#xcd;" horiz-adv-x="526" d="M512 1399l-188 -1364q-3 -14 -14.5 -24.5t-24.5 -10.5h-185q-14 0 -23.5 11t-6.5 24l188 1364q3 14 15.5 24.5t25.5 10.5h184q14 0 23 -11t6 -24zM227 1800l340 228q28 19 47 -9l66 -112q5 -12 0.5 -26t-16.5 -21l-355 -201q-28 -19 -47 10l-51 82q-15 25 16 49z" />
<glyph unicode="&#xce;" horiz-adv-x="712" d="M606 1399l-190 -1364q-1 -13 -13 -24t-26 -11h-184q-13 0 -23 10.5t-8 24.5l190 1364q1 13 13 24t26 11h184q13 0 23 -10.5t8 -24.5zM227 1800l308 205q32 22 57 0l250 -205q24 -21 2 -49l-74 -82q-23 -26 -51 -10l-187 125l-221 -125q-30 -18 -49 10l-49 82 q-18 24 14 49z" />
<glyph unicode="&#xcf;" horiz-adv-x="765" d="M487 1786q-8 -60 -54.5 -102t-106.5 -42t-96.5 42t-28.5 102q7 60 54 101.5t107 41.5t96.5 -41.5t28.5 -101.5zM926 1786q-8 -60 -55 -102t-107 -42t-96.5 42t-28.5 102q7 60 54.5 101.5t107.5 41.5t96.5 -41.5t28.5 -101.5zM635 1399l-189 -1364q-3 -14 -14 -24.5 t-24 -10.5h-185q-14 0 -23.5 11t-6.5 24l188 1364q3 14 15.5 24.5t25.5 10.5h184q14 0 23 -11t6 -24z" />
<glyph unicode="&#xd0;" horiz-adv-x="1570" d="M387 1434h512q150 0 269.5 -46t202 -133.5t116.5 -225.5t10 -312q-25 -174 -97.5 -311.5t-179 -225.5t-238.5 -134t-282 -46h-512q-13 0 -22.5 10.5t-7.5 24.5l80 577h-150q-14 0 -23 11t-6 24l19 137q1 13 13 24t26 11h149l82 580q1 13 13 24t26 11zM440 246h293 q223 0 351 127.5t159 343.5q29 216 -63 343.5t-314 127.5h-293l-53 -369h297q13 0 23 -10.5t8 -24.5l-19 -137q-3 -14 -15.5 -24.5t-25.5 -10.5h-296z" />
<glyph unicode="&#xd1;" horiz-adv-x="1572" d="M330 1434h184q35 0 51 -29l582 -973l135 967q1 13 13 24t26 11h184q13 0 23 -10.5t8 -24.5l-190 -1364q-3 -14 -14.5 -24.5t-24.5 -10.5h-185q-37 0 -53 29l-580 970l-135 -964q-3 -14 -14.5 -24.5t-24.5 -10.5h-184q-14 0 -24 11t-7 24l191 1364q1 13 13 24t26 11z M1169 1909h91q13 0 21.5 -10.5t6.5 -24.5q-19 -105 -82.5 -166t-156.5 -66q-41 2 -72 17.5t-45 32.5t-32.5 31t-37.5 14q-16 0 -28.5 -10.5t-18 -20.5t-12.5 -27q-3 -14 -14.5 -24t-24.5 -10h-92q-14 0 -23 10.5t-8 23.5q20 108 83 167.5t157 64.5q34 -2 59 -12.5t39 -24 t25 -27t25 -23t32 -9.5q46 0 67 59q3 14 15.5 24.5t25.5 10.5z" />
<glyph unicode="&#xd2;" horiz-adv-x="1695" d="M979 1462q156 0 281 -48t210.5 -139.5t121 -234.5t10.5 -323q-21 -145 -74 -266.5t-130 -209t-176 -149t-212.5 -91.5t-237.5 -30q-156 0 -280.5 48t-210 139.5t-120.5 235t-9 323.5q25 180 99.5 323t185 234.5t248.5 139.5t294 48zM807 217q66 0 130 14t132.5 50 t123.5 90.5t97 143.5t58 202q15 113 -2.5 202t-57 143.5t-98 90.5t-118.5 50t-126 14t-130 -14t-133 -50t-123.5 -90.5t-96.5 -143.5t-57 -202q-16 -113 1.5 -202t56.5 -143.5t97.5 -90.5t119 -50t126.5 -14zM932 2028l276 -228q23 -23 0 -49l-73 -82q-23 -30 -50 -10 l-297 201q-11 8 -12 21.5t10 25.5l95 112q27 27 51 9z" />
<glyph unicode="&#xd3;" horiz-adv-x="1695" d="M979 1462q156 0 281 -48t210.5 -139.5t121 -234.5t10.5 -323q-21 -145 -74 -266.5t-130 -209t-176 -149t-212.5 -91.5t-237.5 -30q-156 0 -280.5 48t-210 139.5t-120.5 235t-9 323.5q25 180 99.5 323t185 234.5t248.5 139.5t294 48zM807 217q66 0 130 14t132.5 50 t123.5 90.5t97 143.5t58 202q15 113 -2.5 202t-57 143.5t-98 90.5t-118.5 50t-126 14t-130 -14t-133 -50t-123.5 -90.5t-96.5 -143.5t-57 -202q-16 -113 1.5 -202t56.5 -143.5t97.5 -90.5t119 -50t126.5 -14zM846 1800l338 228q32 19 47 -9l65 -112q6 -12 1.5 -25.5 t-15.5 -21.5l-354 -201q-28 -17 -49 10l-50 82q-16 26 17 49z" />
<glyph unicode="&#xd4;" horiz-adv-x="1695" d="M979 1462q156 0 281 -48t211 -139.5t121.5 -234.5t9.5 -323t-101 -323.5t-185 -235t-248 -139.5t-294 -48t-281 48t-210.5 139.5t-121 235t-9.5 323.5t100.5 323t185 234.5t248 139.5t293.5 48zM807 217q66 0 130.5 14t133 50t123.5 90.5t97 143.5t57 202t-2.5 202 t-57 143.5t-98 90.5t-118.5 50t-126 14t-130 -14t-133 -50t-123.5 -90.5t-96.5 -143.5t-57 -202q-13 -84 -5.5 -151t25.5 -119t51 -91t69.5 -65.5t82 -43t89 -23.5t89.5 -7zM721 1800l307 205q28 22 57 0l250 -205q23 -23 0 -49l-71 -82q-23 -26 -54 -10l-186 125l-221 -125 q-28 -19 -47 10l-51 82q-16 26 16 49z" />
<glyph unicode="&#xd5;" horiz-adv-x="1695" d="M983 1462q156 0 281 -48t211 -139.5t121.5 -234.5t9.5 -323q-21 -145 -74 -266.5t-130 -209t-176 -149t-212.5 -91.5t-237.5 -30q-156 0 -280.5 48t-210 139.5t-120.5 235t-9 323.5t100.5 323t185 234.5t248 139.5t293.5 48zM811 217q66 0 130 14t132.5 50t123.5 90.5 t97 143.5t58 202q15 113 -2.5 202t-57 143.5t-98 90.5t-118.5 50t-126 14t-130 -14t-133 -50t-123.5 -90.5t-96.5 -143.5t-57 -202q-16 -113 1.5 -202t56.5 -143.5t97.5 -90.5t119 -50t126.5 -14zM1233 1909h90q13 0 21.5 -10.5t5.5 -24.5q-17 -105 -81 -166t-159 -66 q-40 2 -70.5 17.5t-44.5 32.5t-32 31t-37 14q-37 0 -60 -58q-5 -14 -15.5 -24t-23.5 -10h-92q-14 0 -23.5 10.5t-6.5 23.5q20 109 82 168t157 64q41 -2 69.5 -17.5t40.5 -33t29 -31.5t39 -14q29 0 45.5 18t22.5 41q5 14 17.5 24.5t25.5 10.5z" />
<glyph unicode="&#xd6;" horiz-adv-x="1695" d="M983 1462q156 0 281 -48t210.5 -139.5t121 -234.5t10.5 -323q-21 -145 -74 -266.5t-130 -209t-176 -149t-212.5 -91.5t-237.5 -30q-156 0 -280.5 48t-210 139.5t-120.5 235t-9 323.5q25 180 99.5 323t185 234.5t248.5 139.5t294 48zM809 217q66 0 130.5 14t133 50 t123.5 90.5t97.5 143.5t58.5 202q15 113 -2.5 202t-57 143.5t-98 90.5t-118.5 50t-126 14t-130 -14t-133 -50t-123.5 -90.5t-96.5 -143.5t-57 -202q-16 -113 1 -202t56 -143.5t97.5 -90.5t118.5 -50t126 -14zM952 1786q-8 -60 -54.5 -102t-106.5 -42t-96.5 42t-28.5 102 q9 60 56 101.5t107 41.5t96 -41.5t27 -101.5zM1391 1786q-7 -60 -54.5 -102t-107.5 -42t-96.5 42t-28.5 102q9 60 56.5 101.5t107.5 41.5t96 -41.5t27 -101.5z" />
<glyph unicode="&#xd7;" horiz-adv-x="919" d="M801 569l-185 -161l140 -162q20 -27 -8 -49l-91 -80q-28 -25 -49 0l-139 162l-186 -164q-28 -25 -50 0l-69 80q-20 27 8 49l186 164l-133 155q-23 23 6 49l91 80q31 24 49 0l135 -155l182 161q31 24 49 0l72 -80q19 -25 -8 -49z" />
<glyph unicode="&#xd8;" horiz-adv-x="1695" d="M997 1462q223 0 381 -96l142 143q12 11 26 13t23 -6l92 -82q12 -7 12.5 -22.5t-10.5 -25.5l-145 -147q147 -196 102 -522q-26 -180 -101 -323.5t-185.5 -235t-248.5 -139.5t-294 -48q-239 0 -410 115l-119 -123q-11 -11 -24.5 -12.5t-24.5 8.5l-92 82q-11 10 -10.5 24.5 t12.5 24.5l129 131q-124 191 -82 496q26 180 100.5 323t185 234.5t248 139.5t293.5 48zM825 217q66 0 130.5 14t133 50t123.5 90.5t97 143.5t57 202q27 193 -45 321l-746 -755q107 -66 250 -66zM424 717q-23 -182 29 -293l729 743q-97 50 -217 50q-66 0 -130.5 -14t-133 -50 t-123.5 -90.5t-97 -143.5t-57 -202z" />
<glyph unicode="&#xd9;" horiz-adv-x="1495" d="M1083 565l117 834q3 14 14.5 24.5t24.5 10.5h184q14 0 24 -11t7 -24l-117 -834q-20 -143 -80.5 -257t-149.5 -187t-200 -111.5t-235 -38.5t-224.5 38.5t-170 111.5t-98.5 187t-9 257l117 834q3 14 14.5 24.5t24.5 10.5h184q14 0 24 -11t7 -24l-117 -834q-12 -86 1.5 -151 t42 -101.5t72 -59t83 -29.5t84.5 -7q48 0 92.5 9t92 33.5t85 62t66.5 100.5t40 143zM864 2028l277 -228q23 -23 0 -49l-74 -82q-23 -30 -49 -10l-297 201q-11 8 -12 21.5t10 25.5l94 112q27 27 51 9z" />
<glyph unicode="&#xda;" horiz-adv-x="1495" d="M1083 565l117 834q3 14 14.5 24.5t24.5 10.5h184q14 0 24 -11t7 -24l-117 -834q-20 -143 -80.5 -257t-149.5 -187t-200 -111.5t-235 -38.5t-224.5 38.5t-170 111.5t-98.5 187t-9 257l117 834q3 14 14.5 24.5t24.5 10.5h184q14 0 24 -11t7 -24l-117 -834q-12 -86 1.5 -151 t42 -101.5t72 -59t83 -29.5t84.5 -7q48 0 92.5 9t92 33.5t85 62t66.5 100.5t40 143zM713 1800l338 228q31 19 47 -9l65 -112q6 -12 1.5 -25.5t-15.5 -21.5l-354 -201q-29 -17 -50 10l-49 82q-16 26 17 49z" />
<glyph unicode="&#xdb;" horiz-adv-x="1495" d="M1085 565l115 834q3 14 14.5 24.5t24.5 10.5h184q14 0 24 -11t7 -24l-115 -834q-21 -143 -81.5 -257t-149.5 -187t-199.5 -111.5t-234.5 -38.5t-225 38.5t-170.5 111.5t-98.5 187t-8 257l115 834q3 14 14.5 24.5t24.5 10.5h184q14 0 24 -11t7 -24l-115 -834 q-12 -86 1.5 -151t41.5 -101.5t71.5 -59t82.5 -29.5t84 -7q48 0 92.5 9t92 33.5t85 62t67 100.5t41.5 143zM621 1800l307 205q28 22 57 0l250 -205q23 -23 0 -49l-72 -82q-22 -25 -53 -10l-186 125l-222 -125q-28 -19 -47 10l-51 82q-16 26 17 49z" />
<glyph unicode="&#xdc;" horiz-adv-x="1495" d="M852 1786q-8 -60 -55 -102t-107 -42t-96.5 42t-28.5 102q9 60 56.5 101.5t107.5 41.5t96 -41.5t27 -101.5zM1290 1786q-8 -60 -55 -102t-107 -42t-96 42t-28 102q9 60 56 101.5t107 41.5t96 -41.5t27 -101.5zM1087 565l117 834q1 13 13 24t26 11h184q13 0 23 -10.5 t8 -24.5l-117 -834q-20 -143 -80.5 -257t-149.5 -187t-200 -111.5t-235 -38.5t-224.5 38.5t-170 111.5t-98.5 187t-9 257l117 834q1 13 13 24t26 11h184q13 0 23 -10.5t8 -24.5l-117 -834q-12 -86 1.5 -151t41.5 -101.5t71.5 -59t82.5 -29.5t84 -7q48 0 92.5 9t92.5 33.5 t85.5 62t67 100.5t40.5 143z" />
<glyph unicode="&#xdd;" horiz-adv-x="1536" d="M1559 1405l-658 -827l-74 -543q-3 -14 -14.5 -24.5t-24.5 -10.5h-184q-14 0 -24 11t-7 24l74 543l-424 827q-4 10 3 19.5t18 9.5h233q33 0 49 -29l285 -563l444 563q19 29 58 29h233q11 0 15.5 -9t-2.5 -20zM772 1800l340 228q28 19 47 -9l66 -112q5 -12 0 -26t-17 -21 l-354 -201q-28 -19 -47 10l-51 82q-15 25 16 49z" />
<glyph unicode="&#xde;" horiz-adv-x="1366" d="M395 215l-24 -180q-1 -13 -13 -24t-26 -11h-185q-13 0 -22.5 10.5t-7.5 24.5l190 1364q1 13 13 24t26 11h184q13 0 23 -10.5t8 -24.5l-24 -180h333q104 0 188 -31.5t143 -92t83.5 -158t7.5 -220.5q-18 -126 -69.5 -223.5t-128 -157.5t-168.5 -90.5t-197 -30.5h-334z M836 973h-334l-72 -512h334q68 0 119.5 24t81.5 64t46 81t23 87q2 33 3 68.5t-12 69t-33.5 60t-60.5 42.5t-95 16z" />
<glyph unicode="&#xdf;" horiz-adv-x="1318" d="M469 35l53 153q8 14 21 22.5t24 4.5q49 -12 97 -12q120 0 194.5 66.5t87.5 158.5q14 109 -44 168t-191 59h-31q-14 0 -23 11t-6 24l21 158q3 14 15.5 24.5t25.5 10.5h37q94 0 146.5 51t61.5 119q6 42 -6 73.5t-32 48.5t-47 27.5t-45.5 13.5t-32.5 3q-52 0 -97.5 -11.5 t-87 -37.5t-69.5 -73t-37 -112l-133 -950q-1 -13 -13 -24t-26 -11h-185q-13 0 -22.5 10.5t-7.5 24.5l135 966q15 97 58 176.5t101 131.5t130.5 87t146 50.5t148.5 15.5q189 0 294.5 -100t83.5 -293q-26 -168 -176 -274q89 -44 136 -139t30 -230q-23 -143 -105.5 -248 t-199.5 -156t-254 -51q-77 0 -156 21q-32 8 -20 43z" />
<glyph unicode="&#xe0;" horiz-adv-x="1089" d="M846 1137l-70 -82q-28 -28 -53 -11l-297 201q-11 8 -12 21t12 26l94 113q23 26 51 8l275 -227q24 -21 0 -49zM602 844q189 0 294.5 -112.5t78.5 -317.5l-53 -379q-3 -14 -14.5 -24.5t-24.5 -10.5h-146q-14 0 -23.5 11t-6.5 24l12 90q-52 -72 -130.5 -112t-166.5 -40 q-172 0 -256 120t-57 315q29 198 168 317t325 119zM506 197q47 0 96 22.5t90 72.5t49 116q8 55 -4.5 97.5t-39 66t-58.5 35t-66 11.5q-77 0 -148 -53.5t-87 -154.5q-8 -59 2.5 -102t36.5 -66.5t58 -34t71 -10.5z" />
<glyph unicode="&#xe1;" horiz-adv-x="1089" d="M719 125l-17 -125h216l57 414q27 205 -78.5 317.5t-294.5 112.5q-186 0 -325 -119t-168 -317q-27 -195 57 -315t256 -120q88 0 166.5 40t130.5 112zM573 618q34 0 66 -11.5t58.5 -35t39 -66t4.5 -97.5q-8 -66 -49 -116t-90 -72.5t-96 -22.5q-39 0 -71 10.5t-58 34 t-36.5 66.5t-2.5 102q16 101 87 154.5t148 53.5zM479 1055l-53 82q-13 29 16 49l340 227q29 19 47 -8l66 -113q6 -13 1 -26t-17 -21l-355 -201q-28 -19 -45 11z" />
<glyph unicode="&#xe2;" horiz-adv-x="1089" d="M657 1169l-221 -125q-31 -18 -47 11l-51 82q-18 24 14 49l307 205q32 23 58 0l250 -205q24 -21 2 -49l-72 -82q-26 -26 -53 -11zM604 844q189 0 294 -112.5t77 -317.5l-53 -379q-1 -13 -13 -24t-26 -11h-146q-13 0 -22.5 10.5t-7.5 24.5l12 90q-52 -72 -130.5 -112 t-166.5 -40q-172 0 -256 120t-57 315q29 198 169 317t326 119zM508 197q47 0 95.5 22.5t89 72.5t48.5 116q8 55 -4.5 97.5t-39 66t-58.5 35t-66 11.5q-77 0 -148 -53.5t-87 -154.5q-8 -59 3 -102t37 -66.5t58.5 -34t71.5 -10.5z" />
<glyph unicode="&#xe3;" horiz-adv-x="1089" d="M557 1122q-23 0 -36 -15.5t-23 -41.5q-3 -14 -14.5 -24.5t-24.5 -10.5h-92q-13 0 -23 10.5t-8 24.5q20 108 82.5 167t156.5 64q34 -2 59 -12.5t39 -24t25.5 -27t25.5 -23t32 -9.5q20 0 35 11.5t21 21.5t13 27q1 13 13 23.5t26 10.5h90q13 0 22 -10t9 -24 q-20 -105 -84.5 -166t-157.5 -66q-41 2 -71.5 17t-45 32t-32.5 31t-37 14zM608 844q189 0 294 -112.5t77 -317.5l-53 -379q-3 -14 -14.5 -24.5t-24.5 -10.5h-146q-14 0 -23.5 11t-6.5 24l12 90q-52 -72 -130.5 -112t-166.5 -40q-172 0 -256 120t-57 315q29 198 169 317 t326 119zM512 197q47 0 95.5 22.5t89 72.5t48.5 116q8 55 -4 97.5t-39 66t-58.5 35t-65.5 11.5q-77 0 -148.5 -53.5t-87.5 -154.5q-8 -59 3 -102t37 -66.5t58.5 -34t71.5 -10.5z" />
<glyph unicode="&#xe4;" horiz-adv-x="1089" d="M586 1171q-7 -60 -54.5 -101.5t-107.5 -41.5t-96.5 41.5t-28.5 101.5q7 60 54.5 102t107.5 42t96.5 -42t28.5 -102zM1024 1171q-7 -60 -54.5 -101.5t-107.5 -41.5t-96.5 41.5t-28.5 101.5q7 60 54.5 102t107.5 42t96.5 -42t28.5 -102zM606 844q189 0 294.5 -112.5 t78.5 -317.5l-53 -379q-3 -14 -14.5 -24.5t-24.5 -10.5h-146q-14 0 -23.5 11t-6.5 24l12 90q-54 -72 -132 -112t-165 -40q-172 0 -256 120t-59 315q30 198 169.5 317t325.5 119zM510 197q76 0 149 57t84 154q17 105 -36 157.5t-129 52.5q-35 0 -71.5 -12.5t-71 -36 t-60.5 -65t-35 -94.5q-14 -113 36 -163t134 -50z" />
<glyph unicode="&#xe5;" horiz-adv-x="1089" d="M453 1235q14 91 83 152t160 61t143.5 -61t39.5 -152q-12 -90 -82.5 -151.5t-161.5 -61.5q-90 0 -142 61t-40 152zM592 1235q-5 -31 13.5 -52.5t49.5 -21.5t55 21.5t29 52.5t-13.5 52.5t-49.5 21.5t-55 -21.5t-29 -52.5zM602 844q189 0 294 -112.5t77 -317.5l-53 -379 q-1 -13 -13 -24t-26 -11h-146q-13 0 -22.5 10.5t-7.5 24.5l14 90q-54 -72 -132.5 -112t-166.5 -40q-172 0 -256.5 120t-57.5 315q29 198 169.5 317t326.5 119zM506 197q47 0 95.5 22.5t89 72.5t48.5 116q8 55 -4.5 97.5t-39 66t-58.5 35t-66 11.5q-77 0 -148 -53.5 t-87 -154.5q-14 -113 36 -163t134 -50z" />
<glyph unicode="&#xe6;" horiz-adv-x="1568" d="M1491 410v-2q0 -17 -11.5 -26t-29.5 -9h-586q-1 -51 13 -87.5t39.5 -54.5t53.5 -26t62 -8q89 0 148 39q30 21 57 6l115 -76q12 -8 14 -22t-10 -25q-147 -144 -352 -144q-159 0 -277 109q-107 -107 -289 -107q-165 0 -258 71t-74 214q21 141 134 211.5t276 65.5 q75 -3 139 -25q5 16 1 38t-13 42.5t-39 34.5t-76 14q-84 0 -145 -57q-28 -28 -53 -21l-137 37q-16 4 -20 14t1 27q51 105 155 157t230 52q186 0 264 -119q158 111 299 111q92 0 166 -28t125 -81t72 -136.5t6 -188.5zM616 287q-19 47 -129 47q-57 0 -94.5 -15.5t-48.5 -29.5 t-14 -27q0 -11 4.5 -21.5t17 -23.5t42 -21t73.5 -8q106 0 141 50q20 26 8 49zM1092 616q-58 0 -111.5 -27t-83.5 -85h358q-16 58 -61.5 85t-101.5 27z" />
<glyph unicode="&#xe7;" horiz-adv-x="1017" d="M272 -342l62 45q13 8 27.5 6t21.5 -12q42 -49 94 -49q45 0 65.5 23t24.5 50q4 31 -15 48.5t-50 17.5q-15 0 -19 -2q-35 0 -45 10q-24 14 -18 41l20 146q-157 21 -238.5 131t-56.5 297q19 139 90.5 239t174 147.5t225.5 47.5q137 0 232 -59t128 -173q4 -13 -4 -26.5 t-22 -18.5l-164 -53q-13 -4 -26.5 2.5t-18.5 18.5q-40 81 -154 81q-35 0 -69 -10.5t-67 -33t-57 -64.5t-32 -98t4 -98.5t38.5 -65t57.5 -33t66 -10.5q111 0 176 76q24 27 53 18l139 -64q13 -5 17 -18t-4 -27q-62 -97 -157.5 -150t-213.5 -61l-8 -53q95 0 144.5 -58 t37.5 -147q-14 -99 -93.5 -159t-174.5 -60q-134 0 -205 109q-16 26 14 49z" />
<glyph unicode="&#xe8;" d="M969 410v-2q-3 -35 -43 -35h-586q-1 -51 13 -87.5t39.5 -54.5t53.5 -26t62 -8q90 0 149 39q28 22 56 6l114 -76q12 -8 14.5 -22t-7.5 -25q-150 -144 -355 -144q-189 0 -293.5 113.5t-76.5 321.5q19 139 90 239t173.5 147.5t225.5 47.5q189 0 294 -113t77 -321zM557 1413 l274 -227q25 -21 0 -49l-69 -82q-28 -28 -53 -11l-297 201q-11 8 -12 21t12 26l94 113q23 26 51 8zM532 614q-115 -19 -159 -110h358q-23 91 -129 110q-31 3 -70 0z" />
<glyph unicode="&#xe9;" d="M969 410v-2q-3 -35 -43 -35h-586q-1 -51 13 -87.5t39.5 -54.5t53.5 -26t62 -8q90 0 149 39q28 22 56 6l114 -76q12 -8 14.5 -22t-7.5 -25q-150 -144 -355 -144q-189 0 -293.5 113.5t-76.5 321.5q19 139 90 239t173.5 147.5t225.5 47.5q189 0 294 -113t77 -321zM467 1186 l340 227q29 19 47 -8l66 -113q4 -12 -1 -25.5t-16 -21.5l-354 -201q-28 -19 -45 11l-53 82q-15 25 16 49zM532 614q-115 -19 -159 -110h358q-23 91 -129 110q-31 3 -70 0z" />
<glyph unicode="&#xea;" d="M645 1169l-221 -125q-31 -18 -47 11l-51 82q-18 24 14 49l307 205q32 23 58 0l249 -205q24 -21 2 -49l-71 -82q-26 -26 -54 -11zM969 410v-2q-3 -35 -41 -35h-586q-1 -51 13 -87.5t39.5 -54.5t53.5 -26t62 -8q88 0 147 39q29 23 56 6l116 -76q11 -8 13 -22t-8 -25 q-147 -144 -355 -144q-189 0 -293.5 113.5t-76.5 321.5q30 208 166 321t325 113q92 0 166 -28t125 -81t72 -136.5t6 -188.5zM373 504h358q-14 58 -59.5 85t-102.5 27q-58 0 -111.5 -27t-84.5 -85z" />
<glyph unicode="&#xeb;" d="M571 1171q-6 -60 -52.5 -101.5t-106.5 -41.5t-96.5 41.5t-30.5 101.5q9 60 56.5 102t107.5 42t95.5 -42t26.5 -102zM1010 1171q-6 -60 -53 -101.5t-107 -41.5t-96.5 41.5t-30.5 101.5q9 60 56.5 102t107.5 42t96 -42t27 -102zM971 410v-2q0 -17 -11.5 -26t-29.5 -9h-586 q-1 -51 13 -87.5t39.5 -54.5t53.5 -26t62 -8q88 0 150 39q27 21 55 6l114 -76q12 -8 14.5 -22t-7.5 -25q-150 -144 -355 -144q-189 0 -294 113.5t-78 321.5q30 208 166 321t325 113q92 0 166 -28t125 -81t72 -136.5t6 -188.5zM377 504h358q-14 58 -59.5 85t-102.5 27 q-58 0 -111.5 -27t-84.5 -85z" />
<glyph unicode="&#xec;" horiz-adv-x="526" d="M440 784l-104 -749q-1 -13 -13 -24t-26 -11h-168q-13 0 -23 10.5t-8 24.5l105 749q3 14 14.5 24.5t24.5 10.5h168q14 0 23.5 -11t6.5 -24zM315 1413l277 -227q23 -23 0 -49l-72 -82q-26 -30 -51 -11l-297 201q-11 8 -12 21.5t10 25.5l94 113q26 26 51 8z" />
<glyph unicode="&#xed;" horiz-adv-x="526" d="M440 784l-104 -749q-1 -13 -13 -24t-26 -11h-168q-13 0 -23 10.5t-8 24.5l105 749q3 14 14.5 24.5t24.5 10.5h168q14 0 23.5 -11t6.5 -24zM164 1186l338 227q32 19 47 -8l65 -113q6 -12 1.5 -25.5t-15.5 -21.5l-354 -201q-28 -17 -47 11l-52 82q-16 26 17 49z" />
<glyph unicode="&#xee;" horiz-adv-x="712" d="M532 784l-102 -749q-3 -14 -14.5 -24.5t-24.5 -10.5h-168q-14 0 -23.5 11t-6.5 24l102 749q3 14 14.5 24.5t24.5 10.5h168q14 0 23.5 -11t6.5 -24zM164 1186l307 205q29 22 57 0l250 -205q24 -21 0 -49l-69 -82q-26 -26 -56 -11l-186 125l-221 -125q-28 -19 -45 11 l-54 82q-15 24 17 49z" />
<glyph unicode="&#xef;" horiz-adv-x="765" d="M422 1171q-7 -60 -54.5 -101.5t-107.5 -41.5t-96.5 41.5t-28.5 101.5q9 60 56.5 102t107.5 42t96 -42t27 -102zM860 1171q-7 -60 -54.5 -101.5t-107.5 -41.5t-96.5 41.5t-28.5 101.5q9 60 56.5 102t107.5 42t96 -42t27 -102zM563 784l-104 -749q-1 -13 -13 -24t-26 -11 h-168q-13 0 -23 10.5t-8 24.5l105 749q1 13 13 24t26 11h167q13 0 23 -10.5t8 -24.5z" />
<glyph unicode="&#xf0;" horiz-adv-x="1114" d="M1075 1208l-137 -61q115 -377 57 -733q-36 -200 -176 -319.5t-325 -119.5q-181 0 -286.5 123.5t-80.5 311.5q30 207 163 318.5t320 111.5q43 0 98 -17t89 -53q-3 119 -54 289l-104 -47q-14 -6 -26.5 -1t-18.5 17l-27 74q-6 12 0.5 25.5t20.5 19.5l108 49q-7 22 -53 133 q-6 12 0.5 26.5t18.5 20.5l124 64q13 6 27.5 2t20.5 -17q53 -124 59 -143l133 61q29 13 47 -16l23 -74q6 -12 -0.5 -25.5t-20.5 -19.5zM528 203q27 0 55 6t57.5 21.5t53 38t41 59.5t23.5 82q9 56 -3.5 97.5t-40 64.5t-59.5 33.5t-67 10.5t-68.5 -10.5t-66.5 -33t-57.5 -64.5 t-33.5 -98q-7 -56 5 -98.5t38.5 -65t57 -33t65.5 -10.5z" />
<glyph unicode="&#xf1;" horiz-adv-x="1056" d="M598 844q178 0 277 -106.5t71 -303.5l-53 -399q-3 -14 -15.5 -24.5t-25.5 -10.5h-168q-14 0 -23 11t-6 24l54 399q13 82 -22.5 132t-119.5 50q-86 0 -133.5 -49t-60.5 -133l-54 -399q-3 -14 -15 -24.5t-25 -10.5h-168q-14 0 -23 11t-6 24l53 399q19 132 87 226t164 139 t212 45zM848 1294h90q13 0 22 -10t7 -24q-19 -105 -83.5 -166t-158.5 -66q-33 2 -58.5 12t-41 23.5t-28 27t-26.5 22.5t-30 9q-37 0 -60 -57q-12 -35 -39 -35h-92q-14 0 -24 11t-7 24q20 109 82.5 167.5t157.5 63.5q41 -2 69.5 -17.5t40.5 -33t29 -31.5t39 -14q49 0 70 60 q3 14 15.5 24t25.5 10z" />
<glyph unicode="&#xf2;" d="M598 844q189 0 294 -113t77 -321q-19 -139 -90.5 -239t-174 -148t-225.5 -48q-189 0 -293.5 113.5t-76.5 321.5q19 139 90 239t173.5 147.5t225.5 47.5zM510 203q77 0 142 49.5t81 157.5q8 56 -3.5 98t-38 64.5t-57 33t-65.5 10.5t-69 -10.5t-67 -33t-57 -64.5t-32 -98 t4 -98.5t38.5 -65t57.5 -33t66 -10.5zM555 1413l274 -227q25 -21 0 -49l-69 -82q-28 -28 -53 -11l-297 201q-11 8 -12 21t12 26l94 113q23 26 51 8z" />
<glyph unicode="&#xf3;" d="M598 844q189 0 294 -113t77 -321q-19 -139 -90.5 -239t-174 -148t-225.5 -48q-189 0 -293.5 113.5t-76.5 321.5q19 139 90 239t173.5 147.5t225.5 47.5zM510 203q77 0 142 49.5t81 157.5q8 56 -3.5 98t-38 64.5t-57 33t-65.5 10.5t-69 -10.5t-67 -33t-57 -64.5t-32 -98 t4 -98.5t38.5 -65t57.5 -33t66 -10.5zM459 1186l340 227q29 19 47 -8l65 -113q4 -12 -0.5 -25.5t-15.5 -21.5l-354 -201q-28 -19 -45 11l-54 82q-15 24 17 49z" />
<glyph unicode="&#xf4;" d="M600 844q92 0 166 -28t125 -81t72 -136.5t6 -188.5q-19 -139 -90.5 -239t-174 -148t-225.5 -48q-189 0 -293.5 113.5t-76.5 321.5q30 208 166 321t325 113zM510 203q77 0 143 49.5t80 157.5q8 56 -3.5 98t-38 64.5t-57 33t-65.5 10.5t-69 -10.5t-67 -33t-57 -64.5 t-32 -98q-7 -56 5 -98.5t38.5 -65t57 -33t65.5 -10.5zM340 1186l307 205q32 23 58 0l249 -205q24 -21 2 -49l-71 -82q-26 -26 -54 -11l-186 125l-221 -125q-31 -18 -47 11l-51 82q-18 24 14 49z" />
<glyph unicode="&#xf5;" d="M604 844q92 0 166 -28t125 -81t72 -136.5t6 -188.5q-19 -139 -90.5 -239t-174 -148t-225.5 -48q-189 0 -293.5 113.5t-76.5 321.5q30 208 166 321t325 113zM514 203q77 0 142 49.5t81 157.5q8 56 -3.5 98t-38 64.5t-57 33t-65.5 10.5t-69 -10.5t-67 -33t-57 -64.5 t-32 -98t4 -98.5t38.5 -65t57.5 -33t66 -10.5zM852 1294h90q13 0 22 -10t9 -24q-20 -105 -84.5 -166t-157.5 -66q-41 2 -71.5 17t-45 32t-32.5 31t-37 14q-37 0 -60 -57q-3 -14 -14.5 -24.5t-24.5 -10.5h-92q-13 0 -22.5 10.5t-7.5 24.5q20 108 82.5 167t156.5 64 q34 -2 59 -12.5t39 -24t25 -27t25 -23t32 -9.5q44 0 70 60q1 13 13 23.5t26 10.5z" />
<glyph unicode="&#xf6;" d="M602 844q92 0 166 -28t125 -81t72 -136.5t6 -188.5q-27 -208 -162.5 -321.5t-325.5 -113.5q-189 0 -294 113.5t-78 321.5q30 208 166 321t325 113zM512 203q77 0 143 49.5t80 157.5q9 56 -2.5 98t-37.5 64.5t-56.5 33t-65.5 10.5t-69 -10.5t-67 -33t-57.5 -64.5 t-33.5 -98q-7 -56 5 -98.5t38.5 -65t57 -33t65.5 -10.5zM571 1171q-6 -60 -52.5 -101.5t-106.5 -41.5t-96.5 41.5t-30.5 101.5q9 60 56.5 102t107.5 42t95.5 -42t26.5 -102zM1010 1171q-6 -60 -53 -101.5t-107 -41.5t-96.5 41.5t-30.5 101.5q9 60 56.5 102t107.5 42t96 -42 t27 -102z" />
<glyph unicode="&#xf7;" horiz-adv-x="956" d="M313 115q9 60 57.5 102.5t108.5 42.5t97 -42.5t28 -102.5q-7 -60 -56.5 -103t-109.5 -43t-96.5 43t-28.5 103zM401 733q8 60 56 103t108 43t97.5 -43t29.5 -103q-9 -60 -57.5 -102.5t-108.5 -42.5t-97 42.5t-28 102.5zM793 328h-600q-14 0 -23 10.5t-8 23.5l16 113 q1 13 13 24t26 11h600q13 0 23 -10.5t8 -24.5l-17 -113q-1 -13 -12.5 -23.5t-25.5 -10.5z" />
<glyph unicode="&#xf8;" horiz-adv-x="1069" d="M623 844q116 0 208 -47l89 92q29 26 51 4l55 -53q10 -10 9.5 -24.5t-13.5 -24.5l-86 -89q81 -114 55 -292q-19 -139 -90 -239t-173.5 -148t-225.5 -48q-129 0 -226 54l-71 -76q-33 -25 -51 -4l-56 53q-10 11 -10 25t12 24l78 78q-71 108 -47 281q30 208 166.5 321 t325.5 113zM532 203q35 0 69 10.5t67 33t57 65t31 98.5q9 61 -4 102l-293 -297q28 -12 73 -12zM367 410q-6 -52 2 -86l278 284q-24 8 -55 8q-35 0 -69 -10.5t-67 -33t-57 -64.5t-32 -98z" />
<glyph unicode="&#xf9;" horiz-adv-x="1056" d="M510 -25h-70q-166 13 -253 117.5t-60 292.5l53 399q3 14 15.5 24.5t25.5 10.5h168q14 0 23 -11t6 -24l-53 -399q-13 -83 21 -132.5t120 -49.5q84 0 132.5 49.5t61.5 132.5l54 399q3 14 15.5 24.5t25.5 10.5h168q14 0 22.5 -11t5.5 -24l-53 -399q-27 -187 -144 -292 t-284 -118zM565 1413l275 -227q24 -21 0 -49l-70 -82q-28 -28 -53 -11l-297 201q-11 8 -12 21t12 26l94 113q23 26 51 8z" />
<glyph unicode="&#xfa;" horiz-adv-x="1056" d="M510 -25h-70q-166 13 -253 117.5t-60 292.5l53 399q3 14 15.5 24.5t25.5 10.5h168q14 0 23 -11t6 -24l-53 -399q-13 -83 21 -132.5t120 -49.5q84 0 132.5 49.5t61.5 132.5l54 399q3 14 15.5 24.5t25.5 10.5h168q14 0 22.5 -11t5.5 -24l-53 -399q-27 -187 -144 -292 t-284 -118zM442 1186l340 227q29 19 47 -8l66 -113q4 -12 -0.5 -25.5t-15.5 -21.5l-355 -201q-28 -19 -45 11l-53 82q-15 25 16 49z" />
<glyph unicode="&#xfb;" horiz-adv-x="1056" d="M510 -25h-70q-80 6 -142.5 34.5t-106 78.5t-61 126t-3.5 171l55 399q1 13 13 24t26 11h168q13 0 23 -10.5t8 -24.5l-55 -399q-11 -84 22 -133t119 -49q84 0 133.5 50t60.5 132l56 399q1 13 13 24t26 11h168q13 0 22.5 -10.5t7.5 -24.5l-55 -399q-27 -188 -143.5 -292.5 t-284.5 -117.5zM336 1186l307 205q32 22 57 0l250 -205q24 -21 2 -49l-71 -82q-26 -26 -54 -11l-186 125l-221 -125q-31 -18 -47 11l-51 82q-18 24 14 49z" />
<glyph unicode="&#xfc;" horiz-adv-x="1056" d="M567 1171q-6 -60 -52.5 -101.5t-106.5 -41.5t-96.5 41.5t-30.5 101.5q9 60 56 102t107 42t96 -42t27 -102zM1006 1171q-6 -60 -53 -101.5t-107 -41.5t-96.5 41.5t-30.5 101.5q9 60 56.5 102t107.5 42t96 -42t27 -102zM479 -25q-86 0 -156 26.5t-118.5 76.5t-68.5 129 t-5 178l53 399q3 14 14.5 24.5t24.5 10.5h168q14 0 24 -11t7 -24l-53 -399q-13 -83 20 -132.5t119 -49.5q84 0 134 50t63 132l53 399q3 14 14.5 24.5t24.5 10.5h168q14 0 23.5 -11t6.5 -24l-53 -399q-30 -197 -157.5 -303.5t-305.5 -106.5z" />
<glyph unicode="&#xfd;" horiz-adv-x="1112" d="M1114 786l-790 -1355q-21 -27 -52 -19l-147 58q-12 5 -15.5 18t5.5 27l280 485l-241 786q-2 12 5 22.5t19 10.5h191q39 0 45 -33l151 -497l289 497q17 33 53 33h191q12 0 17.5 -10.5t-1.5 -22.5zM506 1186l340 227q30 20 45 -8l65 -113q6 -12 1.5 -25.5t-15.5 -21.5 l-354 -201q-27 -18 -47 11l-52 82q-16 26 17 49z" />
<glyph unicode="&#xfe;" horiz-adv-x="1110" d="M594 -23q-161 0 -234 93l-90 -648q-3 -14 -14.5 -24t-24.5 -10h-168q-14 0 -23.5 10.5t-6.5 23.5l274 1977q3 14 14.5 24.5t24.5 10.5h168q14 0 24 -11t7 -24l-90 -647q99 92 258 92q121 -5 200 -66t107.5 -156t11.5 -212q-15 -115 -70 -210.5t-151 -157.5t-217 -65z M410 414q-9 -56 2.5 -98.5t38 -66t58 -35t66.5 -11.5q72 0 137.5 52.5t84.5 154.5q17 103 -34.5 155.5t-125.5 52.5q-48 0 -93 -17.5t-85 -66t-49 -120.5z" />
<glyph unicode="&#xff;" horiz-adv-x="1112" d="M1118 786l-790 -1355q-21 -27 -52 -19l-147 58q-12 5 -15.5 18t5.5 27l280 485l-241 786q-2 12 5 22.5t19 10.5h191q39 0 45 -33l151 -497l289 497q17 33 53 33h191q12 0 17.5 -10.5t-1.5 -22.5zM614 1171q-7 -60 -54 -101.5t-107 -41.5t-96.5 41.5t-28.5 101.5 q9 60 56.5 102t107.5 42t95.5 -42t26.5 -102zM1053 1171q-7 -60 -54.5 -101.5t-107.5 -41.5t-96.5 41.5t-28.5 101.5q9 60 56.5 102t107.5 42t96 -42t27 -102z" />
<glyph unicode="&#x152;" horiz-adv-x="2406" d="M2363 1188h-673l-50 -348h537q13 0 23 -10.5t8 -24.5l-27 -176q-1 -13 -13 -24t-26 -11h-536l-50 -348h674q13 0 23 -10.5t8 -24.5l-25 -176q-2 -14 -13.5 -24.5t-24.5 -10.5h-893q-13 0 -23 10.5t-8 24.5l18 135q-91 -92 -225 -145.5t-274 -53.5q-156 0 -281 48 t-210 139.5t-120.5 235t-9.5 323.5q25 180 99.5 323t185 234.5t248.5 139.5t294 48q140 0 260.5 -53.5t186.5 -146.5l18 137q1 13 13 24t26 11h893q13 0 23 -10.5t8 -24.5l-25 -176q-1 -13 -13 -24t-26 -11zM825 217q54 0 108 10t112 32t110 61.5t96 92.5t76 131.5t45 172.5 q15 113 -2.5 202t-57.5 143.5t-99 90.5t-119.5 50t-126.5 14t-130.5 -14t-133 -50t-123.5 -90.5t-97 -143.5t-57 -202q-16 -113 1 -202t56 -143.5t97.5 -90.5t118.5 -50t126 -14z" />
<glyph unicode="&#x153;" horiz-adv-x="1691" d="M1616 410l-2 -2q0 -17 -11.5 -26t-29.5 -9h-586q-1 -51 13 -87.5t39.5 -54.5t53.5 -26t62 -8q91 0 150 39q27 21 55 6l115 -76q12 -8 14 -22t-8 -25q-150 -144 -355 -144q-94 0 -173.5 37t-123.5 103q-63 -66 -149.5 -103t-179.5 -37q-189 0 -294 113.5t-77 321.5 q19 139 90 239t173.5 147.5t225.5 47.5q95 0 173.5 -37.5t119.5 -104.5q66 68 153 105t181 37q189 0 294 -113t77 -321zM528 203q35 0 69 10.5t67 33t57.5 65t32.5 98.5t-3.5 98t-38 64.5t-57 33t-65.5 10.5t-69 -10.5t-67 -33t-57 -64.5t-32 -98t3.5 -98.5t37.5 -65 t56.5 -33t65.5 -10.5zM1020 504h358q-14 58 -59.5 85t-101.5 27q-58 0 -112 -27t-85 -85z" />
<glyph unicode="&#x178;" horiz-adv-x="1536" d="M872 1786q-8 -60 -54.5 -102t-106.5 -42t-96.5 42t-28.5 102q7 60 54.5 101.5t107.5 41.5t96 -41.5t28 -101.5zM1311 1786q-7 -60 -54.5 -102t-107.5 -42t-96.5 42t-28.5 102q7 60 54.5 101.5t107.5 41.5t96.5 -41.5t28.5 -101.5zM1563 1405l-658 -827l-74 -543 q-3 -14 -14 -24.5t-24 -10.5h-185q-14 0 -23.5 11t-6.5 24l73 543l-424 827q-4 10 3 19.5t18 9.5h233q33 0 49 -29l285 -563l445 563q19 29 57 29h233q11 0 15.5 -9t-2.5 -20z" />
<glyph unicode="&#x2c6;" horiz-adv-x="671" d="M106 1186l308 205q32 22 57 0l250 -205q24 -21 2 -49l-72 -82q-26 -26 -53 -11l-186 125l-222 -125q-31 -18 -47 11l-51 82q-18 24 14 49z" />
<glyph unicode="&#x2dc;" horiz-adv-x="620" d="M594 1294h90q13 0 22 -10t9 -24q-20 -105 -84.5 -166t-157.5 -66q-41 2 -71.5 17t-45 32t-32.5 31t-37 14q-37 0 -60 -57q-3 -14 -14.5 -24.5t-24.5 -10.5h-92q-13 0 -22.5 10.5t-7.5 24.5q20 108 82.5 167t156.5 64q34 -2 59 -12.5t39 -24t25 -27t25 -23t32 -9.5 q44 0 70 60q1 13 13 23.5t26 10.5z" />
<glyph unicode="&#x2000;" horiz-adv-x="1031" />
<glyph unicode="&#x2001;" horiz-adv-x="2062" />
<glyph unicode="&#x2002;" horiz-adv-x="1031" />
<glyph unicode="&#x2003;" horiz-adv-x="2062" />
<glyph unicode="&#x2004;" horiz-adv-x="687" />
<glyph unicode="&#x2005;" horiz-adv-x="515" />
<glyph unicode="&#x2006;" horiz-adv-x="343" />
<glyph unicode="&#x2007;" horiz-adv-x="343" />
<glyph unicode="&#x2008;" horiz-adv-x="257" />
<glyph unicode="&#x2009;" horiz-adv-x="412" />
<glyph unicode="&#x200a;" horiz-adv-x="114" />
<glyph unicode="&#x2010;" horiz-adv-x="956" d="M791 317h-601q-13 0 -21 10.5t-5 24.5l12 113q3 13 16 24t27 11h600q13 0 21.5 -10.5t5.5 -24.5l-12 -113q-3 -13 -16 -24t-27 -11z" />
<glyph unicode="&#x2011;" horiz-adv-x="956" d="M791 317h-601q-13 0 -21 10.5t-5 24.5l12 113q3 13 16 24t27 11h600q13 0 21.5 -10.5t5.5 -24.5l-12 -113q-3 -13 -16 -24t-27 -11z" />
<glyph unicode="&#x2012;" horiz-adv-x="956" d="M791 317h-601q-13 0 -21 10.5t-5 24.5l12 113q3 13 16 24t27 11h600q13 0 21.5 -10.5t5.5 -24.5l-12 -113q-3 -13 -16 -24t-27 -11z" />
<glyph unicode="&#x2013;" d="M899 317h-709q-13 0 -21 10.5t-5 24.5l12 113q3 13 16 24t27 11h709q13 0 21 -10.5t5 -24.5l-12 -113q-3 -13 -16 -24t-27 -11z" />
<glyph unicode="&#x2014;" horiz-adv-x="1241" d="M1075 317h-885q-13 0 -21 10.5t-5 24.5l12 113q3 13 16 24t27 11h885q13 0 21 -10.5t5 -24.5l-12 -113q-3 -13 -16 -24t-27 -11z" />
<glyph unicode="&#x2018;" horiz-adv-x="471" d="M221 1102l117 297q12 35 47 35h66q13 0 22.5 -10.5t7.5 -24.5l-67 -469q0 -13 -12.5 -24t-26.5 -11h-156q-13 0 -22 10.5t-9 24.5l17 104q7 47 16 68z" />
<glyph unicode="&#x2019;" horiz-adv-x="471" d="M408 1225l-117 -297q-11 -33 -47 -33h-66q-13 0 -22 10.5t-9 24.5l68 469q1 13 13 24t26 11h156q13 0 22.5 -10.5t7.5 -24.5l-14 -105q-6 -38 -18 -69z" />
<glyph unicode="&#x201a;" horiz-adv-x="563" d="M438 154l-147 -416q-9 -35 -47 -35h-107q-13 0 -20 10.5t-4 24.5l96 416q6 34 43 34h162q13 0 19.5 -10t4.5 -24z" />
<glyph unicode="&#x201c;" horiz-adv-x="841" d="M221 1102l117 297q12 35 47 35h66q13 0 22.5 -10.5t7.5 -24.5l-67 -469q0 -13 -12.5 -24t-26.5 -11h-156q-13 0 -22 10.5t-9 24.5l17 104q7 47 16 68zM592 1102l117 297q12 35 47 35h65q13 0 23 -10.5t8 -24.5l-68 -469q0 -13 -12.5 -24t-26.5 -11h-155q-13 0 -22 10.5 t-9 24.5l16 104q7 42 17 68z" />
<glyph unicode="&#x201d;" horiz-adv-x="841" d="M778 1225l-116 -297q-11 -33 -48 -33h-65q-13 0 -22 10.5t-9 24.5l68 469q1 13 13 24t26 11h155q13 0 23 -10.5t8 -24.5l-14 -105q-5 -34 -19 -69zM408 1225l-117 -297q-11 -33 -47 -33h-66q-13 0 -22 10.5t-9 24.5l68 469q1 13 13 24t26 11h156q13 0 22.5 -10.5 t7.5 -24.5l-14 -105q-6 -38 -18 -69z" />
<glyph unicode="&#x201e;" horiz-adv-x="946" d="M438 154l-147 -416q-9 -35 -47 -35h-107q-13 0 -20 10.5t-4 24.5l96 416q6 34 43 34h162q13 0 19.5 -10t4.5 -24zM821 154l-147 -416q-9 -35 -47 -35h-107q-13 0 -20 10.5t-4 24.5l96 416q6 34 43 34h162q13 0 19.5 -10t4.5 -24z" />
<glyph unicode="&#x2022;" horiz-adv-x="663" d="M170 410q10 79 72.5 133.5t142.5 54.5q79 0 126 -54t36 -134q-10 -79 -72.5 -134t-142.5 -55q-79 0 -126 54.5t-36 134.5z" />
<glyph unicode="&#x2026;" horiz-adv-x="1726" d="M152 125q6 60 54.5 102.5t108.5 42.5t96.5 -42.5t30.5 -102.5q-9 -60 -57.5 -102.5t-108.5 -42.5t-96.5 42.5t-27.5 102.5zM729 125q6 60 55 102.5t109 42.5t96.5 -42.5t30.5 -102.5q-9 -60 -57.5 -102.5t-108.5 -42.5t-97 42.5t-28 102.5zM1300 125q6 60 55 102.5 t109 42.5t96.5 -42.5t30.5 -102.5q-9 -60 -57.5 -102.5t-108.5 -42.5t-97 42.5t-28 102.5z" />
<glyph unicode="&#x202f;" horiz-adv-x="412" />
<glyph unicode="&#x2039;" horiz-adv-x="841" d="M762 694l-287 -280l209 -281q9 -10 6 -25.5t-16 -25.5l-101 -88q-25 -24 -49 0l-352 395q-22 23 4 49l467 396q28 24 49 0l76 -89q8 -10 7.5 -25.5t-13.5 -25.5z" />
<glyph unicode="&#x203a;" horiz-adv-x="841" d="M424 414l-213 280q-8 10 -5.5 25.5t15.5 25.5l101 89q28 24 49 0l352 -396q19 -22 -4 -49l-467 -395q-24 -24 -49 0l-76 88q-8 10 -6.5 25.5t12.5 25.5z" />
<glyph unicode="&#x205f;" horiz-adv-x="515" />
<glyph unicode="&#x20ac;" horiz-adv-x="1343" d="M100 799l19 125q1 13 13 23.5t26 10.5h159q53 174 144.5 289t201.5 165t240 50q167 0 279.5 -87t150.5 -267q6 -35 -28 -43l-172 -45q-32 -6 -41 24q-47 181 -222 181q-205 0 -305 -267h254q14 0 23 -10.5t8 -23.5l-19 -125q-2 -14 -13.5 -24.5t-24.5 -10.5h-275l-6 -47 l-8 -53h274q14 0 23 -11t6 -24l-16 -125q-1 -13 -13 -24t-26 -11h-252q22 -260 229 -260q166 0 262 162q18 30 47 20l152 -57q13 -4 17.5 -18t-3.5 -27q-89 -162 -219.5 -240t-288.5 -78q-199 0 -317.5 121.5t-128.5 376.5h-160q-13 0 -23 10.5t-8 24.5l17 125 q3 14 15.5 24.5t25.5 10.5h141l8 53l6 47h-141q-13 0 -23 10.5t-8 24.5z" />
<glyph unicode="&#x2122;" horiz-adv-x="1566" d="M1487 1434h84q14 0 24 -11t7 -24l-86 -629q-3 -14 -14.5 -24.5t-24.5 -10.5h-105q-14 0 -24 11t-7 24l50 348l-174 -194q-10 -13 -27 -13t-27 13l-116 194l-50 -348q-3 -14 -14.5 -24.5t-24.5 -10.5h-104q-14 0 -24 11t-7 24l86 629q3 14 14.5 24.5t24.5 10.5h84 q38 0 51 -29l140 -234l204 234q26 29 60 29zM238 1434h469q14 0 23.5 -11t6.5 -24l-12 -103q-3 -14 -14.5 -24t-24.5 -10h-145l-70 -492q-3 -14 -14.5 -24.5t-24.5 -10.5h-106q-14 0 -24 11t-7 24l70 492h-148q-14 0 -24 10.5t-7 23.5l13 103q3 14 14.5 24.5t24.5 10.5z" />
<glyph unicode="&#x25fc;" horiz-adv-x="819" d="M0 819h819v-819h-819v819z" />
</font>
</defs>
</svg>
